<svg width="18" height="12" viewBox="0 0 18 12" fill="none" xmlns="http://www.w3.org/2000/svg">
<path d="M18 5.99996C18 5.99995 18 5.99998 18 5.99996C18 5.55679 17.8052 5.16195 17.6416 4.8906C17.4615 4.59179 17.223 4.28923 16.9682 4.00078C16.4564 3.4216 15.7931 2.80434 15.1556 2.25084C14.5132 1.69303 13.8736 1.18002 13.3965 0.80767C13.1597 0.62291 12.7411 0.306722 12.5967 0.19767L12.593 0.194867C12.1483 -0.132641 11.5223 -0.0376385 11.1948 0.40706C10.8673 0.851733 10.9623 1.47768 11.4069 1.80521C11.5401 1.90576 11.9364 2.20515 12.166 2.38437C12.6264 2.74365 13.2369 3.23357 13.8444 3.76105C14.323 4.17654 14.7858 4.60337 15.1684 5L1 5C0.447716 5 5.48678e-07 5.44772 5.24537e-07 6C5.00395e-07 6.55229 0.447716 7 1 7L15.1684 7C14.7858 7.39663 14.323 7.82346 13.8444 8.23895C13.2369 8.76643 12.6264 9.25635 12.166 9.61563C11.9364 9.79485 11.5401 10.0942 11.4069 10.1948C10.9623 10.5223 10.8673 11.1483 11.1948 11.5929C11.5223 12.0376 12.1483 12.1326 12.593 11.8051L12.597 11.8021C12.7414 11.6931 13.1597 11.3771 13.3965 11.1923C13.8736 10.82 14.5132 10.307 15.1556 9.74916C15.7931 9.19566 16.4564 8.5784 16.9682 7.99922C17.223 7.71077 17.4615 7.40821 17.6416 7.1094C17.8052 6.83805 18 6.44312 18 5.99996Z" fill="#346E3C"/>
</svg>
