<svg width="70" height="52" viewBox="0 0 70 52" fill="none" xmlns="http://www.w3.org/2000/svg">
<path d="M0.688898 42.289C0.188898 42.089 -0.0111145 42.789 0.488886 42.989C0.988886 43.189 1.1889 42.489 0.688898 42.289C0.188898 42.089 -0.0111145 42.789 0.488886 42.989C0.988886 43.189 1.1889 42.489 0.688898 42.289Z" fill="#346E3C" fill-opacity="0.55"/>
<path d="M19.4889 50.5891C23.1889 50.3891 26.8889 50.0891 30.4889 49.6891C34.3889 49.1891 38.1889 48.5891 41.9889 47.5891C45.6889 46.6891 49.2889 45.4891 52.7889 43.8891C55.9889 42.3891 59.0889 40.5891 61.6889 38.1891C64.1889 35.9891 66.1889 33.1891 67.3889 30.1891C68.7889 26.7891 69.0889 22.9891 68.7889 19.2891C68.2889 14.3891 66.6889 9.68909 64.5889 5.18909C63.9889 3.88909 63.3889 2.58906 62.6889 1.28906C62.6889 1.08906 62.4889 0.989062 62.3889 0.789063C62.2889 0.589063 62.1889 0.389063 62.0889 0.289063C62.6889 1.88906 62.9889 3.58909 63.1889 5.18909C63.6889 8.98909 63.4889 12.9891 62.4889 16.6891C60.9889 21.8891 57.8889 26.3891 53.7889 29.8891C47.2889 35.2891 38.9889 38.1891 30.8889 39.8891C24.7889 41.1891 18.4889 41.8891 12.2889 42.1891C10.4889 42.1891 8.58888 42.3891 6.78888 42.3891C5.88888 42.3891 4.9889 42.3891 3.9889 42.3891L1.68891 42.3891C1.48891 42.3891 0.988884 42.2891 0.788887 42.3891C0.788887 42.3891 0.78891 42.3891 0.688911 42.3891C0.688911 42.3891 0.688911 42.6891 0.688911 42.7891V47.3891C0.688911 47.9891 0.688911 50.1891 0.688911 50.1891C1.48891 50.1891 2.78893 50.3891 3.58894 50.3891C5.78894 50.4891 7.88893 50.5891 10.0889 50.5891C13.1889 50.5891 16.3889 50.5891 19.4889 50.4891V50.5891ZM62.0889 0.789063C62.0889 0.789063 62.0889 0.589075 61.9889 0.489075C61.9889 0.489075 61.9889 0.689063 62.0889 0.789063ZM1.08894 45.1891V43.9891C1.08894 43.5891 0.988922 43.5891 1.38892 43.4891C1.88892 43.4891 2.4889 43.4891 2.9889 43.4891L4.4889 43.4891C5.4889 43.4891 6.4889 43.4891 7.4889 43.4891C14.1889 43.3891 20.7889 42.8891 27.3889 41.7891C36.0889 40.2891 45.0889 37.7891 52.3889 32.4891C56.8889 29.1891 60.5889 24.7891 62.4889 19.4891C63.7889 15.6891 64.2889 11.5891 63.8889 7.48907C63.6889 5.58907 63.3889 3.58906 62.6889 1.78906C64.8889 6.08906 66.6889 10.6891 67.6889 15.3891C68.3889 19.1891 68.4889 23.1891 67.4889 26.8891C66.5889 30.0891 64.8889 33.0891 62.6889 35.4891C60.3889 37.9891 57.4889 39.9891 54.4889 41.5891C51.1889 43.3891 47.6889 44.6891 44.0889 45.6891C40.2889 46.7891 36.4889 47.5891 32.6889 48.0891C28.9889 48.6891 25.1889 48.9891 21.4889 49.1891C18.1889 49.3891 14.8889 49.4891 11.5889 49.4891C8.28893 49.4891 6.68889 49.4891 4.28889 49.2891C3.28889 49.2891 2.18891 49.0891 1.18891 49.0891V44.8891L1.08894 45.1891Z" fill="#346E3C" fill-opacity="0.55"/>
<path d="M19.4889 50.9889C31.2889 50.4889 43.8889 48.9889 54.5889 43.4889C59.2889 41.0889 63.5889 37.7889 66.2889 33.1889C68.9889 28.5889 69.6889 22.7889 68.7889 17.3889C67.7889 11.1889 65.0889 5.78889 62.2889 0.188892C62.0889 -0.211108 61.4889 0.0888799 61.5889 0.48888C63.8889 6.98888 63.3889 14.8889 60.2889 21.0889C57.3889 26.7889 52.3889 31.0889 46.7889 34.0889C41.1889 37.0889 34.5889 38.8889 28.1889 40.0889C21.0889 41.3889 13.7889 41.9889 6.58892 42.0889C4.78892 42.0889 3.08887 42.1889 1.28886 42.0889C0.588867 42.0889 0.188911 42.0889 0.088913 42.7889C-0.111084 44.3889 0.088913 46.2889 0.088913 47.8889C0.088913 48.6889 -0.111115 49.7889 0.188889 50.4889C0.188889 50.5889 0.388878 50.6889 0.488876 50.6889C6.78888 51.1889 13.0889 51.1889 19.2889 50.9889C19.7889 50.9889 19.7889 50.1889 19.2889 50.1889C14.9889 50.3889 10.6889 50.3889 6.3889 50.1889C5.3889 50.1889 4.3889 50.1889 3.3889 50.0889C2.6889 50.0889 1.58887 50.1889 0.988876 49.8889C0.688873 49.7889 0.888863 49.8889 0.788864 49.4889C0.788864 49.1889 0.788864 48.8889 0.788864 48.6889V43.7889C0.788864 43.5889 0.788864 42.6889 0.788864 42.7889C0.788864 42.7889 1.28891 42.7889 1.58891 42.7889C3.48891 42.7889 5.4889 42.7889 7.3889 42.7889C11.5889 42.6889 15.8889 42.4889 20.0889 41.9889C34.0889 40.4889 50.8889 36.7889 59.2889 24.2889C63.9889 17.3889 65.1889 8.08889 62.3889 0.188892L61.6889 0.48888C63.9889 5.18888 66.3889 9.68887 67.5889 14.7889C68.8889 20.3889 68.8889 26.3889 66.2889 31.5889C61.2889 41.3889 49.4889 45.5889 39.3889 47.6889C32.8889 49.0889 26.1889 49.7889 19.5889 50.0889C19.0889 50.0889 19.0889 50.8889 19.5889 50.8889L19.4889 50.9889Z" fill="#346E3C" fill-opacity="0.55"/>
<path d="M62.4889 0.58897C62.4889 0.58897 62.4889 0.388957 62.3889 0.388957L61.6889 0.688976C61.6889 0.688976 61.6889 0.888963 61.7889 0.988963C61.7889 0.988963 61.7889 0.98897 61.7889 1.08897C61.7889 1.18897 61.7889 1.08897 61.8889 1.08897C61.8889 1.08897 61.8889 1.08897 62.0889 1.08897C62.0889 1.08897 62.0889 1.08897 62.1889 1.08897C62.1889 1.08897 62.3889 0.988957 62.3889 0.888957V0.788951C62.3889 0.788951 62.3889 0.68897 62.3889 0.58897C62.3889 0.58897 62.3889 0.388951 62.2889 0.288951C62.2889 0.288951 62.2889 0.288976 62.2889 0.188976C62.2889 0.0889757 62.2889 0.188976 62.1889 0.188976C62.0889 0.188976 61.9889 0.188976 61.9889 0.188976C61.9889 0.188976 61.9889 0.188951 61.9889 0.288951C61.9889 0.288951 61.9889 0.388963 61.9889 0.488963C61.9889 0.488963 61.9889 0.588976 61.9889 0.688976C61.9889 0.688976 61.9889 0.688951 61.9889 0.788951C61.9889 0.788951 61.9889 0.788957 61.9889 0.888957C61.9889 0.988957 61.9889 0.888957 62.0889 0.888957C62.0889 0.888957 62.0889 0.888957 62.2889 0.888957C62.2889 0.888957 62.2889 0.888957 62.3889 0.888957C62.3889 0.888957 62.5889 0.788976 62.5889 0.688976V0.58897C62.5889 0.58897 62.5889 0.488957 62.5889 0.388957L62.4889 0.58897Z" fill="#346E3C" fill-opacity="0.55"/>
<path d="M1.48897 45.1889C1.48897 44.9889 1.38897 44.1889 1.48897 43.9889C1.68896 43.5889 1.08896 43.9889 1.78896 43.8889C2.38895 43.7889 3.08896 43.8889 3.78896 43.8889C5.48896 43.8889 7.28897 43.8889 8.98897 43.8889C12.189 43.8889 15.489 43.5889 18.789 43.2889C24.789 42.6889 30.889 41.7889 36.789 40.1889C47.189 37.2889 57.889 31.5889 62.389 21.1889C64.889 15.2889 65.389 7.78887 63.189 1.78887L62.489 2.08889C65.389 7.78889 67.789 14.0889 67.889 20.5889C67.989 27.0889 65.389 32.9889 60.589 37.1889C55.789 41.3889 49.589 43.9889 43.489 45.6889C36.889 47.4889 30.089 48.4889 23.389 48.9889C19.589 49.2889 15.889 49.3889 12.089 49.3889C8.28901 49.3889 4.88898 49.0889 1.18898 48.9889L1.589 49.3889V45.2889C1.589 44.7889 0.788956 44.7889 0.788956 45.2889V49.3889C0.788956 49.5889 0.988983 49.7889 1.18898 49.7889C4.68898 49.7889 8.08901 50.1889 11.589 50.1889C15.089 50.1889 18.789 50.0889 22.389 49.7889C29.389 49.2889 36.489 48.3889 43.189 46.4889C49.289 44.7889 55.489 42.3889 60.389 38.2889C65.089 34.3889 67.989 28.9889 68.489 22.8889C69.089 15.4889 66.289 8.18889 62.989 1.68889C62.789 1.28889 62.189 1.58888 62.289 1.98888C64.389 7.78888 63.989 14.8889 61.689 20.5889C59.489 25.8889 55.489 30.0889 50.789 33.2889C40.789 39.8889 28.089 41.9889 16.289 42.8889C12.689 43.1889 9.08897 43.2889 5.48897 43.2889C4.68897 43.2889 3.78897 43.2889 2.98897 43.2889C2.48897 43.2889 1.78896 43.0889 1.28896 43.2889C0.388954 43.5889 0.788956 44.4889 0.788956 45.2889C0.788956 46.0889 1.589 45.7889 1.589 45.2889L1.48897 45.1889Z" fill="#346E3C" fill-opacity="0.55"/>
</svg>
