<svg width="100" height="86" viewBox="0 0 100 86" fill="none" xmlns="http://www.w3.org/2000/svg">
<path d="M11.0945 3.73432C24.7847 9.02196 38.3194 15.3986 50.327 23.9815C58.4028 29.6799 65.814 36.4956 71.4152 44.6691C75.3615 50.2831 78.3179 56.4629 79.6763 63.2227C80.5677 67.5925 80.8228 72.1745 80.3849 76.6576C80.187 78.0436 79.9892 79.4295 79.7065 80.7024C79.6217 81.2963 79.2258 81.9469 79.141 82.5409C79.1269 82.6399 79.6927 83.6298 79.5937 83.6157C80.0462 83.2762 80.4987 82.9367 80.9512 82.5973C82.0825 81.7486 83.1289 80.7868 84.0905 79.7119C85.5045 78.2976 86.7347 76.7559 87.88 75.1012C89.1668 73.1636 90.2696 71.0987 91.0896 68.8924C91.952 66.3892 92.4184 63.8294 92.5029 61.1141C92.5309 58.0877 91.9649 54.9765 90.9605 52.1057C89.6731 48.3865 87.8343 44.9926 85.5712 41.7401C82.6291 37.5827 79.0083 33.9344 75.1472 30.5548C69.9423 25.9734 64.1436 22.0142 58.1894 18.4369C50.2975 13.5729 42.0098 9.35946 33.5665 5.52788C31.2047 4.38263 28.7297 3.32226 26.3537 2.276C26.6507 2.3184 26.5094 3.30837 26.8064 3.35076C35.7446 7.253 44.4425 11.424 52.9565 16.1748C59.4058 19.8227 65.6146 23.7394 71.4275 28.3067C75.7978 31.6579 79.8146 35.3627 83.4637 39.52C86.1511 42.631 88.4849 46.0956 90.0692 49.8572C90.0692 49.8572 90.14 50.0693 90.2249 50.1825C90.2956 50.3946 90.3663 50.6067 90.437 50.8188C90.5785 51.2431 90.72 51.6673 90.8756 51.9926C91.0737 52.7279 91.3566 53.5765 91.4557 54.2977C91.7528 55.7543 91.951 57.1968 92.0501 58.6251C92.1777 61.2697 91.8103 63.8436 90.9479 66.3468C90.2269 68.5672 89.3079 70.7594 88.0212 72.697C86.9607 74.4649 85.7306 76.0065 84.4014 77.534C83.3267 78.6938 82.2661 79.7546 81.1207 80.7022C80.5551 81.1265 79.8763 81.6357 79.3107 82.0601L79.7633 83.1348C79.834 82.6398 80.0885 82.2721 80.1592 81.7771C80.5409 80.5184 80.7104 79.3305 80.8941 78.0435C81.1626 76.1626 81.2473 74.1544 81.2188 72.2311C81.1761 69.6996 80.9212 67.2389 80.4684 64.7499C79.8883 61.7377 79.0818 58.8953 78.0774 56.0245C76.7477 52.6023 75.2907 49.3639 73.4094 46.267C71.217 42.5195 68.572 39.1116 65.7008 35.8733C62.2214 31.9422 58.2754 28.4495 54.1879 25.2397C49.1953 21.2946 43.7361 17.788 38.2344 14.5783C31.4175 10.6759 24.3178 7.33911 17.0625 4.38421C15.0543 3.59247 12.9611 2.68761 10.9387 1.99486C11.2357 2.03726 11.0944 3.02722 11.3914 3.06961L11.0945 3.73432Z" fill="#346E3C" fill-opacity="0.55"/>
<path d="M10.9389 4.1164C25.4918 9.72921 39.7761 16.5158 52.2646 25.9755C63.848 34.7 74.4417 46.1115 78.4738 60.3239C79.6622 64.7361 80.3133 69.3747 80.0734 73.886C79.9463 76.1912 79.7203 78.4822 79.0983 80.7168C79.0135 81.3108 78.4904 82.1452 78.5046 82.7533C78.4481 83.1493 78.9007 83.517 78.9432 83.9271C78.9008 84.2241 79.2967 84.2806 79.5088 84.2098C85.5753 79.9241 90.4819 73.1495 91.9236 65.8803C93.3653 58.611 91.1725 51.3281 87.4241 45.0352C83.5201 38.4172 77.7495 32.8458 71.6679 28.0381C65.5862 23.2305 58.6419 18.8048 51.627 14.874C43.2968 10.2505 34.7828 6.20677 26.0425 2.33279C25.7455 2.2904 25.293 2.62986 25.5617 2.87025C26.0002 3.33689 25.7315 3.80363 26.3821 4.19953C27.5984 4.87822 29.041 5.38716 30.3704 5.98098C32.9302 7.1545 35.4901 8.32802 38.0359 9.60053C43.0424 12.0324 48.0349 14.5633 52.9001 17.2781C62.3335 22.6652 71.668 28.7453 79.249 36.4943C83.3931 40.7224 86.9716 45.3747 89.3339 50.7626C89.5744 51.201 90.2249 50.8898 90.0834 50.4655C90.0834 50.4655 90.0834 50.4655 90.0976 50.3665C89.8571 49.9281 89.2066 50.2394 89.3481 50.6636C91.5407 56.5324 91.7253 63.0236 89.3783 68.8504C87.201 74.1964 83.2701 79.09 78.5611 82.3573C78.448 82.4422 78.4197 82.6402 78.4904 82.8523L78.9432 83.9271C79.0988 84.2523 79.5088 84.2098 79.6361 84.026C82.0395 77.0961 81.4871 68.9361 79.6619 61.9077C77.8368 54.8793 74.3854 47.9217 70.0714 42.0532C61.0191 29.7505 48.276 20.6586 34.9674 13.4051C27.0898 9.1492 18.9152 5.55801 10.5852 2.34866C10.2882 2.30627 9.83563 2.64573 10.1044 2.88612C10.3731 3.12651 10.2883 3.72049 10.5571 3.96088C10.9107 4.31439 11.4763 3.89007 11.1227 3.53655C10.854 3.29616 10.9387 2.70218 10.67 2.46179L10.1893 2.99926C24.3603 8.45655 38.1779 14.9745 50.426 23.9958C62.3205 32.6637 72.5464 43.8207 77.5119 57.8633C80.4119 65.8533 81.6575 75.5263 78.8724 83.7149L79.5654 83.8139L79.1269 82.6401L79.0562 83.1351C83.8924 79.6839 88.0779 74.4225 90.2835 68.8786C92.5455 62.9386 92.361 56.4474 90.1824 50.4797L89.4329 50.7767C89.4329 50.7767 89.4329 50.7767 89.4188 50.8757L90.1683 50.5787C85.9529 41.1888 78.4143 33.8498 70.2961 27.7413C61.4565 21.0248 51.8392 15.5104 41.9251 10.6608C38.9975 9.23272 36.0699 7.80469 33.1281 6.47566C31.6997 5.8677 30.2855 5.16077 28.956 4.56695C28.2913 4.27004 27.2165 4.01558 26.6931 3.43581C26.4385 3.09642 26.4809 2.79944 26.1273 2.44593L25.6466 2.98339C40.1006 9.28918 54.5405 16.4011 67.3543 25.7052C73.3935 30.1027 79.2347 35.1791 83.8316 41.189C88.4284 47.1989 91.7526 54.3403 91.4989 61.7791C91.1746 70.42 85.858 78.6513 78.8865 83.6159L79.4523 83.8987C79.5088 83.5027 79.1411 83.2482 79.0845 82.9371C78.9571 82.4139 79.4944 81.4804 79.565 80.9854C80.0456 79.0338 80.3283 77.0538 80.4129 75.0456C80.6812 71.0434 80.3413 67.0553 79.4924 63.0956C77.9784 56.0106 74.6825 49.3783 70.4675 43.5239C61.5283 31.1364 48.7852 22.0444 35.4767 14.791C27.5142 10.4219 19.2406 6.81663 10.7126 3.57903C10.2317 3.40937 9.93479 4.07407 10.4156 4.24372L10.9389 4.1164Z" fill="#346E3C" fill-opacity="0.55"/>
</svg>
