<svg width="124" height="70" viewBox="0 0 124 70" fill="none" xmlns="http://www.w3.org/2000/svg">
<path d="M6.28858 10.2672C20.921 10.7784 35.488 12.7914 49.5041 17.0576C60.4055 20.3758 70.9542 25.0635 80.5429 31.1541C87.9665 35.8987 94.9045 41.3945 101.048 47.7079C105.291 52.1008 109.203 56.7589 112.463 61.848C113.933 64.0228 115.359 66.595 116.42 68.8252C116.409 68.9246 116.431 68.7258 116.343 68.6154C116.332 68.7148 116.52 68.8362 116.498 69.035C116.088 67.2793 115.369 65.5901 114.651 63.9009C112.738 59.3632 110.593 55.1017 107.93 50.984C104.072 44.9234 99.5526 39.3932 94.3707 34.3934C87.5535 27.8043 79.8313 22.1212 71.4803 17.5759C60.7652 11.6625 49.256 7.4723 37.4052 4.55222C35.7375 4.1666 34.0697 3.78098 32.3026 3.38437C32.5014 3.40635 32.5903 4.42227 32.789 4.44425C44.8827 6.98874 56.723 10.9138 67.6808 16.4515C76.2526 20.82 84.317 26.1385 91.5647 32.4734C97.0558 37.4068 101.984 42.8815 106.25 48.8867C109.112 53.0263 111.831 57.5526 113.844 62.1013C114.651 63.9009 115.325 65.9877 116.022 67.8757L116.177 68.2953C115.292 66.2859 114.198 64.3539 112.993 62.5104C110.009 57.653 106.473 53.2376 102.716 48.999C96.9703 42.7296 90.5402 37.1894 83.5252 32.3894C74.3561 26.1439 64.2379 21.202 53.6787 17.5192C40.1042 12.8994 25.9013 10.3229 11.6109 9.44713C9.61207 9.32673 7.6132 9.20632 5.60333 9.18531C5.80212 9.20729 5.88006 10.3226 6.08984 10.2452L6.28858 10.2672Z" fill="#346E3C" fill-opacity="0.55"/>
<path d="M6.25563 10.5655C23.8035 11.0972 41.3858 14.0473 57.9096 20.2006C73.5609 26.0561 87.966 34.9933 99.8327 46.8694C102.993 50.1365 106.043 53.4919 108.761 57.1126C111.48 60.7333 113.845 64.818 116.111 68.8918C116.365 69.3223 117.006 68.9906 116.751 68.5601C116.751 68.5601 116.762 68.4607 116.674 68.3503L116.034 68.682C116.023 68.7814 116.21 68.9027 116.188 69.1015C116.343 69.5211 116.973 69.2888 116.917 68.8803C115.999 65.358 114.462 61.9686 112.815 58.6675C111.168 55.3665 109.476 52.4631 107.586 49.5377C103.619 43.5654 98.9997 38.0243 93.7074 33.1129C83.1448 23.0914 70.3969 15.5447 56.811 10.1187C48.9024 7.03088 40.7181 4.61682 32.4569 2.89851C32.0594 2.85456 31.905 3.34055 32.1812 3.57231C32.358 3.79307 32.3031 4.29004 32.4799 4.51081C32.7451 4.84196 33.3524 4.80852 33.739 4.95188C35.8043 5.38145 37.7593 5.89942 39.8136 6.42839C43.4362 7.33199 47.0369 8.43437 50.6265 9.63615C57.7065 12.0287 64.7205 15.0177 71.26 18.6584C84.0628 25.7081 95.6963 35.1438 104.449 46.9773C106.991 50.3773 109.301 54.0534 111.301 57.796C112.219 59.5072 113.125 61.3177 113.833 63.1064C114.541 64.895 115.028 66.8604 115.835 68.66C115.99 69.0795 116.729 68.7589 116.475 68.3283C112.993 60.6994 107.522 53.7562 101.755 47.6855C95.9869 41.6149 89.7226 36.3948 82.8954 31.7162C68.6667 22.0942 52.3526 15.8636 35.5321 12.394C25.6915 10.4005 15.6527 9.29047 5.62533 8.98664C5.22775 8.94268 5.07339 9.42867 5.3496 9.66043C5.62581 9.89219 5.4605 10.4776 5.8361 10.7203C6.20071 11.0625 6.67518 10.4106 6.29958 10.1679C6.02338 9.93614 6.08935 9.33978 5.81314 9.10802L5.53741 9.78181C23.0853 10.3135 40.5792 13.1533 56.9926 19.3949C72.5445 25.2394 87.06 34.0883 98.8383 45.8539C105.457 52.4211 111.844 60.1699 115.724 68.7484L116.365 68.4168C115.624 66.9263 115.303 65.2811 114.673 63.7022C113.965 61.9136 113.158 60.114 112.24 58.4028C110.582 55.2012 108.626 51.9666 106.537 49.0192C102.371 43.025 97.4424 37.5502 92.0507 32.6279C81.0685 22.7612 67.9011 15.3693 54.0724 10.319C50.1071 8.87444 46.1199 7.6287 42.0222 6.47137C40.0673 5.95339 38.013 5.42442 36.0581 4.90644C35.5611 4.85149 35.1745 4.70816 34.6886 4.55382C34.2026 4.39947 33.2971 4.39994 32.9324 4.0578C32.7666 3.73764 32.7996 3.43946 32.5344 3.10831L32.2586 3.7821C60.3667 9.80764 87.7389 23.3981 104.824 47.2201C107.178 50.4986 109.312 53.954 111.125 57.5752C112.938 61.1964 114.905 65.2371 115.968 69.2783L116.696 69.0571C116.707 68.9577 116.63 68.7479 116.542 68.6375C116.287 68.207 115.647 68.5386 115.901 68.9691C115.901 68.9691 115.89 69.0685 115.979 69.1789L116.619 68.8473C114.685 65.4139 112.85 61.9915 110.485 58.8123C107.954 55.313 105.291 52.1009 102.319 48.9552C96.7386 43.0059 90.4853 37.6865 83.7465 33.1182C69.5177 23.4962 53.314 17.1772 36.6038 13.6192C26.5755 11.5043 16.338 10.3723 6.11183 10.0465C5.61486 9.99157 5.52694 10.7867 6.02391 10.8417L6.25563 10.5655Z" fill="#346E3C" fill-opacity="0.55"/>
</svg>
