<svg width="22" height="23" viewBox="0 0 22 23" fill="none" xmlns="http://www.w3.org/2000/svg">
<path fill-rule="evenodd" clip-rule="evenodd" d="M4.44889 5.77119L2.96379 5.77119C2.47158 5.77113 2.02312 5.77108 1.66417 5.82356C1.26951 5.88125 0.849118 6.01924 0.53585 6.40174C0.226 6.78007 0.168242 7.21835 0.179689 7.61685C0.190264 7.98501 0.265844 8.43558 0.349971 8.93712L1.56956 16.2123C1.76221 17.3616 1.91804 18.2913 2.13248 19.0182C2.35527 19.7734 2.66518 20.3993 3.22291 20.8825C3.7829 21.3677 4.44197 21.5784 5.21178 21.6769C5.94827 21.7712 6.8687 21.7712 7.99985 21.7712L12.8569 21.7712C13.2807 21.7712 13.6752 21.7712 14.0413 21.7663C13.9679 21.5309 13.9284 21.2807 13.9284 21.0212L13.9284 19.5212L12.4284 19.5212C11.0476 19.5212 9.92836 18.4019 9.92836 17.0212C9.92836 15.6405 11.0476 14.5212 12.4284 14.5212L13.9284 14.5212L13.9284 13.0212C13.9284 11.6405 15.0476 10.5212 16.4284 10.5212C17.8091 10.5212 18.9284 11.6405 18.9284 13.0212L18.9284 14.5212L19.5706 14.5212L20.5067 8.93709C20.5909 8.43556 20.6664 7.985 20.677 7.61685C20.6885 7.21835 20.6307 6.78007 20.3209 6.40174C20.0076 6.01924 19.5872 5.88125 19.1925 5.82356C18.8336 5.77108 18.3851 5.77113 17.8929 5.77119L16.4078 5.77119C16.1537 2.69143 13.5737 0.271191 10.4284 0.27119C7.28303 0.271189 4.70297 2.69143 4.44889 5.77119ZM6.45931 5.77119L14.3974 5.77119C14.1514 3.79804 12.4682 2.27119 10.4284 2.27119C8.38855 2.27119 6.70535 3.79803 6.45931 5.77119Z" fill="#346E3C"/>
<path d="M16.4284 12.0212C16.9806 12.0212 17.4284 12.4689 17.4284 13.0212L17.4284 16.0212L20.4284 16.0212C20.9806 16.0212 21.4284 16.4689 21.4284 17.0212C21.4284 17.5735 20.9806 18.0212 20.4284 18.0212L17.4284 18.0212L17.4284 21.0212C17.4284 21.5735 16.9806 22.0212 16.4284 22.0212C15.8761 22.0212 15.4284 21.5735 15.4284 21.0212L15.4284 18.0212L12.4284 18.0212C11.8761 18.0212 11.4284 17.5735 11.4284 17.0212C11.4284 16.4689 11.8761 16.0212 12.4284 16.0212L15.4284 16.0212L15.4284 13.0212C15.4284 12.4689 15.8761 12.0212 16.4284 12.0212Z" fill="#346E3C"/>
</svg>
