<svg width="119" height="82" viewBox="0 0 119 82" fill="none" xmlns="http://www.w3.org/2000/svg">
<path d="M2.59514 59.8285C10.7742 60.4869 19.0115 60.6486 27.3072 60.3138C34.3877 60.0376 41.4272 59.2532 48.4257 57.9605C54.4954 56.8609 60.413 55.3406 66.2664 53.5108C71.2902 51.8856 76.2613 49.8514 80.9695 47.4844C85.1344 45.4562 89.1241 43.2061 92.9617 40.5355C96.2328 38.4024 99.3402 35.948 102.261 33.371C104.726 31.244 107.015 28.895 109.205 26.5343C110.928 24.7229 112.476 22.6895 113.924 20.6444C114.894 19.248 115.863 17.8515 116.745 16.344C117.125 15.6838 117.604 15.0352 117.884 14.3633L117.405 13.3002C117.446 13.8084 117.487 14.3167 117.417 14.9126C117.353 16.3147 117.277 17.8161 116.915 19.1832C116.659 21.3682 116.017 23.4072 115.363 25.5456C114.452 28.1572 113.243 30.7338 111.847 33.1878C110.095 36.1034 108.057 38.8846 105.645 41.4206C102.766 44.5059 99.5238 47.2465 96.1301 49.5666C91.8602 52.4886 87.2514 54.8673 82.4789 56.9248C76.4446 59.4382 70.1822 61.3207 63.8673 62.7943C55.8933 64.6773 47.8023 65.8416 39.6703 66.4977C29.4937 67.4172 19.2993 67.6298 9.06397 67.3341C6.24808 67.3055 3.44384 67.1776 0.639623 67.0497C0.838255 67.0731 0.920312 68.0896 1.11894 68.1129C11.8276 68.6655 22.5945 68.7215 33.3438 68.0707C41.9607 67.5722 50.5366 66.5654 59.0831 64.9511C65.883 63.6352 72.5309 61.8986 78.9508 59.5311C84.1089 57.6196 89.0157 55.2759 93.6712 52.4999C97.4622 50.2265 101.002 47.5208 104.179 44.4705C106.79 41.9579 109.126 39.2116 111.089 36.22C112.683 33.7893 114.102 31.1367 115.124 28.4375C115.988 26.2231 116.653 23.9855 117.12 21.7245C117.406 20.1471 117.704 18.4703 117.692 16.8579C117.773 16.1627 117.878 15.2689 117.662 14.5386C117.662 14.5386 117.662 14.5386 117.674 14.4393C117.697 14.2407 117.072 13.5631 117.194 13.3762C116.937 13.8494 116.68 14.3227 116.424 14.796C115.664 16.1164 114.917 17.3376 114.07 18.5471C112.733 20.5045 111.319 22.2516 109.795 24.0863C107.815 26.371 105.636 28.6324 103.481 30.6951C100.759 33.2954 97.7628 35.6621 94.7897 37.8302C91.2617 40.4365 87.4706 42.7099 83.592 44.8723C79.0824 47.2627 74.2983 49.4196 69.5608 51.1791C63.9821 53.2426 58.3623 54.7978 52.5789 56.0317C45.8667 57.4587 39.1019 58.4767 32.1967 58.9748C24.275 59.555 16.4116 59.6385 8.4955 59.3131C6.39817 59.1675 4.18983 59.1096 2.0925 58.964C2.29113 58.9873 2.37319 60.0038 2.57182 60.0271L2.59514 59.8285Z" fill="#346E3C" fill-opacity="0.55"/>
<path d="M2.54851 60.2258C20.519 61.5304 38.711 60.948 56.2304 56.6619C73.7498 52.3757 89.0894 45.2158 102.202 33.8676C105.789 30.7647 109.112 27.3288 112.172 23.56C113.709 21.6259 115.256 19.5925 116.506 17.5241C116.996 16.7762 117.499 15.929 117.89 15.1695C118.293 14.3106 118.018 14.077 117.726 13.1365C117.574 12.7159 116.943 12.9439 116.996 13.3528C117.254 18.0147 116.086 22.8113 114.37 27.1407C112.653 31.47 110.387 35.3321 107.461 38.8146C101.819 45.7037 94.2551 50.9574 86.2465 54.85C69.7094 62.7755 50.9395 65.7065 32.8001 66.6979C22.0509 67.3487 11.3949 67.2051 0.575323 66.7401C0.178051 66.6935 0.0204116 67.1784 0.295044 67.412C0.569676 67.6456 0.400357 68.2299 0.774305 68.4751C0.961276 68.5978 1.46956 68.5568 1.66819 68.5801C2.36341 68.6617 3.16963 68.6557 3.87651 68.638C6.48209 68.7426 9.08767 68.8472 11.7049 68.8524C16.8284 68.9506 21.8643 68.9378 26.9234 68.7264C37.2288 68.4261 47.4055 67.5067 57.5994 65.5824C76.0187 62.2074 95.74 55.4613 108.145 40.7073C111.65 36.5879 114.418 31.8786 116.128 26.743C117.027 24.2307 117.629 21.6835 117.943 19.0019C118.095 17.7108 118.247 16.4196 118.188 15.2045C118.223 14.9065 118.27 14.5092 118.106 14.188C118.042 13.8783 117.679 13.5338 117.714 13.2358C117.761 12.8385 117.177 12.6692 117.031 13.0548C115.197 16.6656 112.692 19.9962 110.11 23.1164C107.529 26.2367 104.451 29.2986 101.296 32.1502C95.0116 37.6548 87.9262 42.2599 80.4375 46.0122C65.2615 53.4934 48.5073 57.2653 31.7467 58.5192C21.8914 59.275 12.0416 59.1253 2.26183 58.3797C1.86456 58.3331 1.70692 58.818 1.98155 59.0516C2.25619 59.2852 2.08687 59.8695 2.46081 60.1148C2.8231 60.4594 3.30203 59.8108 2.92808 59.5655C2.65345 59.3319 2.72339 58.736 2.44876 58.5024L2.16854 59.1743C19.7301 60.5316 37.5249 59.9025 54.7113 55.8794C71.8978 51.8562 86.7818 45.1462 99.8131 34.4932C103.388 31.4896 106.787 28.264 109.813 24.7932C112.838 21.3223 115.688 17.6295 117.779 13.5454L117.083 13.4638C117.037 13.8611 117.411 14.1063 117.551 14.6262C117.843 15.5667 117.557 17.1442 117.441 18.1373C117.149 20.6203 116.659 23.0799 115.97 25.5162C114.517 30.1785 112.303 34.4495 109.43 38.341C103.817 45.8376 96.1072 51.4769 87.7656 55.6325C70.551 64.1832 50.7879 66.9977 31.743 67.9834C26.0646 68.3235 20.4212 68.3656 14.7894 68.3085C11.9735 68.2799 9.25697 68.2629 6.45275 68.135C5.05064 68.0711 3.6485 68.0071 2.3457 67.9549C2.14707 67.9315 1.63883 67.9725 1.55117 67.8616C1.55117 67.8616 1.58615 67.5636 1.39918 67.4409C1.22387 67.219 1.24722 67.0203 1.06025 66.8977L0.779969 67.5696C20.2109 68.4416 39.881 68.1335 59.0422 64.4429C76.5559 61.0622 95.0387 54.5734 107.228 40.801C110.487 37.0555 113.197 32.8428 115.147 28.2388C117.097 23.6348 118.311 18.441 118.088 13.4811L117.358 13.6974C117.434 13.9077 117.785 14.3516 117.75 14.6496C117.703 15.0468 117.224 15.6954 116.979 16.0694C116.465 17.0159 115.863 17.8515 115.262 18.687C114.047 20.4574 112.844 22.1285 111.442 23.7763C108.738 27.0835 105.759 30.1571 102.617 32.9094C96.3204 38.5133 89.3227 43.2294 81.7347 46.97C66.436 54.6382 49.4599 58.5854 32.4013 59.8043C22.5459 60.5602 12.5969 60.3988 2.71777 59.6415C2.22118 59.5832 2.12789 60.3778 2.62447 60.4361L2.54851 60.2258Z" fill="#346E3C" fill-opacity="0.55"/>
</svg>
