<svg width="175" height="67" viewBox="0 0 175 67" fill="none" xmlns="http://www.w3.org/2000/svg">
<path d="M5.50522 1.28344C7.29779 1.44684 9.09035 1.61024 10.7833 1.76457C15.1652 2.164 19.6466 2.57251 24.0193 3.07153C29.6958 3.58897 35.4628 4.21506 41.1302 4.8321C46.7975 5.44913 52.5736 5.97566 58.241 6.59269L71.2869 7.7819C73.2695 8.06305 75.3518 8.35328 77.4522 8.44433C86.1526 8.83577 94.8799 10.033 103.408 12.3166C110.668 14.1834 117.757 16.8378 124.483 20.1621C130.24 23.0969 135.753 26.5114 140.912 30.4963C145.321 33.9105 149.403 37.5963 153.15 41.6533C156.264 44.9495 159.051 48.5173 161.622 52.2661C163.486 54.9465 165.233 57.8169 166.78 60.6691C167.296 61.6199 167.812 62.5706 168.228 63.5123C168.228 63.5123 168.219 63.6119 168.309 63.7205C168.309 63.7205 168.309 63.7205 168.391 63.9288C168.472 64.1371 168.554 64.3453 168.635 64.5536C168.789 65.0697 168.617 64.7527 168.237 64.5173C166.526 63.4576 164.706 62.4884 162.977 61.6278C159.51 60.0064 155.925 58.5751 152.313 57.4425C147.633 55.9113 142.889 55.0772 138.055 54.1345C129.762 52.5752 121.796 49.6399 114.173 46.2339C105.401 42.221 97.0099 37.3391 89.3973 31.6244C85.5411 28.7625 82.0201 25.5295 78.499 22.2965C75.5301 19.616 72.217 17.4061 68.6685 15.5764C61.852 12.1434 54.3923 10.2585 46.86 9.17018C41.7087 8.39936 36.4124 8.1174 31.0889 8.1342C30.2922 8.06158 28.7712 8.22416 28.065 8.26021C28.1646 8.26928 29.1783 9.26542 29.2779 9.2745C34.7373 8.86842 40.3233 9.27721 45.7824 9.97567C56.3023 11.3363 67.184 14.2361 75.8377 20.6481C78.2817 22.4776 80.3997 24.5785 82.6264 26.589C85.1337 28.8258 87.7496 30.9721 90.4743 33.028C95.9326 37.04 101.726 40.681 107.664 43.8331C113.313 46.8584 119.206 49.4039 125.235 51.5601C130.685 53.4627 136.19 54.7677 141.812 55.8827C148.131 57.0612 154.386 58.9368 160.388 61.3918C163.385 62.6691 166.272 64.0369 169.024 65.794C169.124 65.8031 169.314 65.9208 169.404 66.0295C168.753 64.3635 167.902 62.6793 167.052 60.9951C165.088 57.2012 162.807 53.5792 160.309 50.1382C156.562 44.9768 152.381 40.1773 147.756 35.8396C141.926 30.3879 135.436 25.5788 128.366 21.6207C119.866 16.8293 110.65 13.278 101.118 11.0032C95.6134 9.69817 89.8827 8.67372 84.2062 8.15628C81.119 7.87486 78.0137 7.7926 75.0261 7.52026L62.0798 6.34013C62.0888 6.24054 39.9986 4.02607 39.9986 4.02607C32.7288 3.36338 25.468 2.60108 18.1076 1.82973C13.925 1.44845 9.74235 1.06718 5.56877 0.586314L4.97121 0.531843C5.17038 0.549999 5.27882 1.56403 5.47799 1.58219L5.50522 1.28344Z" fill="#346E3C" fill-opacity="0.55"/>
<path d="M5.46893 1.68186C17.7091 2.89804 29.9492 4.11421 42.0807 5.42089C48.0559 5.96557 54.1216 6.61892 60.0877 7.26319C66.0539 7.90745 72.011 8.65131 78.0134 8.89722C101.896 10.1706 125.289 17.9262 143.764 33.367C148.796 37.6415 153.485 42.3868 157.63 47.5845C161.775 52.7823 165.314 58.0252 167.992 63.8926C168.155 64.3091 168.889 63.9743 168.626 63.5487L167.893 63.8835C168.065 64.2004 168.237 64.5173 168.3 64.9248L168.545 64.445C168.545 64.445 166.363 63.0411 165.983 62.8057C164.933 62.2079 163.874 61.7096 162.815 61.2114C160.407 60.0882 157.989 59.0646 155.563 58.1405C150.602 56.3829 145.587 55.2228 140.463 54.1532C135.339 53.0837 130.025 51.8963 124.865 50.1206C120.094 48.4807 115.359 46.4425 110.743 44.2142C101.609 39.7667 92.9637 34.3596 85.2245 27.83C81.4047 24.5698 77.92 20.9385 73.756 18.1489C69.592 15.3594 65.1562 13.3484 60.4668 11.9168C50.1285 8.56447 38.7032 7.22175 27.7935 7.93431C27.3952 7.898 27.4403 8.50458 27.73 8.6314C28.2097 8.87596 28.454 9.50074 28.8433 9.63664C29.0425 9.6548 29.3412 9.68203 29.64 9.70927C30.5453 9.69138 31.4507 9.67347 32.4647 9.56507C35.1808 9.51142 37.7792 9.64786 40.468 9.89297C45.547 10.3559 50.6078 11.0181 55.5145 12.2687C60.1315 13.3925 64.6127 14.9055 68.8311 17.0975C73.4388 19.4254 77.1772 22.4774 80.9788 25.9368C88.4825 32.8465 96.9824 38.7425 105.98 43.5793C114.979 48.4161 125.036 52.6466 135.366 54.994C141.069 56.3172 146.809 57.2421 152.476 58.9636C158.134 60.7848 163.946 63.122 168.979 66.292C169.259 66.5184 169.694 66.1564 169.522 65.8395C167.595 60.5426 164.436 55.5352 161.233 51.0258C157.766 46.0907 153.965 41.5268 149.729 37.3249C141.537 29.1475 131.897 22.5451 121.396 17.6717C110.316 12.5447 98.3567 9.34582 86.1347 7.93047C83.0475 7.64905 79.9603 7.36764 76.9636 7.19489C73.6772 6.89531 70.3909 6.59574 67.1045 6.29617C60.7309 5.71518 54.3665 5.03462 47.9024 4.34497C33.5709 2.93816 19.3481 1.4408 5.01662 0.0339911C4.61827 -0.00232019 4.47327 0.486548 4.75388 0.712956C5.03449 0.939364 4.88048 1.52781 5.26066 1.7633C5.63177 2.09837 6.09363 1.43756 5.71344 1.20208C5.43283 0.97567 5.48733 0.37815 5.20672 0.151741L4.94399 0.830706C17.3833 2.06504 29.9222 3.30844 42.452 4.65144C48.6264 5.21428 54.8914 5.88579 61.0567 6.54821C67.222 7.21063 73.6861 7.90028 79.9782 8.27302C104.051 9.66411 127.742 18.5515 145.746 34.7527C150.57 39.1087 155.051 43.9353 158.988 49.2145C162.925 54.4937 166.626 60.1531 168.979 66.292L169.522 65.8395C160.895 60.2332 150.62 57.2883 140.553 55.3664C129.798 53.2815 119.587 49.6394 109.792 44.73C99.997 39.8206 91.5695 34.2324 83.7579 27.3951C79.9381 24.1349 76.5439 20.6122 72.1535 18.1033C68.1524 15.7303 63.6985 13.9184 59.2988 12.6137C54.1114 11.1367 48.7791 10.1485 43.3109 9.54962C40.2237 9.26821 37.1365 8.98681 34.1216 9.01323C32.8179 8.9948 31.5051 9.07596 30.1019 9.04845C29.2961 9.07542 29.2056 8.96676 28.6444 8.51394C28.4543 8.3962 28.3637 8.28751 28.1737 8.16977L28.1101 8.86689C38.2141 8.1813 48.6526 9.33366 58.3392 12.1245C63.2278 13.5743 67.9714 15.5129 72.3436 18.221C76.7158 20.9291 80.11 24.4518 83.8303 27.7029C91.2798 34.1056 99.6259 39.4855 108.352 43.9963C117.369 48.634 126.965 52.4207 136.914 54.5326C142.826 55.7744 148.755 56.817 154.495 58.8464C157.22 59.7977 159.836 60.8395 162.434 62.0805C163.882 62.7146 165.322 63.4483 166.652 64.2725C167.132 64.5171 168.237 65.6219 168.753 65.4681C168.961 65.3866 169.079 65.1966 168.997 64.9883C168.925 64.6805 168.753 64.3635 168.59 63.947C168.427 63.5305 167.694 63.8653 167.956 64.2909L168.69 63.9561C166.337 58.9218 163.26 54.1226 159.947 49.7037C156.363 44.9587 152.444 40.5849 148.09 36.5731C139.573 28.6672 129.715 22.2458 118.988 17.653C107.971 12.9334 96.1746 10.1511 84.2332 8.96212C81.146 8.68071 78.1402 8.60755 75.053 8.32613C71.9658 8.04472 68.9782 7.77238 65.9906 7.50004C59.8162 6.93721 53.6509 6.27478 47.5852 5.62143C33.5525 4.24185 19.5288 2.76269 5.59572 1.39219C5.09779 1.3468 5.02516 2.14348 5.5231 2.18887L5.46893 1.68186Z" fill="#346E3C" fill-opacity="0.55"/>
</svg>
