<svg width="161" height="67" viewBox="0 0 161 67" fill="none" xmlns="http://www.w3.org/2000/svg">
<path d="M154.253 65.2538C150.962 60.8256 147.016 56.8215 143.156 52.9287C134.691 44.6497 125.125 37.1439 114.487 31.825C109.169 29.1656 103.444 27.3635 97.8547 25.2757C93.1347 23.4947 88.4268 21.6144 83.7309 19.6349C73.7555 15.5043 63.7681 11.473 53.4618 8.41042C40.5352 4.52649 27.2176 2.20685 13.8548 1.09053C11.8694 0.84983 8.06088 0.690316 6.06339 0.54889C6.16267 0.560925 8.06387 1.49654 8.27445 1.42134C22.269 2.31205 36.1311 4.29478 49.6774 8.05237C60.2063 10.9405 70.5036 14.9086 80.5783 19.0512C85.2742 21.0308 90.0693 23.0223 94.7893 24.8033C97.1989 25.6998 99.5965 26.6956 102.018 27.4929C104.825 28.4375 107.632 29.3822 110.303 30.6126C121.596 35.5073 131.782 42.8868 140.743 51.2259C145.635 55.7475 150.279 60.642 154.38 65.8735L154.554 66.0962C154.38 65.8735 154.428 65.4764 154.154 65.2418L154.253 65.2538Z" fill="#346E3C" fill-opacity="0.55"/>
<path d="M154.653 65.6521C148.261 57.3646 140.363 49.9101 132.141 43.5254C127.98 40.3273 123.598 37.305 118.959 34.7564C114.321 32.2078 109.526 30.1445 104.509 28.2569C83.239 20.6684 62.7406 10.7531 40.5418 5.97669C29.0451 3.54264 17.5215 2.2128 5.81843 1.56687C5.42108 1.52101 5.24148 2.20492 5.73819 2.26224C6.23489 2.31956 6.79652 2.68636 7.27029 2.94237C8.04209 3.23276 8.84829 3.22513 9.75381 3.22897C12.5468 3.45063 15.4392 3.68376 18.2322 3.90542C23.8946 4.55887 29.557 5.21233 35.1736 6.26315C46.4067 8.3648 57.4144 11.5477 68.231 15.5139C78.8489 19.4572 89.188 24.0729 99.9167 27.9283C105.044 29.728 110.084 31.4169 114.944 33.7897C119.804 36.1625 124.121 38.8753 128.305 41.8747C138.071 48.8402 147.168 57.2385 154.527 66.7448C154.79 67.0772 155.321 66.8365 155.18 66.3169C155.016 65.9959 154.939 65.7858 154.775 65.4648C154.523 65.0331 153.881 65.3616 154.133 65.7934C154.298 66.1144 154.374 66.3245 154.538 66.6455L155.192 66.2175C148.7 57.9186 140.715 50.3533 132.405 43.8578C124.182 37.4731 115.215 32.311 105.346 28.8568C94.4072 25.0778 83.858 20.5386 73.0643 16.3737C62.5572 12.3426 51.8933 8.79664 40.8933 6.4199C34.6043 5.09015 28.2809 4.05843 21.9231 3.32472C18.7442 2.95787 15.4659 2.57956 12.1647 2.39992C10.8733 2.25089 9.33737 2.47627 8.06887 2.12856C7.38495 1.94897 6.83476 1.48281 6.15084 1.30322L6.07059 1.99862C16.0734 2.54899 26.1298 3.5082 36.0715 5.46081C47.2053 7.55099 58.0028 10.8103 68.5214 14.7421C79.04 18.6739 89.2797 23.2782 99.9205 27.0228C105.048 28.8224 110.187 30.5228 114.936 32.9835C119.685 35.4441 124.102 38.1685 128.385 41.1793C133.131 44.5455 137.532 48.2747 141.8 52.2905C146.255 56.4285 150.477 60.8416 154.244 65.7055C154.496 66.1373 155.161 65.61 154.798 65.2661L154.653 65.6521Z" fill="#346E3C" fill-opacity="0.55"/>
</svg>
