<svg width="1179" height="343" viewBox="0 0 1179 343" fill="none" xmlns="http://www.w3.org/2000/svg">
<path d="M27 83.1379C27 66.623 39.5678 52.8207 56.0105 51.2779L597.833 0.43791C600.938 0.146608 604.062 0.146357 607.167 0.437159L1149.98 51.2821C1166.43 52.8225 1179 66.6257 1179 83.1427V319C1179 332.255 1168.25 343 1155 343H51C37.7451 343 27 332.255 27 319V83.1379Z" fill="#39BB4B" fill-opacity="0.08"/>
<path d="M71.9554 84.4962C73.6675 84.4962 75.0555 83.1082 75.0555 81.3961C75.0555 79.684 73.6675 78.2961 71.9554 78.2961C70.2434 78.2961 68.8555 79.684 68.8555 81.3961C68.8555 83.1082 70.2434 84.4962 71.9554 84.4962Z" fill="#346E3C" fill-opacity="0.32"/>
<path d="M74.7553 81.3962C74.7553 82.4962 74.0553 83.5962 72.9553 83.9962C71.8553 84.3962 70.6553 83.9962 69.8553 83.1962C69.0553 82.3962 69.0553 80.9962 69.6553 80.0962C70.2553 79.1962 71.3553 78.5962 72.4553 78.7962C73.7553 78.9962 74.6553 80.1962 74.6553 81.4962C74.6553 81.9962 75.4553 81.9962 75.4553 81.4962C75.4553 79.9962 74.5553 78.6962 73.1553 78.1962C71.7553 77.6962 70.1553 78.1962 69.2553 79.1962C68.3553 80.1962 68.1553 81.9962 68.9553 83.1962C69.7553 84.3962 71.1553 85.0962 72.6553 84.7962C74.2553 84.4962 75.4553 82.9962 75.4553 81.3962C75.4553 80.8962 74.7553 80.8962 74.6553 81.3962H74.7553Z" fill="#346E3C" fill-opacity="0.32"/>
<path d="M75.8549 95.1962C77.5669 95.1962 78.9548 93.8083 78.9548 92.0962C78.9548 90.3841 77.5669 88.9962 75.8549 88.9962C74.1428 88.9962 72.7549 90.3841 72.7549 92.0962C72.7549 93.8083 74.1428 95.1962 75.8549 95.1962Z" fill="#346E3C" fill-opacity="0.32"/>
<path d="M78.5551 92.0961C78.5551 93.1961 77.8551 94.2961 76.7551 94.6961C75.6551 95.0961 74.4551 94.6961 73.6551 93.8961C72.8551 93.0961 72.855 91.6961 73.455 90.7961C74.055 89.8961 75.1551 89.2961 76.2551 89.4961C77.5551 89.6961 78.455 90.8961 78.455 92.1961C78.455 92.6961 79.2551 92.6961 79.2551 92.1961C79.2551 90.6961 78.355 89.3961 76.955 88.8961C75.555 88.3961 73.9551 88.8961 73.0551 89.8961C72.1551 90.8961 71.9551 92.6961 72.7551 93.8961C73.5551 95.0961 74.955 95.7961 76.455 95.4961C78.055 95.1961 79.2551 93.6961 79.2551 92.0961C79.2551 91.5961 78.555 91.5961 78.455 92.0961H78.5551Z" fill="#346E3C" fill-opacity="0.32"/>
<path d="M58.3549 87.5961C60.0669 87.5961 61.4548 86.2082 61.4548 84.4962C61.4548 82.7841 60.0669 81.3961 58.3549 81.3961C56.6428 81.3961 55.2549 82.7841 55.2549 84.4962C55.2549 86.2082 56.6428 87.5961 58.3549 87.5961Z" fill="#346E3C" fill-opacity="0.32"/>
<path d="M61.0551 84.4961C61.0551 85.5961 60.3551 86.6961 59.2551 87.0961C58.1551 87.4961 56.9551 87.0961 56.1551 86.2961C55.3551 85.4961 55.355 84.0961 55.955 83.1961C56.555 82.2961 57.6551 81.6961 58.7551 81.8961C60.0551 82.0961 60.955 83.2961 60.955 84.5961C60.955 85.0961 61.7551 85.0961 61.7551 84.5961C61.7551 83.0961 60.855 81.7961 59.455 81.2961C58.055 80.7961 56.4551 81.2961 55.5551 82.2961C54.6551 83.2961 54.4551 85.0961 55.2551 86.2961C56.0551 87.4961 57.455 88.1961 58.955 87.8961C60.555 87.5961 61.7551 86.0961 61.7551 84.4961C61.7551 83.9961 61.055 83.9961 60.955 84.4961H61.0551Z" fill="#346E3C" fill-opacity="0.32"/>
<path d="M53.4545 98.9962C55.1666 98.9962 56.5546 97.6082 56.5546 95.8961C56.5546 94.184 55.1666 92.7961 53.4545 92.7961C51.7424 92.7961 50.3545 94.184 50.3545 95.8961C50.3545 97.6082 51.7424 98.9962 53.4545 98.9962Z" fill="#346E3C" fill-opacity="0.32"/>
<path d="M56.1547 95.8962C56.1547 96.9962 55.4547 98.0962 54.3547 98.4962C53.2547 98.8962 52.0547 98.4962 51.2547 97.6962C50.4547 96.8962 50.4547 95.4962 51.0547 94.5962C51.6547 93.6962 52.7547 93.0962 53.8547 93.2962C55.1547 93.4962 56.0547 94.6962 56.0547 95.9962C56.0547 96.4962 56.8547 96.4962 56.8547 95.9962C56.8547 94.4962 55.9547 93.1962 54.5547 92.6962C53.1547 92.1962 51.5547 92.6962 50.6547 93.6962C49.7547 94.6962 49.5547 96.4962 50.3547 97.6962C51.1547 98.8962 52.5547 99.5962 54.0547 99.2962C55.6547 98.9962 56.8547 97.4962 56.8547 95.8962C56.8547 95.3962 56.1547 95.3962 56.0547 95.8962H56.1547Z" fill="#346E3C" fill-opacity="0.32"/>
<path d="M72.7552 105.996C74.4673 105.996 75.8552 104.608 75.8552 102.896C75.8552 101.184 74.4673 99.7961 72.7552 99.7961C71.0432 99.7961 69.6553 101.184 69.6553 102.896C69.6553 104.608 71.0432 105.996 72.7552 105.996Z" fill="#346E3C" fill-opacity="0.32"/>
<path d="M75.4554 102.896C75.4554 103.996 74.7555 105.096 73.6555 105.496C72.5555 105.896 71.3555 105.496 70.5555 104.696C69.7555 103.896 69.7554 102.496 70.3554 101.596C70.9554 100.696 72.0555 100.096 73.1555 100.296C74.4555 100.496 75.3554 101.696 75.3554 102.996C75.3554 103.496 76.1555 103.496 76.1555 102.996C76.1555 101.496 75.2554 100.196 73.8554 99.6962C72.4554 99.1962 70.8554 99.6962 69.9554 100.696C69.0554 101.696 68.8555 103.496 69.6555 104.696C70.4555 105.896 71.8554 106.596 73.3554 106.296C74.9554 105.996 76.1555 104.496 76.1555 102.896C76.1555 102.396 75.4554 102.396 75.3554 102.896H75.4554Z" fill="#346E3C" fill-opacity="0.32"/>
<path d="M66.4554 117.596C68.1675 117.596 69.5555 116.208 69.5555 114.496C69.5555 112.784 68.1675 111.396 66.4554 111.396C64.7434 111.396 63.3555 112.784 63.3555 114.496C63.3555 116.208 64.7434 117.596 66.4554 117.596Z" fill="#346E3C" fill-opacity="0.32"/>
<path d="M69.2553 114.496C69.2553 115.596 68.5553 116.696 67.4553 117.096C66.3553 117.496 65.1553 117.096 64.3553 116.296C63.5553 115.496 63.5553 114.096 64.1553 113.196C64.7553 112.296 65.8553 111.696 66.9553 111.896C68.2553 112.096 69.1553 113.296 69.1553 114.596C69.1553 115.096 69.9553 115.096 69.9553 114.596C69.9553 113.096 69.0553 111.796 67.6553 111.296C66.2553 110.796 64.6553 111.296 63.7553 112.296C62.8553 113.296 62.6553 115.096 63.4553 116.296C64.2553 117.496 65.6553 118.196 67.1553 117.896C68.7553 117.596 69.9553 116.096 69.9553 114.496C69.9553 113.996 69.2553 113.996 69.1553 114.496H69.2553Z" fill="#346E3C" fill-opacity="0.32"/>
<path d="M48.3549 111.296C50.0669 111.296 51.4548 109.908 51.4548 108.196C51.4548 106.484 50.0669 105.096 48.3549 105.096C46.6428 105.096 45.2549 106.484 45.2549 108.196C45.2549 109.908 46.6428 111.296 48.3549 111.296Z" fill="#346E3C" fill-opacity="0.32"/>
<path d="M51.1547 108.196C51.1547 109.296 50.4547 110.396 49.3547 110.796C48.2547 111.196 47.0547 110.796 46.2547 109.996C45.4547 109.196 45.4547 107.796 46.0547 106.896C46.6547 105.996 47.7547 105.396 48.8547 105.596C50.1547 105.796 51.0547 106.996 51.0547 108.296C51.0547 108.796 51.8547 108.796 51.8547 108.296C51.8547 106.796 50.9547 105.496 49.5547 104.996C48.1547 104.496 46.5547 104.996 45.6547 105.996C44.7547 106.996 44.5547 108.796 45.3547 109.996C46.1547 111.196 47.5547 111.896 49.0547 111.596C50.6547 111.296 51.8547 109.796 51.8547 108.196C51.8547 107.696 51.1547 107.696 51.0547 108.196H51.1547Z" fill="#346E3C" fill-opacity="0.32"/>
<path d="M44.1556 124.296C45.8677 124.296 47.2556 122.908 47.2556 121.196C47.2556 119.484 45.8677 118.096 44.1556 118.096C42.4436 118.096 41.0557 119.484 41.0557 121.196C41.0557 122.908 42.4436 124.296 44.1556 124.296Z" fill="#346E3C" fill-opacity="0.32"/>
<path d="M46.9554 121.196C46.9554 122.296 46.2555 123.396 45.1555 123.796C44.0555 124.196 42.8555 123.796 42.0555 122.996C41.2555 122.196 41.2554 120.796 41.8554 119.896C42.4554 118.996 43.5555 118.396 44.6555 118.596C45.9555 118.796 46.8554 119.996 46.8554 121.296C46.8554 121.796 47.6555 121.796 47.6555 121.296C47.6555 119.796 46.7554 118.496 45.3554 117.996C43.9554 117.496 42.3554 117.996 41.4554 118.996C40.5554 119.996 40.3555 121.796 41.1555 122.996C41.9555 124.196 43.3554 124.896 44.8554 124.596C46.4554 124.296 47.6555 122.796 47.6555 121.196C47.6555 120.696 46.9554 120.696 46.8554 121.196H46.9554Z" fill="#346E3C" fill-opacity="0.32"/>
<path d="M64.5552 131.196C66.2673 131.196 67.6552 129.808 67.6552 128.096C67.6552 126.384 66.2673 124.996 64.5552 124.996C62.8431 124.996 61.4551 126.384 61.4551 128.096C61.4551 129.808 62.8431 131.196 64.5552 131.196Z" fill="#346E3C" fill-opacity="0.32"/>
<path d="M67.2553 128.096C67.2553 129.196 66.5553 130.296 65.4553 130.696C64.3553 131.096 63.1553 130.696 62.3553 129.896C61.5553 129.096 61.5553 127.696 62.1553 126.796C62.7553 125.896 63.8553 125.296 64.9553 125.496C66.2553 125.696 67.1553 126.896 67.1553 128.196C67.1553 128.696 67.9553 128.696 67.9553 128.196C67.9553 126.696 67.0553 125.396 65.6553 124.896C64.2553 124.396 62.6553 124.896 61.7553 125.896C60.8553 126.896 60.6553 128.696 61.4553 129.896C62.2553 131.096 63.6553 131.796 65.1553 131.496C66.7553 131.196 67.9553 129.696 67.9553 128.096C67.9553 127.596 67.2553 127.596 67.1553 128.096H67.2553Z" fill="#346E3C" fill-opacity="0.32"/>
<path d="M62.6556 143.496C64.3677 143.496 65.7556 142.108 65.7556 140.396C65.7556 138.684 64.3677 137.296 62.6556 137.296C60.9436 137.296 59.5557 138.684 59.5557 140.396C59.5557 142.108 60.9436 143.496 62.6556 143.496Z" fill="#346E3C" fill-opacity="0.32"/>
<path d="M65.4554 140.396C65.4554 141.496 64.7555 142.596 63.6555 142.996C62.5555 143.396 61.3555 142.996 60.5555 142.196C59.7555 141.396 59.7554 139.996 60.3554 139.096C60.9554 138.196 62.0555 137.596 63.1555 137.796C64.4555 137.996 65.3554 139.196 65.3554 140.496C65.3554 140.996 66.1555 140.996 66.1555 140.496C66.1555 138.996 65.2554 137.696 63.8554 137.196C62.4554 136.696 60.8554 137.196 59.9554 138.196C59.0554 139.196 58.8555 140.996 59.6555 142.196C60.4555 143.396 61.8554 144.096 63.3554 143.796C64.9554 143.496 66.1555 141.996 66.1555 140.396C66.1555 139.896 65.4554 139.896 65.3554 140.396H65.4554Z" fill="#346E3C" fill-opacity="0.32"/>
<path d="M41.4545 138.096C43.1666 138.096 44.5546 136.708 44.5546 134.996C44.5546 133.284 43.1666 131.896 41.4545 131.896C39.7424 131.896 38.3545 133.284 38.3545 134.996C38.3545 136.708 39.7424 138.096 41.4545 138.096Z" fill="#346E3C" fill-opacity="0.32"/>
<path d="M44.1547 134.996C44.1547 136.096 43.4547 137.196 42.3547 137.596C41.2547 137.996 40.0547 137.596 39.2547 136.796C38.4547 135.996 38.4547 134.596 39.0547 133.696C39.6547 132.796 40.7547 132.196 41.8547 132.396C43.1547 132.596 44.0547 133.796 44.0547 135.096C44.0547 135.596 44.8547 135.596 44.8547 135.096C44.8547 133.596 43.9547 132.296 42.5547 131.796C41.1547 131.296 39.5547 131.796 38.6547 132.796C37.7547 133.796 37.5547 135.596 38.3547 136.796C39.1547 137.996 40.5547 138.696 42.0547 138.396C43.6547 138.096 44.8547 136.596 44.8547 134.996C44.8547 134.496 44.1547 134.496 44.0547 134.996H44.1547Z" fill="#346E3C" fill-opacity="0.32"/>
<path d="M42.1547 148.696C43.8667 148.696 45.2546 147.308 45.2546 145.596C45.2546 143.884 43.8667 142.496 42.1547 142.496C40.4426 142.496 39.0547 143.884 39.0547 145.596C39.0547 147.308 40.4426 148.696 42.1547 148.696Z" fill="#346E3C" fill-opacity="0.32"/>
<path d="M44.8548 145.596C44.8548 146.696 44.1549 147.796 43.0549 148.196C41.9549 148.596 40.7548 148.196 39.9548 147.396C39.1548 146.596 39.1549 145.196 39.7549 144.296C40.3549 143.396 41.4549 142.796 42.5549 142.996C43.8549 143.196 44.7549 144.396 44.7549 145.696C44.7549 146.196 45.5549 146.196 45.5549 145.696C45.5549 144.196 44.6549 142.896 43.2549 142.396C41.8549 141.896 40.2548 142.396 39.3548 143.396C38.4548 144.396 38.2549 146.196 39.0549 147.396C39.8549 148.596 41.2549 149.296 42.7549 148.996C44.3549 148.696 45.5549 147.196 45.5549 145.596C45.5549 145.096 44.8549 145.096 44.7549 145.596H44.8548Z" fill="#346E3C" fill-opacity="0.32"/>
<path d="M41.4545 160.596C43.1666 160.596 44.5546 159.208 44.5546 157.496C44.5546 155.784 43.1666 154.396 41.4545 154.396C39.7424 154.396 38.3545 155.784 38.3545 157.496C38.3545 159.208 39.7424 160.596 41.4545 160.596Z" fill="#346E3C" fill-opacity="0.32"/>
<path d="M44.1547 157.496C44.1547 158.596 43.4547 159.696 42.3547 160.096C41.2547 160.496 40.0547 160.096 39.2547 159.296C38.4547 158.496 38.4547 157.096 39.0547 156.196C39.6547 155.296 40.7547 154.696 41.8547 154.896C43.1547 155.096 44.0547 156.296 44.0547 157.596C44.0547 158.096 44.8547 158.096 44.8547 157.596C44.8547 156.096 43.9547 154.796 42.5547 154.296C41.1547 153.796 39.5547 154.296 38.6547 155.296C37.7547 156.296 37.5547 158.096 38.3547 159.296C39.1547 160.496 40.5547 161.196 42.0547 160.896C43.6547 160.596 44.8547 159.096 44.8547 157.496C44.8547 156.996 44.1547 156.996 44.0547 157.496H44.1547Z" fill="#346E3C" fill-opacity="0.32"/>
<path d="M56.4545 165.696C58.1666 165.696 59.5546 164.308 59.5546 162.596C59.5546 160.884 58.1666 159.496 56.4545 159.496C54.7424 159.496 53.3545 160.884 53.3545 162.596C53.3545 164.308 54.7424 165.696 56.4545 165.696Z" fill="#346E3C" fill-opacity="0.32"/>
<path d="M59.1547 162.596C59.1547 163.696 58.4547 164.796 57.3547 165.196C56.2547 165.596 55.0547 165.196 54.2547 164.396C53.4547 163.596 53.4547 162.196 54.0547 161.296C54.6547 160.396 55.7547 159.796 56.8547 159.996C58.1547 160.196 59.0547 161.396 59.0547 162.696C59.0547 163.196 59.8547 163.196 59.8547 162.696C59.8547 161.196 58.9547 159.896 57.5547 159.396C56.1547 158.896 54.5547 159.396 53.6547 160.396C52.7547 161.396 52.5547 163.196 53.3547 164.396C54.1547 165.596 55.5547 166.296 57.0547 165.996C58.6547 165.696 59.8547 164.196 59.8547 162.596C59.8547 162.096 59.1547 162.096 59.0547 162.596H59.1547Z" fill="#346E3C" fill-opacity="0.32"/>
<path d="M58.3549 152.296C60.0669 152.296 61.4548 150.908 61.4548 149.196C61.4548 147.484 60.0669 146.096 58.3549 146.096C56.6428 146.096 55.2549 147.484 55.2549 149.196C55.2549 150.908 56.6428 152.296 58.3549 152.296Z" fill="#346E3C" fill-opacity="0.32"/>
<path d="M61.0551 149.196C61.0551 150.296 60.3551 151.396 59.2551 151.796C58.1551 152.196 56.9551 151.796 56.1551 150.996C55.3551 150.196 55.355 148.796 55.955 147.896C56.555 146.996 57.6551 146.396 58.7551 146.596C60.0551 146.796 60.955 147.996 60.955 149.296C60.955 149.796 61.7551 149.796 61.7551 149.296C61.7551 147.796 60.855 146.496 59.455 145.996C58.055 145.496 56.4551 145.996 55.5551 146.996C54.6551 147.996 54.4551 149.796 55.2551 150.996C56.0551 152.196 57.455 152.896 58.955 152.596C60.555 152.296 61.7551 150.796 61.7551 149.196C61.7551 148.696 61.055 148.696 60.955 149.196H61.0551Z" fill="#346E3C" fill-opacity="0.32"/>
<path d="M107.455 194.696C107.455 194.696 106.255 194.596 106.055 194.596C102.055 194.396 98.0552 195.096 94.3552 196.596C86.7552 199.796 80.4552 205.496 75.2552 211.896C69.4552 219.096 64.9552 227.196 61.2552 235.696C58.2552 242.496 55.7552 249.596 54.3552 256.896C53.2552 262.596 51.9552 268.296 49.9552 273.696C49.1552 275.796 48.3552 277.896 47.2552 279.796C46.8552 274.496 46.4553 269.196 46.1553 263.896C45.4553 253.596 44.9553 243.396 44.5553 233.096C44.1553 223.196 43.9553 213.296 44.0553 203.496C44.0553 194.996 44.3553 186.396 45.1553 177.896C45.5553 173.296 46.2553 168.796 47.1553 164.296C47.3553 164.296 47.4553 164.296 47.6553 164.096C48.9553 163.696 50.3552 163.396 51.7552 163.096C53.0552 162.796 54.6552 162.496 55.9552 162.796C56.2552 162.796 56.7552 162.096 56.9552 162.196C55.7552 161.896 54.5552 162.196 53.3552 162.396C51.9552 162.596 50.4553 162.996 49.0553 163.396C48.5553 163.496 48.1553 163.696 47.6553 163.796C47.6553 163.796 47.2553 163.996 47.1553 163.996C48.0553 159.496 49.0553 154.896 50.1553 150.396C51.4553 150.396 52.8553 150.196 54.1553 150.096C55.3553 150.096 56.5552 149.896 57.7552 149.796C58.1553 149.796 58.4552 149.196 58.7552 149.196C56.2552 149.396 53.6553 149.596 51.1553 149.696C50.8553 149.696 50.4552 149.796 50.2552 149.696C50.2552 149.596 50.2552 149.396 50.2552 149.296C50.7552 147.096 51.2552 144.896 51.7552 142.696C52.0552 141.496 52.2553 140.396 52.5553 139.196C54.4553 138.796 56.4552 138.896 58.3552 139.196C59.5552 139.396 60.7552 139.696 61.9552 139.996C61.9552 139.996 62.3552 139.796 62.4552 139.696C62.4552 139.696 62.8552 139.396 62.9552 139.396C61.7552 138.996 60.5552 138.796 59.3552 138.596C57.1552 138.296 54.7553 138.096 52.5553 138.796C53.3553 135.296 54.2553 131.796 55.1553 128.296C55.4553 128.296 55.8553 128.296 56.1553 128.296H63.8552C64.1552 128.296 64.5552 127.696 64.8552 127.696H55.6553C55.5553 127.696 55.4552 127.696 55.3552 127.696C56.3552 123.596 57.4553 119.596 58.5553 115.496C60.6553 115.296 62.6553 114.996 64.7552 114.796C65.0552 114.796 65.4552 114.796 65.7552 114.696C65.9552 114.696 66.1553 114.496 66.2552 114.396C66.3552 114.396 66.6553 114.096 66.7552 114.096C64.3552 114.396 61.9553 114.596 59.6553 114.896C59.3553 114.896 59.0552 114.896 58.7552 114.896C59.3552 112.796 59.9553 110.696 60.5553 108.696C61.1553 106.696 61.7552 104.696 62.4552 102.696C64.8552 102.796 67.3552 102.896 69.7552 102.996C70.1553 102.996 70.5552 102.996 70.9552 102.996C71.0552 102.996 71.3552 102.796 71.4552 102.696C71.5552 102.596 71.8552 102.396 71.9552 102.396C69.2552 102.296 66.5553 102.196 63.7552 101.996H62.5553C63.3553 99.3962 64.2552 96.8961 65.2552 94.3961C65.8552 92.7961 66.5553 91.1961 67.2552 89.5961C69.5553 90.2961 71.7553 91.0961 74.0553 91.7961C74.3553 91.8961 74.7553 91.9961 75.1553 92.0961C75.1553 92.0961 75.5553 91.8961 75.6553 91.7961C75.6553 91.7961 76.0553 91.4962 76.1553 91.4962L68.7552 89.0961C68.4552 88.9961 68.0553 88.8961 67.6553 88.7961C68.2553 87.5961 68.8553 86.3961 69.6553 85.2961C70.2553 84.3961 70.8553 83.4961 71.6553 82.7961C71.3553 83.0961 70.8553 83.0961 70.6553 83.3961C68.8553 84.9961 67.7553 87.2962 66.6553 89.4962C66.6553 89.6962 66.4552 89.7962 66.4552 89.9962C65.9552 90.9962 65.5553 92.0961 65.0553 93.0961C63.3553 90.4961 61.6552 87.7961 59.8552 85.1961C59.5552 84.7961 59.3553 84.3962 59.0553 83.9962L58.0553 84.5961C59.9553 87.4961 61.8552 90.3961 63.7552 93.1961C64.0552 93.5961 64.2553 93.9961 64.5553 94.3961C63.6553 96.7961 62.7552 99.1961 61.9552 101.696C61.9552 101.996 61.7553 102.296 61.6553 102.596L61.2552 103.896C59.2552 101.496 57.3552 98.9961 55.3552 96.5961C55.0552 96.1961 54.7552 95.7962 54.4552 95.4962L53.4552 96.0961C55.6552 98.7961 57.7552 101.496 59.9552 104.096C60.2552 104.496 60.5552 104.896 60.8552 105.196C59.7552 108.596 58.7552 111.996 57.7552 115.496C57.6553 115.996 57.4552 116.496 57.3552 116.996L50.4552 108.996C50.0552 108.596 49.7552 108.196 49.3552 107.796L48.3552 108.396C50.8552 111.296 53.2552 114.096 55.7552 116.996C56.1553 117.396 56.4552 117.796 56.8552 118.196C56.8552 118.196 56.9553 118.196 57.1553 118.096C56.3553 121.096 55.5552 124.096 54.7552 127.196C54.4552 126.996 54.1552 126.696 53.9552 126.496C52.3552 125.396 50.7553 124.296 49.1553 123.096L45.7552 120.696C45.6553 120.696 44.8552 121.396 44.7552 121.296C47.3552 123.096 49.8552 124.896 52.4552 126.696C53.0552 127.096 53.5553 127.496 54.1553 127.896C54.2553 127.896 54.4553 128.096 54.5553 128.096C53.6553 131.496 52.8553 134.996 52.0553 138.396C52.0553 138.696 51.9552 138.996 51.8552 139.296C51.6552 140.196 51.4552 141.096 51.2552 141.896C48.5552 139.696 45.9552 137.496 43.2552 135.396C42.8552 135.096 42.4553 134.696 42.0553 134.396C41.9553 134.396 41.1553 135.096 41.0553 134.996C43.9553 137.396 46.8552 139.796 49.7552 142.196C50.1553 142.496 50.5552 142.896 50.9552 143.196C50.4552 145.196 50.0553 147.196 49.5553 149.196C48.2553 148.396 47.0552 147.696 45.7552 146.896C44.7552 146.296 43.7553 145.696 42.6553 145.096C42.4553 145.096 41.7553 145.796 41.6553 145.696C43.8553 146.996 46.0552 148.296 48.2552 149.696C48.5552 149.896 48.9552 150.196 49.2552 150.296C48.3552 154.296 47.4553 158.296 46.5553 162.396C46.3553 162.096 46.2553 161.796 46.0553 161.496C45.6553 160.796 45.0552 160.096 44.4552 159.496C43.6552 158.696 42.8552 157.796 41.9552 157.196C41.8552 157.196 41.0552 157.896 40.9552 157.796C42.9552 159.296 45.0552 161.496 45.9552 163.896C46.0552 164.196 45.9553 164.396 46.1553 164.496C45.5553 167.396 45.0553 170.296 44.6553 173.296C43.6553 181.296 43.2553 189.296 43.1553 197.396C42.9553 206.996 43.1552 216.696 43.3552 226.296C43.3552 228.996 43.5553 231.596 43.6553 234.296C42.2553 230.996 40.8552 227.696 39.4552 224.396C37.8552 220.596 36.3552 216.896 34.8552 213.096C33.6552 209.996 32.6553 206.796 31.1553 203.896C28.5553 198.596 24.8552 193.896 21.2552 189.296C17.3552 184.496 13.2553 179.796 9.0553 175.296C7.5553 173.696 6.0552 172.096 4.4552 170.496C3.9552 169.996 3.4552 169.496 2.9552 168.996C2.7552 168.796 2.45527 168.296 2.15527 168.196C2.15527 168.196 1.35527 168.596 1.15527 168.696C1.55527 172.796 2.4553 176.896 3.5553 180.796C4.5553 184.296 5.75522 187.796 7.35522 191.096C8.15522 192.796 9.05527 194.396 10.1553 195.896C11.2553 197.496 12.5552 198.896 13.7552 200.396C19.3552 207.196 24.2552 214.696 27.8552 222.696C29.3552 226.096 30.6553 229.796 31.1553 233.496C31.3553 235.196 31.2553 236.896 31.6553 238.496C32.0553 240.296 32.7553 241.896 33.5553 243.496C36.2553 248.496 40.2553 252.896 44.5553 256.396C44.5553 256.396 44.7552 256.496 44.7552 256.596C44.7552 256.696 44.7552 256.896 44.7552 256.996C45.2552 265.096 45.8552 273.196 46.4552 281.396C46.5552 283.196 46.7552 285.096 46.8552 286.896C47.0552 290.096 47.3553 293.196 47.6553 296.396C48.1553 301.896 48.5553 307.296 49.0553 312.796C49.0553 312.996 49.0553 313.196 49.0553 313.496C49.6553 319.596 50.2552 325.696 50.8552 331.796C51.0552 333.796 51.2552 335.796 51.4552 337.796C51.6552 339.796 51.4552 339.996 51.7552 340.896C51.7552 340.996 51.7552 341.196 51.7552 341.296C51.7552 341.096 52.8552 340.896 52.7552 340.696C52.5552 338.596 52.2553 336.496 52.0553 334.496C51.4553 328.896 50.8552 323.296 50.3552 317.696C50.1552 316.096 50.0552 314.496 49.9552 312.896C52.9552 310.596 55.3552 307.696 57.3552 304.496C59.7552 300.796 61.6552 296.696 63.3552 292.596C67.1552 283.396 69.6552 273.796 71.8552 264.096C73.7552 255.696 75.2553 247.096 76.6553 238.596C76.9553 236.896 77.1552 235.296 77.4552 233.596C77.9552 231.396 78.6553 229.396 79.5553 227.396C81.5553 222.996 84.3552 218.896 87.2552 215.096C92.3552 208.596 98.2552 202.596 104.455 197.196C105.155 196.596 105.855 195.896 106.655 195.296C106.655 195.296 107.155 194.996 107.155 194.896L107.455 194.696ZM6.5553 174.396C10.6553 178.796 14.7553 183.296 18.5553 187.896C22.4553 192.596 26.2553 197.396 29.1553 202.696C30.5553 205.296 31.5553 207.996 32.5553 210.696C34.0553 214.496 35.5553 218.296 37.1553 222.096C38.5553 225.396 39.9552 228.696 41.3552 231.896C41.8552 232.996 42.3552 234.096 42.8552 235.296C43.1552 235.896 43.3553 236.596 43.6553 237.096C43.6553 237.096 43.6553 237.296 43.7552 237.296C43.7552 239.396 43.9553 241.396 44.0553 243.496C42.4553 240.396 40.8552 237.296 39.3552 234.296C37.7552 231.096 36.2552 227.996 34.7552 224.796C33.5552 222.196 32.5552 219.596 31.4552 216.996C28.5552 210.696 24.8553 204.796 21.0553 198.996C19.2553 196.096 17.3552 193.296 15.3552 190.496C13.8552 188.396 12.2552 186.396 10.7552 184.296C7.95525 180.096 5.5552 175.596 3.4552 170.996C4.5552 172.096 5.55527 173.196 6.65527 174.296L6.5553 174.396ZM35.8552 245.196C33.9552 242.196 32.3553 238.796 32.1553 235.196C32.0553 231.596 31.1552 228.196 29.8552 224.796C26.7552 216.596 21.8553 208.996 16.5553 202.096C14.1553 198.996 11.4553 196.196 9.5553 192.796C7.6553 189.496 6.25527 185.996 5.15527 182.396C4.25527 179.396 3.45522 176.296 2.85522 173.196C2.85522 172.796 2.75527 172.496 2.65527 172.096C4.35527 175.696 6.25522 179.296 8.35522 182.696C9.85522 185.096 11.5553 187.196 13.1553 189.496C15.0553 192.096 16.7553 194.696 18.5553 197.396C22.4553 203.396 26.2552 209.396 29.4552 215.796C30.6552 218.296 31.6552 220.796 32.7552 223.296C34.1553 226.396 35.5553 229.496 37.0553 232.596C38.4553 235.496 39.9552 238.396 41.3552 241.296C42.1552 242.896 42.9552 244.596 43.8552 246.196C43.8552 246.196 43.8552 246.396 43.9552 246.396C44.1552 249.296 44.2552 252.196 44.4552 255.196C41.0552 252.396 38.0553 248.996 35.6553 245.296L35.8552 245.196ZM49.1553 277.596C50.8553 273.996 52.1553 270.096 53.1553 266.196C54.4553 261.496 55.1552 256.696 56.3552 251.896C57.2552 248.396 58.4553 244.896 59.6553 241.396C62.7553 233.096 66.7553 224.996 71.5553 217.596C76.3553 210.396 82.2552 203.296 89.7552 198.796C93.0553 196.796 96.9552 195.496 100.855 195.196C101.855 195.196 102.855 195.096 103.855 195.096C104.055 195.096 105.155 195.096 105.755 195.096C98.8552 197.496 92.7552 201.996 87.7552 207.096C81.5553 213.296 76.6552 220.696 72.3552 228.396C68.4552 235.496 65.1552 242.896 62.4552 250.396C61.4552 253.196 60.5552 256.096 59.7552 259.096C58.4552 263.996 57.1553 268.796 55.6553 273.596C53.4553 280.496 50.9552 287.296 48.3552 293.996C48.3552 293.596 48.3552 293.296 48.3552 292.896C48.0552 288.796 47.6552 284.696 47.3552 280.696C48.0552 279.696 48.6553 278.596 49.1553 277.496V277.596ZM105.355 196.196C99.8552 200.896 94.6552 205.996 89.9552 211.396C86.7552 215.096 83.8552 218.896 81.3552 223.096C79.0552 226.896 77.1552 230.996 76.4552 235.396C75.1552 243.196 73.9552 250.896 72.3552 258.596C70.4552 268.196 68.0552 277.796 64.8552 287.096C62.0552 295.096 58.5552 303.496 52.8552 309.996C52.0552 310.896 51.0553 311.796 50.1553 312.596C49.6553 306.996 49.1553 301.396 48.6553 295.896C51.0553 289.996 53.2552 283.996 55.2552 277.996C56.9552 272.896 58.6552 267.696 59.9552 262.496C60.7552 259.496 61.4552 256.496 62.4552 253.496C64.7552 246.396 67.6552 239.496 70.9552 232.896C74.7552 225.296 79.2552 217.896 84.7552 211.396C89.9552 205.196 96.1553 199.296 103.755 196.396C104.655 196.096 105.455 195.796 106.355 195.496C106.355 195.596 105.355 196.296 105.255 196.396L105.355 196.196Z" fill="#346E3C" fill-opacity="0.32"/>
<path d="M107.355 194.396C107.555 194.396 107.655 194.396 107.355 194.396C107.155 194.396 106.955 194.396 106.855 194.396C106.255 194.396 105.755 194.396 105.155 194.396C103.255 194.396 101.255 194.596 99.3552 194.896C95.7552 195.596 92.4552 197.096 89.3552 198.996C83.4552 202.496 78.5552 207.496 74.3552 212.996C69.8552 218.896 66.0552 225.296 62.8552 231.996C59.6552 238.696 56.6551 246.196 54.9551 253.796C52.8551 262.696 51.5552 271.896 47.1552 279.996L47.8552 280.196C46.5552 263.496 45.5551 246.696 44.9551 229.896C44.3551 213.196 44.0551 196.396 45.4551 179.696C45.8551 175.096 46.4552 170.596 47.3552 166.096C47.3552 165.796 47.3552 165.096 47.6552 164.796C47.9552 164.496 48.8552 164.496 49.2552 164.396C50.2552 164.096 51.3552 163.896 52.3552 163.696C52.8552 163.696 53.4551 163.496 53.9551 163.396C54.6551 163.396 55.3551 163.496 55.9551 163.396C56.5551 163.396 56.6552 162.896 57.1552 162.796C57.4552 162.796 57.5552 162.096 57.1552 162.096C53.9552 161.496 50.2552 162.896 47.1552 163.796L47.6552 164.296C48.5552 159.696 49.5552 155.196 50.6552 150.696L50.2552 150.996C52.0552 150.896 53.8552 150.696 55.6552 150.596C56.3552 150.596 57.2551 150.596 57.9551 150.396C58.4551 150.296 58.6552 149.996 59.0552 149.796C59.4552 149.696 59.4552 148.996 59.0552 149.096C57.5552 149.196 56.0551 149.296 54.4551 149.396C53.7551 149.396 53.1551 149.396 52.4551 149.596C52.0551 149.596 51.0552 149.896 50.5552 149.796L50.8552 150.296C51.3552 147.996 51.9551 145.596 52.4551 143.296L52.0552 143.596C52.3552 143.596 52.5552 143.196 52.3552 142.996C52.5552 143.196 52.8551 141.496 52.9551 141.396C53.1551 140.396 53.1552 140.096 54.3552 139.996C55.7552 139.896 57.2552 139.996 58.6552 140.196C59.2552 140.196 59.8551 140.396 60.4551 140.496C60.9551 140.596 61.7552 140.996 62.2552 140.996C62.7552 140.996 63.0551 140.596 63.4551 140.396C63.7551 140.296 63.8551 139.796 63.4551 139.696C61.5551 139.096 59.6552 138.796 57.6552 138.596C56.1552 138.496 54.1552 138.396 52.7552 139.096L53.3552 139.496C54.1552 135.996 55.0551 132.496 55.9551 128.996L55.5552 129.296C57.4552 129.296 59.4552 129.296 61.3552 129.296C63.2552 129.296 63.3552 129.496 64.1552 129.296C64.5552 129.196 64.8552 128.796 65.2552 128.696C65.6552 128.596 65.5552 127.996 65.2552 127.996H60.6552C59.0552 127.996 57.3552 128.196 55.8552 127.996L56.1552 128.496C57.1552 124.396 58.2552 120.396 59.3552 116.296L58.9551 116.596C60.7551 116.396 62.5552 116.196 64.3552 115.996C64.9552 115.996 65.6552 115.996 66.1552 115.796C66.5552 115.696 66.9552 115.396 67.3552 115.196C67.7552 114.996 67.5552 114.496 67.1552 114.496C64.4552 114.796 61.7552 115.096 59.0552 115.396L59.4551 115.896C60.6551 111.796 61.8552 107.696 63.1552 103.696L62.7552 103.996C64.7552 103.996 66.8552 104.196 68.8552 104.296C69.5552 104.296 70.6552 104.596 71.2552 104.296C71.6552 104.296 71.9552 103.796 72.3552 103.696C72.7552 103.596 72.6552 102.996 72.3552 102.996C70.5552 102.996 68.7552 102.796 67.0552 102.796C66.2552 102.796 65.3551 102.796 64.4551 102.696C64.0551 102.696 63.3551 102.496 62.9551 102.696L63.4551 103.196C64.8551 99.0961 66.2552 94.9962 68.0552 90.9962L67.6552 91.1961C69.6552 91.8961 71.6552 92.4961 73.7552 93.1961C74.2552 93.3961 75.1552 93.7961 75.6552 93.7961C76.0552 93.7961 76.3552 93.2961 76.7552 93.1961C77.0552 93.0961 77.1552 92.5962 76.7552 92.4962L71.6552 90.8961C70.8552 90.6961 70.0552 90.3961 69.3552 90.1961C69.0552 90.0961 68.4552 89.7961 68.0552 89.8961L68.4551 90.3961C69.5551 88.2961 70.6552 86.0961 72.3552 84.3961C72.6552 84.0961 72.3551 83.5961 71.9551 83.7961C71.4551 84.0961 70.9552 84.2961 70.5552 84.7961C70.0552 85.2961 69.6552 85.7961 69.2552 86.2961C68.7552 86.8961 68.3551 87.5961 67.9551 88.2961C67.7551 88.6961 67.5552 89.0961 67.3552 89.3961C67.3552 89.4961 66.9552 90.3961 67.0552 90.3961C66.6552 90.3961 66.7552 90.9961 67.0552 91.0961C67.0552 90.8961 66.8552 90.6961 66.8552 90.5961C66.2552 91.7961 65.7552 93.0961 65.1552 94.2961H65.8552C63.8552 91.1961 61.8552 88.0961 59.8552 85.0961C59.8552 84.9961 59.5551 84.8961 59.4551 84.8961C59.0551 85.0961 58.7552 85.2962 58.3552 85.4962C58.1552 85.4962 58.1552 85.7962 58.2552 85.9962C60.4552 89.2962 62.5552 92.5961 64.7552 95.8961C64.7552 95.9961 65.0552 96.0961 65.1552 96.0961C64.9552 95.8961 64.8552 95.7961 64.6552 95.5961C64.1552 96.8961 63.6552 98.2961 63.1552 99.6961C62.9552 100.296 62.7552 100.896 62.5552 101.496C62.5552 101.596 61.9552 103.496 62.0552 103.496C61.6552 103.596 61.7552 104.196 62.0552 104.196C61.9552 103.996 61.8552 103.896 61.6552 103.696L61.2552 104.996L61.8552 104.796C59.5552 101.996 57.2552 99.1961 55.0552 96.2961C55.0552 96.2961 54.8552 96.1961 54.6552 96.2961C54.2552 96.2961 53.9552 96.7961 53.6552 96.8961C53.3552 96.8961 53.3551 97.2962 53.4551 97.4962C55.9551 100.596 58.3552 103.596 60.8552 106.696C60.8552 106.796 61.0552 106.796 61.2552 106.696C61.0552 106.496 60.9552 106.396 60.7552 106.196C60.2552 107.896 59.6552 109.596 59.1552 111.296C58.9552 112.096 58.6551 112.896 58.4551 113.796C58.4551 113.996 57.8552 116.296 57.8552 116.296C57.4552 116.396 57.5552 117.096 57.8552 116.996C57.7552 116.796 57.6551 116.696 57.4551 116.496C57.3551 116.996 57.1552 117.496 57.0552 117.996L57.6552 117.796C54.9552 114.696 52.3552 111.596 49.6552 108.496C49.6552 108.496 49.4552 108.396 49.2552 108.496C48.8552 108.496 48.5552 108.996 48.2552 109.096C47.9552 109.096 47.9552 109.496 48.0552 109.696C50.8552 112.996 53.6552 116.296 56.5552 119.596C56.5552 119.596 56.7551 119.696 56.9551 119.596C57.0551 119.596 57.1552 119.596 57.2552 119.396L56.6552 118.996C55.8552 121.996 55.0552 124.996 54.2552 128.096L54.8552 127.896C52.8552 126.296 50.6552 124.896 48.5552 123.396L47.0552 122.296C46.6552 121.996 46.1552 121.396 45.6552 121.296C45.1552 121.296 44.9552 121.796 44.5552 121.896C44.1552 121.896 44.0552 122.396 44.3552 122.596C46.0552 123.796 47.7551 124.996 49.4551 126.196C50.9551 127.296 52.5552 128.596 54.1552 129.496L53.9551 129.096C53.4551 130.996 53.0552 132.896 52.5552 134.796C52.3552 135.696 52.1552 136.596 51.8552 137.496C51.7552 137.996 51.6551 138.496 51.4551 138.996C51.4551 139.096 51.2552 140.196 51.2552 140.196C50.8552 140.396 51.1552 140.996 51.5552 140.896C51.3552 140.696 51.2552 140.596 51.0552 140.396C50.8552 141.296 50.6551 142.196 50.4551 142.996L51.0552 142.796C48.7552 140.896 46.4552 138.996 44.0552 137.096C43.5552 136.696 43.0552 136.296 42.5552 135.896C42.2552 135.696 41.9552 135.196 41.6552 135.196C41.1552 135.196 40.8551 135.696 40.4551 135.796C40.1551 135.796 40.0552 136.296 40.2552 136.396C42.2552 137.996 44.1552 139.596 46.1552 141.296C47.0552 142.096 47.9551 142.796 48.9551 143.596C49.2551 143.896 49.9551 144.696 50.4551 144.696L50.0552 144.196C49.5552 146.196 49.1552 148.196 48.6552 150.196L49.2552 149.996C47.4552 148.896 45.5552 147.796 43.7552 146.696C43.3552 146.496 42.6552 145.796 42.1552 145.896C41.7552 145.896 41.5552 146.496 41.2552 146.496C40.8552 146.496 40.7552 146.996 41.0552 147.196C42.5552 148.096 44.1552 148.996 45.6552 149.996C46.3552 150.396 47.0552 150.796 47.7552 151.296C48.0552 151.496 48.4552 151.796 48.8552 151.796L48.4551 151.296C47.5551 155.296 46.6552 159.296 45.7552 163.396H46.4551C45.6551 161.596 44.3551 160.196 42.9551 158.896C42.6551 158.596 41.9551 157.796 41.4551 157.796C40.9551 157.796 40.8551 158.296 40.4551 158.396C40.0551 158.396 39.9552 158.896 40.2552 159.096C42.1552 160.596 44.0551 162.396 44.9551 164.696C45.3551 165.596 45.1551 165.896 44.9551 166.896C44.7551 168.196 44.4552 169.496 44.2552 170.796C43.4552 175.896 43.0552 180.996 42.6552 186.096C42.0552 196.496 41.9552 206.996 42.1552 217.396C42.1552 223.396 42.4552 229.296 42.6552 235.196L43.3552 234.996C41.0552 229.796 38.8552 224.596 36.7552 219.296C34.8552 214.596 33.2552 209.596 31.0552 204.996C28.9552 200.596 26.1552 196.696 23.1552 192.796C19.9552 188.696 16.5552 184.696 13.0552 180.796C9.35524 176.596 5.55521 172.596 1.65521 168.596C1.55521 168.496 1.35519 168.496 1.25519 168.596C0.755187 168.796 0.255236 168.996 0.0552358 169.496C-0.144764 169.996 0.255163 171.496 0.355163 171.996C0.455163 172.996 0.655163 173.996 0.855163 174.896C1.55516 178.596 2.55519 182.196 3.75519 185.696C4.85519 188.996 6.25524 192.296 8.05524 195.296C9.85524 198.296 12.1552 200.596 14.1552 203.296C18.6552 208.996 22.6552 215.096 25.7552 221.596C27.2552 224.796 28.6551 228.096 29.4551 231.596C30.2551 235.096 29.9552 238.596 31.2552 241.996C32.5552 245.396 34.6551 248.396 36.9551 251.096C38.1551 252.596 39.5551 253.896 40.9551 255.196C41.5551 255.796 42.2551 256.396 42.9551 256.896C43.2551 257.096 43.7552 257.796 44.1552 257.796L43.7552 257.396C43.9552 261.496 44.2552 265.596 44.5552 269.696C44.6552 271.696 44.8551 273.796 44.9551 275.796C44.9551 276.796 45.1552 277.796 45.1552 278.796C45.1552 279.296 45.1552 279.796 45.2552 280.296C45.2552 280.596 45.5551 281.696 45.4551 281.896C45.1551 282.296 45.7552 282.596 46.0552 282.396C45.8552 282.396 45.6551 282.196 45.4551 282.096C45.6551 284.596 45.8552 287.096 46.0552 289.596C46.0552 290.796 46.2552 291.896 46.3552 293.096C46.3552 293.796 46.4552 294.396 46.5552 295.096C46.5552 295.496 46.8552 296.596 46.7552 296.996C46.5552 297.396 47.1552 297.596 47.3552 297.396C47.1552 297.396 46.9552 297.196 46.7552 297.096C46.9552 299.996 47.2552 302.896 47.5552 305.796C47.6552 307.196 47.7551 308.496 47.9551 309.896C47.9551 310.696 48.0552 311.396 48.1552 312.196C48.1552 312.396 48.3551 313.996 48.4551 313.896C48.1551 314.196 48.4552 314.696 48.8552 314.496C48.6552 314.396 48.4552 314.296 48.2552 314.196C49.1552 323.496 50.0552 332.696 51.0552 341.996C51.0552 342.396 51.5552 342.496 51.7552 342.196C51.9552 341.896 52.5552 341.996 52.8552 341.596C53.0552 341.296 52.8552 340.596 52.8552 340.296C52.8552 339.596 52.6552 338.896 52.6552 338.096C52.3552 335.296 52.0552 332.396 51.7552 329.596C51.4552 326.596 51.1552 323.696 50.8552 320.696C50.7552 319.396 50.5551 318.096 50.4551 316.696C50.4551 316.096 50.3552 315.396 50.2552 314.796C50.2552 313.796 50.4552 313.596 51.1552 312.896C54.8552 309.696 57.6551 305.396 59.9551 301.096C62.4551 296.396 64.4552 291.396 66.1552 286.396C69.8552 275.696 72.2552 264.596 74.3552 253.496C75.4552 247.796 76.2552 242.196 77.2552 236.496C78.2552 230.796 80.4551 226.196 83.4551 221.596C89.7551 211.796 98.2552 203.096 107.255 195.796C107.455 195.596 107.255 195.296 107.055 195.196C107.055 195.396 107.055 195.696 107.055 195.896C107.455 195.696 107.055 194.996 106.655 195.196C106.355 195.396 106.455 195.796 106.655 195.896C106.655 195.696 106.555 195.496 106.455 195.296C98.5551 201.696 91.2552 209.096 85.2552 217.296C82.1552 221.396 79.4552 225.896 77.6552 230.696C76.6552 233.296 76.2552 235.996 75.8552 238.796C75.4552 241.596 74.9551 244.496 74.4551 247.296C72.5551 258.496 70.2551 269.696 66.9551 280.596C65.3551 286.096 63.4552 291.496 61.0552 296.696C58.8552 301.496 56.2552 306.296 52.6552 310.196C51.7552 311.196 50.7552 312.196 49.6552 312.996C49.3552 313.196 49.1552 313.296 49.0552 313.696C48.8552 314.296 49.2552 315.496 49.2552 316.096C49.5552 319.296 49.8552 322.396 50.1552 325.596C50.4552 328.796 50.8552 332.196 51.1552 335.496C51.3552 336.996 51.4552 338.496 51.6552 340.096C51.6552 340.396 51.8552 340.796 51.7552 341.096C51.6552 341.596 51.7552 341.296 51.3552 341.596C51.1552 341.796 50.9552 341.796 50.8552 341.996L51.5552 342.196C50.4552 332.996 49.5552 323.696 48.7552 314.396C48.7552 314.096 48.4552 313.896 48.1552 314.096C48.3552 314.296 48.4552 314.496 48.5552 314.696C48.9552 314.396 48.5551 312.396 48.4551 311.996C48.2551 310.396 48.1552 308.796 48.0552 307.196C47.7552 303.996 47.4552 300.696 47.2552 297.496C47.2552 297.196 46.8552 296.996 46.6552 297.196C46.8552 297.296 47.0552 297.396 47.2552 297.596C47.3552 297.296 47.2552 296.796 47.2552 296.496C47.2552 295.796 47.1552 295.196 47.0552 294.496C46.9552 293.196 46.8552 291.796 46.7552 290.496C46.5552 287.796 46.3552 285.196 46.1552 282.496C46.1552 282.196 45.7552 281.996 45.5552 282.196C45.7552 282.396 45.9552 282.496 46.1552 282.696C46.4552 282.196 46.1552 280.996 46.1552 280.496C46.1552 279.496 45.9551 278.496 45.9551 277.496C45.7551 275.296 45.6551 273.096 45.4551 270.896C45.1551 266.496 44.8552 262.196 44.6552 257.796C44.6552 257.596 44.4552 257.396 44.2552 257.396C44.0552 257.396 43.0552 256.196 42.7552 255.996C42.1552 255.496 41.5551 254.896 40.9551 254.396C39.7551 253.296 38.6552 252.096 37.6552 250.896C35.5552 248.496 33.7551 245.796 32.4551 242.896C31.7551 241.296 31.2552 239.596 31.0552 237.896C30.8552 236.296 30.8552 234.696 30.5552 233.196C29.9552 229.996 28.8552 226.896 27.5552 223.896C24.8552 217.896 21.4552 212.196 17.6552 206.896C15.7552 204.296 13.7552 201.896 11.7552 199.396C9.55519 196.696 7.75516 193.796 6.35516 190.696C4.75516 187.096 3.55524 183.196 2.55524 179.396C2.05524 177.596 1.65516 175.696 1.35516 173.796C1.15516 172.696 1.05516 171.596 0.855163 170.496C0.855163 169.796 1.05521 169.696 1.65521 169.496H1.25519C8.35519 176.496 15.0552 183.996 21.2552 191.796C24.4552 195.796 27.4552 199.896 29.8552 204.396C32.2552 209.096 33.8552 214.196 35.7552 219.096C38.0552 224.596 40.3552 230.196 42.7552 235.596C42.9552 235.896 43.4551 235.796 43.4551 235.396C43.0551 224.496 42.7551 213.496 42.9551 202.596C43.1551 191.696 43.3552 180.696 45.2552 169.896C45.3552 169.196 45.5552 168.396 45.6552 167.696C45.7552 167.096 46.0552 166.296 46.0552 165.696C46.0552 165.196 45.6552 164.396 45.3552 163.896C44.3552 161.696 42.5552 159.996 40.6552 158.596L40.4551 159.296C40.7551 159.296 40.8552 158.996 41.1552 158.996C41.5552 158.796 41.4552 158.796 41.8552 159.196C42.1552 159.496 42.5552 159.796 42.8552 160.096C44.0552 161.196 45.0552 162.396 45.7552 163.896C45.8552 164.196 46.3551 164.096 46.4551 163.896C47.3551 159.896 48.2552 155.896 49.1552 151.796C49.1552 151.596 49.0552 151.296 48.7552 151.296C48.3552 151.296 47.6552 150.596 47.2552 150.296L45.2552 149.096L41.3552 146.696L41.1552 147.396C41.4552 147.396 41.5552 147.196 41.8552 147.096C42.2552 146.896 42.1552 146.896 42.6552 147.096C43.1552 147.296 43.5551 147.596 43.9551 147.896C45.5551 148.896 47.2552 149.896 48.8552 150.796C49.0552 150.896 49.3551 150.796 49.4551 150.596C49.9551 148.596 50.3552 146.596 50.8552 144.596C50.8552 144.396 50.7551 144.096 50.4551 144.096C50.2551 144.096 48.6551 142.596 48.4551 142.396C47.5551 141.696 46.7552 140.996 45.8552 140.296C44.1552 138.896 42.4552 137.496 40.7552 136.096L40.5552 136.696C41.2552 136.696 41.1552 135.896 41.8552 136.496C42.6552 137.196 43.5551 137.896 44.4551 138.696C46.4551 140.296 48.4551 141.996 50.4551 143.596C50.6551 143.796 51.0552 143.696 51.0552 143.396C51.2552 142.496 51.4552 141.596 51.6552 140.796C51.6552 140.496 51.4552 140.296 51.1552 140.296C51.1552 140.496 51.3551 140.796 51.4551 140.996C51.8551 140.796 51.8551 139.696 51.9551 139.396C52.2551 138.296 52.4552 137.296 52.7552 136.196C53.2552 133.996 53.8552 131.796 54.3552 129.496C54.3552 129.296 54.3552 129.196 54.1552 129.096C52.4552 128.196 50.9551 126.896 49.4551 125.796C47.7551 124.596 46.0552 123.396 44.3552 122.196L44.1552 122.896C44.3552 122.896 44.4552 122.896 44.5552 122.696C45.0552 122.496 44.8552 122.296 45.3552 122.496C46.2552 122.796 47.2551 123.796 47.9551 124.396C49.9551 125.796 51.9552 127.096 53.8552 128.596C54.0552 128.796 54.4551 128.696 54.4551 128.396C55.2551 125.396 56.0552 122.296 56.8552 119.296C56.8552 118.996 56.5552 118.696 56.2552 118.896C56.2552 118.896 52.6552 114.696 52.3552 114.296C50.8552 112.596 49.4551 110.896 47.9551 109.196L47.7552 109.796C47.9552 109.796 48.0552 109.596 48.2552 109.496C48.7552 109.296 48.5551 109.196 48.9551 109.696C49.6551 110.696 50.5552 111.496 51.2552 112.396C52.9552 114.396 54.6552 116.396 56.3552 118.296C56.5552 118.496 56.9551 118.296 56.9551 118.096C57.0551 117.596 57.2552 117.096 57.3552 116.596C57.3552 116.396 57.2551 116.096 56.9551 116.096C56.9551 116.296 56.9551 116.596 56.9551 116.896C57.3551 116.696 57.3552 116.296 57.5552 115.896C57.8552 114.796 58.1551 113.796 58.4551 112.696C59.0551 110.596 59.7552 108.496 60.3552 106.396C60.3552 106.096 60.1552 105.896 59.8552 105.896C60.0552 105.896 58.5552 103.896 58.3552 103.696C57.7552 102.896 57.1551 102.196 56.4551 101.396C55.2551 99.8961 53.9552 98.2961 52.7552 96.7961L52.5552 97.3961C52.7552 97.3961 52.8552 97.1961 53.0552 97.0961C53.0552 97.0961 53.2552 96.9961 53.3552 96.8961C53.4552 96.7961 53.5552 96.8961 53.5552 97.0961C53.9552 97.2961 54.3552 98.0961 54.6552 98.3961C55.0552 98.8961 55.3552 99.2961 55.7552 99.6961C57.1552 101.496 58.6552 103.296 60.1552 105.096C60.3552 105.296 60.7552 105.096 60.7552 104.896L61.1552 103.596C61.1552 103.396 61.0552 103.096 60.7552 103.096C60.7552 103.296 60.7552 103.596 60.7552 103.796C61.0552 103.796 61.0552 103.296 61.1552 103.096C61.4552 102.296 61.7551 101.396 61.9551 100.596C62.5551 98.7961 63.1552 97.0961 63.8552 95.3961C63.8552 95.0961 63.6552 94.7961 63.3552 94.8961C63.4552 94.8961 63.6552 94.9961 63.7552 95.0961C61.5552 91.7961 59.4552 88.4961 57.2552 85.1961V85.6961C57.4552 85.4961 57.7552 85.2961 58.0552 85.0961L57.6552 84.8961C59.6552 87.8961 61.6552 90.9962 63.6552 93.9962C63.8552 94.2962 64.2552 94.1962 64.3552 93.9962C64.8552 92.7962 65.3551 91.5962 65.9551 90.4962C66.0551 90.2962 65.9552 89.9962 65.7552 89.9962V90.6961C66.0552 90.6961 66.2552 89.9961 66.3552 89.7961C66.6552 89.0961 67.0551 88.3961 67.4551 87.6961C67.9551 86.8961 68.4551 86.1962 68.9551 85.4962C69.4551 84.7962 70.1552 84.4962 70.7552 83.9962L70.3552 83.3961C68.5552 85.0961 67.4552 87.2962 66.3552 89.4962C66.2552 89.7962 66.3552 90.1962 66.7552 89.9962C66.9552 89.9962 68.0552 90.4961 68.3552 90.5961L70.6552 91.2961L75.0552 92.6961V91.9962C74.7552 92.0962 74.4552 92.3962 74.0552 92.4962C73.3552 92.4962 72.3552 91.9961 71.6552 91.7961C69.8552 91.1961 68.0552 90.6961 66.3552 90.0961C66.2552 90.0961 65.9551 90.0961 65.9551 90.2961C64.1551 94.2961 62.6552 98.4961 61.2552 102.696C61.2552 102.996 61.4552 103.196 61.7552 103.196C62.2552 103.096 63.0552 103.196 63.5552 103.196C64.3552 103.196 65.2552 103.196 66.1552 103.296C67.7552 103.296 69.3551 103.396 70.9551 103.496V102.796C70.3551 102.996 70.1552 103.296 69.5552 103.396C68.7552 103.396 67.8552 103.396 67.0552 103.296C65.1552 103.296 63.2551 103.096 61.4551 103.096C61.2551 103.096 61.1552 103.196 61.0552 103.396C59.7552 107.396 58.5552 111.496 57.3552 115.596C57.3552 115.796 57.4552 116.096 57.7552 116.096C60.4552 115.796 63.1552 115.496 65.8552 115.196L65.6552 114.496C65.1552 114.696 64.8552 114.996 64.3552 115.096C63.6552 115.196 62.9552 115.296 62.2552 115.296C60.7552 115.496 59.1552 115.596 57.6552 115.796C57.4552 115.796 57.3552 115.796 57.2552 116.096C56.1552 120.096 55.0552 124.196 54.0552 128.296C54.0552 128.496 54.0552 128.696 54.3552 128.796C55.8552 128.996 57.3552 128.796 58.8552 128.796H63.9551V128.096C63.2551 128.296 62.8552 128.596 62.2552 128.696C61.4552 128.696 60.4552 128.696 59.6552 128.696C57.8552 128.696 56.0552 128.696 54.3552 128.696C54.1552 128.696 54.0551 128.796 53.9551 128.996C53.0551 132.496 52.2552 135.996 51.3552 139.496C51.3552 139.796 51.6551 140.096 51.9551 139.896C53.3551 139.196 55.4551 139.396 56.9551 139.496C58.6551 139.696 60.3552 139.996 62.0552 140.496V139.796C61.2552 140.096 61.2552 140.296 60.3552 140.096C59.3552 139.896 58.3552 139.596 57.3552 139.496C55.4552 139.196 53.4552 139.096 51.5552 139.496C51.4552 139.496 51.3552 139.596 51.2552 139.796C50.9552 140.996 50.7551 142.096 50.4551 143.296C50.4551 143.396 50.4551 143.596 50.4551 143.696C50.4551 143.496 50.6552 143.296 50.7552 143.096C50.5552 143.096 50.4552 143.196 50.3552 143.396C49.7552 145.696 49.2552 148.096 48.7552 150.396C48.7552 150.596 48.7552 150.796 49.0552 150.896C49.3552 150.996 49.7552 150.896 50.1552 150.896C50.9552 150.896 51.8552 150.796 52.6552 150.696C54.3552 150.596 56.0552 150.496 57.7552 150.296V149.596C57.1552 149.796 56.8552 150.096 56.2552 150.196C55.5552 150.296 54.7551 150.296 53.9551 150.396C52.3551 150.496 50.6552 150.596 49.0552 150.796C48.8552 150.796 48.7552 150.896 48.6552 151.096C47.6552 155.596 46.5552 160.196 45.6552 164.696C45.6552 164.996 45.8552 165.196 46.1552 165.196C47.5552 164.796 48.9551 164.396 50.4551 163.996C52.1551 163.596 54.0552 163.096 55.7552 163.396V162.696C55.0552 162.896 54.7551 163.196 53.9551 163.196C53.1551 163.196 52.2551 163.196 51.4551 163.396C49.5551 163.696 47.6552 164.196 45.8552 164.696C45.7552 164.696 45.6552 164.796 45.5552 164.996C42.7552 179.696 42.3551 194.596 42.4551 209.496C42.4551 224.696 43.1552 239.896 44.0552 255.096C44.5552 263.596 45.1552 272.196 45.7552 280.696C45.7552 280.996 46.2551 281.196 46.4551 280.896C50.0551 274.296 51.8552 266.596 53.3552 259.296C54.9552 251.496 57.2552 243.996 60.5552 236.796C66.2552 223.896 73.9552 210.596 85.6552 202.196C88.9552 199.896 92.5551 197.896 96.4551 196.796C98.5551 196.196 100.755 195.896 102.955 195.796C103.755 195.796 104.555 195.796 105.355 195.796C105.555 195.796 106.155 195.996 106.355 195.796C106.755 195.596 106.555 194.896 106.155 195.096H106.055L107.355 194.396Z" fill="#346E3C" fill-opacity="0.32"/>
<path d="M6.35489 174.696C12.9549 181.696 19.455 188.896 25.055 196.796C27.855 200.796 30.0549 204.996 31.8549 209.596C33.6549 214.196 35.4549 218.696 37.2549 223.196C39.2549 227.996 41.3549 232.896 43.4549 237.696C43.5549 237.896 43.855 237.896 44.055 237.696C43.855 237.696 43.6549 237.496 43.4549 237.396C43.4549 239.496 43.6549 241.496 43.7549 243.596L44.4549 243.396C41.8549 238.396 39.3549 233.396 36.9549 228.296C34.5549 223.196 32.7549 218.296 30.2549 213.496C25.3549 203.996 19.2549 194.896 12.8549 186.296C9.25489 181.496 6.45486 176.196 3.95486 170.796L3.35489 171.296C4.45489 172.396 5.45496 173.496 6.55496 174.596C6.85496 174.896 7.45496 174.396 7.05496 174.096C5.95496 172.996 4.95489 171.896 3.85489 170.796C3.55489 170.496 3.05491 170.796 3.25491 171.296C5.45491 176.096 7.95486 180.796 10.9549 185.096C13.9549 189.396 17.3549 193.896 20.3549 198.496C23.3549 203.096 26.1549 207.496 28.6549 212.296C31.1549 217.096 33.0549 221.996 35.3549 226.796C38.0549 232.496 40.8549 238.196 43.7549 243.796C43.9549 244.096 44.4549 243.996 44.4549 243.596C44.4549 241.596 44.2549 239.496 44.1549 237.396C44.1549 237.096 43.755 236.896 43.555 237.096C43.755 237.096 43.9549 237.096 44.1549 237.096C40.1549 227.996 36.2549 218.896 32.7549 209.596C31.0549 205.196 29.155 201.196 26.555 197.296C23.955 193.396 21.055 189.896 18.055 186.296C14.455 181.996 10.7549 177.896 6.95486 173.896C6.65486 173.596 6.05486 174.096 6.45486 174.396L6.35489 174.696Z" fill="#346E3C" fill-opacity="0.32"/>
<path d="M36.1547 245.096C34.6547 242.796 33.4546 240.396 32.8546 237.796C32.2546 235.196 32.4546 232.696 31.8546 230.196C30.7546 225.196 28.5547 220.496 26.1547 216.096C23.6547 211.396 20.6546 206.996 17.4546 202.796C14.2546 198.596 10.7546 194.796 8.45459 189.996C5.75459 184.396 4.05469 178.296 3.05469 172.196L2.35461 172.496C4.75461 177.396 7.25469 182.296 10.5547 186.696C13.8547 191.096 16.9546 195.696 19.9546 200.296C22.9546 204.896 25.9547 209.796 28.5547 214.796C31.1547 219.796 32.9546 224.896 35.3546 229.796C38.0546 235.496 40.8546 241.096 43.7546 246.596C43.7546 246.796 44.0546 246.796 44.2546 246.696L43.6547 246.296C43.8547 249.196 43.9547 252.196 44.1547 255.096L44.7546 254.796C41.4546 251.896 38.4547 248.696 36.0547 244.996C35.7547 244.596 35.1546 244.996 35.3546 245.396C37.8546 249.096 40.7547 252.496 44.1547 255.396C44.3547 255.596 44.8546 255.396 44.7546 255.096C44.5546 252.196 44.4546 249.296 44.2546 246.296C44.2546 245.996 43.9547 245.796 43.6547 245.996L44.1547 246.196C41.5547 241.296 39.0547 236.296 36.6547 231.296C34.2547 226.296 32.2546 221.196 29.8546 216.196C27.4546 211.196 24.4546 206.296 21.4546 201.596C18.4546 196.896 15.4547 192.296 12.1547 187.796C8.45466 182.796 5.35464 177.496 2.75464 171.896C2.55464 171.496 2.05469 171.896 2.05469 172.196C2.85469 177.596 4.45469 182.996 6.55469 187.996C7.55469 190.296 8.65469 192.596 10.0547 194.696C11.4547 196.796 13.1546 198.796 14.7546 200.796C18.1546 204.996 21.2546 209.496 23.9546 214.096C26.6546 218.696 29.1546 223.696 30.4546 228.896C30.8546 230.396 31.1546 231.996 31.3546 233.596C31.4546 234.896 31.4546 236.296 31.7546 237.596C32.3546 240.396 33.6547 242.896 35.1547 245.296C35.4547 245.696 36.0546 245.296 35.8546 244.896L36.1547 245.096Z" fill="#346E3C" fill-opacity="0.32"/>
<path d="M49.5547 277.796C52.6547 271.296 54.1547 264.296 55.6547 257.296C57.1547 249.996 59.4547 242.896 62.3547 236.096C65.1547 229.596 68.4547 223.396 72.3547 217.496C75.9547 212.096 80.0547 206.896 85.1547 202.696C91.0547 197.796 98.2547 194.896 106.055 195.496V194.796C92.2547 199.596 82.3547 211.596 75.0547 223.596C71.0547 230.196 67.6547 237.096 64.7547 244.296C63.2547 248.096 61.8547 251.896 60.6547 255.796C59.4547 259.696 58.5547 263.796 57.3547 267.696C54.8547 276.596 51.6547 285.396 48.2547 293.996H48.9546C48.7546 291.296 48.4547 288.496 48.2547 285.696C48.1547 284.296 47.8546 282.896 47.9546 281.496C47.9546 280.296 49.1547 278.896 49.6547 277.696C49.8547 277.296 49.2546 276.896 48.9546 277.296C48.6546 277.896 48.3547 278.496 48.0547 279.096C47.8547 279.596 47.2547 280.096 47.1547 280.596C47.0547 281.096 47.1547 281.896 47.2547 282.396C47.2547 283.196 47.3546 283.996 47.4546 284.896C47.6546 287.996 47.9547 290.996 48.1547 294.096C48.1547 294.496 48.7547 294.596 48.8547 294.096C51.7547 286.596 54.5546 278.996 56.9546 271.296C59.3546 263.596 60.9547 256.096 63.7547 248.696C68.9547 234.596 76.2546 220.396 86.4546 209.196C91.9546 203.196 98.4547 198.096 106.155 195.396C106.555 195.296 106.455 194.696 106.155 194.696C99.5547 194.196 93.2547 196.096 87.8547 199.796C82.4547 203.496 78.0547 208.396 74.2547 213.596C65.8547 225.096 59.4547 238.796 56.0547 252.596C54.0547 260.896 52.7547 269.396 49.0547 277.296C48.8547 277.696 49.4547 278.096 49.7547 277.696L49.5547 277.796Z" fill="#346E3C" fill-opacity="0.32"/>
<path d="M105.055 195.996C98.4553 201.496 92.3552 207.696 86.9552 214.296C81.5552 220.896 77.1552 227.896 75.8552 236.096C72.8552 253.896 69.8552 271.796 63.7552 288.796C60.6552 297.296 56.7552 306.296 49.7552 312.296L50.3552 312.596C49.9552 307.896 49.4553 303.296 49.0553 298.596C48.9553 297.396 48.7553 296.296 49.1553 295.096C49.5553 293.896 50.0552 292.796 50.4552 291.696C51.2552 289.596 52.0552 287.396 52.8552 285.296C55.9552 276.696 58.6552 268.096 60.9552 259.296C63.2552 250.496 66.6552 241.896 70.7552 233.796C74.5552 226.096 79.0553 218.696 84.5553 211.996C87.3553 208.596 90.4552 205.296 93.8552 202.496C95.6552 201.096 97.4552 199.796 99.4552 198.696C100.455 198.196 101.355 197.696 102.455 197.196C103.055 196.896 103.755 196.696 104.355 196.396C104.555 196.396 104.755 196.196 105.055 196.196C105.055 196.196 106.155 195.796 106.055 195.696V195.196C105.755 195.496 105.255 195.696 104.955 195.996C104.555 196.296 104.955 196.896 105.355 196.696C105.755 196.496 106.355 196.096 106.555 195.696C106.555 195.496 106.555 195.296 106.455 195.196C106.055 194.996 105.255 195.396 104.855 195.596C103.855 195.896 102.855 196.296 101.955 196.796C100.055 197.596 98.2553 198.696 96.5553 199.796C93.2553 201.996 90.2553 204.696 87.5553 207.596C81.6553 213.896 76.8552 221.096 72.7552 228.596C68.3552 236.696 64.6552 245.196 61.8552 253.996C60.4552 258.496 59.3553 263.196 58.0553 267.796C56.7553 272.396 55.2553 276.796 53.6553 281.296C52.7553 283.896 51.7552 286.496 50.8552 289.096C50.3552 290.296 49.9552 291.496 49.4552 292.796C49.0552 293.896 48.2553 295.196 48.1553 296.296C48.1553 297.596 48.3552 298.996 48.4552 300.196C48.5552 301.596 48.6552 302.996 48.8552 304.396C49.0552 307.196 49.3553 309.996 49.6553 312.796C49.6553 313.096 50.0552 313.296 50.2552 313.096C56.1552 307.996 59.8553 300.896 62.6553 293.796C65.9553 285.696 68.3552 277.196 70.4552 268.696C72.5552 260.196 74.1553 250.896 75.6553 241.896C76.3553 237.496 76.9552 233.096 78.7552 228.896C80.4552 225.096 82.6553 221.496 85.1553 218.096C90.9553 210.196 98.0552 203.096 105.455 196.796C105.855 196.496 105.255 195.996 104.955 196.296L105.055 195.996Z" fill="#346E3C" fill-opacity="0.32"/>
</svg>
