<svg width="36" height="25" viewBox="0 0 36 25" fill="none" xmlns="http://www.w3.org/2000/svg">
<path fill-rule="evenodd" clip-rule="evenodd" d="M0.54006 22.0592C0.680509 21.36 0.508775 20.7818 0.457957 20.0899C0.441455 19.8391 0.521765 19.6085 0.442325 19.3665C0.382108 19.1833 0.283931 19.0505 0.248871 18.8547C0.218806 18.6846 0.193261 18.5743 0.146048 18.4148C0.0863023 18.2264 1.20416e-06 18.2107 0.000272354 17.9706C0.000831115 17.8373 0.0960313 17.7088 0.110818 17.5798C0.135964 17.365 0.0859086 17.1502 0.107192 16.9319C0.141752 16.5551 0.196371 16.2393 0.318746 15.8789C0.391851 15.665 0.402189 15.4349 0.47049 15.2279C0.5679 14.9416 0.846249 14.6758 1.02582 14.4395C1.64312 13.6238 2.11849 12.7141 2.52586 11.7713C2.70175 11.3618 2.89593 11.0795 3.15314 10.7179C3.44615 10.3069 3.63296 9.85173 3.93285 9.4455C4.50445 8.67317 4.87363 7.74813 5.58356 7.05742C6.22319 6.43375 6.97972 5.9329 7.63792 5.34073C8.54862 4.52581 9.76713 3.95083 10.8097 3.30679C11.3619 2.96298 11.9614 2.70832 12.5177 2.37168C13.0088 2.07363 13.511 1.77495 14.0094 1.48906C14.8218 1.02871 15.7199 0.746292 16.6021 0.471515C17.4517 0.206038 18.4134 7.16886e-05 19.309 6.9025e-05C19.673 -0.00101085 20.0345 0.0905641 20.3966 0.122931C20.8364 0.161907 21.3305 0.166698 21.742 0.341202C22.3898 0.614978 22.967 1.03484 23.59 1.34098C23.9084 1.49883 24.1258 1.62917 24.4153 1.84129C24.6427 2.00663 24.8966 2.05712 25.129 2.20662C25.6488 2.54022 26.1767 2.96222 26.6524 3.35614C26.9888 3.63739 27.2328 3.98328 27.5917 4.24175C27.9246 4.48173 28.2024 4.84042 28.4421 5.17541C28.7716 5.6378 29.053 6.06675 29.4283 6.50204C29.6172 6.72294 29.7713 6.95399 30.0418 7.09832C30.3192 7.24744 30.6409 7.32734 30.9276 7.47148C31.5837 7.80459 32.289 8.11928 32.8744 8.56981C33.2688 8.87437 33.6674 9.17345 34.0653 9.4741C34.3459 9.686 34.6155 9.85334 34.8105 10.1509C35.0062 10.447 35.0169 10.7442 35.0928 11.0894C35.237 11.7477 35.1254 12.2608 34.8739 12.8938C34.5729 13.6535 34.0749 14.2356 33.593 14.8879C32.9911 15.7012 32.2534 16.4557 31.5482 17.181C30.7037 18.0499 29.6386 18.8448 28.5893 19.4426C27.5758 20.0198 26.6382 20.6985 25.6756 21.3483C25.0572 21.7663 24.336 22.0207 23.6605 22.302C22.9777 22.5875 22.3512 22.9044 21.6388 23.1138C21.3127 23.209 20.959 23.2109 20.6467 23.3446C20.2457 23.5174 19.8362 23.7552 19.3952 23.8097C19.0449 23.8492 18.7086 23.8316 18.351 23.8879C17.9152 23.9553 17.4912 24.0369 17.0591 24.1204C16.3045 24.27 15.4223 24.33 14.6652 24.2546C13.834 24.1723 12.9453 24.206 12.0971 24.167C11.3243 24.1317 10.5505 24.4372 9.78475 24.4105C8.94815 24.3819 8.09145 24.3211 7.25627 24.248C6.57203 24.1862 5.99551 23.8225 5.33766 23.6999C4.75423 23.5914 4.15994 23.4295 3.66329 23.1005C3.20941 22.8009 2.74469 22.6501 2.22798 22.4622C1.94333 22.3587 1.71648 22.3037 1.41865 22.2883C1.29833 22.2849 1.1753 22.2298 1.05593 22.2738C0.903388 22.3323 0.902552 22.5034 0.693381 22.5066L0.54006 22.0592Z" fill="#809971"/>
</svg>
