<svg width="11" height="6" viewBox="0 0 11 6" fill="none" xmlns="http://www.w3.org/2000/svg">
<path fill-rule="evenodd" clip-rule="evenodd" d="M9.64983 4.31166C9.3481 4.15431 9.39868 3.94406 9.13881 3.88941C9.02719 3.79997 8.86147 3.737 8.71323 3.64922C8.53707 3.72541 8.53708 3.50341 8.36093 3.53984L8.39755 3.44381C8.3365 3.4554 8.28073 3.4505 8.28945 3.38922L8.31036 3.36931C8.21793 3.38753 8.20049 3.31301 8.1534 3.32129L8.17608 3.30137L8.11503 3.26498L8.15165 3.24507C8.02259 3.23513 7.94064 3.16888 7.8918 3.0811L7.81856 3.17218C7.75055 2.94362 7.53078 3.07614 7.47846 2.8393L7.49762 2.8211C7.11217 2.91716 7.2953 2.41361 6.88893 2.51298C6.93777 2.49808 6.90815 2.4551 6.92385 2.43191C6.79304 2.39878 6.65523 2.34906 6.55931 2.55443C6.49827 2.51965 6.54363 2.46667 6.57677 2.38551C6.52968 2.47329 6.45639 2.48322 6.40581 2.46335L6.44594 2.4402L6.29249 2.39714L6.22447 2.57263C6.17738 2.4865 6.32387 2.3656 6.22969 2.3656L6.14948 2.49974C6.06227 2.41527 6.13025 2.18179 6.09886 2.02776C5.74307 1.73626 5.07685 1.76106 4.82396 1.27909L4.87276 1.17143C4.95997 1.02403 4.61641 1.3106 4.68791 1.16982L4.59546 1.20459C4.59895 1.17147 4.58849 1.12508 4.63384 1.11017C4.59198 1.07539 4.57628 1.09861 4.51349 1.1218L4.52222 1.00423C4.38095 0.825358 4.11061 0.913076 3.92749 0.773952C3.77052 0.449329 3.16705 0.432809 2.86532 0.465934C2.41361 0.590152 2.10842 -0.185038 1.58345 0.0418665C1.57124 0.0153667 1.5259 0.0650943 1.52416 0.0833129C1.38812 0.0584693 1.24511 0.0402563 1.09687 0.0270064C1.09687 0.0270064 0.966063 0.0137339 0.774215 0.0452024C0.591086 0.0683898 0.332951 0.149609 0.163775 0.297015C-0.0123771 0.452701 -0.057759 0.634866 0.0835116 0.772334C0.223038 0.918083 0.502121 1.05718 0.756757 1.3818V1.41829C0.891051 1.48951 0.96777 1.51099 1.08462 1.32549C1.08986 1.5524 1.21546 1.36024 1.24685 1.43477L1.24158 1.45468C1.36367 1.28906 1.4265 1.61864 1.54859 1.48117C1.54161 1.49939 1.52936 1.56073 1.50494 1.56073C1.58168 1.54416 1.68986 1.51096 1.66893 1.6418C1.84683 1.6418 2.07004 1.75948 2.24445 1.59055L2.22529 1.6236C2.33168 1.50435 2.31421 1.6253 2.40839 1.57892C2.40664 1.59714 2.41012 1.60542 2.40663 1.6137C2.52348 1.49942 2.61944 1.6584 2.69618 1.61865L2.66829 1.70316L2.813 1.73298L2.76766 1.69649C2.87579 1.47621 2.8165 1.87376 2.97172 1.76776C3.04497 1.82904 3.36414 1.38179 3.41471 1.53748C3.51238 1.45798 3.28914 1.68328 3.39901 1.63856C3.3432 1.75119 3.33099 1.69315 3.30135 1.79252C3.39553 1.76934 3.34673 1.95656 3.46533 1.92343L3.41998 2.01118C3.61183 1.90518 3.54378 2.22485 3.70075 2.11388C3.84899 2.1056 3.61181 2.40375 3.82284 2.30272L3.79144 2.4402C3.82458 2.48823 3.9153 2.32419 3.931 2.40866C3.88042 2.47657 3.95715 2.50474 3.88389 2.55443C3.92226 2.7333 4.22399 2.54614 4.25189 2.83101C4.38096 2.71838 4.40188 2.84922 4.49955 2.76641C4.46292 2.82769 4.653 2.87901 4.47336 2.94857C4.45767 2.95354 4.44549 2.94366 4.46293 2.92047L4.39667 2.99336C4.37748 3.20204 4.61989 3.0182 4.69489 3.10102C4.68617 3.0563 4.64604 3.04133 4.70883 2.99993L4.78558 3.06624L4.72107 3.12255L4.8222 3.24679L4.86233 3.15065C4.89547 3.23346 4.81873 3.39083 4.9757 3.31795C5.05419 3.26992 4.99137 3.16563 5.07683 3.18219C5.12218 3.29316 5.19894 3.4604 5.29835 3.5548C5.34893 3.45212 5.37855 3.47201 5.42215 3.47201L5.37335 3.55814C5.57043 3.51177 5.30356 3.77178 5.49018 3.74859L5.44307 3.80156L5.58263 3.64255C5.79715 3.53158 5.54075 3.85627 5.80585 3.68733C5.74656 3.67574 5.88784 3.48528 5.92795 3.55319L5.8669 3.62931C5.91225 3.62931 5.94189 3.59949 5.95584 3.62931C5.9105 3.66574 5.87914 3.7469 5.93844 3.7585L5.84599 3.84634C5.91226 3.81322 5.95933 3.77176 6.00816 3.73201C6.00642 3.84464 6.15294 3.78007 6.10062 3.9076C6.10062 3.9076 6.16689 4.02521 6.28025 3.92418C6.20351 3.98381 6.24188 4.05003 6.15991 4.12788C6.24711 4.05997 6.38489 4.05334 6.34652 4.16265L6.33257 4.1676C6.37792 4.34813 6.64479 4.21402 6.66746 4.41608C6.74072 4.32664 6.75814 4.42431 6.84534 4.30175C7.06858 4.30009 6.86102 4.71749 7.22553 4.42599C7.30053 4.45911 7.22031 4.56515 7.23426 4.60987L7.20286 4.61482C7.34064 4.68438 7.37555 4.70916 7.45578 4.79031C7.53078 4.79528 7.679 4.64294 7.7226 4.74563C7.64063 4.78704 7.68422 4.80358 7.71387 4.82842C7.68597 4.8218 7.65981 4.84002 7.66155 4.91455C7.68422 4.89964 7.70346 4.89471 7.7209 4.8914C7.71566 4.89803 7.71389 4.90301 7.70865 4.90798C7.77842 4.9262 7.78541 4.89964 7.77146 4.87149C7.78018 4.86155 7.78887 4.84827 7.79759 4.82509C7.77841 4.9493 7.95108 4.93444 7.86562 5.05203C8.05223 5.14809 8.2563 5.10832 8.43768 5.14807C8.41501 5.2226 8.34526 5.25576 8.28247 5.25411L8.40979 5.29717C8.35223 5.38826 8.31211 5.31039 8.26502 5.30708C8.3156 5.54226 8.63301 5.31539 8.72196 5.52573L8.79173 5.46114L8.79525 5.47933C8.81269 5.43793 8.87368 5.39652 8.90159 5.39321C8.88764 5.48761 8.81613 5.59035 8.90159 5.6152C8.93473 5.72451 9.10218 5.63838 9.19811 5.6152C9.15974 5.58704 9.19112 5.54229 9.21902 5.51744C9.25914 5.52573 9.25392 5.6201 9.29578 5.59195L9.26262 5.71285C9.28355 5.59691 9.40217 5.61847 9.43182 5.57375C9.42833 5.66816 9.3481 5.6334 9.31845 5.69799C9.4789 5.7278 9.39869 5.7129 9.56089 5.74105C9.66553 5.66983 9.57483 5.62513 9.6411 5.52907C9.71958 5.52079 9.80851 5.45288 9.8713 5.54231V5.4297C10.023 5.37504 10.0963 5.4015 10.1591 5.53069C10.7381 5.1895 10.8742 4.9096 10.848 4.70257C10.8219 4.49554 10.637 4.3713 10.637 4.3713C10.3004 4.04833 10.0492 4.3365 9.64983 4.31166Z" fill="#99A292"/>
</svg>
