<svg width="7" height="16" viewBox="0 0 7 16" fill="none" xmlns="http://www.w3.org/2000/svg">
<path fill-rule="evenodd" clip-rule="evenodd" d="M4.97937 1.65112C4.80272 2.15987 4.5522 2.23889 4.47672 2.86624C4.38518 3.14124 4.35625 3.44039 4.30646 3.69992C4.4237 3.8718 4.2117 4.023 4.292 4.20347L4.18923 4.219C4.21653 4.28259 4.22618 4.34789 4.16355 4.37195L4.14105 4.35989C4.17799 4.4527 4.11216 4.50772 4.12983 4.55585L4.10733 4.54043L4.08484 4.62288L4.05592 4.59194C4.0768 4.7346 4.02701 4.84977 3.95153 4.92711L4.05112 4.97526C3.82468 5.1437 3.97565 5.35503 3.73476 5.49769L3.71226 5.48059C3.82147 5.91029 3.30915 5.82432 3.4055 6.26948C3.39266 6.21448 3.3461 6.2574 3.32523 6.24021C3.28508 6.39662 3.23049 6.55996 3.42481 6.66309C3.37664 6.76622 3.3252 6.71804 3.2449 6.69225C3.33001 6.73522 3.32683 6.84529 3.29793 6.93123L3.28023 6.87615L3.2128 7.13233L3.3959 7.15804C3.30115 7.2646 3.18066 7.1014 3.17584 7.24406L3.314 7.30071C3.21604 7.49149 2.99599 7.43475 2.8386 7.51209C2.76473 7.63584 2.69086 7.79917 2.61859 8.00714C2.54954 8.19449 2.48209 8.51591 2.47406 8.63794C2.42428 8.96107 2.31505 9.29453 2.06934 9.51453L1.95852 9.48526C1.80756 9.41651 2.09988 9.7586 1.95534 9.70703L1.98906 9.80837C1.95533 9.81353 1.90716 9.83759 1.8927 9.78603C1.85737 9.84275 1.87983 9.85827 1.90231 9.92702L1.78027 9.94244C1.59398 10.1642 1.66785 10.4857 1.50885 10.74C1.34344 10.8552 1.23264 11.0924 1.15716 11.3536C1.08168 11.6235 1.03993 11.8555 0.999784 12.1632C1.00621 12.3437 0.978911 12.4811 0.924308 12.5671C0.898613 12.6083 0.866494 12.6392 0.834375 12.6547C0.787801 12.689 0.736394 12.7269 0.686608 12.7647C0.577402 12.8455 0.407163 13.0431 0.318835 13.2459C0.296351 13.2958 0.277074 13.3473 0.26262 13.3937C0.252984 13.4247 0.244991 13.4557 0.240174 13.49C0.228932 13.5571 0.227303 13.6276 0.236939 13.7083C0.209637 13.7187 0.244955 13.7822 0.26262 13.7873C0.201593 13.9523 0.138961 14.1277 0.0827524 14.3202C0.0827524 14.3202 0.0313661 14.4938 0.00727651 14.7602C-0.016813 15.0232 0.0152969 15.4031 0.158228 15.6643C0.299554 15.9273 0.493871 16.0183 0.635197 15.8894C0.787764 15.7674 0.900197 15.4237 1.25351 15.1315L1.28885 15.1401C1.3836 14.9613 1.42857 14.8513 1.29688 14.6364C1.51048 14.6777 1.37238 14.4491 1.45749 14.4113L1.47352 14.4234C1.35949 14.2137 1.70803 14.1535 1.6181 13.93C1.63255 13.9438 1.68875 13.9662 1.67912 14.0074C1.69999 13.8424 1.67106 13.784 1.79311 13.8252C1.79633 13.7651 1.85417 13.6877 1.94892 13.5003C1.98425 13.423 2.03883 13.2941 2.0565 13.1858C2.07416 13.0827 2.06613 12.9916 2.03562 12.9211L2.06453 12.9486C1.97139 12.7802 2.09025 12.7853 2.05331 12.6581C2.07258 12.6581 2.08222 12.653 2.08865 12.6565C1.98747 12.5035 2.14164 12.4313 2.13682 12.3041L2.21549 12.3367L2.28778 12.1253L2.23798 12.1924C2.04045 12.0583 2.4371 12.1082 2.36644 11.8916C2.45316 11.7696 2.05811 11.3811 2.22352 11.2917C2.15768 11.1697 2.3552 11.4379 2.3263 11.2952C2.4355 11.3502 2.37286 11.3794 2.47083 11.4C2.4628 11.2728 2.65394 11.2969 2.63467 11.1336L2.72137 11.1749C2.63947 10.9291 2.96548 10.936 2.86752 10.7452C2.87234 10.5406 3.16139 10.7796 3.08591 10.508L3.23367 10.5011C3.28828 10.434 3.12128 10.3687 3.21603 10.312C3.28509 10.3584 3.3252 10.2346 3.37017 10.3223C3.57573 10.1831 3.39109 9.83935 3.69462 9.65888C3.57577 9.53341 3.71387 9.43205 3.62233 9.33923C3.68817 9.36158 3.73313 9.05559 3.81503 9.27388C3.82146 9.2945 3.81181 9.31686 3.78612 9.30482L3.86645 9.36158C4.08486 9.27908 3.8921 8.96449 3.93707 8.92496C3.89853 8.94043 3.89534 8.97829 3.84395 8.93188L3.88732 8.84586L3.95153 8.89748L4.05273 8.78061L3.95638 8.7548C4.03668 8.70152 4.19244 8.76173 4.12017 8.59157C4.07681 8.50907 3.96441 8.60869 3.98368 8.50041C4.10091 8.41619 4.29684 8.25809 4.41247 8.03809C4.30326 8.01403 4.33057 7.95728 4.33057 7.88681L4.42208 7.91608C4.35944 7.6978 4.6341 7.93836 4.59396 7.74414L4.65174 7.78548L4.48314 7.66337C4.36751 7.44336 4.69029 7.6771 4.52167 7.40897C4.51203 7.47772 4.32093 7.34544 4.39159 7.28529L4.46545 7.34718C4.46545 7.29562 4.43817 7.2629 4.46869 7.24227C4.5008 7.29212 4.58268 7.31795 4.59552 7.2492L4.68066 7.34372L4.58268 7.14775C4.71116 7.10307 4.67101 6.8968 4.80431 6.92431C4.80431 6.92431 4.95529 6.75934 4.85572 6.64074C4.91353 6.72496 4.99705 6.63384 5.07092 6.71806C5.0099 6.61493 5.0179 6.41903 5.14317 6.41216L5.1464 6.43104C5.35839 6.25744 5.22186 5.96184 5.4483 5.8123C5.34713 5.7659 5.46437 5.66622 5.32465 5.62841C5.31983 5.31731 5.79037 5.29149 5.42742 5.01649C5.45151 4.89446 5.57197 4.92542 5.61533 4.87214L5.62655 4.90991C5.67152 4.68131 5.68599 4.6177 5.74702 4.46301C5.72936 4.36847 5.54307 4.2877 5.62979 4.16738C5.69403 4.23785 5.69562 4.17604 5.71168 4.12448C5.71329 4.16229 5.73899 4.18286 5.80966 4.1313C5.78878 4.11239 5.77915 4.09345 5.76952 4.07454C5.77755 4.07626 5.78235 4.07463 5.78878 4.07979C5.78717 3.98525 5.75824 3.99208 5.73737 4.02817C5.72612 4.0213 5.71009 4.02134 5.686 4.02649C5.80966 3.96978 5.74865 3.77557 5.88195 3.80651C5.9221 3.53838 5.83052 3.31663 5.83534 3.09147C5.91082 3.08975 5.95739 3.15679 5.96703 3.22554L5.9831 3.0708C6.07946 3.10174 6.01682 3.17219 6.02324 3.22376C6.2272 3.09657 5.96224 2.81815 6.16459 2.64971L6.10034 2.581L6.11641 2.5724C6.07466 2.56209 6.03286 2.49677 6.02805 2.46067C6.12119 2.45724 6.224 2.52427 6.24649 2.41598C6.35087 2.35583 6.26737 2.15991 6.2481 2.03444C6.2192 2.09116 6.17584 2.05843 6.15175 2.02406C6.16138 1.96905 6.25453 1.96054 6.22722 1.90897L6.34446 1.933C6.23043 1.92612 6.25774 1.75941 6.21438 1.72675C6.30753 1.71472 6.27059 1.8316 6.33162 1.86082C6.36534 1.63223 6.34925 1.74564 6.38298 1.51705C6.31553 1.37783 6.26734 1.51529 6.1742 1.43795C6.16938 1.32795 6.10193 1.21288 6.18865 1.10288L6.07784 1.1269C6.02163 0.920649 6.0393 0.808872 6.15493 0.681683C5.73899 -0.0625469 5.40495 -0.0522015 5.23472 0.0492062C5.05485 0.154051 4.98099 0.377456 4.98099 0.377456C4.74009 0.80715 5.02755 1.03236 4.97937 1.65112Z" fill="#99A292"/>
</svg>
