<svg width="15" height="23" viewBox="0 0 15 23" fill="none" xmlns="http://www.w3.org/2000/svg">
<path fill-rule="evenodd" clip-rule="evenodd" d="M5.3331 22.0247C4.38507 21.7329 3.48267 21.4632 2.59378 21.0195C1.72687 20.5859 1.19966 20.0876 0.909002 19.125C0.567644 17.99 0.304024 16.9336 0.224599 15.7508C0.151934 14.65 -0.186035 13.6344 0.138424 12.5387C0.462882 11.4481 0.699435 10.2688 1.20471 9.25156C1.80124 8.05002 2.23723 6.78699 2.80672 5.58203C2.97064 5.23556 3.02979 4.8567 3.1785 4.50511C3.32214 4.16376 3.50804 3.84118 3.66858 3.51007C3.89672 3.03901 4.19243 2.61913 4.45267 2.16855C4.6487 1.83233 4.77543 1.59505 4.88866 1.2281C4.96639 0.972085 5.07458 0.784367 5.19287 0.54713C5.23174 0.470327 5.29932 0.146044 5.37198 0.076068C5.89754 -0.424007 7.04327 1.69411 7.27816 1.98938C7.89835 2.76253 8.56251 3.49468 9.17763 4.27125C9.9854 5.28676 10.445 6.5498 11.143 7.63358C11.4522 8.11317 11.6651 8.64218 11.9879 9.10812C12.3445 9.62185 12.8227 10.0588 13.0981 10.6271C13.5899 11.6409 14.2439 12.5626 14.352 13.7214C14.3943 14.184 14.5193 14.6124 14.5988 15.0681C14.6883 15.5733 14.69 16.1535 14.6714 16.669C14.6461 17.4745 14.6174 18.2699 14.6089 19.0772C14.6055 19.4834 14.4484 19.8128 14.3994 20.2054C14.3369 20.6884 14.2743 20.9871 13.9938 21.3916C13.5206 22.076 12.5794 22.8099 11.7412 22.9379C10.952 23.0608 10.1898 22.7262 9.44797 22.4992C9.13872 22.4036 8.69937 22.1733 8.37998 22.1869C8.19916 22.1954 7.9575 22.3747 7.76654 22.4173C7.52151 22.4685 7.25622 22.477 7.01288 22.419C6.658 22.332 6.30479 22.192 5.95329 22.0827C5.7015 22.0059 5.37539 21.9617 5.15739 21.8166C5.16077 21.7824 5.16412 21.7466 5.1675 21.7107L5.3331 22.0247Z" fill="#809971"/>
</svg>
