<svg width="9" height="4" viewBox="0 0 9 4" fill="none" xmlns="http://www.w3.org/2000/svg">
<path fill-rule="evenodd" clip-rule="evenodd" d="M0.897174 3.4555C1.19352 3.5874 1.22904 3.81873 1.62121 3.79919C1.79511 3.84804 2.0045 3.82193 2.19437 3.80565C2.28842 3.64932 2.44276 3.81052 2.54745 3.67048L2.59359 3.76331C2.62731 3.71446 2.66812 3.6803 2.70894 3.72753V3.75516C2.7604 3.68188 2.81545 3.71767 2.83674 3.68022L2.83847 3.70954L2.89707 3.69165L2.89171 3.72912C2.96801 3.6477 3.05322 3.63301 3.13307 3.65418L3.10821 3.54515C3.28921 3.64774 3.30164 3.40672 3.46844 3.52885L3.47202 3.55648C3.58026 3.23405 3.79497 3.7014 3.89967 3.38712C3.88902 3.4262 3.92451 3.44256 3.92983 3.46862C4.00259 3.41977 4.08067 3.38065 4.02211 3.16896C4.07889 3.15756 4.08597 3.2243 4.11791 3.30572C4.09129 3.21127 4.12854 3.16083 4.16935 3.14292L4.16053 3.18357L4.27582 3.12006L4.19778 2.9507C4.27941 2.98327 4.27938 3.16242 4.33084 3.10217L4.2847 2.95567C4.3823 2.96218 4.50474 3.16894 4.62895 3.25036C5.0016 3.21453 5.28556 2.73252 5.75048 2.82209L5.8179 2.9182C5.9013 3.06638 5.80192 2.65272 5.88532 2.78462L5.89063 2.69835C5.91547 2.71952 5.95451 2.73741 5.95274 2.77975C5.99355 2.76835 5.98113 2.74391 5.9829 2.68692L6.07518 2.76027C6.26328 2.75701 6.28106 2.51761 6.44787 2.46876C6.5987 2.50784 6.73351 2.42962 6.83821 2.31401C6.97129 2.18211 7.0565 1.99978 7.09554 1.87928C7.13636 1.47706 7.87101 1.64801 7.76986 1.34187C7.79116 1.35327 7.76277 1.30773 7.7468 1.29307C7.79826 1.25562 7.82661 1.24582 7.89404 1.20511C7.89404 1.20511 7.94554 1.17087 8.03782 1.07968C8.12832 0.993378 8.2667 0.819146 8.29331 0.638393C8.31993 0.45764 8.22945 0.320909 8.03603 0.267172C7.84438 0.210178 7.53027 0.21825 7.19134 0.0326119L7.16654 0.00498154C7.05297 -0.0145593 6.97131 0.0163962 7.00857 0.224832C6.84354 0.0603631 6.88258 0.29156 6.79385 0.268762L6.78497 0.254152C6.82756 0.452817 6.5064 0.309465 6.55964 0.485333C6.54899 0.470677 6.4993 0.429934 6.5135 0.410393C6.48333 0.482042 6.4656 0.583015 6.3538 0.503223C6.27217 0.649779 6.10892 0.745917 6.23136 0.933183L6.20472 0.905453C6.29167 1.02758 6.18519 0.957613 6.21181 1.03903C6.19584 1.02926 6.18697 1.02434 6.18165 1.01945C6.25973 1.14647 6.10889 1.12044 6.12841 1.18394L6.06457 1.12043L6.01843 1.18225L6.0539 1.17907C6.20296 1.37448 5.91905 1.09114 5.95631 1.2556C5.88533 1.26537 6.13909 1.73918 6.00245 1.68219C6.03439 1.79617 5.92433 1.51447 5.92788 1.6138C5.85335 1.51122 5.90308 1.53728 5.83387 1.46074C5.82323 1.53565 5.69015 1.39397 5.68305 1.49493L5.62803 1.41353C5.6511 1.60731 5.42573 1.37444 5.46655 1.54542C5.43106 1.6529 5.27313 1.31742 5.29087 1.52097L5.19681 1.41681C5.15422 1.41356 5.25006 1.57311 5.18441 1.5324C5.14714 1.4575 5.1081 1.49336 5.09213 1.41194C4.95727 1.33052 5.00517 1.65131 4.8082 1.48847C4.84724 1.64643 4.75673 1.57796 4.78335 1.69521C4.75318 1.6317 4.66978 1.72128 4.67688 1.55844C4.67688 1.54542 4.6875 1.54545 4.69638 1.56987L4.66979 1.47704C4.54912 1.32723 4.6006 1.60404 4.51187 1.60078C4.54382 1.62358 4.57043 1.60892 4.5722 1.67731L4.49942 1.68387L4.48702 1.60406L4.37167 1.58776L4.41602 1.679C4.35037 1.64481 4.28116 1.48844 4.27051 1.63825C4.26874 1.7213 4.35924 1.75228 4.31665 1.79787C4.22793 1.75065 4.10019 1.68061 4.00792 1.67572C4.04873 1.77994 4.02562 1.78158 4.00965 1.81089L3.9777 1.71806C3.93157 1.87113 3.88368 1.52261 3.82867 1.64799L3.81627 1.5813L3.85353 1.78157C3.82869 1.98675 3.75412 1.59914 3.7417 1.87272C3.77009 1.84829 3.81805 2.07467 3.76304 2.04536L3.74706 1.95253C3.72932 1.97695 3.73283 2.01771 3.71154 2.00143C3.71154 1.95094 3.68138 1.86944 3.65121 1.89061L3.64233 1.77342L3.62462 1.95412C3.54832 1.87107 3.50218 2.00949 3.44895 1.88574C3.44895 1.88574 3.32647 1.84666 3.33712 1.99159C3.33712 1.9004 3.2697 1.87927 3.2626 1.77342C3.26083 1.87764 3.19692 1.97374 3.14368 1.8744L3.14726 1.86138C3.01062 1.77345 2.97693 2.04536 2.85272 1.92649C2.87401 2.03559 2.81185 1.98343 2.84557 2.12348C2.75329 2.2798 2.62379 1.85484 2.62912 2.2994C2.58298 2.32708 2.567 2.19842 2.54393 2.17725L2.55281 2.1528C2.47651 2.19351 2.44987 2.19513 2.38954 2.18699C2.35937 2.22932 2.34517 2.43287 2.28838 2.38239C2.31145 2.30097 2.28661 2.31401 2.26531 2.31401C2.27951 2.30098 2.28486 2.27167 2.26179 2.21631C2.25647 2.24073 2.24934 2.25709 2.24224 2.26849C2.24224 2.26197 2.24224 2.25705 2.24224 2.24891C2.2032 2.27496 2.20679 2.29939 2.22453 2.31242C2.22276 2.32544 2.22272 2.3417 2.22627 2.3645C2.1961 2.25539 2.11625 2.36128 2.12689 2.22287C2.0151 2.24078 1.90689 2.3727 1.7951 2.40853C1.79864 2.33525 1.8359 2.2782 1.86961 2.25378L1.7951 2.2668C1.81816 2.16421 1.84655 2.21633 1.8714 2.19842C1.82881 2.02092 1.66734 2.33191 1.60523 2.15767L1.5644 2.2342L1.56261 2.22118C1.55197 2.26189 1.51292 2.31408 1.49341 2.32385C1.50405 2.23266 1.55197 2.12184 1.50229 2.11533C1.48809 2.02251 1.38164 2.13166 1.31421 2.16423C1.33728 2.18702 1.31417 2.23265 1.29287 2.26034C1.26626 2.25708 1.27869 2.16585 1.24852 2.19842L1.28226 2.07955C1.25742 2.19353 1.17936 2.18055 1.15451 2.22615C1.16871 2.13658 1.21839 2.16094 1.245 2.09744C1.14031 2.08278 1.19352 2.08927 1.08882 2.07299C1.00542 2.14626 1.0622 2.18706 1.00364 2.28151C0.946856 2.29128 0.87235 2.3596 0.838634 2.27167L0.822659 2.3808C0.703767 2.43453 0.652319 2.40685 0.625702 2.2831C0.135938 2.60552 0.0134614 2.88887 0.00103984 3.08428C-0.0113817 3.28131 0.0915847 3.39527 0.0915847 3.39527C0.276133 3.70141 0.522753 3.44573 0.897174 3.4555Z" fill="#99A292"/>
</svg>
