<svg width="10" height="12" viewBox="0 0 10 12" fill="none" xmlns="http://www.w3.org/2000/svg">
<path fill-rule="evenodd" clip-rule="evenodd" d="M7.38458 1.00115C7.02024 1.22299 6.78759 1.10124 6.40882 1.46986C6.18696 1.5983 5.97229 1.81009 5.76667 2.01025C5.78291 2.21875 5.46547 2.27046 5.46547 2.47896L5.34823 2.45728C5.34642 2.529 5.33198 2.59576 5.25262 2.59909L5.2328 2.57904C5.23641 2.68412 5.14262 2.72086 5.14803 2.77257L5.1264 2.75414L5.07405 2.8309L5.05242 2.79426C5.02717 2.94604 4.94418 3.05112 4.83956 3.12451L4.94602 3.18621C4.67366 3.31131 4.83056 3.52145 4.56181 3.62153L4.53836 3.6032C4.61051 4.06524 4.06402 4.01016 4.23898 4.32541C4.21733 4.28705 4.17765 4.30703 4.15239 4.29202C4.13977 4.38876 4.12351 4.44052 4.32011 4.57229C4.28584 4.61399 4.23353 4.564 4.15597 4.51396C4.24255 4.57234 4.24438 4.63736 4.21371 4.67573L4.19929 4.63399C4.17584 4.67235 4.15057 4.71238 4.1181 4.75575L4.27685 4.87415C4.16682 4.89249 4.09825 4.7157 4.06218 4.8041L4.17039 4.92261C4.03872 4.98265 3.8187 4.84082 3.60586 4.85083C2.94391 5.26283 2.81403 6.05351 2.22062 6.36876L2.10338 6.32203C1.94285 6.23696 2.22784 6.59721 2.07272 6.53215L2.09798 6.63895C2.0583 6.64062 2.0042 6.66056 1.98977 6.60719C1.94467 6.6639 1.96993 6.68057 1.98977 6.75063L1.85089 6.76071C1.62543 6.96087 1.71919 7.2544 1.56587 7.46123C1.22678 7.65472 1.18354 8.13674 1.10598 8.53539C1.1168 8.80393 0.905746 8.98409 0.698322 9.15589C0.595512 9.24096 0.49273 9.32441 0.422386 9.41448C0.388116 9.45785 0.359246 9.50286 0.343013 9.55456C0.324976 9.6046 0.27986 9.7364 0.285271 9.83148C0.251001 9.84649 0.281682 9.92319 0.303326 9.92819C0.220356 10.14 0.18968 10.3002 0.153606 10.3969C0.153606 10.3969 0.135593 10.467 0.110341 10.5654C0.0868933 10.6621 0.0183577 10.8455 0.0021245 11.0507C-0.0141087 11.2575 0.0616391 11.4361 0.265455 11.4694C0.370069 11.4911 0.501749 11.4828 0.671296 11.4611C0.840842 11.4344 1.04282 11.4127 1.31878 11.3009L1.34944 11.3276C1.56588 11.1475 1.68677 10.869 1.52624 10.6605C1.77335 10.6755 1.59658 10.4637 1.68135 10.452L1.69935 10.4603C1.61999 10.3903 1.6723 10.3569 1.7228 10.3436C1.77331 10.3319 1.81658 10.3418 1.79133 10.2201C1.80576 10.2334 1.8635 10.2651 1.84907 10.2985C1.87974 10.1884 1.8978 10.0349 2.03127 10.0866C2.11965 9.84307 2.32526 9.56795 2.18457 9.34444L2.21704 9.36938C2.11604 9.23094 2.24586 9.26264 2.21881 9.14754C2.23684 9.15088 2.2495 9.1492 2.25491 9.15253C2.15932 9.00909 2.35593 8.91072 2.33429 8.82065L2.42087 8.85903L2.49298 8.69054L2.43887 8.74562C2.21882 8.61051 2.66255 8.68217 2.58138 8.47868C2.67878 8.36859 2.21883 8.01839 2.39379 7.95C2.31082 7.84492 2.54893 8.07838 2.50564 7.95662C2.6319 8.00833 2.56332 8.03006 2.67154 8.05008C2.65711 7.94166 2.86633 7.97001 2.83387 7.83323L2.9313 7.87324C2.82308 7.66474 3.17837 7.69811 3.05933 7.54298C3.05572 7.38119 3.37861 7.60968 3.274 7.39618L3.42548 7.42458C3.47779 7.38956 3.29745 7.30449 3.39846 7.28114C3.4706 7.33285 3.51206 7.24607 3.55715 7.32614C3.76638 7.27443 3.59323 6.95249 3.91609 6.92747C3.80607 6.79069 3.95577 6.77403 3.8764 6.67061C3.93953 6.71064 4.02794 6.52214 4.07484 6.71062C4.07844 6.72396 4.06582 6.73565 4.04418 6.71897L4.11452 6.78901C4.33818 6.82571 4.17224 6.57385 4.27685 6.51047C4.22635 6.51047 4.20287 6.55052 4.17221 6.4838L4.25698 6.41874L4.30388 6.49052L4.45178 6.41874L4.3598 6.36204C4.4554 6.34703 4.59789 6.45713 4.5546 6.30034C4.52755 6.21528 4.40311 6.24356 4.44099 6.1685C4.57266 6.15182 4.73678 6.16184 4.8901 6.09011C4.80352 6.00838 4.83957 5.98672 4.86301 5.94168L4.9316 6.01681C4.99473 5.7933 5.13181 6.15025 5.22741 5.93008L5.26164 5.9934L5.16064 5.8016C5.16424 5.52638 5.40595 5.87329 5.36447 5.51634C5.31216 5.5964 5.16062 5.40298 5.26704 5.35294L5.3266 5.43469C5.35185 5.37464 5.33198 5.32959 5.37707 5.30957C5.39511 5.36962 5.48532 5.40795 5.52861 5.31955L5.59532 5.44131C5.58269 5.35457 5.56648 5.27119 5.54303 5.1928C5.71438 5.12941 5.67288 4.91086 5.82078 4.93421C5.82439 4.93088 5.97773 4.77244 5.84786 4.6857C5.92181 4.75242 5.99577 4.68905 6.08956 4.75911C6.00659 4.67737 5.97769 4.54896 6.09132 4.58899L6.09853 4.59897C6.28612 4.53558 6.15627 4.24369 6.38174 4.19032C6.27893 4.12693 6.39076 4.09019 6.25007 4.01847C6.25187 3.77995 6.71905 3.95017 6.39258 3.60656C6.43226 3.5265 6.54946 3.60315 6.59635 3.58814L6.6018 3.61817C6.68116 3.48306 6.7118 3.44972 6.80018 3.383C6.80559 3.31461 6.66133 3.15281 6.78218 3.12278C6.81465 3.20785 6.83624 3.16953 6.86871 3.14284C6.85608 3.16953 6.87231 3.19622 6.95348 3.20789C6.94085 3.18287 6.9373 3.16451 6.9373 3.14783C6.94271 3.15283 6.94807 3.15622 6.95348 3.16289C6.98414 3.09951 6.95891 3.0861 6.92464 3.09611C6.91742 3.0861 6.90482 3.07443 6.88137 3.06109C7.00943 3.10446 7.03469 2.93597 7.13931 3.04439C7.28541 2.89594 7.32324 2.68748 7.44409 2.53903C7.50722 2.58573 7.51263 2.66412 7.48377 2.71749L7.57757 2.62078C7.6443 2.70751 7.55413 2.71411 7.53249 2.75414C7.77238 2.80585 7.69841 2.43056 7.95814 2.44557L7.93651 2.35384L7.95633 2.3572C7.92747 2.32384 7.92208 2.24883 7.93651 2.22048C8.01948 2.27719 8.07539 2.39228 8.15294 2.3289C8.2756 2.34892 8.30446 2.15534 8.34775 2.05026C8.29364 2.07361 8.27022 2.02361 8.26661 1.98358C8.30268 1.94855 8.39102 2.00028 8.39283 1.94357L8.48844 2.03366C8.38563 1.96027 8.49925 1.8485 8.46317 1.80847C8.54975 1.86018 8.47763 1.90682 8.5137 1.97187C8.62192 1.86178 8.56782 1.91856 8.67785 1.80847C8.67424 1.68837 8.58584 1.72509 8.54255 1.61667C8.58403 1.55662 8.59488 1.43816 8.71032 1.46152L8.6255 1.38139C8.70306 1.23294 8.81129 1.20635 8.93754 1.28641C9.1125 0.994513 9.3506 0.817636 9.46784 0.672521C9.58688 0.525739 9.58687 0.397282 9.55982 0.295535C9.46061 0.0720246 9.00067 0.00039249 8.99886 0.0137364C8.03209 -0.108027 7.684 0.609174 7.38458 1.00115Z" fill="#99A292"/>
</svg>
