<svg width="8" height="13" viewBox="0 0 8 13" fill="none" xmlns="http://www.w3.org/2000/svg">
<path fill-rule="evenodd" clip-rule="evenodd" d="M1.11109 1.47915C1.41138 1.82179 1.3608 2.0661 1.71821 2.31206C1.83572 2.46472 2.01197 2.60374 2.16701 2.76149C2.35633 2.73605 2.34653 2.99217 2.53259 3.00914L2.49179 3.11267C2.55708 3.11776 2.6142 3.13978 2.6044 3.21102L2.58154 3.22634C2.67783 3.23652 2.6958 3.3281 2.74476 3.33319L2.7219 3.34675L2.78555 3.40949L2.7464 3.42305C2.88186 3.47394 2.96832 3.57233 3.02217 3.68768L3.09892 3.60113C3.174 3.8844 3.40411 3.78438 3.47102 4.06257L3.4498 4.0812C3.84802 4.05067 3.54119 4.45775 3.89208 4.44418C3.84801 4.44588 3.85452 4.49172 3.83331 4.50868C3.9198 4.56466 3.99486 4.64946 4.17602 4.51376C4.22008 4.58161 4.15644 4.6121 4.09279 4.66978C4.17113 4.6121 4.2413 4.64606 4.2821 4.69525L4.23479 4.69359L4.35721 4.82922L4.49263 4.6969C4.49916 4.81394 4.31802 4.84281 4.40288 4.89879L4.53183 4.81741C4.57426 4.9582 4.41594 5.14311 4.37514 5.31612C4.55793 5.81652 5.13405 6.24905 5.06714 6.87158L4.96758 6.93432C4.8158 7.00386 5.24666 6.99034 5.10957 7.06497L5.20261 7.09883C5.18139 7.12766 5.16344 7.17518 5.11774 7.15991C5.13243 7.21928 5.15851 7.21085 5.2189 7.2329L5.14384 7.33126C5.14384 7.5823 5.39352 7.69596 5.4229 7.93174C5.30703 8.26251 5.58774 8.64922 5.70525 8.91383C5.77053 9.00204 5.77705 9.10387 5.74604 9.19886C5.71993 9.28537 5.66117 9.2836 5.58447 9.37859C5.42779 9.54143 5.2483 9.74675 5.30053 10.0334C5.27278 10.0402 5.30867 10.0995 5.32663 10.1063C5.26951 10.2471 5.21236 10.398 5.16177 10.5575C5.16177 10.5575 5.11448 10.7 5.09 10.929C5.07205 11.1461 5.04756 11.5007 5.28584 11.862C5.41803 12.0401 5.5796 12.1249 5.70037 12.1198C5.82277 12.1232 5.87008 12.0553 5.89456 11.9603C5.91904 11.8603 5.89944 11.716 5.96309 11.582C6.02837 11.4531 6.18015 11.3785 6.34988 11.2919L6.38579 11.2988C6.48045 11.1868 6.52454 11.0799 6.38908 10.8934C6.60614 10.9392 6.45763 10.7373 6.54412 10.7102L6.55882 10.7204C6.43805 10.5372 6.78075 10.51 6.68283 10.3285C6.69915 10.3387 6.75464 10.3641 6.74648 10.3946C6.75301 10.2929 6.75626 10.1385 6.87867 10.181C6.90641 10.0554 6.96354 9.91638 6.99944 9.73318C7.04351 9.53811 7.0223 9.28874 6.92274 9.21749L6.95701 9.23271C6.82318 9.11906 6.94232 9.092 6.87214 8.97326C6.88846 8.96648 6.89664 8.9579 6.90317 8.9596C6.76445 8.85104 6.86725 8.63055 6.79544 8.54744L6.87867 8.53046C6.86398 8.45752 6.84602 8.38466 6.82806 8.31511L6.82318 8.39815C6.58654 8.41341 6.94396 8.20821 6.76118 8.08269C6.75628 7.93172 6.22097 7.93514 6.29604 7.7723C6.17038 7.74177 6.48373 7.77569 6.37439 7.70614C6.49189 7.66374 6.46251 7.72646 6.549 7.67218C6.46577 7.59416 6.62244 7.47541 6.50657 7.38551L6.59632 7.34989C6.38252 7.2566 6.62247 7.02081 6.43316 6.98349C6.30586 6.86136 6.66488 6.77991 6.43639 6.6934L6.5376 6.58832C6.53597 6.51707 6.37114 6.59675 6.40541 6.50176C6.48375 6.47632 6.43478 6.38303 6.52291 6.39999C6.58329 6.18287 6.23239 6.12182 6.35152 5.81649C6.18506 5.82836 6.23075 5.67742 6.10509 5.68759C6.1671 5.65536 6.02674 5.45858 6.21605 5.52474C6.23237 5.53152 6.23729 5.55018 6.21117 5.56035L6.30421 5.5383C6.41845 5.33645 6.12143 5.34154 6.09368 5.20245C6.08063 5.25333 6.10835 5.30086 6.03491 5.29407L5.99741 5.1719L6.08063 5.16176L6.04472 4.96329L5.96638 5.0311C5.97454 4.92254 6.11164 4.81566 5.94028 4.78004C5.84889 4.77156 5.85865 4.92253 5.78847 4.8462C5.79663 4.70032 5.7999 4.47813 5.74604 4.31529C5.65628 4.38483 5.63832 4.34243 5.59752 4.31529L5.67751 4.25928C5.4784 4.17446 5.82926 4.088 5.64648 3.98792L5.71177 3.96587L5.51758 4.0371C5.27604 4.00657 5.63833 3.8454 5.32498 3.8437C5.37721 3.89459 5.16667 3.99466 5.15525 3.90137L5.245 3.86244C5.20093 3.8353 5.1618 3.84375 5.15853 3.80643C5.21565 3.79965 5.27768 3.73687 5.22383 3.68768L5.3462 3.65548L5.12915 3.65041C5.14873 3.49944 4.9431 3.45025 5.01654 3.32812C5.01654 3.32812 4.91045 3.1008 4.7701 3.16526C4.86802 3.13643 4.80437 3.01422 4.90393 2.96503C4.78968 2.99726 4.58896 2.91593 4.63139 2.80228L4.64608 2.79886C4.59875 2.59871 4.32457 2.69372 4.30825 2.46643C4.23155 2.55124 4.21685 2.43759 4.12382 2.55463C3.89697 2.50544 4.13196 2.0915 3.74844 2.32728C3.67336 2.2713 3.76315 2.17297 3.75173 2.12208L3.78435 2.12374C3.65215 2.01009 3.61789 1.97106 3.54608 1.85911C3.47264 1.83536 3.30618 1.96093 3.27354 1.8354C3.36004 1.81165 3.31757 1.78282 3.28983 1.74719C3.31757 1.76076 3.34699 1.74887 3.35189 1.66406C3.32741 1.67593 3.30778 1.6759 3.28983 1.6742C3.29472 1.66912 3.29799 1.66407 3.30452 1.65899C3.23598 1.61997 3.22458 1.64707 3.23763 1.68269C3.22784 1.68948 3.2164 1.70309 3.2066 1.72514C3.23924 1.59283 3.06302 1.55891 3.16258 1.45544C2.99121 1.29599 2.76599 1.27224 2.59952 1.17725C2.6338 1.10771 2.70886 1.09074 2.76762 1.1111L2.65501 1.03469C2.72845 0.956664 2.75129 1.04489 2.79536 1.06016C2.79862 0.815899 2.44775 0.94997 2.41674 0.704013L2.33346 0.739627L2.33511 0.724305C2.30573 0.756534 2.23718 0.775234 2.2078 0.766753C2.2486 0.678547 2.34655 0.603904 2.27474 0.546231C2.27801 0.429189 2.09194 0.442739 1.99075 0.418991C2.0185 0.46479 1.97609 0.493669 1.93855 0.505543C1.90265 0.478403 1.94014 0.386761 1.88955 0.396939L1.96301 0.295168C1.90426 0.398639 1.7949 0.317229 1.75084 0.347762C1.78837 0.25786 1.85366 0.32906 1.90588 0.283262C1.759 0.173005 1.83242 0.228967 1.68554 0.120407C1.55498 0.133977 1.62845 0.225589 1.52726 0.283262C1.44729 0.249336 1.33142 0.26631 1.30204 0.145876L1.25961 0.25448C1.08661 0.225644 1.02132 0.157752 1.005 0C-0.432817 0.0220513 0.094355 0.856618 0.094355 0.856618C0.299991 1.33327 0.665542 1.20775 1.11109 1.47915Z" fill="#99A292"/>
</svg>
