<svg width="22" height="28" viewBox="0 0 22 28" fill="none" xmlns="http://www.w3.org/2000/svg">
<path fill-rule="evenodd" clip-rule="evenodd" d="M0.00946863 5.89528C-0.0134319 7.08613 -0.000326717 8.37573 0.110904 9.58533C0.17797 10.3077 0.47569 10.7285 0.768489 11.3861C1.07765 12.0812 1.3557 12.8291 1.70248 13.5037C2.09506 14.267 2.79188 14.7832 3.35131 15.4051C3.97616 16.0984 4.62555 16.6232 5.40907 17.1207C6.92869 18.0867 8.28803 19.0714 9.94832 19.7835C11.4009 20.4087 12.6914 21.4139 14.1456 22.0118C15.2383 22.4616 16.3048 23.1703 17.2928 23.8586C17.9439 24.3118 18.2056 24.9898 18.7225 25.5486C19.344 26.2216 19.6908 26.5129 19.9526 27.4295C20.6543 26.8673 20.7296 24.8928 20.9193 24.0682C21.0943 23.293 21.2661 22.5195 21.446 21.7461C21.6897 20.6983 21.6914 19.6301 21.6914 18.5637C21.6914 18.0917 21.7257 17.6113 21.6717 17.1445C21.6079 16.6095 21.5098 16.095 21.4869 15.5567C21.4591 14.9604 21.3004 14.5464 21.0894 14.003C20.9291 13.5873 20.8866 13.1563 20.7623 12.7321C20.512 11.8581 20.121 11.1084 19.7465 10.289C19.5943 9.95336 19.3866 9.68752 19.1707 9.39109C18.976 9.12191 18.8599 8.83066 18.6898 8.54955C18.3561 7.99416 17.9062 7.50346 17.5202 6.99407C17.2814 6.67718 16.982 6.42167 16.7187 6.13205C16.3948 5.77598 16.1298 5.36704 15.7879 5.02972C15.2056 4.44877 14.5824 3.89516 13.9117 3.43347C13.6549 3.25629 13.4292 3.02965 13.1642 2.8678C12.8534 2.6787 12.5066 2.57312 12.1925 2.39083C11.7378 2.12847 11.2749 1.88994 10.8021 1.66846C10.3638 1.46061 9.90411 1.3993 9.47718 1.15738C9.03062 0.903538 8.61518 0.671771 8.1081 0.574662C7.59611 0.47585 7.06773 0.450303 6.55247 0.370231C5.6708 0.232234 4.85131 0.00398624 3.95328 0.00909723C3.4691 0.0125045 3.01927 -0.074398 2.60706 0.22715C2.31263 0.443515 2.02309 0.697381 1.80226 0.993818C1.60597 1.25618 1.46695 1.53219 1.33936 1.84055C1.19542 2.1881 1.11689 2.55264 0.935319 2.88486C0.797916 3.14041 0.673578 3.38065 0.586883 3.66005C0.364421 4.39263 0.0241904 5.1133 0.00946863 5.89528Z" fill="#809971"/>
</svg>
