<svg width="4" height="39" viewBox="0 0 4 39" fill="none" xmlns="http://www.w3.org/2000/svg">
<path fill-rule="evenodd" clip-rule="evenodd" d="M1.19455 4.06433C1.29472 5.31441 1.05622 5.69398 1.18184 7.06554C1.18184 7.39282 1.19612 7.73186 1.21838 8.06927C1.24541 8.41173 1.2311 8.69524 1.21838 9.01915C1.35194 9.32956 1.13252 9.86262 1.23269 10.2641L1.13093 10.4076C1.16592 10.5459 1.18659 10.7078 1.13093 10.8445L1.10551 10.8344C1.16434 11.0554 1.11978 11.2747 1.1484 11.3624L1.12298 11.3557L1.12618 11.5834L1.08959 11.5446C1.15001 11.8753 1.14367 12.2143 1.09915 12.513L1.20886 12.491C1.06417 13.127 1.28198 13.3717 1.11662 13.9436L1.08959 13.9334C1.35195 14.6791 0.852695 15.0789 1.09915 15.8465C1.06735 15.7504 1.0419 15.882 1.01486 15.8735C1.03395 16.221 1.03714 16.5938 1.25021 16.6141C1.23749 16.8671 1.17547 16.8149 1.09119 16.8436C1.1866 16.847 1.21677 17.0696 1.21677 17.267L1.18339 17.1742L1.19135 17.7748L1.37103 17.6634C1.31379 17.9755 1.15161 17.7394 1.19295 18.0431L1.3408 18.0397C1.31536 18.4682 1.10548 18.7331 1.01962 19.1498C1.02757 19.5867 1.06255 19.9747 1.10231 20.4251C1.15001 20.9059 1.25179 21.3546 1.34561 21.7747C1.43783 22.1864 1.52844 22.6132 1.54752 22.9472C1.56024 23.2644 1.48549 23.7924 1.56659 24.3187L1.4839 24.4335C1.34239 24.5397 1.84645 24.7996 1.71289 24.8805L1.821 24.9986C1.80351 25.0476 1.78601 25.1234 1.73831 25.0711C1.7558 25.1977 1.78605 25.2162 1.85283 25.3124L1.78286 25.498C1.80035 26.1239 2.04521 26.6384 2.04998 27.3234C1.9037 28.1432 2.12631 29.7207 2.31711 30.6519C2.49361 31.32 2.49519 31.9678 2.3982 32.6257C2.31392 33.287 2.18354 33.9382 2.26781 34.5894C2.24237 34.6282 2.2837 34.7413 2.3012 34.7413C2.25667 35.1293 2.22013 35.5408 2.15494 35.8563C2.15494 35.8563 2.05953 36.3557 1.90053 36.9698C1.7463 37.5788 1.57931 38.3178 1.65563 38.6602L2.43634 38.9116C2.39499 38.726 2.29167 38.6636 2.09768 38.8019L1.99273 38.7699C2.2042 38.6147 2.53335 38.2604 3.0358 37.5366L3.05968 37.5788C3.34112 36.9731 3.47624 36.5278 3.38401 36.0048C3.4985 35.9862 3.52715 35.8361 3.53192 35.6708C3.53669 35.5172 3.51917 35.3637 3.5621 35.2878L3.57801 35.3047C3.45081 34.8863 3.79268 34.4847 3.66866 34.0731C3.68456 34.09 3.74336 34.1035 3.74018 34.1946C3.73382 33.9044 3.70202 33.5047 3.82923 33.4861C3.83082 32.7893 3.84354 31.7754 3.58277 31.3435L3.62096 31.3705C3.45877 31.1343 3.56372 31.0652 3.4699 30.8054C3.4858 30.7886 3.49213 30.7683 3.50008 30.7717C3.34108 30.5287 3.419 30.0176 3.35063 29.8084L3.43332 29.7897L3.38722 29.2668L3.37926 29.4642C3.14552 29.4085 3.50485 29.0593 3.34107 28.6814C3.35379 28.3187 2.83227 27.9729 2.92449 27.5933C2.80683 27.4196 3.10896 27.7401 3.01038 27.4752C3.12963 27.46 3.09303 27.5967 3.18366 27.5207C3.11211 27.2593 3.28068 27.0754 3.17415 26.7549L3.26634 26.7312C3.06123 26.3212 3.30928 25.9012 3.10893 25.6329C2.96742 25.2027 3.34111 25.2837 3.07875 24.8502C3.10896 24.781 3.13123 24.6848 3.15508 24.6039C3.11533 24.3694 2.96267 24.4874 2.95472 24.2496C3.03263 24.2293 2.94042 23.9848 3.04536 24.0708C3.03741 23.8194 2.97219 23.7519 2.93085 23.5529C2.88315 23.3555 2.88795 23.0535 2.94997 22.625C2.78301 22.4901 2.82749 22.1391 2.6971 22.053C2.76071 22.021 2.60648 21.4036 2.80842 21.7393C2.82432 21.7663 2.83071 21.8236 2.80527 21.8236L2.90227 21.8506C3.01516 21.4508 2.70189 21.213 2.68599 20.8772C2.6685 20.9785 2.69555 21.1117 2.61922 21.0324L2.5938 20.7203L2.67803 20.776C2.67485 20.6225 2.67803 20.474 2.68439 20.3306L2.5922 20.3964C2.63036 20.1939 2.79255 20.0658 2.6415 19.7975C2.55881 19.6727 2.5254 20.0405 2.48088 19.779C2.53017 19.4416 2.59694 18.9456 2.60966 18.5457C2.50313 18.5879 2.50312 18.48 2.47768 18.372L2.57152 18.3552C2.43478 17.9418 2.77184 18.1965 2.67008 17.7984L2.73529 17.8338L2.54129 17.7242C2.36798 17.348 2.74642 17.5639 2.50791 17.1016C2.51586 17.2771 2.298 17.1675 2.34729 16.9549L2.43478 17.0173C2.42047 16.8958 2.38389 16.852 2.40615 16.7744C2.45226 16.8486 2.53493 16.8216 2.52698 16.6444L2.63509 16.771L2.48088 16.4251C2.58741 16.1754 2.48088 15.7621 2.61127 15.6643C2.61127 15.6643 2.69396 15.1161 2.55881 14.9811C2.64149 15.0958 2.68441 14.7955 2.78299 14.8866C2.69077 14.7364 2.62559 14.313 2.73689 14.1477L2.74641 14.1797C2.87679 13.5572 2.63989 13.1034 2.78935 12.5467C2.67964 12.5687 2.74958 12.2751 2.60806 12.3443C2.49199 11.7623 2.92926 11.2848 2.50631 11.0807C2.49041 10.8327 2.61919 10.7939 2.64941 10.6674L2.66852 10.7281C2.66534 10.2608 2.67962 10.1191 2.72573 9.75805C2.70347 9.57247 2.50948 9.52189 2.58739 9.1946C2.65735 9.31101 2.65419 9.1743 2.66532 9.04777C2.67168 9.12875 2.69869 9.15917 2.76548 8.99721C2.74322 8.97191 2.73052 8.93303 2.72098 8.89929C2.72734 8.8976 2.7321 8.89262 2.74005 8.896C2.72733 8.68006 2.70032 8.71547 2.68124 8.81331C2.67011 8.80825 2.65419 8.81495 2.63034 8.84194C2.75118 8.63106 2.65579 8.22288 2.78299 8.20601C2.73847 7.58181 2.58742 7.13804 2.52222 6.62349C2.59219 6.56445 2.65579 6.68423 2.68759 6.83437L2.65261 6.46667C2.75437 6.46836 2.71619 6.67748 2.73845 6.79051C2.8895 6.34851 2.5588 5.89307 2.68759 5.37346L2.60331 5.26885L2.61447 5.23847C2.57313 5.24184 2.50948 5.12884 2.49199 5.05292C2.57468 4.97363 2.69553 5.04445 2.67168 4.78634C2.74323 4.57209 2.58107 4.20092 2.4968 3.93943C2.50157 4.08788 2.44751 4.04913 2.40775 3.99009C2.38708 3.86187 2.46178 3.77078 2.40931 3.67799L2.52382 3.64422C2.42365 3.71507 2.34731 3.32712 2.28848 3.29001C2.35844 3.19722 2.40295 3.47553 2.47132 3.49409C2.35684 2.9728 2.42046 3.2326 2.28213 2.71637C2.12312 2.46838 2.18829 2.79908 2.05314 2.70124C1.96887 2.48867 1.84008 2.29461 1.84803 2.0095L1.76534 2.11916C1.58567 1.70752 1.53323 1.45115 1.53005 1.11543C1.28041 0.739219 1.01964 0.546839 0.830424 0.379823C0.634848 0.216182 0.482194 0.113284 0.362941 0.0542385C0.127614 -0.0587924 0.0337921 0.0171123 0.00517126 0.168945C-0.03935 0.475984 0.218241 1.10359 0.218241 1.10359C0.289793 1.29591 0.294567 1.34819 0.321598 1.44266C0.350219 1.54388 0.37564 1.63668 0.401081 1.72778C0.461503 1.92685 0.533055 2.14446 0.620508 2.38739C0.665029 2.51392 0.714363 2.64552 0.763654 2.78217C0.817716 2.92557 0.882865 3.08415 0.928977 3.19044C1.03074 3.43506 1.123 3.71849 1.19455 4.06433Z" fill="#99A292"/>
</svg>
