<svg width="10" height="16" viewBox="0 0 10 16" fill="none" xmlns="http://www.w3.org/2000/svg">
<path fill-rule="evenodd" clip-rule="evenodd" d="M2.32659 15.1238C1.67074 14.469 0.973643 13.7254 0.566615 12.8978C0.197489 12.1494 0.0739119 11.4375 0.0145881 10.6162C-0.0513273 9.69974 0.111847 8.87215 0.388691 7.99219C0.520522 7.57044 0.614424 7.12172 0.803931 6.71741C1.0198 6.25761 1.31146 5.8279 1.54052 5.37286C1.93601 4.58486 2.49632 3.77948 3.09285 3.11991C3.23622 2.96136 3.37791 2.80599 3.50809 2.63634C3.80966 2.24155 4.21668 1.95931 4.56603 1.60891C4.75554 1.41706 5.04065 1.1967 5.18072 0.963634C5.30761 0.75276 5.37186 0.511767 5.49875 0.294551C5.6207 0.0852636 5.64377 -0.100295 5.91072 0.0614275C6.17603 0.224735 6.3474 0.695592 6.5056 0.95086C6.76926 1.37578 7.07248 1.6913 7.25375 2.16061C7.36416 2.45076 7.52238 2.69819 7.71189 2.94553C8.12056 3.48143 8.33148 4.17745 8.46331 4.8291C8.51769 5.10656 8.58526 5.28885 8.71214 5.53302C8.9066 5.90403 8.90328 6.23222 8.97249 6.63177C9.08949 7.30878 9.28067 7.97314 9.35153 8.65808C9.4883 10.0026 9.66129 11.4153 9.52452 12.7693C9.45861 13.4368 9.39272 14.0234 9.05326 14.6132C8.91319 14.859 8.74509 15.081 8.56052 15.2966C8.3051 15.5963 8.00352 15.7089 7.6278 15.8246C7.25538 15.9404 6.73961 15.9769 6.3507 15.923C6.05738 15.8833 5.8069 15.804 5.51193 15.7818C5.33396 15.7691 5.08845 15.7279 4.92696 15.6439C4.70285 15.5281 4.61881 15.368 4.33043 15.3458C4.01403 15.322 3.85913 15.4457 3.54108 15.3585C3.14724 15.2491 2.75504 15.1254 2.36119 15.0096L2.32659 15.1238Z" fill="#809971"/>
</svg>
