<svg width="10" height="16" viewBox="0 0 10 16" fill="none" xmlns="http://www.w3.org/2000/svg">
<path fill-rule="evenodd" clip-rule="evenodd" d="M3.21242 0C4.15731 0.0540232 5.01187 0.253756 5.92666 0.481308C6.70264 0.672845 7.59903 0.905363 8.13921 1.54055C9.054 2.61446 9.52727 4.06325 9.57243 5.45476C9.63096 7.19496 8.41183 8.74038 8.16432 10.4544C7.98538 11.6887 7.91843 12.8936 7.94854 14.146C7.95355 14.367 8.07568 14.9809 7.96196 15.1789C7.63919 15.7437 6.57219 14.3063 6.37318 14.0853C5.26272 12.8395 4.26431 11.453 3.33113 10.0762C3.13881 9.79134 2.9582 9.64732 2.70567 9.43941C2.42137 9.20204 2.25246 8.87291 1.98488 8.62408C1.77081 8.42763 1.51659 8.29832 1.32594 8.06913C1.0985 7.79901 0.966386 7.46838 0.757339 7.18025C0.320848 6.57781 -0.157458 5.5874 0.0499166 4.81798C0.198758 4.26465 0.839281 4.03703 0.95133 3.46078C0.989795 3.26433 0.942957 3.0777 0.971387 2.88125C1.00985 2.63078 1.06341 2.36071 1.12195 2.11188C1.25072 1.56674 1.81928 1.38333 2.26915 1.13777C2.42301 1.05265 2.59194 0.987146 2.74078 0.895471C2.84614 0.833262 2.99331 0.754735 3.05686 0.641777C3.13546 0.504264 3.07862 0.351986 3.2191 0.242303L3.21242 0Z" fill="#809971"/>
</svg>
