<svg width="20" height="15" viewBox="0 0 20 15" fill="none" xmlns="http://www.w3.org/2000/svg">
<path fill-rule="evenodd" clip-rule="evenodd" d="M17.3365 7.60477C17.6381 6.60327 18.1692 5.5024 17.9045 4.44297C17.6515 3.42658 16.9896 2.66681 16.3211 1.89375C15.6895 1.16208 15.026 0.438657 14.0592 0.140692C12.9835 -0.192036 11.6666 0.163893 10.5591 0.208587C9.54537 0.248316 8.4898 0.248347 7.48952 0.427126C6.5881 0.586041 5.64479 0.912111 4.73164 0.907145C3.82184 0.898868 3.01929 0.9916 2.12624 1.1472C1.575 1.24487 0.430606 1.37567 0 1.7713C0.0636693 2.04443 0.31332 2.21485 0.512705 2.38701C0.89137 2.71477 1.17958 3.06905 1.49123 3.45475C2.00058 4.08378 2.62552 4.67142 3.18514 5.25742C4.31779 6.44928 5.74868 7.32496 7.00029 8.37445C7.52137 8.81147 8.01734 9.24192 8.52669 9.69549C9.06453 10.1755 9.48338 10.7449 9.99609 11.2498C10.9511 12.1867 12.1592 12.8539 13.4426 13.2247C14.406 13.5045 15.6828 14.1484 16.7115 14.016C17.8609 13.8736 18.6685 12.9648 19.0455 11.9418C19.4141 10.9353 18.7004 9.66397 18.4206 8.71545C18.2446 8.12283 18.2564 7.73056 17.8425 7.2174C17.5577 6.86646 17.375 6.72741 17.5828 6.2606L17.3365 7.60477Z" fill="#809971"/>
</svg>
