<svg width="13" height="45" viewBox="0 0 13 45" fill="none" xmlns="http://www.w3.org/2000/svg">
<path fill-rule="evenodd" clip-rule="evenodd" d="M8.97181 5.09168C8.87493 5.524 8.79553 5.88838 8.76058 6.27432C8.74311 6.45155 8.74943 6.71326 8.75579 6.85239C8.76532 6.9965 8.77325 7.13396 8.78278 7.27144C8.82567 7.82136 8.90828 8.37133 9.12905 9.18461C9.2847 9.97304 9.50228 10.7664 9.6214 11.4869C9.82152 11.7751 9.72941 12.5139 9.93747 12.9429L9.87393 13.1317C9.94222 13.2775 10.0026 13.4498 9.97877 13.6104L9.95177 13.6055C10.0566 13.8192 10.0566 14.0758 10.1074 14.1785L10.0804 14.1753L10.1328 14.4386L10.0899 14.3988C10.2186 14.7665 10.2758 15.1525 10.271 15.4871L10.3774 15.4474C10.3138 16.1729 10.5362 16.4411 10.4076 17.1335L10.3806 17.1236C10.6696 17.9799 10.2392 18.5895 10.5315 19.406C10.4965 19.2984 10.4743 19.4524 10.4473 19.4442C10.4854 19.8384 10.4806 20.2625 10.6934 20.279C10.676 20.5722 10.6125 20.5141 10.5299 20.5456C10.6236 20.5489 10.6458 20.809 10.6331 21.0359L10.6045 20.9283C10.5982 21.1486 10.587 21.3673 10.5712 21.5859L10.7617 21.4799C10.6696 21.8227 10.5394 21.5395 10.5394 21.8791L10.6855 21.8956C10.5918 22.3759 10.3266 22.6178 10.136 23.0551C9.68494 24.935 9.58644 27.1729 8.65255 28.6818L8.52231 28.7034C8.36666 28.662 8.54299 29.2466 8.37622 29.2433L8.35082 29.4686C8.29841 29.5083 8.21738 29.6028 8.23009 29.4934C8.13956 29.6624 8.1618 29.6806 8.14275 29.8297L7.96011 29.9655C7.54399 30.6032 7.39625 31.274 6.95631 31.9581C6.62595 32.3241 6.26383 32.9254 5.92236 33.5615C5.76195 33.863 5.59839 34.1743 5.44116 34.4691C5.27757 34.7557 5.12349 35.0257 4.99325 35.2543C4.82013 35.5922 4.58986 35.9119 4.33891 36.2365C4.0975 36.5512 3.87514 36.7417 3.54479 36.9918C3.17949 37.2883 2.85866 37.671 2.62678 38.0006C2.40442 38.3053 2.15663 38.7277 2.03434 39.117C1.99145 39.1551 1.97242 39.3025 1.98989 39.3108C1.75959 39.7497 1.55946 40.187 1.35775 40.6061C1.35775 40.6061 1.18304 40.9754 0.952741 41.4657C0.838387 41.7158 0.714505 41.999 0.596975 42.2806C0.541386 42.4231 0.48578 42.5656 0.430192 42.7047C0.388897 42.8157 0.339686 42.9085 0.276156 43.0277C0.153861 43.253 0.0267797 43.5263 0.00613248 43.7267C-0.0192795 43.9321 0.0363476 44.0281 0.134819 44.0132C0.239643 44 0.390516 43.8724 0.660518 43.7118C0.795519 43.6256 0.962297 43.5329 1.16877 43.354C1.3673 43.1651 1.53404 42.9647 1.76116 42.708L1.77546 42.7593C2.18999 42.1034 2.46 41.638 2.51559 41.0682C2.74588 41.0897 2.79827 40.4984 2.93645 40.3741L2.946 40.3974C2.99523 39.8972 3.47328 39.6354 3.56699 39.2097C3.57175 39.2329 3.61625 39.2744 3.57019 39.3572C3.63213 39.2297 3.72267 39.0524 3.81161 38.9182C3.89579 38.7874 3.97203 38.7062 4.03079 38.7361C4.1245 38.5754 4.22931 38.4246 4.34366 38.2838C4.45643 38.1397 4.57396 38.0304 4.75502 37.8316C5.09014 37.4639 5.32518 37.0333 5.36806 36.7964L5.37601 36.846C5.42842 36.533 5.56977 36.5396 5.70318 36.2381C5.72701 36.2348 5.7461 36.2216 5.74928 36.2282C5.8271 35.8936 6.27657 35.4729 6.37821 35.2195L6.45446 35.256C6.5704 35.0754 6.68474 34.8883 6.79432 34.6945L6.64979 34.8949C6.50685 34.6878 7.02619 34.5586 7.13419 34.0882C7.37878 33.7387 7.17391 33.0811 7.49156 32.7614C7.50585 32.5212 7.54715 33.0199 7.63609 32.7019C7.74251 32.7582 7.62499 32.8708 7.74728 32.8526C7.85528 32.5528 8.10778 32.4799 8.22849 32.1023L8.31588 32.137C8.41594 31.6103 8.88284 31.3718 8.89872 30.9892C9.07025 30.4889 9.30532 30.8186 9.38632 30.2388L9.5928 30.1096C9.71192 29.9059 9.52767 29.886 9.69285 29.6756C9.75796 29.727 9.8898 29.3957 9.89298 29.5746C10.2599 29.0645 10.2027 28.3638 10.6347 27.683C10.541 27.4677 10.7379 27.1165 10.6601 26.9591C10.7332 26.9591 10.8745 26.2006 10.9015 26.671C10.9031 26.7108 10.8841 26.7737 10.8602 26.7621L10.9349 26.8399C11.2192 26.454 11.046 26.0266 11.1731 25.6109C11.1127 25.7285 11.081 25.8991 11.0461 25.7699L11.1509 25.379L11.208 25.48L11.3859 24.9052L11.2747 24.9633C11.3875 24.6883 11.5686 24.6336 11.5082 24.2675C11.4669 24.1019 11.3224 24.5144 11.3605 24.1997C11.5098 23.827 11.7226 23.2555 11.8322 22.7486C11.7179 22.7768 11.7449 22.6409 11.7433 22.4952H11.8386C11.7878 21.9304 12.0737 22.3279 12.0387 21.7664L12.0975 21.8228L11.9212 21.6537C11.7862 21.1436 12.1435 21.407 11.9371 20.8356C11.9339 21.0526 11.7258 20.92 11.783 20.66L11.8672 20.7329C11.8577 20.5838 11.8243 20.5341 11.8481 20.4363C11.891 20.5274 11.9768 20.4894 11.9704 20.2707L12.0768 20.4231L11.9259 20.0024C12.0339 19.6861 11.9053 19.1792 12.026 19.045C12.026 19.045 12.0371 18.871 12.0244 18.6772C12.0133 18.4785 11.9847 18.3096 11.9116 18.235C12.0037 18.356 12.0228 18.0097 12.1277 18.1041C12.0228 17.9468 11.9323 17.4582 12.034 17.2561L12.0467 17.2942C12.1388 16.5472 11.8831 16.0138 11.9514 15.2933C11.8466 15.3347 11.8672 14.9554 11.7385 15.0663C11.5225 14.369 11.8322 13.7346 11.3732 13.5657C11.3002 13.2609 11.4129 13.1831 11.4082 13.0207L11.4431 13.0903C11.3192 12.5288 11.2922 12.3665 11.2557 11.9541C11.1922 11.7586 10.9937 11.7272 10.9921 11.328C11.0874 11.4456 11.0508 11.2849 11.0302 11.1342C11.0556 11.2269 11.0905 11.2534 11.1144 11.048C11.0858 11.0232 11.0635 10.9834 11.0445 10.9469C11.0508 10.9436 11.0556 10.9354 11.0635 10.937C10.9968 10.6919 10.9793 10.7399 10.9873 10.8575C10.9746 10.8542 10.9603 10.8675 10.9444 10.9056C11.0064 10.629 10.8142 10.1966 10.9412 10.1387C10.7665 9.41317 10.5108 8.93773 10.3345 8.35965C10.3885 8.27683 10.4775 8.39945 10.541 8.56508L10.4266 8.15261C10.5267 8.13273 10.5347 8.37959 10.5823 8.50382C10.6331 7.97046 10.2043 7.51656 10.2583 6.91032L10.1614 6.80599L10.1693 6.7696C10.1281 6.77953 10.0502 6.6553 10.028 6.57579C10.1106 6.49794 10.2297 6.55258 10.2122 6.34387C10.3012 6.16499 10.2106 5.77739 10.2281 5.47262C10.1852 5.62335 10.1471 5.56376 10.1297 5.49253C10.1503 5.35174 10.2535 5.29043 10.2424 5.17448L10.3615 5.18934C10.2376 5.2175 10.3266 4.79682 10.298 4.73056C10.4028 4.67425 10.3123 4.9691 10.371 5.01879C10.5013 4.45894 10.4314 4.73887 10.5775 4.17736C10.5759 3.84774 10.4552 4.19559 10.3965 4.02167C10.4521 3.74837 10.4521 3.4601 10.6157 3.17852L10.487 3.23978C10.5664 2.7114 10.676 2.41492 10.8872 2.11346C11.1048 0.0877072 10.7824 -0.155756 10.5585 0.067855C10.3345 0.245088 10.0344 0.937494 10.0344 0.937494C9.36094 2.31891 9.33235 3.16532 8.97181 5.09168Z" fill="#99A292"/>
</svg>
