<svg width="4" height="11" viewBox="0 0 4 11" fill="none" xmlns="http://www.w3.org/2000/svg">
<path fill-rule="evenodd" clip-rule="evenodd" d="M0.8032 1.32322C0.935889 1.59005 0.746337 1.67483 0.885344 1.83335C0.885344 1.85533 0.92483 2.00285 0.959581 2.08761C0.999072 2.18021 1.04015 2.27916 1.07648 2.36705C1.25182 2.41571 1.14599 2.61031 1.30238 2.67467L1.22968 2.73904C1.28181 2.75945 1.32291 2.79241 1.28816 2.84107L1.2629 2.84576C1.34188 2.87873 1.32132 2.94938 1.36239 2.9635L1.33554 2.96973L1.36553 3.02778H1.32764C1.42241 3.09528 1.45557 3.18634 1.44767 3.27581L1.54881 3.23663C1.48562 3.44067 1.71939 3.43753 1.62777 3.62902L1.60092 3.63525C1.93264 3.74355 1.50297 3.98842 1.81732 4.10457C1.77783 4.08888 1.76675 4.12966 1.7399 4.13437C1.79518 4.21442 1.83469 4.3039 2.04162 4.2521C2.05584 4.31803 1.99108 4.32118 1.91368 4.34944C2.00214 4.32589 2.05428 4.37292 2.07165 4.42157L2.03217 4.40749L2.09691 4.54401L2.2612 4.47503C2.22961 4.56607 2.05741 4.54403 2.11586 4.60838L2.25802 4.57543C2.25328 4.69001 2.04796 4.79671 1.96266 4.916C1.97846 5.33507 2.39863 5.76514 2.17274 6.20776L2.06375 6.23296C1.90579 6.25336 2.30861 6.33181 2.1617 6.35692L2.23907 6.40243C2.21064 6.41812 2.18221 6.44954 2.1443 6.42599C2.14114 6.47308 2.16799 6.47304 2.21854 6.50129L2.12217 6.55628C2.05583 6.74149 2.25647 6.88277 2.22803 7.07896C2.03848 7.32225 2.25328 7.76017 2.38755 8.00659C2.65293 8.34719 2.10165 8.87292 2.40336 9.13818C2.38125 9.15073 2.43338 9.16964 2.45234 9.16807C2.4555 9.26538 2.45075 9.35327 2.44443 9.43803C2.44443 9.43803 2.44284 9.51492 2.44916 9.61066C2.45548 9.70484 2.47287 9.81942 2.52026 9.92929C2.56765 10.036 2.65296 10.1459 2.8283 10.1914C2.9989 10.2275 3.28795 10.2212 3.67654 9.90103L3.70971 9.91511C3.8266 9.70165 3.84556 9.54628 3.67022 9.40345C3.88663 9.37363 3.6876 9.22772 3.75237 9.17592L3.77131 9.18062C3.59913 9.06761 3.88505 8.9091 3.72393 8.81179C3.7413 8.81493 3.79975 8.80858 3.80607 8.83526C3.76974 8.75521 3.70658 8.65165 3.82979 8.62967C3.76976 8.44132 3.79345 8.19646 3.58336 8.11485L3.61966 8.11801C3.47749 8.07092 3.58968 8.04109 3.51543 7.97517C3.53123 7.96889 3.5391 7.96262 3.54542 7.96262C3.40641 7.90611 3.50593 7.75857 3.44433 7.70521L3.52806 7.69419L3.49803 7.55451L3.48381 7.60941C3.25476 7.60627 3.61808 7.49016 3.46327 7.39913C3.48697 7.29867 2.97675 7.22964 3.08259 7.11977C2.97359 7.07583 3.25794 7.15115 3.17264 7.08366C3.29111 7.07424 3.24846 7.11346 3.34324 7.08835C3.28164 7.02086 3.45698 6.96436 3.37168 6.8796L3.46487 6.87175C3.28795 6.76502 3.57384 6.64575 3.40798 6.57668C3.32426 6.46211 3.67814 6.4793 3.48858 6.36315L3.61021 6.30672C3.62758 6.25022 3.45379 6.27844 3.51066 6.21408C3.58964 6.21251 3.5691 6.13243 3.64651 6.16226C3.76024 6.01471 3.45065 5.89547 3.64178 5.69456C3.48382 5.66788 3.56756 5.5674 3.44751 5.54856C3.51386 5.53601 3.43801 5.3618 3.5944 5.4497C3.60703 5.45754 3.60703 5.47323 3.58017 5.4748L3.67341 5.47796C3.83295 5.35082 3.5565 5.29426 3.56914 5.18596C3.54228 5.22206 3.55647 5.26135 3.49013 5.24095V5.14208L3.56914 5.15301L3.5928 4.99925L3.50121 5.03373C3.53912 4.95526 3.6955 4.9035 3.5486 4.84386C3.46804 4.81875 3.43328 4.93173 3.39063 4.8611C3.4396 4.75594 3.50908 4.59266 3.51066 4.46238C3.40957 4.49692 3.40643 4.46247 3.378 4.43422L3.46805 4.40902C3.31482 4.307 3.65759 4.31806 3.52806 4.20976L3.5944 4.2066L3.39694 4.21762C3.19159 4.14542 3.56912 4.11085 3.29426 4.04336C3.3227 4.08887 3.10156 4.11715 3.12525 4.04652L3.21689 4.0402C3.19004 4.01037 3.1505 4.00882 3.16314 3.98214C3.21369 3.98999 3.29113 3.96012 3.26428 3.9146L3.38113 3.91939L3.1979 3.86756C3.27214 3.77025 3.12369 3.69175 3.23743 3.62739C3.23743 3.62739 3.2532 3.45944 3.11103 3.46415C3.20265 3.47043 3.21053 3.37785 3.31321 3.37314C3.20895 3.36059 3.09838 3.2711 3.18368 3.19419L3.1979 3.20051C3.24845 3.00117 2.97361 2.95564 3.05101 2.772C2.94992 2.81281 2.98148 2.71705 2.85669 2.77669C2.67978 2.66525 3.04151 2.42196 2.61817 2.49102C2.57394 2.4298 2.68771 2.38113 2.69877 2.34033L2.72562 2.35134C2.65454 2.23362 2.64032 2.19753 2.62294 2.10178C2.57081 2.06725 2.37811 2.11275 2.40023 2.017C2.48395 2.02328 2.46024 1.99187 2.45234 1.96048C2.46971 1.97618 2.49972 1.97466 2.53921 1.9213C2.51393 1.9213 2.49655 1.91656 2.48391 1.91028C2.48865 1.90871 2.49342 1.90559 2.50132 1.90559C2.46025 1.86007 2.43968 1.8758 2.43494 1.90405C2.42388 1.90562 2.40968 1.91033 2.38914 1.92446C2.47444 1.84284 2.34494 1.7753 2.47447 1.73449C2.43971 1.66072 2.38283 1.60421 2.32281 1.55084C2.25646 1.48021 2.19329 1.41589 2.14117 1.34525C2.19961 1.30601 2.27382 1.32171 2.31331 1.36566L2.24857 1.25262C2.34335 1.21965 2.32756 1.30447 2.35916 1.33587C2.46025 1.12868 2.10481 1.09569 2.15062 0.879092L2.06375 0.885319L2.07006 0.869608C2.03531 0.890013 1.96582 0.886955 1.94212 0.874398C2.00215 0.808476 2.11428 0.770807 2.06216 0.698606C2.09217 0.593444 1.91683 0.562024 1.82995 0.532202C1.84574 0.57458 1.79837 0.593403 1.76361 0.598112C1.73676 0.56829 1.79206 0.496048 1.74467 0.497618L1.83154 0.420787C1.7573 0.502405 1.67672 0.420751 1.63249 0.442725C1.6862 0.370524 1.72569 0.438014 1.78256 0.401914C1.68146 0.301461 1.73201 0.351711 1.63249 0.249688C1.51718 0.252827 1.55509 0.332844 1.45558 0.373653C1.39555 0.339122 1.29448 0.345411 1.30238 0.246527L1.23759 0.33131C1.10016 0.2905 1.06544 0.221423 1.10651 0.0989953C0.812704 0.0487687 0.594701 -0.00149927 0.43042 3.42169e-05C0.26456 0.0016399 0.16189 0.0581356 0.0908065 0.125628C-0.0450413 0.277877 0.0117963 0.540057 0.0117963 0.540057C0.0781406 1.1004 0.528345 1.11133 0.8032 1.32322Z" fill="#99A292"/>
</svg>
