<svg width="24" height="27" viewBox="0 0 24 27" fill="none" xmlns="http://www.w3.org/2000/svg">
<path fill-rule="evenodd" clip-rule="evenodd" d="M2.14539 24.3799C1.72916 24.0728 1.65088 23.2986 1.4744 22.8445C1.32289 22.4509 1.05985 22.1095 0.895025 21.7208C0.751842 21.3827 0.633608 21.0184 0.525389 20.6672C0.292301 19.8979 0.239062 19.0241 0.200769 18.227C0.150822 17.167 0.10584 16.1086 0.0459033 15.0485C-0.113928 12.2 0.0792235 9.01326 1.67088 6.53873C2.11541 5.84946 2.62154 5.22723 3.09104 4.55756C3.44734 4.04795 3.71204 3.47952 4.14325 3.01891C4.65771 2.47011 5.35201 1.96863 5.96303 1.52763C6.51911 1.12745 7.13676 0.808929 7.75943 0.524726C8.97815 -0.0322466 10.2751 -0.104076 11.5837 0.114793C12.7109 0.300995 13.943 0.751848 14.877 1.41009C15.2366 1.66326 15.5912 1.92131 15.9391 2.18918C16.2372 2.41948 16.5535 2.70697 16.8748 2.90297C17.1795 3.08754 17.6091 3.15773 17.9554 3.16426C18.4632 3.1757 18.8794 3.20678 19.3672 3.33254C19.7718 3.43545 20.1847 3.37333 20.5609 3.58566C21.0338 3.84863 21.4117 4.27498 21.7397 4.68985C22.1842 5.25009 22.3757 6.05854 22.6587 6.71678C23.0167 7.54652 23.2431 8.43513 23.4246 9.31714C23.5345 9.85125 23.676 10.5078 23.5911 11.0501C23.5012 11.6103 23.4596 12.2146 23.3281 12.7651C23.1832 13.3678 22.9501 13.9591 22.7803 14.5585C22.5905 15.2233 22.1693 15.8734 21.8213 16.4728C21.5866 16.8795 21.3368 17.3663 21.0188 17.7142C20.6875 18.0751 20.3345 18.4279 19.9965 18.784C19.1474 19.6758 18.3133 20.5889 17.2977 21.301C16.4786 21.8743 15.513 22.1748 14.6322 22.6468C13.9496 23.0143 13.2554 23.3541 12.5661 23.7085C11.9484 24.0254 11.2891 24.1332 10.6181 24.2786C9.92883 24.4289 9.23621 24.6036 8.53361 24.6885C7.50303 24.8127 6.46914 25.0968 5.4652 25.3353C5.08061 25.4268 4.77258 25.6539 4.37966 25.7241C4.08664 25.778 3.81363 25.7976 3.53725 25.9168C3.41405 25.9675 3.17762 26.0443 3.10603 26.1537L2.14539 24.3799Z" fill="#809971"/>
</svg>
