<svg width="22" height="20" viewBox="0 0 22 20" fill="none" xmlns="http://www.w3.org/2000/svg">
<path fill-rule="evenodd" clip-rule="evenodd" d="M21.1649 13.7224C21.1763 13.626 21.1388 13.5363 21.142 13.4399C21.1486 13.1889 21.3034 12.9095 21.349 12.6585C21.3962 12.3925 21.4076 12.1249 21.4728 11.8622C21.5331 11.6228 21.626 11.3868 21.6765 11.1458C21.7482 10.8067 21.6586 10.3611 21.5445 10.0386C21.4744 9.83417 21.3685 9.67461 21.2691 9.48343C21.1372 9.2241 21.0573 8.94484 20.9172 8.6905C20.4724 7.87428 19.7588 7.24086 19.0663 6.65404C18.7453 6.38308 18.4146 6.08883 18.079 5.83615C17.8883 5.69152 17.6651 5.60343 17.4533 5.49371C17.191 5.35906 16.984 5.15796 16.7527 4.97676C16.3568 4.66257 15.9364 4.34499 15.5014 4.09231C15.0696 3.84129 14.7112 3.5288 14.2843 3.27279C13.4859 2.79736 12.8016 2.14573 12.0033 1.67029C11.5911 1.42592 11.1821 1.1516 10.7487 0.948789C10.6053 0.880632 10.475 0.805818 10.3365 0.732674C10.0611 0.58971 9.74339 0.566426 9.45826 0.451723C9.22201 0.355306 9.01183 0.215742 8.76254 0.154234C8.48393 0.0860772 8.21021 0.110957 7.92671 0.117606C7.2929 0.130905 6.66401 0.0561034 6.03347 0.0394798C5.78255 0.0344927 5.53651 -0.0120081 5.28723 0.00295318C4.88153 0.0278887 4.4742 0.0894246 4.07176 0.135971C3.52105 0.197478 2.97687 0.352059 2.42942 0.448476C1.95203 0.531595 1.43393 0.483379 0.95002 0.483379C0.637192 0.483379 0.330885 0.538168 0.0164276 0.494946C-0.0471156 0.679469 0.0913497 0.915563 0.132083 1.0951C0.187479 1.35277 0.233097 1.61381 0.251019 1.87646C0.277088 2.2239 0.242883 2.5646 0.231478 2.91037C0.221702 3.2445 0.260801 3.55373 0.21681 3.88786C0.086465 4.91853 0.252664 5.94254 0.267328 6.97487C0.272216 7.22422 0.355311 7.46197 0.379751 7.70966C0.413967 8.06541 0.365078 8.41617 0.441656 8.77025C0.615992 9.58647 0.837588 10.3578 1.10317 11.1508C1.37852 11.972 1.75813 12.7682 2.20293 13.5063C2.72594 14.3691 3.22614 15.1737 3.93815 15.8968C4.54752 16.5152 5.34261 16.9292 6.10024 17.3148C6.43425 17.4844 6.73892 17.7021 7.07456 17.87C7.40531 18.0313 7.74585 18.1726 8.08149 18.3239C8.39106 18.4635 8.72831 18.5018 9.04114 18.6298C9.29857 18.7312 9.50877 18.8441 9.77435 18.9239C10.0155 18.9971 10.2175 19.1385 10.4522 19.2233C10.8351 19.3612 11.2733 19.4842 11.6725 19.559C12.2395 19.667 12.8505 19.7003 13.4256 19.7568C14.149 19.8267 14.8774 19.6737 15.5959 19.6139C16.0162 19.579 16.378 19.6005 16.7837 19.4725C17.2399 19.3312 17.7091 19.3163 18.1604 19.1866C18.5873 19.0636 19.1038 18.8941 19.4362 18.5716C19.7897 18.2291 20.0618 17.8733 20.347 17.4727C20.4855 17.2782 20.5409 17.0837 20.6468 16.8709C20.7624 16.6399 20.9091 16.3939 20.9889 16.1462C21.0524 15.9517 21.072 15.7538 21.1616 15.5676C21.2545 15.3748 21.3164 15.2551 21.375 15.0473L21.1649 13.7224Z" fill="#809971"/>
</svg>
