<svg width="10" height="15" viewBox="0 0 10 15" fill="none" xmlns="http://www.w3.org/2000/svg">
<path fill-rule="evenodd" clip-rule="evenodd" d="M7.69523 0.983843C7.17323 1.30578 6.91143 1.25156 6.49222 1.74595C6.26093 1.93977 6.06657 2.2009 5.88186 2.42757C5.90113 2.64274 5.62165 2.70519 5.61041 2.92201L5.50281 2.90226C5.498 2.97617 5.47711 3.04683 5.40483 3.05504L5.38713 3.03369C5.38232 3.14373 5.29076 3.1848 5.28915 3.239L5.2715 3.21925L5.21366 3.30306L5.19764 3.26366C5.15748 3.42463 5.06428 3.53791 4.95667 3.61675L5.04505 3.68251C4.7736 3.81227 4.88442 4.04385 4.61458 4.14076L4.59689 4.12101C4.62419 4.55628 4.1327 4.38053 4.14716 4.81415C4.14555 4.75995 4.09417 4.7928 4.07329 4.77145C4.00744 4.90942 3.9239 5.04573 4.09255 5.18699C4.02349 5.27076 3.98498 5.21335 3.91109 5.17065C3.98658 5.22978 3.96086 5.3299 3.91428 5.40052L3.90786 5.34639L3.77135 5.59441L3.94962 5.65346C3.82595 5.7438 3.74723 5.5582 3.70547 5.70439L3.83237 5.78328C3.70709 5.93768 3.45493 5.9377 3.27344 6.0691C3.07266 6.4321 3.04854 6.77534 2.95056 7.01187C2.88953 7.16462 2.78351 7.35023 2.67911 7.57197C2.59398 7.75429 2.50086 7.91856 2.3804 8.0631L2.26472 8.05318C2.10731 8.00883 2.42694 8.32261 2.27756 8.29469L2.32094 8.39484C2.28721 8.40633 2.24227 8.44084 2.22139 8.38992C2.19248 8.45727 2.21656 8.46879 2.24707 8.53449L2.12659 8.57559C1.96437 8.81376 2.07839 9.09785 1.94508 9.33109C1.86799 9.38529 1.80856 9.45592 1.75877 9.54462C1.69934 9.65303 1.65116 9.77791 1.61422 9.90603C1.54033 10.1639 1.50504 10.4382 1.48094 10.6337C1.48576 10.931 1.27532 11.151 1.06812 11.3547C0.963722 11.4565 0.860923 11.5567 0.783827 11.6634C0.745278 11.7193 0.711552 11.7735 0.68746 11.8343C0.639274 11.9377 0.611962 12.0495 0.610356 12.1481C0.578233 12.1628 0.607137 12.2367 0.623199 12.2433C0.546102 12.4338 0.496323 12.5488 0.465806 12.5783C0.465806 12.5783 0.457774 12.5899 0.444925 12.6112C0.3084 12.7952 0.00481854 13.237 0 13.5557L0.823971 14.0337C0.76133 13.8546 0.611966 13.761 0.313217 13.8645L0.204008 13.9023L0.407966 13.9187C0.581434 13.9318 0.82401 13.9056 1.15488 13.8152L1.17415 13.848C1.3444 13.7314 1.45203 13.6394 1.50182 13.4899C1.53877 13.4029 1.55802 13.3093 1.55481 13.2107C1.78128 13.2666 1.71541 12.92 1.79411 12.8937L1.80857 12.9069C1.76199 12.7886 1.82142 12.7279 1.87763 12.6868C1.90655 12.6671 1.93386 12.6523 1.94832 12.6359C1.95956 12.626 1.9644 12.5981 1.95797 12.5324C1.96922 12.5472 2.01898 12.5801 2.00292 12.6178C2.04308 12.4914 2.08163 12.3139 2.19727 12.3681C2.31131 12.0823 2.53937 11.7275 2.43015 11.4697L2.45745 11.4976C2.37554 11.3416 2.4944 11.3645 2.47833 11.2265C2.496 11.2265 2.50725 11.2233 2.51368 11.2282C2.43658 11.064 2.62771 10.9129 2.61004 10.8061L2.68876 10.8357L2.76106 10.6221L2.70964 10.6911C2.51048 10.5646 2.91043 10.5975 2.83655 10.3872C2.92328 10.2657 2.52492 9.90274 2.69357 9.79926C2.6229 9.68264 2.82853 9.93554 2.7964 9.79264C2.91044 9.83699 2.84457 9.87646 2.94576 9.88468C2.93773 9.75327 3.1337 9.75162 3.108 9.58572L3.19795 9.61359C3.09997 9.37543 3.43083 9.32286 3.31358 9.15204C3.29752 8.95001 3.61716 9.12578 3.50151 8.88597L3.64606 8.8597C3.69103 8.79236 3.51595 8.75296 3.60268 8.69218C3.67656 8.72339 3.69904 8.61336 3.75365 8.68727C3.92873 8.56901 3.72958 8.23557 3.99942 8.16987C3.87253 8.06804 4.00585 8.02696 3.93036 7.92676C3.98497 7.96454 4.08294 7.70498 4.12309 7.92015C4.1263 7.93821 4.11187 7.95632 4.09099 7.9399L4.15843 8.00726C4.3833 7.98098 4.24517 7.69681 4.36724 7.51613C4.30942 7.56048 4.27729 7.63601 4.24838 7.55553L4.34474 7.38801C4.36402 7.40936 4.3833 7.42904 4.40097 7.45368L4.53748 7.25829L4.43631 7.24676C4.52465 7.16627 4.69169 7.19747 4.60978 7.03322C4.55999 6.95274 4.45234 7.07096 4.4668 6.95763C4.58084 6.85744 4.74308 6.72609 4.82981 6.6259C4.72702 6.58484 4.7479 6.55191 4.74629 6.50921L4.82981 6.55362C4.78484 6.36637 5.03217 6.61931 5.00647 6.45998L5.05627 6.5076L4.91172 6.36474C4.83302 6.14793 5.08839 6.45503 5.00005 6.14459C4.96793 6.21193 4.81533 6.0395 4.90207 5.99351L4.9599 6.07071C4.97436 6.01814 4.95511 5.98039 4.99044 5.96725C5.00972 6.02145 5.08361 6.06416 5.11573 5.99682L5.17514 6.1085L5.12857 5.89326C5.26992 5.87027 5.27632 5.66006 5.40321 5.70769C5.40321 5.70769 5.59114 5.57136 5.51404 5.43832C5.55419 5.53194 5.65699 5.45644 5.71481 5.5517C5.67305 5.44001 5.71961 5.25277 5.84328 5.26919L5.8449 5.28724C6.08583 5.16077 6.00551 4.85198 6.25125 4.76493C6.1613 4.69923 6.28341 4.64833 6.15974 4.57606C6.20792 4.30011 6.6496 4.44956 6.38458 4.08492C6.43919 3.98801 6.54362 4.06024 6.59662 4.0356V4.07009C6.70424 3.89762 6.74115 3.85332 6.84876 3.75149C6.86804 3.66772 6.73315 3.51331 6.86004 3.45254C6.88574 3.54123 6.91303 3.49198 6.94837 3.45584C6.93552 3.4887 6.94837 3.51655 7.03189 3.50998C7.02065 3.4837 7.01901 3.46238 7.02062 3.44432C7.02544 3.4476 7.03026 3.44924 7.03508 3.45745C7.07363 3.37697 7.04474 3.37041 7.01101 3.38848C7.00459 3.37862 6.99011 3.37042 6.96601 3.36221C7.09933 3.37699 7.12987 3.18644 7.23266 3.28171C7.38525 3.08625 7.41897 2.85462 7.53622 2.67559C7.60047 2.71501 7.60527 2.79547 7.58117 2.85624L7.67112 2.73965C7.73537 2.82013 7.64706 2.83989 7.62779 2.88752C7.86068 2.89902 7.78519 2.52125 8.03575 2.51468L8.01649 2.42265L8.03575 2.42596C8.00845 2.39311 8.00685 2.31588 8.02291 2.28631C8.0984 2.34216 8.14655 2.45547 8.21883 2.38977C8.33126 2.41277 8.36823 2.21895 8.42284 2.12039C8.37144 2.1401 8.35535 2.08763 8.35696 2.04821C8.39711 2.01536 8.46942 2.07448 8.47906 2.01864L8.55131 2.11879C8.471 2.03338 8.58829 1.93977 8.57705 1.88721C8.64932 1.94798 8.55455 1.99893 8.58347 2.06135C8.73927 1.94144 8.66056 2.00214 8.81796 1.88059C8.85812 1.74591 8.74087 1.79358 8.72802 1.67367C8.79548 1.60305 8.83241 1.47819 8.96251 1.4864L8.87899 1.40921C8.99303 1.24332 9.09583 1.19902 9.25323 1.24009C9.65317 0.525589 9.62908 0.223322 9.454 0.0869929C9.28214 -0.0460513 8.98178 0.0131075 8.98178 0.0131075C8.34733 0.0738808 8.21403 0.514082 7.69523 0.983843Z" fill="#99A292"/>
</svg>
