<svg width="32" height="21" viewBox="0 0 32 21" fill="none" xmlns="http://www.w3.org/2000/svg">
<path fill-rule="evenodd" clip-rule="evenodd" d="M26.9756 1.5507C25.7429 1.03752 24.2794 0.766825 23.0305 0.390421C20.4163 -0.390492 18.2199 0.0465558 15.8131 1.28442C14.7672 1.82225 13.4919 2.13541 12.5325 2.79125C11.4684 3.51604 10.3763 4.27674 9.3367 5.04014C8.32902 5.781 7.74229 6.98745 6.7067 7.73087C5.77329 8.40095 5.22177 9.21468 4.40947 10.0786C3.5934 10.9428 2.89212 11.8693 2.18772 12.8408C1.44083 13.8703 0.22434 14.7369 -8.42038e-05 16.1709C0.362719 16.698 1.5571 16.3538 2.13621 16.5332C2.77406 16.7292 3.32452 16.9233 3.97451 17.0496C5.56329 17.357 7.14301 17.944 8.68924 18.3899C11.6897 19.255 14.9907 19.9368 18.1677 20.1816C18.7754 20.2287 19.2327 20.146 19.8212 20.0397C20.5186 19.9149 21.156 20.0465 21.8627 20.0182C23.9194 19.9389 25.6141 19.0187 26.9387 17.5893C27.8047 16.6528 28.9886 16.0894 29.8569 15.1301C30.612 14.2956 30.6508 13.7517 30.8215 12.6685C30.9386 11.9162 31.2211 11.1518 31.288 10.3975C31.3622 9.54494 31.2658 8.57828 31.0811 7.76901C30.9696 7.27956 31.0479 6.71261 30.8633 6.2423C30.7785 6.02333 30.5552 5.85583 30.48 5.63321C30.1903 4.78524 30.0695 4.1053 29.386 3.41856C28.7975 2.82727 28.2595 2.18492 27.5014 1.79646C27.3317 1.70735 27.1559 1.62775 26.9756 1.5507Z" fill="#809971"/>
</svg>
