<svg width="9" height="11" viewBox="0 0 9 11" fill="none" xmlns="http://www.w3.org/2000/svg">
<path fill-rule="evenodd" clip-rule="evenodd" d="M1.03921 1.40545C1.47615 1.71579 1.48763 1.94002 1.88202 2.07812C2.03912 2.19836 2.17984 2.24224 2.33204 2.35273C2.52678 2.31211 2.56275 2.56565 2.75094 2.55266L2.72642 2.655C2.79024 2.65175 2.85081 2.66312 2.84918 2.73136L2.8295 2.74921C2.92605 2.74271 2.95225 2.82234 3.00135 2.82072L2.98007 2.83698L3.04714 2.88409L3.01119 2.90194C3.14538 2.92468 3.23538 3.00108 3.28611 3.09532L3.35648 3.00914C3.42849 3.24799 3.64773 3.13596 3.6821 3.37806L3.66082 3.39591C4.04376 3.36178 3.78196 3.80539 4.14525 3.79239C4.09943 3.79239 4.11088 3.83951 4.08797 3.85576C4.18616 3.91588 4.26964 3.99387 4.4431 3.85576C4.48074 3.90938 4.41853 3.93862 4.35471 3.99549C4.43162 3.937 4.49711 3.95646 4.5282 3.99708L4.48565 3.99867C4.52002 4.03279 4.55438 4.06858 4.59038 4.11083L4.73436 3.99381C4.73109 4.10104 4.54943 4.11895 4.62798 4.1742L4.76218 4.10597C4.79327 4.23758 4.61492 4.40169 4.5691 4.57554C4.61492 4.7169 4.69345 4.86956 4.80473 5.02717C4.90455 5.16528 4.99294 5.2547 5.08949 5.37169C5.26623 5.59591 5.45113 5.82335 5.42495 6.10932L5.32841 6.17437C5.17785 6.24587 5.60988 6.21662 5.47569 6.29298L5.56898 6.32382C5.5477 6.34982 5.53135 6.3969 5.48553 6.38065C5.50189 6.43752 5.52642 6.42938 5.5886 6.44888L5.51659 6.54478C5.52477 6.78687 5.78172 6.89741 5.83082 7.1395C5.73918 7.48722 6.11391 7.93078 6.32828 8.18913C6.71613 8.52384 6.27105 9.23548 6.68671 9.56532C6.66871 9.58807 6.73089 9.60594 6.74889 9.59944L6.86181 9.99751C6.86181 9.99751 7.00578 10.4752 7.22997 10.7059C7.42635 10.8927 7.83223 11.0488 8.25771 10.056H8.29532C8.30841 9.79767 8.27736 9.65464 8.0548 9.55878C8.25772 9.46129 8.01386 9.37036 8.06459 9.29399H8.08422C7.87639 9.21437 8.12188 8.97068 7.93205 8.89106C7.95005 8.89106 8.00896 8.87316 8.02369 8.90078C7.96314 8.81629 7.87151 8.70574 7.99098 8.65374C7.8797 8.44089 7.82079 8.10948 7.57532 8.03799L7.61292 8.03472C7.45255 8.00222 7.55403 7.93727 7.45421 7.87228C7.46894 7.8609 7.47548 7.85109 7.48203 7.84947C7.32002 7.81047 7.36583 7.60094 7.28401 7.55057L7.36416 7.51477L7.27911 7.34747L7.28566 7.41897C7.05655 7.48071 7.37564 7.23206 7.18418 7.15894C7.16781 7.03058 6.63267 7.09393 6.69485 6.93144C6.56884 6.91195 6.88307 6.9185 6.76852 6.86163C6.88307 6.81451 6.85854 6.8746 6.94036 6.81611C6.85363 6.74949 7.00415 6.62928 6.88633 6.55291L6.97307 6.51394C6.75706 6.43919 6.98945 6.20687 6.79798 6.17437C6.66706 6.06064 7.02545 5.97288 6.79144 5.89164L6.88962 5.78602C6.88308 5.7129 6.72268 5.79898 6.75213 5.70311C6.83069 5.67712 6.77668 5.5894 6.86505 5.60077C6.92069 5.3798 6.54759 5.33433 6.62778 5.03698C6.45922 5.05811 6.48705 4.91181 6.36105 4.92968C6.42159 4.89394 6.25628 4.71366 6.45593 4.76565C6.4723 4.77053 6.48048 4.78839 6.45593 4.79977L6.54758 4.7721C6.64085 4.569 6.33978 4.59499 6.29887 4.46338C6.29069 4.51375 6.32337 4.55763 6.24973 4.55601L6.20063 4.44067L6.28414 4.42441C6.26941 4.36916 6.24159 4.28631 6.24159 4.25056L6.16303 4.31224C6.17776 4.23263 6.32011 4.1417 6.15973 4.13195C6.073 4.13195 6.06811 4.25057 6.00756 4.19532C6.0272 4.07834 6.05666 3.88982 6.01575 3.72733C5.92084 3.78583 5.9061 3.74525 5.86683 3.71276L5.95193 3.66724C5.75064 3.55837 6.11555 3.51284 5.92736 3.38123L5.99448 3.36665L5.79316 3.41534C5.53787 3.35523 5.91427 3.2204 5.57552 3.1814C5.63934 3.24314 5.42334 3.33249 5.40043 3.22851L5.49207 3.19608C5.44134 3.16033 5.39877 3.17009 5.39059 3.12785C5.45277 3.12785 5.50513 3.05146 5.44622 3.00597C5.4855 2.99297 5.52479 2.97835 5.56898 2.97185C5.49043 2.96535 5.42334 2.97509 5.35133 2.97671C5.36279 2.83535 5.16476 2.80124 5.23677 2.68426C5.23677 2.68426 5.14022 2.48273 5.00439 2.55097C5.09603 2.51847 5.04204 2.41292 5.14023 2.36255C5.02895 2.39342 4.86203 2.33972 4.89312 2.21786H4.90945C4.82108 1.97576 4.52327 2.05221 4.46927 1.81661C4.40054 1.90435 4.36454 1.78896 4.28599 1.91082C4.03888 1.87345 4.20744 1.44291 3.85559 1.71913C3.7705 1.67363 3.84413 1.56794 3.82613 1.5192L3.85724 1.51761C3.70669 1.42825 3.66741 1.39903 3.58231 1.30479C3.50704 1.29342 3.35974 1.43796 3.31228 1.32423C3.39411 1.29011 3.34993 1.26904 3.32047 1.24142C3.34666 1.24954 3.37775 1.23489 3.36957 1.15365C3.34502 1.16665 3.32374 1.16661 3.30574 1.16823C3.30901 1.16173 3.31063 1.15688 3.31718 1.15038C3.23372 1.11464 3.22883 1.14389 3.25011 1.17964C3.24029 1.18776 3.23208 1.20078 3.22553 1.22516C3.23044 1.08542 3.03736 1.07567 3.11591 0.958684C2.89008 0.827074 2.6675 0.859565 2.47766 0.810821C2.49567 0.736079 2.56606 0.705189 2.62989 0.710063L2.49729 0.662957C2.54966 0.573592 2.59551 0.651575 2.64297 0.654825C2.58242 0.422476 2.26822 0.633686 2.18476 0.414336L2.11439 0.467987L2.1111 0.451723C2.09146 0.490719 2.02764 0.523225 1.99818 0.523225C2.01945 0.432236 2.09636 0.341291 2.01781 0.305545C1.9998 0.196683 1.82634 0.251917 1.73634 0.255167C1.76743 0.290912 1.72981 0.326608 1.69708 0.346106C1.66108 0.328233 1.68727 0.238918 1.64145 0.255167L1.70033 0.14955C1.65451 0.256787 1.54488 0.199922 1.50561 0.234043C1.53343 0.144678 1.60051 0.201544 1.64469 0.14955C1.49414 0.0683089 1.56942 0.108909 1.41886 0.0276687C1.28958 0.0536657 1.37308 0.134898 1.27653 0.201515C1.19143 0.177143 1.07848 0.206363 1.02447 0.0926255L0.999953 0.201515C0.815032 0.195016 0.74137 0.144608 0.672638 0C0.288067 0.0958641 0.13586 0.290912 0.0638547 0.437145C-0.0081502 0.586628 -0.016311 0.711684 0.0246009 0.807548C0.0753316 1.0009 0.14406 1.09683 0.14406 1.09683C0.216065 1.35355 0.446803 1.14385 1.03921 1.40545Z" fill="#99A292"/>
</svg>
