<svg width="25" height="38" viewBox="0 0 25 38" fill="none" xmlns="http://www.w3.org/2000/svg">
<path fill-rule="evenodd" clip-rule="evenodd" d="M5.67617 31.4155C5.32757 31.5361 5.14967 31.055 4.96094 30.8645C4.7025 30.6057 4.43225 30.2965 4.15575 30.0589C3.83976 29.7897 3.54704 29.5813 3.26981 29.2637C2.84416 28.773 2.52061 28.2269 2.11054 27.7249C1.71906 27.2454 1.51769 26.6835 1.22449 26.1451C0.984109 25.7058 0.898305 25.3353 0.759542 24.862C0.429614 23.7461 0.14834 22.6694 0.0327707 21.5051C-0.0571914 20.5802 0.0633221 19.6975 0.0788245 18.7748C0.0938032 17.8247 0.0418381 16.9307 0.368101 16.0195C0.845675 14.6901 1.38406 13.3147 2.01194 12.0559C2.38066 11.3207 3.02365 10.7424 3.46472 10.0531C3.6619 9.7418 3.76782 9.40368 3.97695 9.09756C4.31027 8.61154 4.68409 8.1467 5.03483 7.67367C5.48261 7.06696 5.77648 6.42245 6.22593 5.82009C6.43823 5.53527 6.62861 5.21927 6.88671 4.97604C7.17779 4.70181 7.51258 4.56792 7.82326 4.33843C8.3371 3.95964 8.83201 3.5346 9.33538 3.13497C9.55558 2.95865 9.8165 2.87243 10.0146 2.66118C10.2036 2.45865 10.3614 2.18093 10.5247 1.96001C10.8974 1.45667 11.2672 0.952058 11.6421 0.44784C12.1012 -0.168479 12.6243 -0.151862 13.0377 0.518296C13.2749 0.903725 13.3962 1.34765 13.5537 1.76556C13.7203 2.20736 14.0014 2.5937 14.2775 2.96703C14.5971 3.39544 14.8993 3.92134 15.3056 4.2768C15.5318 4.47087 15.7979 4.62606 16.0304 4.81379C16.3258 5.04872 16.5054 5.35852 16.7994 5.59649C17.2999 5.99642 17.8337 6.35636 18.3349 6.75476C18.6205 6.98363 18.8191 7.2455 19.0474 7.53287C19.4279 8.01305 19.8587 8.48783 20.1755 9.01283C20.5103 9.5656 20.6787 10.1422 20.8865 10.7505C21.0515 11.2369 21.2981 11.6825 21.4731 12.166C21.8494 13.1915 22.0037 14.2584 22.289 15.3097C22.4977 16.0795 22.6204 16.8267 22.7524 17.614C22.914 18.57 23.1605 19.4939 23.3155 20.4488C23.4406 21.2151 23.6264 21.9642 23.8392 22.7123C24.1331 23.7437 24.206 24.8551 24.2478 25.9277C24.2664 26.4285 24.2519 26.8625 24.2176 27.3585C24.1847 27.8226 24.2906 28.2652 24.3029 28.7234C24.3311 29.7539 24.0145 30.7653 23.8922 31.783C23.8361 32.2515 23.7292 32.5059 23.5111 32.9186C23.233 33.4449 23.0572 34.03 22.7823 34.5613C22.4288 35.2451 21.832 36.1134 21.1598 36.4688C20.5482 36.7907 20.0336 37.1836 19.3319 37.3288C18.9558 37.4068 18.4764 37.4036 18.098 37.4009C17.6838 37.3989 17.3179 37.2078 16.8937 37.1961C16.2108 37.1755 15.5372 37.052 14.8696 36.9184C14.5676 36.8582 14.2556 36.8987 13.9663 36.7968C13.5529 36.6539 13.1333 36.4394 12.7233 36.2725C11.2283 35.6626 9.93416 34.4712 8.65057 33.4927C8.03275 33.0239 7.41561 32.5534 6.79995 32.0837C6.5892 31.9235 6.35479 31.6625 6.11491 31.5531C5.96991 31.4866 5.44994 31.4913 5.6498 31.2065L5.67617 31.4155Z" fill="#809971"/>
</svg>
