<svg width="6" height="31" viewBox="0 0 6 31" fill="none" xmlns="http://www.w3.org/2000/svg">
<path fill-rule="evenodd" clip-rule="evenodd" d="M3.56863 3.31503C3.48104 3.54701 3.38859 3.7157 3.29776 3.86982C3.19394 4.05962 3.09984 4.22509 3.01549 4.39381C2.84841 4.72962 2.70731 5.08325 2.59863 5.64131C2.43966 6.15882 2.34717 6.70231 2.2239 7.16953C2.30987 7.44207 2.02767 7.76169 2.04875 8.04721L1.92544 8.10395C1.92544 8.224 1.89949 8.3603 1.81352 8.44466L1.79243 8.42842C1.79567 8.61012 1.69512 8.77233 1.70323 8.85994L1.67887 8.84538L1.62863 9.03836L1.60264 8.99301C1.58479 9.28989 1.51668 9.56407 1.4226 9.7993L1.53616 9.80574C1.2896 10.2924 1.47774 10.5309 1.23929 10.9511L1.21498 10.9414C1.38368 11.574 0.841867 11.7849 0.979746 12.4127C0.963525 12.33 0.918141 12.4306 0.893809 12.4176C0.859745 12.695 0.811052 12.987 1.02356 13.0422C0.974892 13.2385 0.919772 13.185 0.832178 13.1931C0.92626 13.2142 0.926236 13.3926 0.89866 13.5484L0.877572 13.4705L0.815941 13.9199L1.01059 13.8696C0.910015 14.0934 0.781861 13.8841 0.778616 14.1194L0.926233 14.1453C0.830529 14.4633 0.57263 14.611 0.403931 14.9111C0.254698 15.5746 0.217397 16.2608 0.209287 16.9924C0.206043 17.7095 0.243349 18.3925 0.146022 19.0365L0.0373147 19.0982C-0.124896 19.1339 0.303374 19.4324 0.154141 19.4908L0.241711 19.6319C0.215757 19.6741 0.191415 19.7633 0.14924 19.6952C0.154106 19.8298 0.18167 19.8315 0.238444 19.9256L0.150874 20.0781C0.121676 20.6183 0.373077 21.0416 0.39903 21.5932C0.272506 22.2794 0.613158 23.4654 0.764013 24.1483C0.910002 24.6269 0.879203 25.2402 0.815941 25.735C0.786744 25.9978 0.7251 26.1826 0.710501 26.5282C0.697524 26.8397 0.749415 27.1755 0.875939 27.4432C0.859718 27.487 0.931112 27.5698 0.948955 27.5649L1.05276 28.05C1.09331 28.2219 1.13872 28.3874 1.18414 28.5448C1.18414 28.5448 1.26849 28.7994 1.38042 29.1417C1.47612 29.437 1.58643 29.8653 1.64645 30.1005C1.70971 30.3666 1.76164 30.6374 1.95792 30.618C2.05362 30.6098 2.18501 30.5369 2.34235 30.3406C2.50132 30.1524 2.65214 29.763 2.72838 29.2747L2.76897 29.2942C2.7495 28.6956 2.62947 28.3501 2.36344 28.0889C2.55323 27.964 2.27745 27.7157 2.318 27.5746L2.33909 27.5794C2.09902 27.315 2.34235 26.9728 2.17365 26.7489C2.19149 26.757 2.25149 26.757 2.26122 26.8138C2.21256 26.6385 2.16229 26.3741 2.29206 26.3595C2.28719 26.2183 2.28392 26.0659 2.28067 25.9085C2.27256 25.7415 2.2596 25.5759 2.24013 25.4218C2.19958 25.1152 2.13472 24.8572 2.01955 24.7031L2.05682 24.7242C1.90272 24.5458 2.01791 24.4939 1.93356 24.2846C1.94978 24.2716 1.95629 24.2554 1.9644 24.2586C1.81517 24.051 1.89789 23.6341 1.82327 23.467L1.90762 23.4492L1.84436 23.0274L1.84272 23.1863C1.60428 23.1571 1.95788 22.8505 1.77134 22.565C1.7681 22.2762 1.21822 22.0491 1.2977 21.7441C1.17118 21.6176 1.4891 21.8431 1.38042 21.6452C1.50046 21.6257 1.46804 21.7344 1.55888 21.6679C1.47615 21.4716 1.6416 21.3174 1.52967 21.0773L1.62209 21.0547C1.41123 20.7481 1.67567 20.4236 1.48913 20.2273C1.3772 19.8996 1.74542 19.9742 1.5313 19.6465L1.64808 19.5005C1.65619 19.3513 1.48098 19.4064 1.53289 19.2393C1.61399 19.2426 1.58481 19.0285 1.66754 19.1193C1.76973 18.7478 1.45017 18.3795 1.66754 17.9026C1.51181 17.7971 1.61078 17.5603 1.49561 17.4775C1.56536 17.4678 1.53941 17.0022 1.6708 17.278C1.68053 17.3007 1.67567 17.3413 1.64971 17.3364L1.74055 17.3736C1.93034 17.1222 1.68052 16.8903 1.73892 16.6275C1.69999 16.7005 1.69511 16.8059 1.63996 16.7296L1.68214 16.4831L1.75352 16.548L1.85248 16.1749L1.74862 16.2138C1.82486 16.0337 2.00006 15.998 1.89787 15.766C1.83623 15.6589 1.73893 15.9201 1.74055 15.719C1.84599 15.4805 2.01142 15.1301 2.10063 14.8202C1.98709 14.8283 2.00818 14.744 2.00331 14.6532L2.099 14.6612C2.03574 14.2994 2.32776 14.5818 2.29369 14.2281L2.35206 14.2703L2.17523 14.1405C2.05358 13.7998 2.40236 14.0221 2.22231 13.6327C2.21096 13.769 2.00332 13.6506 2.08118 13.4965L2.16068 13.5581C2.1623 13.4623 2.13146 13.4234 2.1639 13.3682C2.19958 13.4331 2.28716 13.4267 2.30176 13.2904L2.39423 13.4056L2.28558 13.1168C2.4267 12.9449 2.37804 12.6171 2.52403 12.5571C2.52403 12.5571 2.68461 12.1337 2.56457 12.0072C2.6327 12.111 2.71543 11.8822 2.80303 11.9698C2.72841 11.8368 2.7138 11.4962 2.84357 11.3891L2.85169 11.4166C3.05445 10.964 2.87112 10.5795 3.09821 10.208C2.98629 10.1999 3.09986 10.002 2.94901 10.0182C2.92468 9.55588 3.44051 9.37747 3.08202 9.08708C3.12744 8.89889 3.2588 8.91675 3.31558 8.83726L3.32048 8.88756C3.43078 8.53715 3.49079 8.38791 3.59947 8.11375C3.60921 7.95639 3.42752 7.86717 3.55566 7.63194C3.60433 7.73901 3.62542 7.63032 3.65462 7.5346C3.64813 7.59949 3.67086 7.62868 3.76169 7.51836C3.74223 7.49403 3.73572 7.46152 3.73085 7.43232C3.73734 7.43394 3.74383 7.43076 3.75194 7.434C3.77141 7.26853 3.73894 7.28959 3.7065 7.35934C3.69677 7.35286 3.67893 7.35445 3.65135 7.36905C3.80221 7.2344 3.77628 6.91163 3.91416 6.9311C4.01473 6.44928 3.9612 6.08102 4.01797 5.68518C4.09907 5.66409 4.13476 5.7711 4.12989 5.88628L4.18177 5.6121C4.2791 5.64293 4.19476 5.7825 4.18989 5.87173C4.4397 5.6008 4.22072 5.16768 4.49161 4.86107L4.44132 4.75878L4.46082 4.74264C4.42189 4.72966 4.3943 4.62743 4.40241 4.57065C4.50622 4.55443 4.59382 4.65013 4.65546 4.47817C4.79496 4.36786 4.79172 4.02231 4.80957 3.80654C4.75928 3.91199 4.72359 3.85847 4.71061 3.80169C4.73819 3.70598 4.84363 3.67681 4.83065 3.5892L4.94906 3.61673C4.82741 3.61997 4.91175 3.32314 4.8712 3.27285C4.97339 3.24202 4.90203 3.44645 4.95718 3.49187C5.06262 3.09441 5.0123 3.29226 5.10638 2.8948C5.0707 2.66119 4.98634 2.90292 4.91011 2.77638C4.93281 2.58657 4.89391 2.39028 5.01233 2.19723L4.89228 2.23783C4.88904 1.87931 4.94254 1.67811 5.09826 1.47045C4.93605 0.10936 4.696 -0.104774 4.46404 0.0379867C4.23532 0.183992 4.04554 0.67882 4.04554 0.67882C3.59298 1.63759 3.82655 2.21025 3.56863 3.31503Z" fill="#99A292"/>
</svg>
