<svg width="8" height="19" viewBox="0 0 8 19" fill="none" xmlns="http://www.w3.org/2000/svg">
<path fill-rule="evenodd" clip-rule="evenodd" d="M6.43862 15.9205C6.31636 15.5515 6.27968 15.3397 6.24758 15.1412C6.21702 14.9477 6.18032 14.7806 6.10085 14.592C6.09779 14.5325 6.05653 14.3323 6.01526 14.1569C5.97247 13.9865 5.92813 13.8094 5.88686 13.6473C5.71111 13.5149 5.81201 13.2073 5.65459 13.0452L5.72642 12.9558C5.67293 12.8995 5.63165 12.83 5.66527 12.7556L5.69125 12.7539C5.61025 12.6729 5.63011 12.5537 5.59037 12.514L5.61635 12.5124L5.5858 12.3982L5.624 12.4098C5.52466 12.2543 5.49867 12.0938 5.49102 11.9151L5.39173 11.9532C5.42688 11.5743 5.18233 11.5181 5.23124 11.184L5.25721 11.1789C4.88736 10.9092 5.26334 10.5486 4.9103 10.2889C4.95462 10.322 4.95615 10.2542 4.98213 10.2492C4.90571 10.0987 4.84761 9.93813 4.64893 9.99769C4.62142 9.88188 4.68717 9.88525 4.759 9.84885C4.67341 9.87532 4.61074 9.78759 4.58629 9.69991L4.62906 9.7297L4.54501 9.48483L4.38914 9.57581C4.40901 9.42526 4.58323 9.49148 4.52057 9.37568L4.38303 9.40375C4.37844 9.20853 4.57712 9.06795 4.66576 8.87604C4.66118 8.49553 4.5771 8.06207 4.48541 7.60546C4.40593 7.15381 4.26686 6.66078 4.29437 6.28358L4.38914 6.22238C4.53739 6.16944 4.11555 6.07516 4.24852 6.01064L4.15836 5.94117C4.17823 5.90973 4.19501 5.85183 4.23933 5.88492C4.22557 5.80386 4.19964 5.80711 4.14003 5.76244L4.21335 5.65157C4.20724 5.33392 3.96578 5.04777 3.88631 4.67553C3.94285 4.14943 3.4263 3.42645 3.11758 3.0906C2.90361 2.94502 2.90819 2.58266 2.78745 2.13597C2.63462 1.63469 2.36411 1.26748 2.07679 1.16822C2.07679 1.13513 2.00954 1.1401 1.99731 1.15499L1.62134 0.716549C1.62134 0.716549 1.1124 0.13917 0.519413 0.0183986C0.225975 -0.0477772 -0.0491093 0.0713797 0.00743855 0.266598C0.0609298 0.463472 0.207647 0.739709 0.349781 1.29393L0.320724 1.31544C0.475084 1.55036 0.582086 1.68442 0.837315 1.69269C0.718106 1.87963 0.980965 1.87793 0.987078 1.99208L0.970288 1.99875C1.23163 2.04011 1.17813 2.41391 1.39057 2.42052C1.37528 2.4288 1.33248 2.4719 1.30344 2.44708C1.4089 2.51491 1.54035 2.59098 1.45171 2.68528C1.54035 2.76635 1.57241 2.82758 1.64424 2.95166C1.71302 3.06581 1.80323 3.20973 1.93314 3.27095H1.89797C2.06303 3.33381 1.9759 3.41984 2.09969 3.53399C2.08899 3.54888 2.08747 3.56374 2.08136 3.56539C2.27546 3.66797 2.27545 3.8996 2.37021 3.97405L2.30295 4.02039L2.42216 4.23214L2.4008 4.13945C2.61171 4.06334 2.35341 4.37611 2.55057 4.47206C2.58572 4.63088 3.09923 4.59448 3.05797 4.81286C3.18176 4.85587 2.87609 4.80456 2.99071 4.89556C2.88526 4.94188 2.90515 4.86739 2.82873 4.93191C2.91737 5.02952 2.77827 5.16188 2.89137 5.27603L2.80578 5.30915C3.01516 5.44812 2.77214 5.68471 2.96166 5.78728C3.08545 5.98084 2.737 5.99572 2.9632 6.17109L2.86539 6.28852C2.86997 6.38779 3.02738 6.31835 2.99528 6.43746C2.91887 6.4507 2.96931 6.5863 2.88372 6.54329C2.81953 6.79972 3.18328 7.01316 3.0228 7.29607C3.18022 7.32088 3.11145 7.47642 3.2276 7.5062C3.16647 7.52109 3.24749 7.79574 3.0916 7.65181C3.07937 7.63857 3.07784 7.61368 3.10382 7.61202L3.01366 7.60546C2.86541 7.78248 3.13286 7.88673 3.11758 8.06541C3.14356 8.01081 3.13132 7.94296 3.19551 7.98432L3.19243 8.14477L3.11604 8.11832L3.08698 8.3648L3.17564 8.32512C3.13591 8.4492 2.98153 8.50383 3.12061 8.63784C3.19702 8.6974 3.23677 8.50872 3.27345 8.64107C3.22149 8.81313 3.14507 9.08613 3.14813 9.32933C3.24747 9.29293 3.25053 9.35748 3.2811 9.41869L3.19397 9.44181C3.35445 9.67178 3.0121 9.57586 3.15424 9.81078L3.08852 9.8025L3.28567 9.82563C3.50422 9.99768 3.1298 9.9944 3.42018 10.1648C3.3835 10.0771 3.60052 10.0672 3.59135 10.1896L3.49966 10.1863C3.53328 10.2426 3.57302 10.2525 3.56691 10.2988C3.51189 10.2756 3.44004 10.317 3.47825 10.403L3.35903 10.3749L3.55618 10.4957C3.50422 10.6562 3.67538 10.8183 3.57451 10.9093C3.57451 10.9093 3.59746 11.1971 3.74265 11.2087C3.6479 11.1839 3.66164 11.3395 3.55618 11.3312C3.66622 11.3676 3.79918 11.5347 3.72582 11.6455L3.71056 11.6339C3.69528 11.9466 3.98106 12.0657 3.91229 12.3387C4.01163 12.3007 3.98261 12.4396 4.1064 12.3784C4.28369 12.62 3.92605 12.9393 4.34786 12.9508C4.39066 13.0733 4.27756 13.1196 4.26839 13.189L4.24241 13.1659C4.31424 13.3926 4.32954 13.462 4.35094 13.639C4.40443 13.7201 4.59697 13.6986 4.5771 13.8641C4.49304 13.8277 4.51752 13.8888 4.52822 13.9484C4.50988 13.9136 4.48081 13.9071 4.44413 13.9931C4.46858 13.9981 4.48542 14.0129 4.5007 14.0261C4.49459 14.0278 4.49002 14.0328 4.48237 14.0328C4.52517 14.1271 4.54503 14.1056 4.54809 14.0576C4.56032 14.0593 4.57406 14.0526 4.5924 14.0344C4.51293 14.1519 4.64742 14.3173 4.52057 14.3504C4.56031 14.5009 4.62141 14.6085 4.68713 14.7409C4.75284 14.8848 4.82624 15.0105 4.89043 15.1379C4.83388 15.1908 4.75899 15.1462 4.71161 15.0668L4.79258 15.2653C4.69935 15.3001 4.70548 15.166 4.6688 15.1065C4.58627 15.4208 4.97139 15.5466 4.94388 15.8477L5.03409 15.8609L5.02798 15.8824C5.06466 15.8609 5.13801 15.889 5.16552 15.9171C5.10286 15.9916 4.98822 16.0081 5.04477 16.119C5.01114 16.248 5.18996 16.344 5.27554 16.4317C5.26485 16.3688 5.31378 16.3655 5.35199 16.3771C5.37491 16.43 5.31221 16.4961 5.35959 16.521L5.25568 16.574C5.34737 16.5078 5.41311 16.66 5.46201 16.6616C5.39171 16.7212 5.36878 16.6104 5.30306 16.6219C5.37948 16.8172 5.34432 16.7196 5.40698 16.9098C5.51243 16.9909 5.50634 16.8601 5.61485 16.8866C5.65918 16.9759 5.75542 17.0785 5.70804 17.2175L5.80128 17.1596C5.91132 17.3582 5.91437 17.4954 5.82726 17.6493C6.0672 18.0265 6.23383 18.2663 6.37291 18.3954C6.51198 18.5228 6.62658 18.5162 6.71828 18.4632C6.90779 18.3243 6.972 17.9289 6.972 17.9289C7.06523 17.5401 7.01477 17.2589 6.91543 16.971C6.82373 16.7113 6.64189 16.296 6.43862 15.9205Z" fill="#99A292"/>
</svg>
