<svg width="29" height="17" viewBox="0 0 29 17" fill="none" xmlns="http://www.w3.org/2000/svg">
<path fill-rule="evenodd" clip-rule="evenodd" d="M25.4207 3.27633C25.0806 3.79976 24.7834 4.1824 24.5572 4.63459C24.3921 4.95925 24.1511 5.27726 23.9497 6.13196C23.8094 6.64213 23.6129 7.14236 23.3504 7.80161C23.3768 8.15939 23.045 8.55193 23.0351 8.87659L22.8997 8.93462C22.8948 9.0456 22.8634 9.16651 22.7693 9.21951L22.7495 9.19798C22.733 9.36196 22.5877 9.48943 22.5679 9.58053L22.5497 9.55738L22.4342 9.73633L22.4259 9.68325C22.3021 9.9814 22.0941 10.2829 21.8993 10.5761L22.0132 10.6059C21.612 11.0862 21.7226 11.3778 21.3231 11.7405L21.3033 11.7207C21.2587 12.0735 21.0688 12.2557 20.879 12.4163C20.6842 12.5737 20.5439 12.6532 20.4052 12.9397C20.4399 12.8702 20.3458 12.9083 20.3342 12.8834C20.1559 13.0573 19.9049 13.2064 19.9941 13.4101C19.8026 13.5013 19.8092 13.4201 19.7498 13.3522C19.7911 13.4417 19.6375 13.5559 19.4774 13.6222L19.5384 13.5575C19.3915 13.6304 19.2347 13.695 19.0778 13.7596L19.2314 13.9054C18.9557 13.9402 19.0977 13.7116 18.8599 13.8359L18.9095 13.9817C18.5347 14.0711 18.2491 13.9121 17.833 13.9336C17.5673 14.0148 17.2354 14.0727 16.9366 14.0926C16.7699 14.0975 16.7121 14.1059 16.5288 14.0678C16.3621 14.033 16.0616 13.9485 15.7545 13.9617C15.4574 13.9766 15.2939 14.0214 15.1767 14.0198C15.0628 14.0264 14.8895 13.9849 14.6187 13.9568C14.49 13.9452 14.3232 13.9452 14.2027 13.9617L13.9138 13.9999C13.7223 14.0181 13.5407 14.0296 13.331 14.028L13.2418 13.927C13.1742 13.763 12.8555 14.2615 12.7664 14.1257L12.6079 14.2466C12.5501 14.2284 12.4378 14.2285 12.5154 14.1672C12.352 14.2069 12.3553 14.2334 12.2546 14.3179L12.0565 14.2699C11.8964 14.298 11.7494 14.3444 11.6124 14.3974C11.5216 14.4355 11.4192 14.4769 11.2872 14.5216C11.028 14.621 10.683 14.6956 10.2356 14.9126C10.1084 14.954 9.99286 15.0036 9.90701 15.0367C9.80631 15.0781 9.79311 15.0748 9.69405 15.1063C9.52731 15.1543 9.39855 15.1858 9.212 15.1908C8.83559 15.1925 8.16528 15.0765 7.76246 15.0467C6.54573 15.0136 5.35542 14.0313 4.10402 14.0263C4.07101 13.9932 3.95875 14.0214 3.95545 14.0413L2.87576 13.7547C2.87576 13.7547 -2.36752 12.4163 1.30576 14.7518L1.26944 14.78C1.8423 15.0119 2.2121 15.1213 2.6628 15.0384C2.67601 15.277 3.14486 15.1792 3.26703 15.2852L3.2505 15.3018C3.65168 15.2173 3.96205 15.6232 4.34671 15.5553C4.3302 15.5702 4.30709 15.6281 4.2262 15.6116C4.48704 15.6464 4.84697 15.6811 4.83542 15.8136C5.44956 15.9279 6.28327 16.1929 6.72076 16.0803L6.6861 16.1101C6.94034 16.0256 6.97827 16.1581 7.24241 16.1482C7.25232 16.1697 7.26722 16.1814 7.26227 16.1896C7.53632 16.1101 7.97212 16.3386 8.18179 16.327L8.17357 16.4165L8.68696 16.5109L8.49385 16.4513C8.60281 16.2211 8.85539 16.7097 9.34571 16.554C9.56528 16.5673 9.77491 16.4066 9.93175 16.2393C10.0869 16.0737 10.2174 15.9064 10.4007 15.8617C10.4915 15.6745 10.3643 16.0969 10.5393 15.8882C10.6136 15.9925 10.4782 16.019 10.5872 16.0704C10.6796 15.9793 10.7721 15.9593 10.853 15.9511C10.9273 15.9461 11.0082 15.9428 11.1188 15.8683L11.1535 15.9611C11.2888 15.8319 11.4787 15.8302 11.6636 15.8236C11.8402 15.8203 12.0664 15.7854 12.1456 15.6662C12.4989 15.4657 12.4841 15.86 12.8126 15.5618L12.9926 15.6513C13.1576 15.6298 13.0685 15.4608 13.2617 15.4824C13.2699 15.5652 13.4977 15.5006 13.4119 15.5999C13.6166 15.6248 13.8081 15.5519 14.0492 15.4674C14.1598 15.4293 14.3001 15.3862 14.4041 15.373C14.4536 15.3713 14.5015 15.3929 14.6154 15.4674C14.6798 15.3929 14.7921 15.3995 14.9324 15.4045C15.0711 15.4111 15.223 15.4061 15.2824 15.3432C15.294 15.3812 15.492 15.373 15.5828 15.3779C15.672 15.3846 15.7149 15.4061 15.5894 15.4923C15.568 15.5055 15.5135 15.5072 15.5152 15.479L15.4789 15.58C15.6869 15.6546 15.7298 15.6298 15.7727 15.59C15.8107 15.5486 15.9494 15.5204 16.126 15.5883C16.022 15.5237 15.9164 15.5022 16.0088 15.4591C16.0996 15.4906 16.2118 15.5304 16.3522 15.5685L16.2482 15.6264C16.4529 15.6993 16.7038 15.7424 16.8937 15.7606L16.8144 15.6563C17.1 15.7175 17.2173 15.8848 17.521 15.7076C17.6498 15.6115 17.2487 15.6032 17.531 15.537C17.7159 15.5469 17.9453 15.5519 18.2111 15.5105C18.3201 15.4922 18.429 15.4724 18.5331 15.4542C18.6305 15.4393 18.7246 15.421 18.8187 15.3978C18.7493 15.3018 18.85 15.2736 18.9458 15.2206L18.9854 15.3101C19.3436 15.0517 19.1934 15.4723 19.5682 15.2355L19.5533 15.3117L19.5979 15.0798C19.9066 14.7618 19.8719 15.2057 20.2004 14.7866C20.0403 14.8711 20.0436 14.621 20.2599 14.5713L20.245 14.6823C20.3507 14.6144 20.3705 14.5598 20.4547 14.5415C20.4085 14.621 20.4762 14.684 20.6396 14.5862L20.5769 14.7486C20.6611 14.6442 20.742 14.5332 20.8163 14.4239C21.1167 14.3758 21.4139 13.9916 21.5856 14.0081C21.5889 14.0297 22.1122 13.5807 22.0594 13.3803C22.061 13.5294 22.2806 13.2992 22.3103 13.4366C22.3235 13.2511 22.4985 12.8519 22.6785 12.7675L22.6719 12.8022C23.1061 12.3285 23.0912 11.7952 23.4495 11.4109C23.3389 11.3745 23.5039 11.2122 23.3537 11.1823C23.4742 10.7169 24.1329 10.5926 23.8803 10.152C24.0091 9.91684 24.1445 9.93176 24.2353 9.81913L24.2221 9.88868C24.4334 9.41827 24.4895 9.29238 24.6414 8.95281C24.6695 8.77227 24.4895 8.66457 24.6513 8.40617C24.6893 8.52875 24.724 8.40949 24.7669 8.30679C24.7521 8.37802 24.7702 8.40948 24.8775 8.2985C24.8626 8.27035 24.861 8.23559 24.861 8.20246C24.8676 8.20412 24.8742 8.20245 24.8808 8.20741C24.9304 8.03184 24.894 8.0484 24.8478 8.12128C24.8379 8.11134 24.8214 8.11133 24.79 8.12623C24.965 8.00035 25.0178 7.60779 25.1549 7.64258C25.3794 7.07775 25.3414 6.51958 25.4207 6.1353C25.5049 6.11542 25.528 6.23629 25.5181 6.35721C25.5395 6.2628 25.5659 6.16345 25.5956 6.06241C25.693 6.10382 25.5874 6.25125 25.5808 6.34235C25.8416 6.08395 25.7244 5.55392 26.043 5.1597L26.0001 5.04536L26.0232 5.02878C25.982 5.01221 25.9671 4.89789 25.9836 4.83163C26.0942 4.81838 26.1669 4.92945 26.261 4.73731C26.4145 4.62964 26.4624 4.28007 26.5482 4.04155C26.4673 4.14756 26.4459 4.083 26.4476 4.0184C26.5037 3.9157 26.6176 3.90246 26.6291 3.7981L26.7414 3.8528C26.6159 3.84286 26.7942 3.49663 26.7612 3.45356C26.814 3.4519 26.8124 3.49502 26.8025 3.54637C26.7893 3.60766 26.7662 3.68054 26.7893 3.71035C27.0039 3.30453 26.8718 3.51981 27.1013 3.18191C27.169 2.95333 26.9841 3.13887 26.9692 2.98649C27.0798 2.81588 27.1657 2.6038 27.3968 2.47129L27.2631 2.45147C27.4942 2.097 27.6643 1.89324 27.9251 1.76238C28.2454 1.04351 28.5161 0.642693 28.6548 0.389264C28.7902 0.139147 28.706 0.0446794 28.5689 0.00326942C28.3906 -0.0182638 28.1117 0.0695553 27.9036 0.178878C27.6923 0.284887 27.5438 0.399171 27.5438 0.399171C27.2284 0.607877 27.0022 0.824905 26.819 1.04024C26.7183 1.16115 26.6786 1.21575 26.6126 1.30188C26.5482 1.38801 26.4838 1.47586 26.4145 1.56696C26.2709 1.76076 26.0926 1.99263 25.9011 2.30569C25.8053 2.46139 25.7112 2.63363 25.6254 2.82412C25.5527 2.99142 25.5049 3.11069 25.4207 3.27633Z" fill="#99A292"/>
</svg>
