<svg width="30" height="20" viewBox="0 0 30 20" fill="none" xmlns="http://www.w3.org/2000/svg">
<path fill-rule="evenodd" clip-rule="evenodd" d="M27.3919 7.18454C27.4586 6.88985 27.5553 6.61873 27.5053 6.31226C27.4402 5.92665 27.4886 5.51746 27.4052 5.13689C27.3419 4.85063 27.2052 4.53738 27.0818 4.27469C26.8567 3.79814 26.6083 3.21553 26.2632 2.81812C25.9431 2.44766 25.5214 2.15808 25.1879 1.79435C24.7528 1.32286 24.1226 0.890108 23.5558 0.592055C23.1606 0.384934 22.7022 0.169302 22.2737 0.0564796C21.7252 -0.0849691 21.1033 0.0834313 20.5348 0.0867991C20.2831 0.088483 20.0264 0.0986268 19.7746 0.107046C19.3695 0.118834 19.0628 0.295626 18.6976 0.445494C18.2608 0.625673 17.779 0.819334 17.3306 0.962467C16.732 1.15443 16.1619 1.43056 15.5634 1.61747C14.9448 1.80944 14.358 1.98121 13.7745 2.26579C13.2927 2.49986 12.8792 2.91246 12.4291 3.21556C11.8573 3.5995 11.4071 4.12323 10.8703 4.55599C9.78497 5.42994 8.4529 5.76163 7.29089 6.4874C6.19723 7.17106 5.48203 8.26224 4.71347 9.28943C4.18832 9.99162 3.74483 10.7359 3.23802 11.4499C2.72786 12.1673 2.14937 12.8341 1.62254 13.538C1.30078 13.9674 1.18076 14.5331 0.848997 14.9524C0.705621 15.1326 -0.0195999 15.5721 0.000406071 15.8399C0.0187449 16.0773 1.09408 16.3854 1.27413 16.4527C2.16106 16.7929 3.05465 17.1045 3.93825 17.4547C4.64346 17.7343 5.30196 18.0138 6.04052 18.1923C6.82409 18.3792 7.60602 18.5728 8.38792 18.7631C9.94505 19.1437 11.5088 19.4097 13.0843 19.6623C13.7428 19.7667 14.4547 19.7853 15.1199 19.7701C15.8868 19.7549 16.6787 19.7499 17.4089 19.4855C18.2825 19.1673 19.2312 18.6722 20.0364 18.1872C20.79 17.7342 21.3918 17.2628 21.9836 16.5977C23.9709 14.3715 26.5183 12.7499 28.4305 10.4479C28.7473 10.0674 28.9857 9.61273 29.2925 9.21533C29.5492 8.88191 29.8043 8.46937 29.946 8.07028C30.1011 7.63414 29.9143 7.02288 29.4859 6.80734C29.2508 6.68947 28.4906 6.46045 28.2722 6.63221L27.3919 7.18454Z" fill="#809971"/>
</svg>
