<svg width="9" height="23" viewBox="0 0 9 23" fill="none" xmlns="http://www.w3.org/2000/svg">
<path fill-rule="evenodd" clip-rule="evenodd" d="M1.23863 2.31701C1.44933 3.01306 1.23058 3.34941 1.71632 4.30648C1.80639 4.53905 1.96399 4.81343 2.09427 4.99581C2.22455 5.18655 2.36126 5.36397 2.48832 5.53798C2.73119 5.6116 2.79716 6.00142 3.04003 6.11018L3.01588 6.24233C3.09952 6.27914 3.17834 6.33768 3.18316 6.43473L3.15906 6.44647C3.2813 6.50169 3.3247 6.63722 3.38421 6.66399L3.36011 6.67574L3.45018 6.78777L3.40512 6.7895C3.58044 6.91499 3.69946 7.08561 3.77183 7.25794L3.85547 7.17931C3.96485 7.57753 4.23184 7.56583 4.28491 7.94564L4.26081 7.95565C4.73047 8.17986 4.42003 8.64673 4.84787 8.90775C4.79479 8.87428 4.80445 8.95463 4.78033 8.963C4.8897 9.13031 4.983 9.31931 5.18405 9.24067C5.23552 9.38122 5.16475 9.37954 5.09398 9.42807C5.18083 9.38791 5.26606 9.50341 5.31432 9.6222L5.26121 9.58207L5.41563 9.90835L5.55876 9.77447C5.57645 9.97358 5.37223 9.90331 5.47517 10.0572L5.61349 9.99863C5.67782 10.2563 5.52178 10.4873 5.5057 10.7633C5.80164 11.7472 6.48523 12.6891 6.30509 13.6362L6.19892 13.6964C6.03808 13.7382 6.47077 13.9624 6.32762 14.021L6.41769 14.1297C6.39356 14.1682 6.37265 14.2453 6.32762 14.1917C6.33888 14.3038 6.36618 14.3021 6.42569 14.3724L6.34529 14.5079C6.33725 14.9546 6.59943 15.2659 6.62517 15.6925C6.56244 15.9636 6.60584 16.3015 6.6557 16.6429C6.71039 17.0327 6.80369 17.4226 6.87285 17.7054C7.15271 18.5085 6.53188 19.4388 6.77797 20.2285C6.75384 20.2536 6.80206 20.3239 6.82136 20.3239C6.80367 20.5649 6.77957 20.8058 6.74901 21.0434C6.74901 21.0434 6.64926 21.9034 6.68304 22.4639C6.70073 22.745 6.77312 22.9625 6.9613 22.9642C7.14627 22.9625 7.46956 22.7551 7.9183 22.0909L7.95045 22.1159C8.10325 21.6992 8.14994 21.4215 7.99875 21.1053C8.22393 21.0802 8.04858 20.7523 8.12578 20.6586L8.1435 20.6703C7.9891 20.3976 8.30916 20.1298 8.16279 19.8721C8.18048 19.8822 8.23996 19.8889 8.24157 19.9475C8.22066 19.7618 8.1692 19.5108 8.29787 19.4957C8.26731 19.0556 8.30755 18.4466 8.09363 18.1772L8.13064 18.1957C7.98749 18.0434 8.10168 17.9932 8.02447 17.8209C8.04216 17.8108 8.05019 17.7974 8.05662 17.7991C7.91347 17.6351 8.01322 17.3038 7.94888 17.1699L8.03252 17.1566L7.99713 16.8219L7.98427 16.9474C7.74944 16.9139 8.11936 16.6948 7.95369 16.4421C7.96817 16.1828 7.43097 16.0054 7.51139 15.7544C7.38594 15.659 7.70117 15.8264 7.59341 15.6691C7.71243 15.6457 7.68028 15.7377 7.76874 15.6775C7.68832 15.5186 7.84916 15.3796 7.73335 15.1872L7.82504 15.1621C7.60952 14.9245 7.8604 14.6368 7.669 14.4962C7.54837 14.2436 7.91509 14.267 7.68991 14.0277L7.80089 13.9039C7.80572 13.7851 7.63521 13.8453 7.68024 13.7098C7.76066 13.7064 7.72692 13.5442 7.81056 13.6078C7.86042 13.4789 7.79608 13.2915 7.73978 13.1108C7.68027 12.9301 7.62559 12.741 7.6851 12.5C7.513 12.4415 7.5564 12.2023 7.42451 12.1655C7.48885 12.1354 7.32643 11.7388 7.5323 11.9346C7.54999 11.9513 7.5548 11.9898 7.52906 11.9931L7.62556 11.9981C7.73332 11.7036 7.41489 11.5865 7.37307 11.3473C7.36342 11.4276 7.39877 11.5162 7.31996 11.476L7.2669 11.2586L7.35378 11.2753L7.29586 10.944L7.21865 11.021C7.21543 10.852 7.35215 10.7382 7.16397 10.6177C7.06586 10.5675 7.08996 10.8069 7.00793 10.6579C6.99989 10.4337 6.98382 10.0973 6.91948 9.83799C6.82619 9.90157 6.80527 9.8347 6.75863 9.77447L6.84389 9.73096C6.62354 9.5168 7.00151 9.55361 6.8085 9.33442L6.87928 9.33105L6.66856 9.33779C6.408 9.17716 6.80531 9.13863 6.47237 8.97801C6.52384 9.07338 6.29706 9.1085 6.2858 8.96126H6.38387C6.33723 8.89266 6.29222 8.88267 6.29061 8.82411C6.35334 8.84921 6.42248 8.79731 6.36458 8.69022L6.49971 8.72035L6.26165 8.57482C6.28256 8.37237 6.06059 8.17318 6.14262 8.05103C6.14262 8.05103 6.03645 7.68128 5.87079 7.67961C5.98177 7.70304 5.91584 7.5039 6.03326 7.50222C5.90298 7.46374 5.69388 7.26633 5.72766 7.10905L5.74857 7.12243C5.62955 6.70246 5.26121 6.60205 5.17114 6.22558C5.09072 6.30422 5.03606 6.11014 4.94599 6.23395C4.62913 6.01142 4.80445 5.50617 4.37822 5.66513C4.26725 5.54466 4.35088 5.44088 4.32193 5.35722L4.36213 5.37561C4.16107 5.14471 4.10798 5.07442 3.99217 4.88368C3.89567 4.81675 3.72038 4.92388 3.64961 4.72477C3.75094 4.73147 3.69462 4.67285 3.6528 4.60927C3.6898 4.64274 3.72201 4.63778 3.71396 4.524C3.68501 4.52567 3.66246 4.51729 3.63994 4.50725C3.64477 4.50558 3.64639 4.49885 3.65604 4.49551C3.56436 4.40683 3.5563 4.43862 3.57721 4.49551C3.56596 4.50053 3.55633 4.5123 3.54668 4.54075C3.56277 4.37176 3.34881 4.23956 3.45818 4.14921C3.23783 3.86142 3.02396 3.74094 2.86151 3.46988C2.9162 3.41132 2.99822 3.45314 3.05451 3.51839L2.95801 3.336C3.05291 3.29919 3.05289 3.42473 3.09471 3.47325C3.16066 3.19383 2.76979 3.05328 2.82769 2.70191L2.73281 2.66505L2.74086 2.6433C2.69904 2.65668 2.62504 2.60653 2.5993 2.56303C2.67007 2.49108 2.79874 2.51278 2.74405 2.34714C2.78909 2.18818 2.58646 1.99077 2.4787 1.8452C2.498 1.9389 2.44168 1.92892 2.39825 1.90382C2.36769 1.82685 2.42885 1.74481 2.36934 1.70131L2.47708 1.64443C2.38701 1.71805 2.27925 1.48881 2.22135 1.48379C2.28247 1.40013 2.34357 1.57083 2.41273 1.56079C2.26315 1.25125 2.34037 1.4052 2.17953 1.10236C2.01547 0.986906 2.09427 1.18767 1.96238 1.16424C1.86909 1.03708 1.72434 0.953438 1.69217 0.762694L1.63268 0.871455C1.41394 0.674019 1.32868 0.533434 1.29812 0.3109C0.805948 0.0281312 0.479446 -0.0170171 0.286438 0.00473433C0.0902125 0.0315054 0.011409 0.128528 0.00336699 0.254017C-0.0255843 0.489937 0.141687 0.799458 0.141687 0.799458C0.384556 1.47543 0.82527 1.55571 1.23863 2.31701Z" fill="#99A292"/>
</svg>
