<svg width="22" height="15" viewBox="0 0 22 15" fill="none" xmlns="http://www.w3.org/2000/svg">
<path fill-rule="evenodd" clip-rule="evenodd" d="M18.5342 1.03347C18.05 0.923921 17.6265 0.615767 17.1508 0.46514C16.5637 0.28028 15.9462 0.186104 15.3338 0.17241C13.9082 0.143312 12.4708 -0.20586 11.074 0.180977C10.0178 0.473672 8.9516 0.775011 8.01021 1.38094C7.15486 1.93381 6.2641 2.45241 5.57577 3.22779C5.00385 3.86967 4.43191 4.56626 4.03038 5.32966C3.66766 6.01433 3.32013 6.72987 2.75833 7.25706C2.48165 7.51553 2.27249 7.79278 2.0363 8.07863C1.85072 8.30457 1.61958 8.45868 1.42388 8.67778C1.0038 9.14849 0.519619 9.58665 0 9.93583C0.274993 10.1036 0.632617 10.131 0.932916 10.2337C1.53351 10.4391 2.08521 10.7352 2.69593 10.9201C3.74698 11.2316 4.79294 11.5619 5.84061 11.8837C7.54624 12.4109 9.24854 12.9449 10.9575 13.4619C12.896 14.049 14.7686 15.2677 16.8285 14.3263C17.4916 14.0216 18.1495 13.5919 18.7164 13.1246C19.1466 12.7703 19.6139 12.25 19.7826 11.7057C20.0441 10.8601 20.3006 10.0607 20.228 9.17068C20.1825 8.6161 20.6279 8.29256 20.7983 7.79447C20.9771 7.2707 21.0732 6.7795 21.0631 6.22321C21.0445 5.21675 20.6869 4.32154 20.4254 3.36643C20.2651 2.78275 19.9277 2.21109 19.5869 1.71128C19.3541 1.37237 18.929 1.19951 18.7231 0.828076L18.5342 1.03347Z" fill="#809971"/>
</svg>
