<svg width="30" height="18" viewBox="0 0 30 18" fill="none" xmlns="http://www.w3.org/2000/svg">
<path fill-rule="evenodd" clip-rule="evenodd" d="M3.706 1.64113C4.31267 1.60708 4.69902 1.63778 5.08702 1.64799C5.40104 1.67353 5.64107 1.75348 6.3694 1.80626C6.45489 1.81817 6.54533 1.8301 6.64069 1.83691L6.88403 1.84886C6.94815 1.85056 7.04348 1.85907 7.15692 1.88461C7.38545 1.93228 7.6666 2.0242 7.98062 2.12466C8.35218 2.08039 8.82731 2.36986 9.15613 2.31368L9.24488 2.44139C9.35833 2.42266 9.48001 2.42769 9.55235 2.51112L9.5392 2.53668C9.69539 2.51455 9.81046 2.61842 9.87787 2.61161L9.86141 2.63374C9.90416 2.65417 9.95024 2.67292 9.98805 2.69505L9.94857 2.71542C9.99789 2.72393 10.0456 2.73929 10.0867 2.75802C10.1327 2.77675 10.205 2.8312 10.2593 2.87036C10.3744 2.95719 10.4779 3.0543 10.57 3.15134L10.6243 3.04577C10.8051 3.27731 10.9712 3.37771 11.1323 3.47816C11.2129 3.52753 11.2918 3.57692 11.3691 3.64162C11.4217 3.6978 11.471 3.76761 11.5088 3.87657L11.4841 3.89019C12.0727 4.13365 11.8228 4.84195 12.5939 5.32547C12.4953 5.26588 12.5824 5.40043 12.5577 5.41235C12.8882 5.74435 13.2565 5.94011 13.3666 5.74602C13.5688 5.88733 13.4916 5.91456 13.4735 6.0082C13.5228 5.92307 13.7135 5.99627 13.8302 6.0797L13.753 6.07117C13.8796 6.14949 13.9684 6.21591 14.0538 6.30104C14.0851 6.24145 14.1147 6.18018 14.1393 6.11378C14.2446 6.3249 14.0012 6.29761 14.1706 6.45255L14.2906 6.35726C14.381 6.5173 14.4221 6.7046 14.4994 6.91061C14.5323 7.01106 14.5997 7.13189 14.6391 7.21872C14.6736 7.30385 14.7148 7.38723 14.7641 7.46895C15.3231 8.01717 15.8196 8.39353 16.178 9.03029C16.5939 9.77941 17.2319 10.5047 17.684 11.0801L17.6494 11.2113C17.5541 11.3543 18.0917 11.2912 18.0243 11.4496L18.1936 11.5109C18.2052 11.567 18.2512 11.6607 18.1673 11.6301C18.2709 11.7458 18.2923 11.7271 18.4057 11.7714L18.4517 11.9688C18.8315 12.4745 19.3478 12.7197 19.8607 13.1964C20.1205 13.5488 20.6384 13.9404 21.2681 14.1703C21.3815 14.2094 21.4966 14.2503 21.6101 14.2911C21.7334 14.3422 21.855 14.3933 21.975 14.4426C22.2266 14.555 22.585 14.6674 22.7691 14.681C23.0733 14.7066 23.3675 14.7935 23.6618 14.9092C23.9726 15.0369 24.3145 15.168 24.6269 15.2752C24.9426 15.3859 25.2385 15.4829 25.5049 15.563C25.7531 15.6345 26.0523 15.7332 26.34 15.7417C26.368 15.7757 26.4748 15.7519 26.4814 15.7332C26.8809 15.8609 26.9582 15.8983 27.2377 16.1231C27.2377 16.1231 27.3051 16.1758 27.4169 16.261C27.5369 16.3495 27.7309 16.4925 27.989 16.6151C28.2356 16.7326 28.4839 16.8109 28.6895 16.8773C28.9015 16.9454 29.0363 16.988 29.2287 17.0714C29.5986 17.24 30.008 17.3029 29.9999 17.0765C30.0014 16.9692 29.9356 16.8109 29.8107 16.5623C29.7449 16.4397 29.666 16.2933 29.5312 16.118C29.3915 15.9409 29.1909 15.7587 28.987 15.5782L29.0248 15.5528C28.793 15.4115 28.6187 15.3075 28.4642 15.2139C28.3179 15.1305 28.1551 15.0505 27.9151 14.9875C28.0022 14.7508 27.4202 14.6215 27.2607 14.5074L27.2854 14.4954C26.8464 14.5397 26.5735 14.114 26.1773 14.1549C26.1937 14.1413 26.2184 14.0817 26.2989 14.1039C26.0441 14.0443 25.6364 14.0171 25.6496 13.8809C25.3454 13.8349 24.9919 13.777 24.6549 13.7259C24.3441 13.6817 24.1041 13.6408 23.8739 13.6833L23.9101 13.6544C23.6569 13.7311 23.6322 13.5914 23.3757 13.5897C23.3692 13.5693 23.3544 13.5556 23.3593 13.5505C23.2295 13.5829 23.0437 13.5369 22.9056 13.4841C22.7839 13.4296 22.6623 13.348 22.5669 13.331L22.5965 13.2457L22.1443 13.0193L22.3137 13.1317C22.2282 13.2254 22.1625 13.1419 22.049 13.0329C21.9997 12.9801 21.9109 12.9138 21.8484 12.8729C21.7909 12.8337 21.7218 12.8082 21.6363 12.815C21.4029 12.6652 20.8554 12.9615 20.6417 12.6499C20.4477 12.6465 20.8587 12.5801 20.6186 12.5103C20.6877 12.4014 20.7518 12.5103 20.7633 12.3911C20.5463 12.3009 20.5496 12.0557 20.2833 11.9331L20.3375 11.8514C19.9446 11.7373 19.9134 11.264 19.6174 11.2095C19.282 10.9848 19.6322 10.8043 19.2047 10.6425L19.1817 10.4281C19.0666 10.2799 18.9778 10.4519 18.8776 10.2612C18.9433 10.2067 18.7378 10.0262 18.8776 10.0518C18.6046 9.5989 18.1016 9.5904 17.9651 9.02686C17.7711 9.04048 17.7087 8.7629 17.564 8.75439C17.6133 8.71012 17.3091 8.2675 17.587 8.45989C17.61 8.47692 17.6297 8.51951 17.6051 8.52972L17.7054 8.51268C17.7054 8.3288 17.633 8.23852 17.5146 8.10232C17.3897 7.95419 17.2417 7.82995 17.1414 7.65288C17.1825 7.77036 17.2713 7.90144 17.1611 7.84866C17.1003 7.7414 17.0346 7.63418 16.9655 7.53203L17.0756 7.54564C16.9803 7.3839 16.8784 7.22556 16.7715 7.07573L16.7452 7.20168C16.6137 6.96672 16.6679 6.77093 16.367 6.67389C16.224 6.64154 16.441 6.94125 16.2339 6.7778C16.1402 6.63649 16.0201 6.4645 15.8919 6.29594C15.7768 6.13761 15.5845 5.92819 15.5812 5.89244C15.5105 5.98268 15.4809 5.94691 15.4168 5.89753L15.4891 5.82947C15.3461 5.74604 15.356 5.65917 15.3806 5.59617C15.3987 5.52467 15.4414 5.46168 15.2129 5.25907L15.2984 5.25564L15.0419 5.26759C14.7854 5.13309 14.7706 5.06834 14.7378 4.98151C14.7098 4.9049 14.6539 4.81305 14.3909 4.79602C14.5536 4.88966 14.3366 5.02414 14.1903 4.87261L14.284 4.81982C14.1771 4.77215 14.1278 4.78913 14.0801 4.73295C14.1591 4.72273 14.1755 4.62913 14.0522 4.56273L14.1936 4.51503L13.8927 4.5168C13.8467 4.41465 13.7892 4.37376 13.7218 4.30055C13.6511 4.22734 13.5919 4.14733 13.6215 4.07412C13.6215 4.07412 13.5721 3.9822 13.4981 3.87834C13.4274 3.77789 13.3288 3.66038 13.2384 3.65357C13.3666 3.68932 13.2433 3.43051 13.3749 3.43732C13.222 3.38795 12.9211 3.07812 12.8833 2.85508L12.9145 2.87545C12.7517 2.55366 12.4541 2.31531 12.2568 2.21485C12.0398 2.08205 11.8327 1.95438 11.6667 1.72624C11.6124 1.8335 11.4315 1.60201 11.3954 1.76376C11.2655 1.70417 11.1635 1.61904 11.0764 1.5288C10.9876 1.43516 10.8643 1.31422 10.7673 1.2342C10.5618 1.06735 10.376 0.994176 10.1952 1.16613C9.93376 1.08782 9.93047 0.95165 9.80552 0.88525L9.87295 0.880054C9.39288 0.77109 9.26793 0.754136 8.95885 0.655388C8.79773 0.655388 8.71223 0.8614 8.4689 0.72179C8.57906 0.669011 8.46888 0.648576 8.36695 0.61112C8.43436 0.623037 8.46563 0.599173 8.35054 0.49702C8.32424 0.514045 8.28806 0.519114 8.25682 0.520817C8.25682 0.514006 8.25351 0.507219 8.26008 0.502112C8.0743 0.462953 8.09567 0.500427 8.17459 0.541288C8.16637 0.553206 8.16803 0.571952 8.18447 0.602598C8.04144 0.428937 7.65016 0.422099 7.66167 0.275679C7.50548 0.23652 7.35094 0.216111 7.19475 0.212706C7.03692 0.207598 6.86757 0.22636 6.78865 0.24679C6.58643 0.284247 6.37432 0.304583 6.14086 0.299476C6.09812 0.219455 6.21651 0.166703 6.34968 0.156487L6.01924 0.139445C6.03733 0.0304813 6.21979 0.10369 6.32008 0.0951769C5.96989 -0.129561 5.45037 0.129257 4.95386 0.0185908L4.86179 0.113986L4.83385 0.103698C4.83713 0.149667 4.73518 0.221164 4.66777 0.241594C4.59872 0.153061 4.66284 0.0237317 4.43432 0.0526752C4.24689 -0.0205348 3.9214 0.151446 3.68794 0.224656C3.81618 0.228061 3.77833 0.28588 3.72572 0.325039C3.61228 0.338659 3.53997 0.251804 3.45448 0.299476L3.43311 0.173529C3.48736 0.291006 3.14374 0.333594 3.10593 0.389779C3.03359 0.302948 3.27689 0.29271 3.30155 0.217798C2.83957 0.277387 3.06975 0.246784 2.60941 0.304671C2.36116 0.430661 2.66693 0.422093 2.55678 0.54638C2.33647 0.597457 2.13591 0.71836 1.87121 0.696227L1.97151 0.789855C1.58186 0.963516 1.35334 1.02825 1.05083 1.01463C0.401417 1.51347 0.151479 1.90678 0.046258 2.14003C-0.0523868 2.3801 0.0166649 2.48906 0.1597 2.52141C0.435905 2.5861 0.950532 2.42258 0.950532 2.42258C2.00274 2.21487 2.25099 1.87268 3.706 1.64113Z" fill="#99A292"/>
</svg>
