<svg width="17" height="24" viewBox="0 0 17 24" fill="none" xmlns="http://www.w3.org/2000/svg">
<path fill-rule="evenodd" clip-rule="evenodd" d="M8.70398 22.2822C8.65951 21.8234 9.11087 21.3929 9.39256 21.112C9.89992 20.6033 10.1651 19.9417 10.5852 19.3682C11.0629 18.7182 11.4187 17.9801 11.875 17.3086C12.1781 16.863 12.4236 16.386 12.7497 15.9538C13.1286 15.4534 13.5075 14.9813 13.832 14.4411C14.4712 13.3755 14.9373 12.182 15.4035 11.0316C15.6622 10.3883 15.8219 9.70348 16.0624 9.05185C16.1893 8.70775 16.3606 8.38197 16.4727 8.03289C16.695 7.34302 16.5682 6.55171 16.4644 5.84024C16.4199 5.5377 16.3095 5.26838 16.1415 5.01405C15.8483 4.56855 15.5782 4.06492 15.2141 3.67427C14.6936 3.11573 14.2043 2.62372 13.4317 2.46081C12.6888 2.30455 12.0167 2.15324 11.3413 1.81746C10.74 1.51658 10.0976 1.42844 9.47163 1.24725C9.14711 1.15582 8.98566 1.04449 8.70891 0.838368C8.32015 0.547462 7.78641 0.0753325 7.28728 0.0171513C6.45704 -0.0825878 5.62848 0.2715 4.89214 0.592327C4.07178 0.949726 3.37333 1.5066 2.69134 2.08176C2.31741 2.3976 2.05878 2.81817 1.77545 3.20715C1.50529 3.58117 1.16758 3.89368 0.978137 4.32422C0.712922 4.93263 0.607485 5.61753 0.422988 6.25419C0.27473 6.76286 0.138014 7.26152 0.0622382 7.78847C-0.0876662 8.82077 0.0671958 9.85812 0.170976 10.8854C0.215453 11.3343 0.210509 11.8313 0.334057 12.2618C0.401596 12.4946 0.536631 12.7106 0.597581 12.9433C0.653589 13.1511 0.655276 13.3589 0.709636 13.5667C0.777176 13.831 0.866095 14.1103 1.00282 14.3447C1.19061 14.6705 1.29441 15.0013 1.45914 15.3355C1.76718 15.9572 2.13619 16.5555 2.49694 17.1473C2.80499 17.6543 3.24648 18.1497 3.62042 18.6135C3.8148 18.8496 3.9894 19.0773 4.16566 19.3299C4.74716 20.1694 5.34346 20.9774 6.10122 21.6639C6.44715 21.9748 6.84912 22.2573 7.17035 22.5981C7.44874 22.894 7.57062 23.3378 7.87043 23.6021L8.70398 22.2822Z" fill="#809971"/>
</svg>
