<svg width="20" height="20" viewBox="0 0 20 20" fill="none" xmlns="http://www.w3.org/2000/svg">
<path fill-rule="evenodd" clip-rule="evenodd" d="M0.680916 16.2821C0.79045 15.8249 0.934321 15.3757 0.942495 14.9071C0.952304 14.4158 0.949038 13.9261 0.914706 13.4364C0.855852 12.6143 0.973551 11.815 0.976821 10.9831C0.981725 9.90325 0.659651 8.86064 0.566465 7.79533C0.541943 7.51968 0.429132 7.32182 0.375182 7.06239C0.322868 6.81755 0.371946 6.56298 0.337614 6.31489C0.270586 5.84629 0.0727473 5.40847 0.0171629 4.935C-0.0547699 4.31398 0.102194 3.27308 0.4357 2.71854C0.659673 2.3456 1.16975 1.97584 1.55067 1.75857C1.84984 1.58993 2.18006 1.4894 2.4776 1.31104C2.69176 1.18132 2.8961 1.02572 3.11681 0.907353C3.9424 0.464692 4.99686 0.158179 5.91401 0.0398113C6.97828 -0.0980136 7.91507 0.146819 8.95483 0.394904C9.65127 0.563537 10.3673 0.698107 11.0588 0.88944C11.8632 1.1132 12.5073 1.79098 13.1531 2.28715C13.6125 2.64063 14.1732 2.91954 14.541 3.35896C14.9743 3.87945 15.3977 4.38213 15.8162 4.90749C16.0843 5.24475 16.2985 5.60148 16.6369 5.86578C17.0505 6.1917 17.4854 6.47381 17.9186 6.77053C18.2113 6.97322 18.5775 7.28127 18.839 7.53584C19.2461 7.93148 19.1774 8.38882 19.0516 8.89634C18.9518 9.28711 18.8619 9.68111 18.7704 10.0751C18.6707 10.4935 18.4712 10.8323 18.3535 11.2328C18.2243 11.6787 18.2064 12.0597 18.1786 12.5057C18.1639 12.7473 18.0674 12.971 18.02 13.2061C17.9627 13.4818 18.0118 13.7363 17.9726 14.0136C17.9088 14.4757 17.7568 14.9833 17.6325 15.4341C17.5704 15.6546 17.4511 15.7973 17.3693 15.9967C17.2533 16.2805 17.1911 16.5626 17.0244 16.8269C16.7399 17.2761 16.4914 17.6862 16.032 17.97C15.5105 18.2927 14.935 18.5068 14.3776 18.7532C13.9901 18.9235 13.6288 19.0889 13.2005 19.1197C12.8065 19.1505 12.4158 19.1181 12.0218 19.0986C11.5837 19.0743 11.1553 19.1457 10.7172 19.1359C10.06 19.1197 9.4371 18.9251 8.79951 18.771C7.84641 18.544 6.89166 18.3154 5.93855 18.0868C4.94948 17.85 3.96201 17.6133 2.97457 17.3766C2.50046 17.2647 2.01822 17.0863 1.53431 17.1318C1.16483 17.1642 0.782286 17.2274 0.4357 17.3134L0.680916 16.2821Z" fill="#809971"/>
</svg>
