<svg width="29" height="16" viewBox="0 0 29 16" fill="none" xmlns="http://www.w3.org/2000/svg">
<path fill-rule="evenodd" clip-rule="evenodd" d="M28.0851 4.07054C27.283 4.08379 26.558 2.82509 25.969 2.37627C25.2726 1.84465 24.4067 1.26008 23.618 0.864263C22.1932 0.148804 20.3473 0.448483 18.7917 0.259681C16.9742 0.0394126 15.8247 -0.253729 14.014 0.402108C12.4936 0.953608 10.9984 1.26497 9.45119 1.67404C8.24294 1.99368 7.25789 2.7257 6.15537 3.26561C5.12667 3.76742 3.96204 4.06718 2.98537 4.68492C2.5306 4.97309 2.24031 5.34247 1.75197 5.57102C1.0824 5.88901 0.488335 5.9055 0 6.6044C0.803822 7.67925 2.54403 8.49909 3.63649 9.25926C4.88166 10.1271 6.00266 11.2847 7.29146 12.0813C8.47957 12.815 9.44615 13.2588 10.5352 14.1863C12.0003 15.435 13.8143 16.1853 15.7811 15.8789C18.6893 15.4268 20.6074 13.5569 22.8477 11.8229C25.0309 10.1337 26.3701 7.87639 27.632 5.46337L28.0851 4.07054Z" fill="#809971"/>
</svg>
