<svg width="31" height="20" viewBox="0 0 31 20" fill="none" xmlns="http://www.w3.org/2000/svg">
<path fill-rule="evenodd" clip-rule="evenodd" d="M26.8162 16.679C25.7389 16.6449 24.523 17.2082 23.5973 17.739C23.0024 18.0793 22.2836 18.2919 21.6398 18.5216C20.8086 18.8176 20.0572 19.1579 19.1575 19.1358C17.7787 19.1052 16.4765 19.1749 15.1286 18.8363C13.6258 18.4569 12.2649 17.8972 10.9105 17.0959C9.65386 16.3541 8.50483 15.4557 7.25962 14.6867C6.75273 14.3736 6.37133 13.916 5.97202 13.4634C5.48795 12.919 4.89306 12.5055 4.40573 11.9644C3.58754 11.0542 2.61779 10.3226 1.65291 9.58761C1.26012 9.28647 0.885244 9.03292 0.443553 8.81854C-0.162753 8.5259 -0.063309 8.29791 0.243104 7.73305C0.880377 6.55399 2.10929 5.49238 3.35613 5.09425C4.76759 4.64168 6.17086 4.235 7.53179 3.59868C8.33694 3.22097 9.07855 2.73779 9.88859 2.37539C10.2765 2.20015 10.6497 2.02152 11.0572 1.90072C11.5852 1.74249 12.1867 1.73059 12.6919 1.50601C13.0032 1.36819 13.2069 1.1538 13.5574 1.12147C13.9078 1.08574 14.2207 1.10621 14.5679 1.00412C15.1987 0.820374 15.7984 0.502177 16.4536 0.45624C17.1153 0.408601 17.7477 0.29119 18.4192 0.270773C19.0223 0.252058 19.6188 0.204455 20.2202 0.180636C20.9211 0.151712 21.6105 -0.0388261 22.3162 0.00711144C22.7188 0.0343337 23.0399 0.223145 23.4164 0.345645C23.8792 0.493666 24.3307 0.558295 24.7757 0.767566C25.9508 1.32222 27.3997 1.65236 28.4037 2.5592C28.6629 2.79399 28.8079 3.12748 29.0459 3.38269C29.2496 3.59876 29.4485 3.7825 29.6261 4.0258C30.0124 4.55663 30.1526 4.99384 30.2471 5.64037C30.4036 6.72246 30.6709 7.81821 30.635 8.92581C30.622 9.30862 30.5372 9.92447 30.3791 10.2664C30.1591 10.7377 29.5446 10.9402 29.2578 11.3775C28.9123 11.9032 29.2349 12.6314 29.2952 13.2252C29.3572 13.8309 29.3556 14.3703 29.1486 14.9606C28.984 15.4319 28.6238 15.8675 28.1674 15.9985C27.641 16.1499 27.2743 16.5123 26.7006 16.48L26.8162 16.679Z" fill="#809971"/>
</svg>
