<svg width="20" height="22" viewBox="0 0 20 22" fill="none" xmlns="http://www.w3.org/2000/svg">
<path fill-rule="evenodd" clip-rule="evenodd" d="M19.1489 20.6063C18.9638 20.6973 18.8728 20.7345 18.6568 20.7277C18.1078 20.7109 17.5832 20.8238 17.0391 20.8424C16.5047 20.8575 15.9687 20.8069 15.4343 20.8136C14.614 20.8238 13.8116 21.048 12.993 21.0463C12.1955 21.0446 11.3834 21.0885 10.6037 20.9266C10.2171 20.8457 9.80618 20.8322 9.42448 20.7378C9.20845 20.6838 9.03307 20.5372 8.83491 20.4394C8.56528 20.3028 8.26152 20.2724 8.01138 20.1021C6.33189 18.9674 4.23011 18.116 3.12561 16.2883C2.45154 15.1704 1.94152 14.1318 1.60693 12.8335C1.42663 12.1304 1.2756 11.4206 1.09206 10.7192C0.910141 10.0228 0.960476 9.33663 0.85165 8.64029C0.682727 7.5494 0.538183 6.44666 0.552802 5.3406C0.569044 4.15698 0.578787 2.98683 0.377379 1.82007C0.327027 1.52838 0.294546 1.20812 0.210085 0.924859C0.14349 0.695553 -0.0205948 0.523574 0.00214485 0.270664C0.021636 0.0143812 0.114245 -0.075075 0.383872 0.0682407C0.54305 0.152544 0.672984 0.370118 0.802925 0.499946C1.09367 0.791635 1.43961 1.06478 1.77908 1.28566C2.72602 1.90613 3.2133 2.97841 4.03355 3.73377C4.88304 4.51442 5.59288 5.44517 6.39039 6.28315C7.26099 7.19699 8.11211 8.16138 9.06555 8.98081C9.96539 9.75303 10.6232 10.8153 11.4012 11.7055C12.241 12.6666 13.1538 13.5113 13.8734 14.5887C14.3574 15.3153 14.679 16.1281 15.1451 16.8666C15.4148 17.2914 15.7705 17.6489 16.0596 18.0587C16.3634 18.4886 16.6378 18.664 17.0293 18.9978C17.1544 19.104 17.2729 19.2558 17.4077 19.3536C17.6692 19.5441 17.9649 19.6384 18.2117 19.8526C18.4456 20.0498 18.6893 20.4192 19.032 20.3585L19.1489 20.6063Z" fill="#809971"/>
</svg>
