<svg width="34" height="21" viewBox="0 0 34 21" fill="none" xmlns="http://www.w3.org/2000/svg">
<path fill-rule="evenodd" clip-rule="evenodd" d="M0 2.97181C0.156619 3.06207 0.211001 3.32446 0.316513 3.48157C0.422025 3.63534 0.476428 3.76741 0.572048 3.93287C0.872098 4.45768 1.27271 4.93408 1.5876 5.45388C2.09537 6.28957 2.57514 7.13854 3.30218 7.8121C3.64015 8.12465 3.81987 8.49407 4.22214 8.76317C4.44635 8.91025 4.5799 9.0974 4.78433 9.26956C5.02008 9.46678 5.31189 9.61893 5.51632 9.8546C5.7158 10.0852 5.90538 10.1805 6.1263 10.3811C6.38019 10.6101 6.47085 10.9126 6.62912 11.2C6.7775 11.4725 7.00168 11.6145 7.20117 11.8402C7.42208 12.0925 7.53258 12.3884 7.63315 12.7026C8.08487 14.0898 8.94377 15.3267 9.87359 16.4014C10.4176 17.0281 11.2172 17.5763 11.9129 18.0109C12.668 18.4839 13.5105 18.7446 14.282 19.1891C14.7305 19.4482 15.1509 19.7358 15.6092 19.9614C16.1895 20.2489 16.8753 20.2722 17.4969 20.3257C18.4382 20.4059 19.3631 20.2539 20.3111 20.3174C21.4354 20.3943 22.6735 20.5012 23.7831 20.2839C24.5909 20.1252 25.4449 20.0934 26.2115 19.7942C26.9468 19.5067 27.7085 19.4316 28.3613 18.9552C29.0125 18.4839 29.6621 18.0509 30.2638 17.5094C31.0766 16.7757 31.9751 16.0821 32.8505 15.3918C32.9857 15.2865 33.8232 14.8102 33.8298 14.5812C33.5413 14.3339 33.2429 13.8291 33.111 13.4681C33.0467 13.2943 33.0434 13.1338 32.9494 12.9633C32.8818 12.838 32.7466 12.751 32.6774 12.629C32.5092 12.3332 32.501 12.0073 32.2817 11.7265C31.8333 11.1516 31.3783 10.5883 30.9398 10.0083C30.7205 9.71918 30.5754 9.38653 30.3215 9.12245C30.0479 8.83999 29.7478 8.61273 29.484 8.31523C29.1922 7.9843 28.7718 7.8222 28.4487 7.52637C28.1602 7.26229 27.8931 7.11016 27.5683 6.90123C27.2996 6.72908 27.1479 6.48677 26.8512 6.33802C26.5264 6.17757 26.1769 6.05056 25.8686 5.84999C25.4713 5.59427 25.0327 5.34855 24.6684 5.04603C24.2694 4.71176 23.8721 4.26211 23.427 4.00806C22.8087 3.65373 22.1575 3.29778 21.5129 3.00028C20.7183 2.63592 20.0424 2.10277 19.223 1.77184C18.3459 1.41918 17.4045 1.1434 16.4912 0.914426C16.0147 0.79743 15.596 0.757271 15.1097 0.742229C14.6695 0.727186 14.2507 0.60681 13.8138 0.578396C13.2203 0.539955 12.6796 0.47481 12.0976 0.346114C11.8602 0.294301 11.664 0.346129 11.4283 0.319387C11.1414 0.285959 10.8694 0.145548 10.5792 0.115464C10.0467 0.0603085 9.52906 0.0202069 8.99655 0.00182183C8.39151 -0.0165633 7.82933 0.110418 7.22758 0.103732C6.55824 0.0970468 5.84931 0.292624 5.18491 0.381206C4.80738 0.431348 4.49744 0.633621 4.14134 0.75396C3.78523 0.872627 3.50829 0.934492 3.2 1.17517C2.99392 1.33395 2.79114 1.44758 2.56033 1.56792C2.27842 1.71333 2.06903 1.66483 1.77722 1.75174C1.5629 1.81359 1.41123 2.00576 1.19526 2.09267C0.992483 2.17624 0.667674 2.21309 0.608323 2.48552L0 2.97181Z" fill="#809971"/>
</svg>
