<svg width="21" height="30" viewBox="0 0 21 30" fill="none" xmlns="http://www.w3.org/2000/svg">
<path fill-rule="evenodd" clip-rule="evenodd" d="M1.20293 4.09796C1.32264 4.61545 1.31282 5.03184 1.36037 5.47011C1.38333 5.6943 1.4178 5.93026 1.49815 6.20839C1.56047 6.46967 1.76051 6.88096 1.82611 7.00738C1.88843 7.20291 1.94749 7.46418 2.0344 7.80637C2.0508 7.86536 2.09344 8.04064 2.141 8.15864C2.18856 8.28337 2.24432 8.39802 2.2968 8.49578C2.40503 8.693 2.50011 8.8278 2.55914 8.92388C2.68542 8.9795 2.7199 9.0655 2.7281 9.1245C2.75926 9.32003 2.80844 9.58634 2.92323 9.75321L2.87404 9.92853C2.95603 10.0499 3.03804 10.1932 3.03804 10.3432L3.00851 10.3449C3.14463 10.5151 3.20039 10.7478 3.27746 10.8254L3.24959 10.8304L3.37095 11.0512L3.3168 11.0309C3.55295 11.3276 3.73829 11.5991 3.85801 11.857L3.93833 11.7726C4.16136 12.3575 4.47624 12.403 4.64024 12.9357L4.61236 12.9459C5.22078 13.342 4.99775 13.9353 5.54548 14.3635C5.47661 14.3096 5.51105 14.4258 5.48318 14.4309C5.67013 14.7343 5.9112 15.0698 6.09159 14.9349C6.23263 15.149 6.1539 15.1473 6.10471 15.2299C6.18178 15.1709 6.34247 15.3243 6.46875 15.4709L6.38347 15.4237C6.50646 15.5653 6.63275 15.7001 6.76067 15.8316L6.82793 15.6243C6.97389 15.8772 6.70818 15.8333 6.92137 16.0103L7.03127 15.9008C7.26906 16.2126 7.26087 16.543 7.42814 16.8936C7.60854 17.1077 7.80533 17.3217 7.97916 17.5122C8.0054 17.5375 8.01852 17.5409 8.0792 17.6572C8.13168 17.7533 8.22023 17.9471 8.36127 18.1258C8.5843 18.3989 8.80568 18.5759 8.96148 18.7225C9.12711 18.8725 9.17466 18.9618 9.39933 19.2686C9.79456 19.7743 10.2669 20.0963 10.5506 20.4283L10.5276 20.5582C10.4489 20.7082 10.9474 20.5699 10.8933 20.7486L11.0573 20.8025C11.0704 20.8564 11.118 20.9509 11.036 20.9223C11.1393 21.0335 11.159 21.0149 11.2688 21.0503L11.3164 21.2442C11.6903 21.728 12.161 21.9033 12.6103 22.4022C12.8612 22.7983 13.3499 23.1524 13.7402 23.4372C13.9403 23.5906 14.1469 23.7491 14.347 23.9025C14.5618 24.0575 14.7685 24.2058 14.9423 24.334C15.4605 24.6475 15.8557 25.1649 16.2559 25.674C16.6462 26.178 17.0873 26.7225 17.5744 26.982C17.5826 27.0208 17.6794 27.0461 17.6925 27.0309C17.909 27.2652 18.1074 27.5265 18.3042 27.8148C18.3042 27.8148 18.4468 28.0153 18.6485 28.2985C18.8535 28.5885 19.1225 28.9559 19.3882 29.261C19.4636 29.3133 19.6128 29.583 19.8064 29.7549C19.9966 29.9522 20.2967 30.0263 20.3853 29.9538C20.4738 29.8847 20.3983 29.7819 20.3311 29.5881C20.3032 29.4903 20.295 29.379 20.2918 29.2391C20.2819 29.0924 20.3098 28.9357 20.2278 28.6526C20.1934 28.4857 20.1458 28.2934 20.0884 28.076L20.1327 28.0777C19.8686 27.5181 19.6751 27.1911 19.2701 26.9501C19.4095 26.7528 18.9716 26.5118 18.9224 26.3499L18.9454 26.3483C18.5698 26.1629 18.4419 25.62 18.0975 25.5122C18.1188 25.5071 18.1648 25.4634 18.2271 25.5173C18.0205 25.3639 17.7335 25.1649 17.8056 25.0503C17.3383 24.6609 16.7544 24.0306 16.333 23.9244L16.3773 23.9159C16.1214 23.8721 16.1558 23.7372 15.9262 23.6226C15.9279 23.599 15.9213 23.5805 15.9279 23.5771C15.6573 23.5165 15.4031 23.1118 15.2194 23.0225L15.2703 22.9501C15.1456 22.8405 15.0374 22.7562 14.898 22.623L15.0243 22.773C14.8226 22.9214 14.8357 22.3601 14.4437 22.2472C14.1912 22.0011 13.6123 22.2387 13.427 21.9235C13.2351 21.9083 13.6451 21.8712 13.4139 21.7852C13.4893 21.6824 13.5451 21.7953 13.5648 21.6757C13.3581 21.5762 13.3958 21.342 13.1171 21.1869L13.1745 21.106C12.7743 20.9644 12.73 20.489 12.4299 20.4351C12.0872 20.2143 12.4217 20.0204 11.9954 19.872L11.9625 19.653C11.8428 19.508 11.7723 19.69 11.6575 19.4978C11.7198 19.4389 11.4837 19.2703 11.6313 19.2855C11.323 18.8675 10.7408 18.8826 10.6309 18.4174C10.544 18.4376 10.4849 18.3904 10.4341 18.3382C10.4095 18.3112 10.3866 18.2842 10.3603 18.2623C10.3341 18.2404 10.2849 18.1915 10.2455 18.1864C10.298 18.1038 9.78799 17.5914 10.1685 17.8072C10.2029 17.8274 10.2422 17.883 10.2177 17.8965L10.3242 17.878C10.1685 17.3807 9.75026 17.401 9.63711 17.2038C9.65187 17.2746 9.73057 17.3504 9.63546 17.3419C9.60102 17.2981 9.56498 17.2459 9.54202 17.2105L9.53216 17.1885C9.5584 17.1801 9.58298 17.17 9.60758 17.1565C9.6125 17.1447 9.58958 17.052 9.51414 16.8514C9.49774 16.8902 9.47967 16.9323 9.45999 16.966C9.41899 16.7907 9.40097 16.5565 9.26486 16.3829C9.21894 16.3239 9.173 16.2901 9.08444 16.253C8.94669 16.2126 9.13037 16.5194 8.94506 16.3457C8.78763 16.0575 8.54493 15.6445 8.31042 15.3461C8.25466 15.4523 8.18904 15.3748 8.10212 15.3141L8.16443 15.2366C7.80365 15.041 8.22021 14.9804 7.89223 14.7714L7.96439 14.7478L7.74954 14.8119C7.38712 14.6804 7.78397 14.5421 7.35923 14.4241C7.4609 14.5269 7.23135 14.6163 7.15919 14.441L7.25924 14.4208C7.18708 14.3534 7.13621 14.35 7.11325 14.2859C7.18705 14.3011 7.23954 14.2269 7.15098 14.1207L7.29857 14.1309C7.2051 14.0921 7.10669 14.0533 7.01486 14.0095C7.00174 13.8898 6.94434 13.7971 6.88038 13.6791C6.8115 13.5527 6.7541 13.4414 6.78689 13.3639C6.78689 13.3639 6.57863 12.8581 6.39167 12.8346C6.52287 12.8767 6.40151 12.6071 6.53271 12.6206C6.37691 12.5565 6.09652 12.2648 6.0998 12.071L6.12603 12.0896C5.90136 11.5316 5.46183 11.3462 5.30276 10.8455C5.2224 10.9281 5.13224 10.6702 5.04697 10.8067C4.63698 10.4292 4.89115 9.93361 4.42213 9.95384C4.3221 9.75999 4.43196 9.6757 4.42048 9.56782L4.45822 9.60661C4.3057 9.22903 4.2926 9.14306 4.23356 8.78571C4.13024 8.54635 3.92851 8.56823 3.81372 8.22942C3.93999 8.29179 3.85798 8.16372 3.7973 8.0609C3.8465 8.11989 3.88421 8.12496 3.85305 7.95976C3.82189 7.95639 3.79241 7.93612 3.76617 7.91758C3.77109 7.91253 3.7727 7.90414 3.78254 7.90246C3.6743 7.77267 3.6694 7.81473 3.694 7.88384C3.68252 7.88721 3.67104 7.90074 3.66448 7.93446C3.65628 7.72038 3.48575 7.56193 3.62514 7.51305C3.48902 7.01747 3.23481 6.50844 2.97078 6.10726C3.02162 6.04489 3.10199 6.07183 3.19874 6.21848L3.04785 5.93699C3.14789 5.9117 3.15612 6.04148 3.22992 6.15273C3.21844 5.9218 3.12987 5.82241 3.02983 5.64542C2.93472 5.47854 2.83961 5.28637 2.86913 5.0487L2.76909 4.97452L2.7773 4.94582C2.73466 4.95593 2.65754 4.86666 2.62966 4.8026C2.7051 4.71832 2.83633 4.76378 2.78385 4.53285C2.83469 4.33226 2.63131 4.00526 2.5116 3.76421C2.53456 3.9058 2.47224 3.87544 2.42632 3.82656C2.3886 3.70856 2.4575 3.60915 2.38698 3.52655L2.49684 3.47429C2.40992 3.56194 2.26236 3.19112 2.19841 3.17932C2.2558 3.07313 2.34269 3.32594 2.41976 3.33437C2.23773 2.9079 2.32795 3.12197 2.14756 2.69382C1.97865 2.50166 2.05409 2.77641 1.91469 2.7073C1.81958 2.51682 1.67033 2.34658 1.66541 2.08362L1.58668 2.19484C1.38169 1.83243 1.32595 1.5881 1.35547 1.29143C-0.289384 -1.43424 0.0238244 1.0015 0.0238244 1.0015C0.0681025 1.62856 0.214072 2.08528 0.428903 2.55894C0.535498 2.79493 0.658465 3.03436 0.799499 3.30237C0.873296 3.43891 0.948745 3.58048 1.02746 3.72882C1.09306 3.84344 1.15045 3.953 1.20293 4.09796Z" fill="#99A292"/>
</svg>
