<svg width="5" height="2" viewBox="0 0 5 2" fill="none" xmlns="http://www.w3.org/2000/svg">
<path fill-rule="evenodd" clip-rule="evenodd" d="M0.378778 1.47201C0.505302 1.56772 0.475328 1.76984 0.693416 1.74554C0.779986 1.78807 0.903177 1.76984 1.02304 1.76529C1.09463 1.62249 1.19785 1.78651 1.25279 1.66042L1.26442 1.7485C1.28773 1.70597 1.30939 1.6787 1.32437 1.72579L1.32269 1.75008C1.35266 1.68628 1.3793 1.72731 1.39428 1.69389L1.3926 1.71967L1.42425 1.70901L1.4176 1.74396C1.46421 1.67712 1.50747 1.67408 1.54243 1.70446L1.53913 1.59969C1.61571 1.71818 1.64066 1.49943 1.69393 1.63919V1.66496C1.76718 1.38848 1.77883 1.85491 1.8371 1.59515C1.82878 1.62705 1.83377 1.6498 1.83044 1.67563C1.85209 1.64676 1.87375 1.63305 1.90538 1.42797C1.92203 1.43253 1.9087 1.49331 1.89705 1.57382C1.91203 1.48419 1.93201 1.44779 1.94699 1.44475L1.93368 1.47962L1.97529 1.45532L2.00694 1.28676C2.0186 1.33993 1.96366 1.49026 1.99363 1.45532L2.02859 1.31708C2.05855 1.35354 1.99693 1.56015 2.01024 1.67257C2.19171 1.78346 2.4814 1.47512 2.60792 1.75008L2.59293 1.85643C2.5663 2.00986 2.68947 1.63918 2.6695 1.78198L2.70445 1.71512C2.70445 1.74399 2.71114 1.77585 2.69449 1.80775C2.71281 1.81687 2.71778 1.79259 2.74108 1.74702L2.74611 1.84725C2.81437 1.93384 2.91093 1.75617 2.99084 1.80478C3.06909 2.01138 3.2938 1.84578 3.40867 1.74248C3.55184 1.51461 3.78828 2.12377 3.95975 1.83362C3.96808 1.85489 3.9764 1.80326 3.97307 1.78504C4.03133 1.78504 4.08958 1.78351 4.14951 1.77743C4.14951 1.77743 4.37925 1.744 4.45084 1.55259C4.4858 1.4584 4.47085 1.33987 4.37595 1.18644C4.28439 1.03149 4.11292 0.844635 3.93811 0.557522L3.92978 0.525627C3.86652 0.458786 3.84653 0.443626 3.85652 0.615286C3.80324 0.413244 3.81822 0.603095 3.79159 0.537773L3.78823 0.521083C3.78657 0.68211 3.71335 0.398036 3.70669 0.540833C3.70669 0.525642 3.70002 0.469453 3.70502 0.464895C3.68837 0.49224 3.66505 0.540807 3.6534 0.419277C3.61011 0.457255 3.53856 0.401055 3.50692 0.597021L3.50855 0.562065C3.48691 0.692709 3.48192 0.58186 3.45861 0.647182C3.45694 0.631991 3.45697 0.622846 3.45531 0.61677C3.43033 0.745895 3.3887 0.636571 3.36706 0.68974L3.37041 0.609167L3.32209 0.625949L3.33876 0.644122C3.31712 0.864394 3.3138 0.504364 3.26885 0.644122C3.24055 0.61374 3.15566 1.09839 3.12736 0.985979C3.09739 1.08776 3.16398 0.820363 3.12736 0.896319C3.14068 0.782385 3.14731 0.826391 3.1523 0.732206C3.12067 0.785375 3.12733 0.61076 3.08737 0.685197L3.09906 0.597021C3.0358 0.755009 3.04576 0.470921 2.99582 0.621313C2.94255 0.688154 3.01579 0.352462 2.9442 0.521083L2.95086 0.399528C2.93754 0.376741 2.91092 0.543869 2.90259 0.481585C2.91924 0.407148 2.88927 0.41782 2.9159 0.34946C2.89926 0.224892 2.79273 0.49985 2.78274 0.290212C2.73613 0.433009 2.72777 0.341868 2.69114 0.448206C2.70612 0.384403 2.63619 0.425399 2.70445 0.294755C2.70945 0.285641 2.7128 0.287139 2.7078 0.311445L2.7328 0.226421C2.74445 0.05628 2.65285 0.303848 2.62621 0.271946C2.62788 0.302329 2.6429 0.296277 2.61793 0.354003L2.59293 0.335737L2.61793 0.265919L2.58795 0.212698L2.56799 0.302358C2.55966 0.252227 2.59627 0.0987722 2.53634 0.220301C2.5047 0.287143 2.51966 0.344882 2.4897 0.366149C2.46805 0.294751 2.48807 0.202084 2.41649 0.15651C2.39151 0.256772 2.37649 0.249209 2.35318 0.265919L2.37483 0.177743C2.27327 0.284081 2.4015 -0.0227845 2.30161 0.0592477L2.32326 0L2.26163 0.179319C2.16174 0.344903 2.26329 -0.0105685 2.14676 0.218818C2.17673 0.208184 2.12347 0.414711 2.09849 0.372176L2.12181 0.287152C2.10017 0.303863 2.08848 0.340315 2.08015 0.319048C2.0968 0.274993 2.10514 0.194519 2.07517 0.206672L2.11013 0.100322L2.03524 0.25368C2.00694 0.156457 1.93536 0.268896 1.9287 0.145848C1.9287 0.145848 1.85045 0.0805925 1.82714 0.214275C1.84712 0.132242 1.8055 0.0972234 1.82049 0C1.79718 0.0941852 1.74054 0.170172 1.72223 0.0699105L1.72558 0.0577642C1.649 -0.0440165 1.60406 0.199021 1.55411 0.0744537C1.55578 0.177754 1.53078 0.121575 1.53577 0.255257C1.4775 0.38742 1.46087 -0.0196981 1.42258 0.393501C1.39927 0.414769 1.40428 0.294754 1.39596 0.275006L1.40093 0.252197C1.36431 0.284098 1.34432 0.287159 1.33433 0.275006C1.32267 0.314503 1.29109 0.504421 1.2761 0.455809C1.29608 0.381372 1.28605 0.393444 1.27773 0.391925C1.28605 0.381291 1.29272 0.352432 1.29272 0.300782C1.28606 0.325088 1.28106 0.33879 1.27773 0.350943C1.2794 0.344867 1.27942 0.340309 1.28108 0.331194C1.26277 0.3555 1.25941 0.379772 1.26274 0.391925C1.26108 0.402559 1.25942 0.416276 1.25609 0.437543C1.26275 0.338801 1.21113 0.435991 1.2411 0.308385C1.19116 0.328133 1.11628 0.449705 1.05302 0.484645C1.07133 0.417804 1.10127 0.364608 1.12125 0.34334L1.08294 0.357063C1.11457 0.265916 1.11962 0.309889 1.13293 0.293179C1.15125 0.133672 1.00804 0.420855 1.01303 0.270463L0.974777 0.34028L0.97808 0.326651C0.963096 0.364629 0.933136 0.414706 0.921482 0.423821C0.944789 0.343308 0.991378 0.240029 0.968071 0.236991C0.979724 0.156478 0.901526 0.259758 0.859906 0.293179C0.86823 0.311408 0.844914 0.354011 0.829931 0.381355C0.816612 0.379836 0.841553 0.296233 0.818245 0.328134L0.859906 0.221785C0.82328 0.323566 0.784967 0.319071 0.763325 0.361606C0.788297 0.281093 0.808285 0.299296 0.836586 0.240051C0.783313 0.233974 0.809943 0.236984 0.756669 0.229388C0.698401 0.302306 0.72004 0.334228 0.670096 0.422337C0.638465 0.436009 0.5852 0.502893 0.5852 0.428457L0.555225 0.527203C0.480309 0.586448 0.460317 0.565114 0.466976 0.458776C0.149 0.794501 0.0641218 1.0695 0.0258315 1.2442C-0.0141236 1.42042 0.00418836 1.504 0.00418836 1.504C0.0175067 1.74554 0.188991 1.49024 0.378778 1.47201Z" fill="#99A292"/>
</svg>
