<svg width="13" height="11" viewBox="0 0 13 11" fill="none" xmlns="http://www.w3.org/2000/svg">
<path fill-rule="evenodd" clip-rule="evenodd" d="M1.60836 1.40236C1.9603 1.64514 1.90654 1.88949 2.44586 2.17699C2.68211 2.36547 2.94116 2.4885 3.18067 2.62427C3.37945 2.56677 3.47397 2.82552 3.67438 2.80316L3.66951 2.9102C3.73957 2.90221 3.80635 2.91177 3.82102 2.98205L3.80312 3.00281C3.90576 2.99003 3.95299 3.07471 4.0035 3.06832L3.9856 3.08743L4.06869 3.13218L4.03284 3.15294C4.186 3.17211 4.3017 3.24873 4.37991 3.34616L4.43694 3.25199C4.57218 3.50275 4.78724 3.37494 4.885 3.63209L4.86546 3.6513C5.28095 3.59699 5.10821 4.08569 5.51555 4.05694C5.46504 4.06014 5.4911 4.11128 5.47154 4.13045C5.59863 4.19274 5.72246 4.27264 5.86421 4.10812C5.94079 4.17521 5.88378 4.21192 5.83816 4.2838C5.90007 4.21032 5.99295 4.23748 6.05649 4.2838L6.00598 4.28857L6.19662 4.4116L6.28299 4.2486C6.34001 4.3668 6.15753 4.4307 6.27647 4.47702L6.37582 4.3652C6.48336 4.50096 6.40681 4.7374 6.45732 4.92907C6.93309 5.4322 7.74123 5.63507 8.03615 6.2548L7.98075 6.35697C7.87973 6.48474 8.27403 6.2947 8.19094 6.42248L8.29521 6.4177C8.29032 6.45284 8.30175 6.5055 8.24961 6.5071C8.29523 6.55821 8.31475 6.53911 8.38481 6.53751L8.36855 6.66044C8.51193 6.89843 8.81498 6.90965 8.99258 7.13326C9.0936 7.5134 9.67855 7.81363 10.0126 8.00051C10.5519 8.20336 10.4688 9.07545 11.0456 9.26073C11.0407 9.28788 11.1107 9.28472 11.1237 9.27194C11.2182 9.38055 11.2639 9.46684 11.3519 9.60739C11.3519 9.60739 11.4236 9.72713 11.5751 9.90921C11.606 9.94435 11.6745 10.0227 11.7217 10.0642C11.7657 10.1042 11.8032 10.1344 11.8374 10.1584C11.8684 10.1808 11.8993 10.1999 11.9205 10.2031C11.9319 10.2079 11.9384 10.2063 11.9482 10.2047C11.9466 10.2015 12.0721 10.1472 12.0981 10.1361C12.3067 10.0658 12.3213 10.1169 12.2855 10.0945C12.2659 10.0866 12.2448 10.0722 12.2399 10.0658C12.2399 10.0658 12.2904 10.1169 12.3262 10.1329C12.393 10.176 12.538 10.2479 12.67 10.077C12.8036 9.90449 12.771 9.57381 12.7303 9.28471L12.7645 9.27038C12.6945 9.06913 12.6456 8.93814 12.38 8.87585C12.5495 8.7305 12.261 8.66502 12.2692 8.5596L12.2871 8.55482C12.0183 8.48614 12.1486 8.20019 11.9156 8.16984C11.9336 8.16186 11.9824 8.12512 12.0101 8.14908C11.9075 8.08199 11.7592 8.00053 11.8505 7.90789C11.6289 7.7322 11.4024 7.40155 11.1287 7.40954L11.1629 7.39521C10.9902 7.41597 11.0553 7.31375 10.925 7.27861C10.9331 7.26424 10.9348 7.25149 10.9397 7.24829C10.7637 7.26267 10.6969 7.03107 10.5926 7.00711L10.648 6.94316L10.4769 6.80258L10.5225 6.87287C10.3368 7.01822 10.5079 6.65246 10.2863 6.64767C10.1983 6.52149 9.72742 6.78347 9.69483 6.59659C9.56611 6.62374 9.86752 6.51351 9.7274 6.49754C9.8105 6.4065 9.82031 6.47679 9.86593 6.38894C9.74699 6.3554 9.82519 6.17492 9.66877 6.14298L9.73068 6.07269C9.48302 6.07748 9.57588 5.75485 9.3771 5.79797C9.18972 5.73408 9.48137 5.50885 9.21579 5.52004L9.24836 5.37634C9.20274 5.30766 9.09848 5.45459 9.07567 5.34758C9.13433 5.29168 9.03658 5.22455 9.12619 5.20379C9.06264 4.97538 8.70093 5.06323 8.64879 4.72941C8.50052 4.80768 8.46303 4.64951 8.35224 4.71021C8.39297 4.6543 8.15997 4.52655 8.37178 4.51377C8.3897 4.51217 8.40437 4.52974 8.38645 4.5473L8.46302 4.48979C8.46791 4.25979 8.19256 4.38119 8.09969 4.26459C8.1111 4.3157 8.16163 4.34771 8.08831 4.37007L7.99378 4.26937L8.06712 4.2295L7.9449 4.06016L7.9009 4.15121C7.86016 4.04739 7.9433 3.90048 7.7657 3.92923C7.67608 3.9516 7.74938 4.08893 7.64999 4.04261C7.59296 3.90365 7.50985 3.69597 7.40232 3.5618C7.3404 3.65444 7.30947 3.62093 7.25896 3.60655L7.31759 3.53304C7.09437 3.50909 7.41213 3.33502 7.20357 3.2903L7.2606 3.25199L7.08951 3.36693C6.83533 3.39727 7.14978 3.15613 6.83532 3.22801C6.90375 3.26474 6.72453 3.4101 6.68217 3.31906L6.76038 3.26476C6.70824 3.24559 6.67074 3.26474 6.6577 3.22801C6.7131 3.21044 6.75711 3.13694 6.68868 3.1002L6.80275 3.0459L6.58441 3.08421C6.56323 2.94046 6.35139 2.92612 6.39864 2.79994C6.39864 2.79994 6.25362 2.60352 6.12327 2.68178C6.21615 2.64185 6.13472 2.53801 6.22759 2.47891C6.11843 2.51884 5.92613 2.47733 5.93427 2.34955L5.95387 2.34789C5.80885 2.10191 5.50413 2.19939 5.39333 1.95501C5.3363 2.05085 5.27277 1.93105 5.21248 2.06362C4.93712 2.03487 5.02512 1.57647 4.70088 1.87995C4.59823 1.83682 4.65525 1.72341 4.62266 1.6723L4.65687 1.66908C4.4695 1.58124 4.41901 1.5493 4.30169 1.45666C4.21534 1.44867 4.08825 1.60679 4.00678 1.49019C4.08988 1.44867 4.03612 1.42951 3.99376 1.40236C4.02797 1.41034 4.05401 1.3912 4.0312 1.30974C4.00839 1.32412 3.98884 1.32887 3.96929 1.33207C3.97255 1.32568 3.97421 1.32091 3.98073 1.31452C3.89437 1.28897 3.8927 1.31771 3.91877 1.34806C3.909 1.35764 3.90249 1.37199 3.89923 1.39914C3.88783 1.26338 3.69721 1.26664 3.76891 1.14684C3.54406 1.02705 3.32084 1.04616 3.12369 0.966296C3.1465 0.894421 3.22468 0.873676 3.28823 0.886454L3.15462 0.819382C3.21816 0.741118 3.25889 0.82413 3.30777 0.833713C3.26703 0.600517 2.91839 0.749122 2.82062 0.498356L2.73589 0.538229L2.73261 0.519121C2.70817 0.55426 2.63322 0.575034 2.59901 0.568645C2.62182 0.477602 2.71632 0.399329 2.61367 0.340231C2.57946 0.217244 2.3595 0.239594 2.22752 0.228413C2.27966 0.273136 2.23729 0.306711 2.19818 0.322684C2.14604 0.298725 2.15257 0.204484 2.09391 0.218859L2.13956 0.107041C2.11349 0.218848 1.94566 0.156506 1.90655 0.196437C1.90818 0.100603 2.02061 0.15813 2.06134 0.103824C1.83323 0.0239624 1.93262 0.0590977 1.73709 0C1.60349 0.0479171 1.71591 0.113419 1.63118 0.194878C1.53342 0.183697 1.41448 0.230007 1.33627 0.124589L1.3314 0.236407C1.13099 0.25238 1.03321 0.204448 0.956631 0.0622945C0.16151 0.239588 -0.0209746 0.483958 0.00183629 0.694793C0.0246471 0.904031 0.254383 1.07178 0.254383 1.07178C0.469457 1.27463 0.671501 1.32729 0.901239 1.34806C1.12283 1.36882 1.41447 1.35444 1.60836 1.40236Z" fill="#99A292"/>
</svg>
