<svg width="16" height="21" viewBox="0 0 16 21" fill="none" xmlns="http://www.w3.org/2000/svg">
<path fill-rule="evenodd" clip-rule="evenodd" d="M9.91377 20.1362C9.99885 20.2278 10.0807 20.321 10.1625 20.4126C10.3359 20.0169 10.6942 19.7094 10.9822 19.4052C11.5188 18.8361 11.9377 18.2146 12.4237 17.6112C13.2368 16.6038 14.0517 15.5473 14.6538 14.4172C15.8498 12.1767 16.3669 9.26896 15.5864 6.8273C15.2657 5.82807 14.6898 4.70125 14.0549 3.91952C13.3939 3.10673 12.8441 2.60952 12.0326 1.93246C11.3421 1.3568 10.5077 0.7403 9.63724 0.409948C8.99259 0.167908 7.55601 -0.398003 7.15187 0.450773L6.13585 0.828582C3.7274 0.189138 1.67068 3.28337 0.847686 5.18371C0.471365 6.05211 0.0099928 7.48469 8.73878e-05 8.40052C-0.00964132 9.44882 0.795357 10.3287 1.2044 11.2314C1.69198 12.3026 2.01592 13.3509 2.59676 14.3796C3.19887 15.4442 4.28695 16.6299 5.28665 17.3888C6.234 18.11 7.42516 18.244 8.40687 18.908C9.00407 19.3136 9.42292 19.6047 9.91377 20.1362Z" fill="#809971"/>
</svg>
