<svg width="9" height="6" viewBox="0 0 9 6" fill="none" xmlns="http://www.w3.org/2000/svg">
<path fill-rule="evenodd" clip-rule="evenodd" d="M7.38038 0.351518C7.04753 0.208109 6.95724 -0.0713671 6.44912 0.0168845C6.23843 0.000337323 6.04193 0.0757144 5.87197 0.127194C5.81355 0.322083 5.64354 0.163991 5.57626 0.336817L5.52315 0.2393C5.49837 0.296296 5.46828 0.340449 5.42579 0.290808L5.42228 0.261407C5.38864 0.349658 5.32664 0.312891 5.31071 0.357016L5.30892 0.327615L5.2523 0.353313L5.25408 0.307416C5.18858 0.410376 5.10714 0.434273 5.0257 0.417726L5.06109 0.539033C4.86988 0.441589 4.88053 0.713683 4.69817 0.592337L4.69104 0.562936C4.6096 0.938005 4.34231 0.434271 4.25556 0.805663C4.26618 0.759698 4.22545 0.746834 4.2166 0.719255C4.14401 0.783605 4.05724 0.840519 4.14577 1.07218C4.08557 1.09424 4.06788 1.02258 4.02539 0.936172C4.06434 1.03729 4.02891 1.10345 3.98465 1.12919L3.98994 1.08138L3.87843 1.1752L3.98465 1.35171C3.8979 1.32781 3.86959 1.12922 3.8271 1.2046L3.89615 1.35901C3.79523 1.37188 3.63765 1.16236 3.49779 1.09249C3.09589 1.212 2.91882 1.8132 2.44788 1.77275L2.36645 1.67344C2.262 1.52084 2.42132 1.96945 2.31864 1.83156L2.32571 1.93087C2.29739 1.91065 2.25669 1.89586 2.25315 1.84805C2.2142 1.86828 2.23012 1.89229 2.23543 1.95848L2.1345 1.88856C1.94683 1.91798 1.95928 2.18828 1.79816 2.2655C1.64414 2.23976 1.5202 2.34453 1.43168 2.48242C1.33076 2.62767 1.26345 2.82623 1.23512 2.95676C1.21741 3.39434 0.479159 3.17193 0.551747 3.54333C0.528731 3.52862 0.555305 3.58367 0.569469 3.60022L0.413647 3.70144C0.434892 3.69592 0.137457 3.87237 0.0170666 4.26399C-0.0325061 4.45336 0.024164 4.62988 0.210062 4.71813C0.39773 4.80455 0.680976 4.87442 1.04569 5.06747L1.06692 5.10237C1.20856 5.10972 1.29888 5.06932 1.26878 4.83215C1.43166 5.02152 1.39626 4.76042 1.48301 4.78984L1.49187 4.80634C1.46708 4.57284 1.77866 4.74572 1.73263 4.54532C1.74325 4.56186 1.79104 4.6115 1.77688 4.63173C1.80697 4.55267 1.83178 4.43865 1.93978 4.53241C2.0283 4.37062 2.21066 4.24743 2.10089 4.02496L2.12569 4.05627C2.04425 3.91103 2.15223 3.9882 2.13099 3.89075C2.14692 3.89994 2.15579 3.90364 2.16287 3.90916C2.08851 3.76207 2.24962 3.77491 2.23192 3.69953L2.29918 3.76574L2.35408 3.67933L2.31334 3.69033C2.14692 3.48441 2.47269 3.76392 2.42135 3.57823C2.49571 3.55432 2.19295 3.04872 2.33636 3.09468C2.2921 2.96966 2.43374 3.273 2.42135 3.16268C2.50633 3.26932 2.45318 3.24728 2.53108 3.3245C2.53462 3.23625 2.68693 3.37776 2.68339 3.26009L2.74888 3.3447C2.70284 3.12959 2.95954 3.35579 2.89935 3.17009C2.92237 3.03955 3.12599 3.398 3.08527 3.16818L3.19327 3.26749C3.23753 3.26566 3.12064 3.10198 3.195 3.13508C3.24103 3.21598 3.28 3.16641 3.30479 3.2565C3.45705 3.32452 3.36674 2.96781 3.60044 3.10938C3.53671 2.93839 3.64475 2.99726 3.59871 2.86856C3.63943 2.93475 3.72087 2.8097 3.73503 2.99907C3.7368 3.01378 3.72618 3.01745 3.71201 2.98987L3.75448 3.08918C3.91205 3.22707 3.82 2.92369 3.90144 2.91266C3.86603 2.8906 3.84303 2.91634 3.8271 2.84096L3.89615 2.81885L3.92268 2.90526L4.03598 2.90346L3.97579 2.80965C4.04661 2.83723 4.14397 2.99911 4.12626 2.82996C4.1121 2.73803 4.01828 2.71957 4.05192 2.66073C4.14575 2.69751 4.28565 2.75454 4.37772 2.74535C4.31929 2.63687 4.34231 2.62946 4.3547 2.59453L4.40073 2.69204C4.42552 2.5137 4.52817 2.89611 4.56358 2.74535L4.5866 2.81885L4.51933 2.60014C4.51048 2.3648 4.65032 2.78574 4.60783 2.48422C4.58659 2.51179 4.5034 2.26916 4.55829 2.2949L4.58838 2.39781C4.60077 2.36655 4.59016 2.3243 4.61318 2.33901C4.62026 2.396 4.66094 2.48244 4.68396 2.45302L4.71233 2.58353L4.6999 2.3794C4.78311 2.46766 4.81145 2.30778 4.87695 2.43832C4.87695 2.43832 4.9991 2.47324 4.97432 2.3096C4.98317 2.4144 5.05225 2.43092 5.06995 2.55042C5.0611 2.43092 5.11595 2.31698 5.17968 2.42362L5.17796 2.43832C5.3249 2.52289 5.33728 2.214 5.48069 2.33351C5.44705 2.21032 5.51961 2.26362 5.47004 2.10918C5.55325 1.92349 5.74094 2.38311 5.68605 1.88486C5.73563 1.84625 5.77105 1.98422 5.80292 2.00628L5.79406 2.03377C5.88435 1.97494 5.91268 1.96577 5.98527 1.96577C6.0136 1.91245 5.98881 1.67894 6.0614 1.72675C6.05255 1.82051 6.07735 1.80033 6.10214 1.79666C6.08798 1.8132 6.08621 1.84806 6.12516 1.90506C6.12693 1.87748 6.1322 1.85726 6.13575 1.84255C6.13752 1.84991 6.13931 1.85547 6.13931 1.86466C6.17649 1.82605 6.16586 1.80028 6.14639 1.78925C6.14639 1.77454 6.14281 1.75805 6.13396 1.73415C6.18885 1.84447 6.24908 1.71204 6.26855 1.87016C6.37832 1.82236 6.45797 1.65507 6.54826 1.59624C6.55535 1.67897 6.53412 1.7507 6.51287 1.78196L6.56599 1.75256C6.56067 1.87206 6.5341 1.81865 6.51817 1.84255C6.56066 2.03377 6.66509 1.66059 6.73591 1.84996L6.76779 1.75985L6.77135 1.77646C6.77844 1.72866 6.81027 1.66607 6.82798 1.65504C6.82267 1.75616 6.78551 1.88673 6.83154 1.88856C6.84748 1.99152 6.94309 1.86464 7.0086 1.82236C6.98558 1.80029 7.00679 1.74517 7.02627 1.71575C7.05282 1.71943 7.04397 1.82052 7.0723 1.78375L7.04221 1.91796C7.06168 1.78926 7.14135 1.80033 7.16437 1.74885C7.15375 1.85181 7.10417 1.82236 7.07938 1.89406C7.18207 1.91245 7.13074 1.90328 7.2352 1.92167C7.31664 1.83709 7.25998 1.79292 7.31841 1.68444C7.37506 1.67341 7.44942 1.5962 7.4866 1.69364L7.50076 1.57233C7.62115 1.50982 7.67427 1.54112 7.70791 1.68085C8.20541 1.31313 8.29571 0.972945 8.29748 0.754155C8.30457 0.533526 8.21249 0.414023 8.21249 0.414023C8.03722 0.0794023 7.78758 0.364388 7.38038 0.351518Z" fill="#99A292"/>
</svg>
