<svg width="5" height="33" viewBox="0 0 5 33" fill="none" xmlns="http://www.w3.org/2000/svg">
<path fill-rule="evenodd" clip-rule="evenodd" d="M0.491236 3.41418C0.329722 3.9668 0.250635 4.33189 0.163148 4.7003C0.121087 4.88451 0.0823864 5.07206 0.0537849 5.28916C0.0386429 5.39935 0.0268724 5.51446 0.0184602 5.6411C0.0134129 5.70525 0.0100554 5.77105 0.00500803 5.84177C0.00164315 5.91249 -0.00341609 6.03581 0.00331368 6.13449C-0.0101459 6.53086 0.0571872 6.87139 0.102613 7.1296C0.144674 7.32368 0.154747 7.48815 0.14297 7.76774C0.215315 7.89932 0.195115 8.09338 0.18502 8.32528C0.176608 8.57527 0.185039 8.77757 0.267479 8.94204L0.181683 9.07856C0.238886 9.18876 0.284314 9.31862 0.247301 9.43703L0.218702 9.43211C0.307872 9.59165 0.289326 9.78078 0.336434 9.85644L0.306192 9.85323L0.344854 10.0456L0.301109 10.0177C0.413833 10.2857 0.45761 10.5637 0.45088 10.8088L0.56358 10.7743C0.4946 11.2726 0.718396 11.391 0.553517 11.8795L0.524918 11.8713C0.666243 12.1854 0.607336 12.4453 0.565275 12.7314C0.543403 12.8581 0.536672 13.0603 0.543402 13.1491C0.550132 13.256 0.580389 13.386 0.662828 13.5472C0.620767 13.4666 0.605634 13.585 0.577032 13.5817C0.617411 13.881 0.715034 14.3103 0.945529 14.2626C1.02292 14.5438 0.948879 14.5044 0.878217 14.5735C0.969069 14.5406 1.09694 14.7363 1.15414 14.8564L1.09355 14.8087C1.1659 14.9534 1.19284 14.9945 1.2349 15.1409L1.39977 15.0224C1.39472 15.256 1.19111 15.1212 1.27187 15.3235L1.42498 15.2972C1.4418 15.6228 1.21806 15.8316 1.12385 16.1655C1.12553 16.4977 1.16256 16.9172 1.22818 17.2642C1.29379 17.6145 1.36106 17.9747 1.42667 18.3283C1.5579 19.0338 1.66221 19.7296 1.59323 20.3941L1.48387 20.4631C1.31731 20.5043 1.77324 20.7954 1.62014 20.8612L1.71271 21.0042C1.68748 21.0486 1.6656 21.1424 1.6185 21.0717C1.62691 21.2115 1.65548 21.2131 1.71605 21.3069L1.62692 21.468C1.60336 22.0288 1.85569 22.4746 1.87588 23.0601C1.74129 23.7805 2.04919 25.0568 2.29146 25.8462C2.39914 26.1143 2.46309 26.4037 2.51861 26.7063C2.53207 26.7787 2.54551 26.8544 2.55896 26.9301C2.56401 26.9794 2.56404 27.0303 2.56235 27.083C2.55899 27.1932 2.54551 27.3149 2.53037 27.4596C2.51691 27.6027 2.50346 27.7688 2.51019 27.953C2.51692 28.1602 2.57072 28.3872 2.62119 28.5435C2.67335 28.7063 2.72049 28.8231 2.75582 28.9053C2.79788 28.9925 2.83993 29.0862 2.89209 29.1981C2.87358 29.2342 2.94258 29.3083 2.96109 29.305C3.00484 29.6043 3.03174 29.9118 3.03174 30.2013C3.03174 30.2013 3.03175 30.2655 3.03344 30.3724C3.02671 30.4891 3.04184 30.5894 3.00314 30.7885C2.94594 31.1552 2.87525 31.6651 2.89712 31.9825C2.90385 32.1289 2.91734 32.2161 2.93753 32.3099C2.9594 32.3987 2.98965 32.4841 3.08555 32.5187C3.1764 32.5483 3.34131 32.545 3.55329 32.3641C3.77033 32.17 3.96044 31.8477 4.23468 31.4185L4.26497 31.448C4.36256 31.1717 4.44329 30.9727 4.46517 30.7325C4.48031 30.4858 4.43656 30.2803 4.33393 30.0763C4.56442 29.9974 4.32552 29.5845 4.37768 29.4431L4.39785 29.4546C4.16736 29.1142 4.4517 28.7211 4.1455 28.3247C4.16737 28.3329 4.22964 28.3165 4.26497 28.4069C4.12701 28.1092 3.98569 27.907 4.12029 27.8643C4.05804 27.7623 4.0496 27.4613 4.00081 27.1027C3.97557 26.9218 3.92679 26.7212 3.8494 26.5501C3.79387 26.4432 3.73163 26.3511 3.66096 26.282L3.70132 26.2969C3.51625 26.1456 3.62393 26.0633 3.51289 25.8676C3.52803 25.8528 3.53312 25.8363 3.54154 25.8363C3.36152 25.6554 3.42208 25.2277 3.34468 25.0616L3.43048 25.0403L3.36147 24.6077L3.35983 24.7738C3.11251 24.7409 3.47759 24.4268 3.28579 24.1209C3.28579 23.82 2.72048 23.565 2.80629 23.241C2.67674 23.1045 3.00314 23.3545 2.89378 23.1407C3.01828 23.1209 2.98296 23.236 3.07718 23.1686C2.99474 22.9564 3.16971 22.7986 3.05531 22.5371L3.15286 22.5173C2.93583 22.1867 3.21176 21.843 3.01659 21.6276C2.89714 21.274 3.28241 21.3562 3.05192 20.9977L3.1697 20.8381C3.17475 20.6752 2.99474 20.7394 3.04016 20.5536C3.12428 20.5569 3.08219 20.3217 3.17304 20.4171C3.26221 20.0009 2.9005 19.6161 3.06707 19.0619C2.89209 18.9632 2.96108 18.6852 2.82816 18.6111C2.89882 18.5898 2.78439 18.0733 2.96946 18.3579C2.98629 18.3825 2.988 18.4286 2.9594 18.4269L3.06034 18.4549C3.21176 18.1326 2.90218 17.9138 2.89881 17.6095C2.87526 17.7016 2.89716 17.8184 2.82313 17.746L2.80629 17.4665L2.89378 17.5175L2.89712 17.0964L2.8029 17.1638C2.83318 16.9533 2.99472 16.8613 2.83489 16.6721C2.7474 16.5817 2.71373 16.8612 2.66494 16.6655C2.71373 16.4056 2.80294 15.9961 2.80126 15.6129C2.69022 15.6556 2.68682 15.5537 2.65149 15.4518L2.74909 15.4287C2.55898 15.0274 2.95432 15.251 2.76588 14.8251L2.84161 14.8515L2.61447 14.7741C2.4681 14.5751 2.48327 14.488 2.50346 14.4156C2.52029 14.3432 2.51521 14.2446 2.32509 14.1409C2.39744 14.2626 2.14506 14.2741 2.12824 14.1228L2.23088 14.1212C2.18377 14.057 2.14006 14.0521 2.14847 14.0093C2.20735 14.0258 2.28302 13.9846 2.25105 13.9205C2.2948 13.9353 2.3352 13.9337 2.37726 13.9354C2.31501 13.9271 2.24099 13.8662 2.17537 13.8103C2.25445 13.6474 2.11142 13.3285 2.2376 13.2199C2.2376 13.2199 2.2477 13.0998 2.23088 12.9436C2.21237 12.807 2.18716 12.7264 2.11145 12.6754C2.20567 12.7478 2.23089 12.5356 2.34193 12.5932C2.23257 12.506 2.1535 12.1837 2.26959 12.0455L2.28135 12.0702C2.41258 11.5752 2.16023 11.0916 2.22584 10.5834C2.1148 10.618 2.14508 10.3581 2.00712 10.4387C1.7985 9.965 2.18545 9.53084 1.71605 9.41736C1.66894 9.20848 1.79511 9.15744 1.80857 9.04724L1.83722 9.09502C1.76656 8.72332 1.75138 8.58184 1.76652 8.35158C1.72782 8.22165 1.51752 8.18874 1.59323 7.92394C1.66894 8.01769 1.66389 7.90918 1.6723 7.80228C1.67903 7.87135 1.70766 7.89432 1.77664 7.75781C1.7514 7.73478 1.73964 7.70192 1.72786 7.67067C1.73459 7.66903 1.73962 7.66572 1.74804 7.66736C1.72953 7.47493 1.7009 7.50788 1.68576 7.59669C1.6723 7.59176 1.6555 7.59832 1.63195 7.62299C1.75981 7.4355 1.62354 7.05062 1.75646 7.01115C1.65046 6.45195 1.45865 6.24476 1.45697 5.81878C1.53436 5.77931 1.59156 5.88285 1.60838 6.0062V5.70686C1.71437 5.72166 1.65381 5.88449 1.66727 5.97659C1.87085 5.64272 1.56294 5.2332 1.7581 4.83683L1.68242 4.73986L1.69926 4.71847C1.65383 4.71354 1.60165 4.61317 1.59323 4.54903C1.69082 4.50297 1.80523 4.58191 1.81869 4.37797C1.90954 4.2283 1.84729 3.91253 1.84056 3.69215C1.80186 3.80563 1.7581 3.76128 1.73623 3.707C1.75305 3.60503 1.85739 3.55889 1.83383 3.47501L1.96004 3.48495C1.83554 3.50633 1.88933 3.19873 1.84559 3.15268C1.9499 3.10992 1.89271 3.32369 1.95665 3.35987C2.02899 2.9487 1.99198 3.15429 2.06601 2.74311C2.0189 2.51121 1.9415 2.76454 1.85401 2.64283C1.86747 2.44711 1.82544 2.23991 1.93816 2.03761L1.81535 2.0869C1.79684 1.71356 1.86916 1.49647 2.05759 1.31555C2.05927 0.980031 2.14341 0.680673 2.11818 0.468507C2.09462 0.261276 1.99027 0.144534 1.90279 0.0902594C1.72108 -0.0265139 1.60502 -0.0330541 1.52258 0.0886533C1.44015 0.129771 1.36442 0.17086 1.31731 0.162636C1.27525 0.154413 1.20461 0.24977 1.20461 0.24977C1.13058 0.322137 1.02119 0.470157 0.938751 0.61818C0.856312 0.764558 0.79409 0.90933 0.746981 1.04913C0.652764 1.33037 0.617436 1.58857 0.602294 1.83363C0.575375 2.30237 0.580406 2.76124 0.491236 3.41418Z" fill="#99A292"/>
</svg>
