<svg width="6" height="8" viewBox="0 0 6 8" fill="none" xmlns="http://www.w3.org/2000/svg">
<path fill-rule="evenodd" clip-rule="evenodd" d="M0.693667 1.46277C0.895904 1.6361 0.841528 1.86597 1.10495 1.9261C1.20012 2.00923 1.33604 2.04469 1.4516 2.09775C1.59946 1.99162 1.58248 2.19499 1.72524 2.12247L1.68613 2.22157C1.73542 2.19681 1.77794 2.18788 1.76434 2.24802L1.74562 2.26928C1.82039 2.23391 1.82548 2.29582 1.86117 2.27814L1.8425 2.2993L1.88326 2.32056L1.85272 2.34528C1.94959 2.3276 2.00223 2.37005 2.02262 2.43726L2.09741 2.34183C2.09911 2.53108 2.29794 2.37896 2.27245 2.57706L2.25036 2.59649C2.56986 2.47622 2.25549 2.91306 2.56309 2.81402C2.52401 2.8264 2.52398 2.86182 2.50018 2.88127C2.57156 2.90957 2.62766 2.95379 2.8027 2.79815C2.83329 2.84237 2.77379 2.87946 2.71091 2.94313C2.78738 2.87592 2.8469 2.88298 2.87749 2.91128L2.83496 2.92013L2.93013 2.99095L3.06612 2.84759C3.05932 2.93426 2.89277 3.0104 2.96244 3.02809L3.08821 2.92726C3.1171 3.01923 2.95054 3.20666 2.88086 3.31632C2.94884 3.54802 3.45358 3.74085 3.31252 4.17595L3.20548 4.23608C3.04743 4.30506 3.47736 4.23432 3.33291 4.30507L3.41962 4.31565C3.39583 4.33687 3.37372 4.37406 3.32954 4.36876C3.33633 4.4059 3.3635 4.39699 3.42128 4.40406L3.33633 4.48373C3.31254 4.66591 3.55384 4.71545 3.58273 4.89762C3.52325 5.04089 3.58953 5.20179 3.7 5.33267C3.80706 5.45471 3.95152 5.54665 4.05179 5.60148C4.23363 5.65631 4.22175 5.84913 4.18606 6.01008C4.15377 6.17457 4.0892 6.28071 4.24555 6.29486C4.22176 6.30547 4.27784 6.30013 4.29653 6.29659C4.29993 6.33904 4.29481 6.37087 4.28632 6.40271C4.28972 6.40801 4.27786 6.48766 4.37983 6.67691C4.43081 6.76711 4.52253 6.87851 4.70268 6.95456C4.87942 7.01647 5.16836 7.09605 5.60002 6.83959L5.63571 6.85902C5.76996 6.66623 5.80225 6.48053 5.60511 6.33372C5.83963 6.29304 5.61361 6.14449 5.67989 6.08435L5.69862 6.08619C5.50318 5.99068 5.77846 5.7642 5.58472 5.69345C5.60342 5.69168 5.66463 5.67044 5.67652 5.69874C5.62044 5.61561 5.52692 5.53612 5.64758 5.46891C5.53372 5.29027 5.46746 5.04792 5.23293 5.07445L5.26861 5.06031C5.11566 5.09038 5.21255 5.00897 5.11738 4.99305C5.13268 4.98244 5.13776 4.9736 5.14456 4.97006C4.9916 4.99482 5.03922 4.83388 4.96615 4.8268L5.04088 4.77553L4.97123 4.69068L4.97294 4.73666C4.75371 4.85163 5.06638 4.58451 4.89473 4.60043C4.89473 4.53145 4.3747 4.70832 4.44948 4.57743C4.32882 4.59158 4.63302 4.52789 4.52935 4.51374C4.64661 4.45714 4.61265 4.50313 4.70102 4.44476C4.62284 4.42 4.78596 4.3086 4.6823 4.28207L4.77238 4.23965C4.57185 4.2308 4.83525 4.03267 4.65341 4.04328C4.54294 3.98491 4.90835 3.87354 4.69251 3.85231L4.80469 3.76562C4.81149 3.71787 4.63983 3.79747 4.68572 3.72849C4.76559 3.69842 4.72817 3.6453 4.81315 3.64353C4.89982 3.48788 4.55996 3.49851 4.71461 3.26505C4.54976 3.29688 4.61263 3.18367 4.48687 3.21021C4.55145 3.1766 4.43757 3.05462 4.61601 3.07408C4.62961 3.07584 4.633 3.08991 4.60751 3.10052L4.70102 3.07051C4.83698 2.90779 4.54125 2.9502 4.52935 2.85115C4.51236 2.8936 4.53445 2.92191 4.46307 2.92899L4.4376 2.84414L4.52084 2.82287L4.50554 2.67433L4.4223 2.73974C4.4393 2.65485 4.57866 2.54344 4.41551 2.54521C4.32884 2.55583 4.3254 2.6743 4.26422 2.62477C4.28122 2.50981 4.29652 2.3241 4.24384 2.19145C4.15717 2.27104 4.14188 2.24095 4.10619 2.23388L4.18435 2.16846C4.00591 2.16138 4.33561 1.99517 4.17756 1.96863L4.23876 1.93323L4.05521 2.04291C3.84108 2.09066 4.18439 1.86073 3.90398 1.95093C3.94476 1.97392 3.74591 2.11366 3.74761 2.04291L3.83085 1.98979C3.79516 1.97918 3.7595 1.9987 3.7612 1.96863C3.81218 1.94918 3.87506 1.88372 3.83427 1.85895L3.94645 1.80055L3.75777 1.85539C3.79516 1.73335 3.63032 1.74931 3.7153 1.63258C3.7153 1.63258 3.67284 1.47866 3.54368 1.56532C3.62865 1.51934 3.60144 1.43619 3.69491 1.37252C3.59465 1.42204 3.46208 1.40972 3.51137 1.29652L3.52496 1.29296C3.49437 1.08955 3.23095 1.2222 3.22415 1.01703C3.15107 1.11254 3.13922 1.01353 3.05424 1.14441C2.8571 1.16564 3.0576 0.725218 2.7262 1.06658C2.66332 1.04535 2.7364 0.930323 2.7262 0.889643L2.75343 0.879063C2.63957 0.833077 2.60896 0.815352 2.54608 0.751678C2.4832 0.762291 2.35236 0.937487 2.32177 0.849052C2.39145 0.790685 2.35744 0.783574 2.33365 0.767655C2.35574 0.767655 2.37952 0.744634 2.38292 0.672117C2.36253 0.691573 2.34723 0.700451 2.33194 0.707525C2.33534 0.700451 2.33872 0.696937 2.34381 0.688094C2.28603 0.684556 2.27926 0.712816 2.28946 0.735809C2.28266 0.746421 2.27415 0.762367 2.26566 0.78536C2.28775 0.66155 2.14841 0.709256 2.22489 0.580141C2.08723 0.521773 1.91727 0.599621 1.78981 0.583703C1.817 0.509417 1.87476 0.466956 1.91895 0.459881L1.83228 0.436887C1.89006 0.339608 1.90705 0.408578 1.94104 0.405041C1.94274 0.189258 1.67083 0.449227 1.64874 0.24052L1.58417 0.306047L1.58588 0.288343C1.56378 0.330792 1.51109 0.375013 1.489 0.380319C1.51789 0.284809 1.59269 0.18043 1.53661 0.155669C1.53661 0.0477775 1.39552 0.13265 1.31904 0.152106C1.34113 0.182174 1.30884 0.226445 1.28165 0.251207C1.25445 0.240595 1.27997 0.145074 1.24088 0.173373L1.29357 0.0495505C1.25279 0.169823 1.16778 0.139735 1.13549 0.183952C1.15929 0.0866735 1.21199 0.125639 1.24767 0.0619651C1.13381 0.0212849 1.18992 0.0424489 1.07606 0C0.979188 0.0672108 1.04034 0.120288 0.968959 0.215798C0.907778 0.219336 0.826233 0.284794 0.797342 0.187515L0.773537 0.304212C0.651175 0.346661 0.600172 0.320143 0.57298 0.183952C0.0784344 0.523544 0.00534767 0.856102 0.000249264 1.06658C-0.00484914 1.28059 0.0699541 1.39195 0.0699541 1.39195C0.190616 1.70855 0.39456 1.41501 0.693667 1.46277Z" fill="#99A292"/>
</svg>
