<svg width="30" height="66" viewBox="0 0 30 66" fill="none" xmlns="http://www.w3.org/2000/svg">
<path fill-rule="evenodd" clip-rule="evenodd" d="M27.8875 8.62559C27.813 9.93843 27.681 10.7501 27.5575 11.5766C27.4458 12.4214 27.3509 13.2794 27.2968 14.6554C27.2494 15.3159 27.158 15.8852 27.0395 16.5408C26.9109 17.2063 26.7839 17.8652 26.6621 18.4959C26.6874 18.8146 26.591 19.2544 26.5436 19.7523C26.4962 20.2303 26.4793 20.6802 26.5267 21.0221L26.4099 21.2776C26.4268 21.6411 26.5013 21.993 26.4844 22.2585L26.4522 22.2469C26.5842 22.6353 26.5639 22.9357 26.5842 23.0386L26.5571 23.0286L26.5487 23.2676V23.5315L26.508 23.442C26.5436 23.822 26.5893 24.1506 26.5927 24.4245C26.5944 24.4925 26.5927 24.5572 26.591 24.6203L26.5707 24.8428C26.5554 25.027 26.5453 25.2062 26.5402 25.3722L26.6553 25.3157C26.6079 26.0211 26.6993 26.4377 26.723 26.7763C26.7501 27.0983 26.701 27.4419 26.5436 28.0626L26.5182 28.0393C26.5487 28.4709 26.5791 28.7962 26.5622 29.0784C26.5554 29.2244 26.5385 29.329 26.5165 29.4767L26.4421 29.9132C26.3896 30.202 26.3371 30.4941 26.3083 30.8094C26.2863 31.1048 26.2795 31.3704 26.2897 31.7372C26.2829 31.558 26.2186 31.802 26.1933 31.7854C26.1526 32.1057 26.0968 32.4875 26.0968 32.7646C26.1002 33.0003 26.1221 33.1829 26.2339 33.2095C26.1289 33.6692 26.0747 33.5712 25.9783 33.6094C26.0764 33.6293 26.0104 34.0459 25.9207 34.4343L25.9258 34.2484C25.8446 34.6169 25.765 35.002 25.7193 35.4053L25.9427 35.2028C25.8023 35.8119 25.6787 35.3355 25.6736 35.943L25.831 35.9446C25.7498 36.7628 25.5145 37.2293 25.2488 37.8351C25.2014 37.9961 25.1439 38.157 25.0829 38.3031C25.0203 38.4409 24.9712 38.5205 24.8934 38.6135C24.7427 38.7844 24.3027 39.1495 24.0335 39.4367L23.6036 39.8549L23.3954 40.0408L23.1415 40.255C22.7573 40.5869 22.4526 40.967 22.1971 41.3438C21.6876 42.1006 21.3254 42.8607 20.9073 43.508C20.8041 43.6706 20.6958 43.8234 20.5857 43.9678L19.4788 45.4017L19.3045 45.4549C19.1234 45.4167 19.0608 46.3213 18.8678 46.3412L18.751 46.693C18.6732 46.766 18.5377 46.9387 18.5936 46.7611C18.4226 47.0515 18.4548 47.0881 18.3922 47.3354L18.1383 47.6258C17.9741 47.9279 17.8286 48.2316 17.7016 48.5303C17.6086 48.8374 17.5171 49.1428 17.4224 49.4532C17.3327 49.7901 17.2819 50.0871 17.2074 50.3112C17.1448 50.5137 16.9755 50.7942 16.7961 51.1643C16.7335 51.2722 16.6725 51.3967 16.6184 51.5312C16.5778 51.6407 16.5371 51.7502 16.4948 51.863C16.422 52.0473 16.3391 52.2149 16.2257 52.4025C16.1699 52.4954 16.1055 52.5949 16.0327 52.6978L15.8991 52.8954C15.85 52.9734 15.8026 53.0531 15.7603 53.1311C15.591 53.4465 15.481 53.7385 15.3744 53.9676C15.3219 54.0821 15.2711 54.1833 15.2152 54.2746C15.1848 54.3261 15.1679 54.3493 15.1238 54.4157L14.9816 54.6182C14.7989 54.8871 14.6432 55.151 14.4993 55.3983C14.215 55.8978 13.9814 56.3144 13.7376 56.648C13.3703 57.1974 13.0132 57.7335 12.5833 58.1236C12.4056 58.2829 12.1601 58.4057 11.8453 58.5601C11.6896 58.6364 11.517 58.7243 11.3409 58.8389C11.2512 58.8936 11.1632 58.955 11.0752 59.0247L10.8501 59.2124C10.4287 59.5576 9.85317 59.8231 9.24723 60.1666C8.58543 60.5533 8.15045 60.9036 7.63591 61.2455C7.55467 61.2621 7.39895 61.4015 7.4091 61.4181C6.73377 61.76 6.08385 61.984 5.31204 62.2313C5.31204 62.2313 4.62993 62.4454 3.72779 62.8288C3.28941 63.0014 2.74272 63.3185 2.37882 63.4894C1.96075 63.6786 1.40222 63.901 1.01631 64.1583C0.703189 64.3508 0.428987 64.5168 0.205568 64.6529C0.0532366 64.7541 -0.0432666 64.8189 0.0193584 64.9185C0.0684429 65.0147 0.351135 65.1242 0.899526 65.028C1.16695 64.9931 1.50712 64.882 1.86425 64.8106C2.23662 64.7293 2.69024 64.6877 3.28941 64.4969L3.24711 64.5583C4.40651 64.072 5.13603 63.8778 5.91969 63.4015C6.02463 63.4845 6.27341 63.4064 6.54422 63.2986C6.83027 63.1857 7.11462 63.033 7.27372 63.0032L7.25507 63.033C7.93549 62.5484 8.85457 62.4205 9.44697 61.8263C9.43174 61.8595 9.45373 61.9227 9.29971 62.0272C9.55867 61.8397 9.76348 61.6688 9.9869 61.5376C10.2019 61.4049 10.3863 61.3202 10.4388 61.3666C10.7198 61.1874 11.0481 60.9865 11.3866 60.7326C11.5559 60.6064 11.7268 60.4637 11.8893 60.3044L12.0637 60.1318C12.1077 60.0886 12.1551 60.0488 12.2109 60.009C12.4225 59.8447 12.7356 59.6754 13.0369 59.448C13.1875 59.3335 13.328 59.204 13.4431 59.0712C13.5565 58.9385 13.6208 58.834 13.6835 58.7277L13.6682 58.799C13.9069 58.3161 14.0863 58.273 14.3588 57.8032C14.391 57.79 14.4214 57.765 14.4231 57.775C14.4722 57.6522 14.5535 57.5178 14.6499 57.3834C14.7633 57.234 14.8801 57.0762 14.9969 56.9202C15.2271 56.6065 15.4336 56.3095 15.5216 56.1186L15.6113 56.1435C15.7941 55.8514 15.9701 55.5725 16.1597 55.3153L15.9295 55.5958C15.8685 55.473 16.0006 55.3485 16.2054 55.1676C16.4559 54.9369 16.703 54.5751 16.7826 54.2066C16.8621 54.0506 16.9044 53.8945 16.9417 53.7385C16.9603 53.6655 16.9789 53.5876 16.9975 53.5062C17.0263 53.415 17.0534 53.3203 17.0822 53.2274C17.199 52.844 17.2717 52.4622 17.4359 52.117C17.4257 51.7369 17.529 52.4755 17.5899 51.9311C17.7202 51.9361 17.5984 52.2017 17.7372 52.0855C17.7913 51.5942 18.1129 51.5212 18.3448 50.8092L18.448 50.8174C18.5394 50.3278 18.6393 49.966 18.7815 49.7071C18.9305 49.4233 19.0489 49.0731 19.0912 48.8258C19.362 48.054 19.5855 48.464 19.7649 47.6159L20.0475 47.3901C20.254 47.083 20.039 47.0781 20.3082 46.7594C20.3657 46.8225 20.6399 46.3561 20.5807 46.6017C20.882 46.2449 21.0986 45.8299 21.361 45.3967C21.4947 45.1743 21.625 44.9752 21.8061 44.7312C21.9957 44.4773 22.1836 44.2217 22.3985 43.9727C22.407 43.6425 22.8047 43.1511 22.7996 42.9238C22.8741 42.9155 23.453 41.9329 23.2211 42.5653C23.2025 42.6167 23.1449 42.7014 23.1263 42.6815L23.1669 42.7993C23.6713 42.3445 23.7373 41.7753 24.1909 41.445C24.0437 41.5114 23.888 41.6873 23.9506 41.5313C24.0826 41.4101 24.2078 41.3338 24.4313 41.1579L24.3602 41.3188C24.6699 41.0998 24.9407 40.8657 25.1912 40.6533L25.022 40.6731C25.2183 40.5238 25.3723 40.4558 25.5111 40.3728C25.6567 40.2782 25.7481 40.2201 25.9597 39.928C26.1222 39.6691 25.4654 40.1986 25.8903 39.762C26.657 39.1529 26.9989 37.9844 27.1021 37.1114C26.9803 37.1828 27.0057 36.9455 26.9955 36.7114L27.0971 36.6899C27.0514 36.2417 27.1089 36.177 27.1716 36.1023C27.2376 36.0276 27.2934 35.9496 27.2815 35.606L27.3425 35.6757C27.2799 35.606 27.224 35.5331 27.1647 35.4567C27.1072 34.7264 27.4305 35.1497 27.373 34.2684C27.3053 34.5986 27.1191 34.3728 27.2663 33.9695L27.334 34.0974C27.3729 33.8633 27.3526 33.7753 27.4068 33.6193C27.4254 33.772 27.5303 33.7322 27.5879 33.3637L27.6556 33.631C27.6471 33.3936 27.6353 33.1381 27.6082 32.904C27.7724 32.4791 27.8028 31.6493 27.9535 31.4302C27.9552 31.4435 28.0009 31.1065 28.0212 30.826C28.0449 30.5372 28.05 30.2153 27.9874 30.0908C28.0618 30.3065 28.1448 29.739 28.2395 29.9116C28.2175 29.8435 28.2023 29.7405 28.1905 29.621C28.182 29.4949 28.1803 29.3174 28.1769 29.1696C28.1702 28.8609 28.182 28.5904 28.248 28.4526L28.2565 28.5074C28.331 28.046 28.4376 27.5017 28.4173 26.8643C28.3834 26.2336 28.2734 25.7771 28.3377 25.3025C28.2159 25.3406 28.2954 24.8677 28.1448 24.9756C28.1346 24.881 28.1431 24.6784 28.1431 24.5357C28.1431 24.3897 28.1448 24.2485 28.1465 24.1107C28.1515 23.8469 28.1702 23.6278 28.1922 23.4469C28.204 23.359 28.2124 23.276 28.2226 23.1996C28.2344 23.0735 28.2328 22.9556 28.2175 22.856C28.1871 22.6535 28.1126 22.5075 27.9874 22.4112C27.8943 21.8867 28.0145 21.8071 28.0314 21.598L28.0584 21.6926C28.0483 21.5963 28.0432 21.5167 28.0449 21.4486C28.05 21.3507 28.0534 21.2594 28.0567 21.1747C28.0635 20.9971 28.0686 20.8461 28.0737 20.7034C28.0838 20.4229 28.0957 20.1823 28.1312 19.8537C28.1211 19.53 27.918 19.4586 28.0889 18.8478C28.1312 19.0619 28.1651 18.808 28.2142 18.579C28.1973 18.7283 28.2159 18.7798 28.336 18.4893C28.3191 18.4428 28.3174 18.3731 28.3191 18.31C28.3259 18.3084 28.3326 18.2968 28.3411 18.3051C28.3953 17.9134 28.3563 17.9732 28.3056 18.1508C28.2937 18.1392 28.2751 18.1507 28.2395 18.2005C28.4342 17.8271 28.4833 17.0736 28.6339 17.0537C28.7422 16.4529 28.7913 15.9201 28.8032 15.4106C28.8083 14.901 28.7778 14.4462 28.7896 13.9449C28.8709 13.8387 28.92 14.0778 28.9284 14.3699L28.9521 13.6612C29.0587 13.6794 28.9843 14.0728 28.9893 14.2919C29.2229 13.4687 28.942 12.5475 29.1738 11.5766L29.1078 11.3625L29.1281 11.3044C29.0824 11.3044 29.0401 11.0753 29.0368 10.9276C29.1417 10.7931 29.2517 10.9541 29.2805 10.4595C29.3972 10.0745 29.3008 9.34751 29.2686 8.83964C29.2415 9.11349 29.1941 9.02221 29.1654 8.90437C29.1704 8.65707 29.2686 8.51934 29.2348 8.32847L29.3617 8.30851C29.2398 8.40146 29.2517 7.66455 29.2009 7.57327C29.2974 7.43551 29.272 7.95501 29.3414 8.01808C29.3482 7.03552 29.3448 7.52852 29.3533 6.54597C29.267 6.01983 29.2331 6.63724 29.1265 6.38662C29.1112 5.92853 29.0232 5.46547 29.1146 4.95594L28.9961 5.11194C28.9402 4.26548 29.074 3.74927 29.2889 3.20322C29.4125 1.56839 29.2365 0.65557 29.0232 0.28877C28.8235 -0.0929664 28.6915 -0.0631108 28.6271 0.185848C28.5527 0.393314 28.5036 0.751871 28.4342 1.07386C28.3597 1.41078 28.3005 1.67964 28.3005 1.67964C28.0077 2.80825 27.7301 3.80904 27.7538 5.00902C27.791 6.06294 27.8942 7.12354 27.8875 8.62559Z" fill="#99A292"/>
</svg>
