<svg width="29" height="25" viewBox="0 0 29 25" fill="none" xmlns="http://www.w3.org/2000/svg">
<path fill-rule="evenodd" clip-rule="evenodd" d="M10.9364 23.4016C10.1252 23.1497 9.3174 22.6081 8.58871 22.1752C7.99297 21.8212 7.3518 21.3767 6.91424 20.8384C6.47669 20.3018 6.2041 19.5133 5.91128 18.8894C5.59153 18.2095 5.20107 17.5921 4.89815 16.8974C4.66591 16.3608 4.42022 15.8175 4.10888 15.3237C3.64104 14.5829 3.52323 13.7548 3.32465 12.9152C3.15299 12.1843 2.94939 11.5044 2.71211 10.7966C2.48828 10.1282 2.45796 9.39889 2.38896 8.70254C2.32165 8.00784 2.18364 7.31651 2.11127 6.62016C2.03218 5.8629 1.96152 5.16161 1.65018 4.45539C1.35063 3.77715 1.29171 3.02808 0.965225 2.36959C0.818814 2.07328 0.701027 1.75892 0.53947 1.47083C0.369498 1.16299 0.123781 0.909414 0.0295393 0.568649C-0.163993 -0.124406 0.63875 -0.0322214 1.11837 0.0714898C1.71243 0.199894 2.30148 0.354669 2.89386 0.494597C3.41724 0.618063 3.83122 0.828727 4.32936 0.998287C4.89986 1.19583 5.48549 1.2123 6.03243 1.47404C7.27272 2.06174 8.72334 2.05188 10.0394 2.33503C10.5308 2.43874 11.0121 2.60006 11.5052 2.69554C12.0302 2.79596 12.562 2.78116 13.0871 2.89639C14.0396 3.10875 14.8491 3.33598 15.704 3.79033C16.1517 4.02739 16.431 4.31708 16.8298 4.62821C17.0688 4.81423 17.3465 4.9459 17.5888 5.13521C18.0146 5.4694 18.2317 5.94026 18.58 6.34194C18.9671 6.78806 19.403 7.25387 19.8608 7.63086C20.231 7.93376 20.6584 8.16101 21.0101 8.48531C21.2659 8.72236 21.4645 9.0005 21.7439 9.21286C22.4776 9.77093 23.2568 10.2961 24.0174 10.8196C24.6435 11.2525 25.3873 11.6905 25.9107 12.2419C26.397 12.7572 26.8363 13.4354 27.1864 14.0511C27.3614 14.3573 27.4556 14.6964 27.6357 14.9993C27.7602 15.2117 27.91 15.3713 27.9706 15.6133C28.0177 15.8059 28.0581 16.1072 28.0799 16.3097C28.117 16.662 27.9436 16.9518 27.9285 17.2991C27.8898 18.2539 27.7333 19.4589 27.2318 20.3149C27.0854 20.5652 26.9255 20.6459 26.7319 20.845C26.5014 21.087 26.4408 21.3521 26.1732 21.5529C25.7424 21.8756 25.2157 22.2559 24.9902 22.7646C24.8235 23.1366 24.7967 23.3242 24.3726 23.5431C24.0326 23.7176 23.6422 23.8708 23.2669 23.9531C22.5146 24.1194 21.722 24.0995 20.9647 24.2345C20.3588 24.3415 19.7564 24.3515 19.1724 24.5523C18.3377 24.8404 17.5602 24.8585 16.6851 24.8766C15.9328 24.893 15.2984 24.7532 14.5663 24.5737C13.9285 24.4157 13.289 24.4305 12.6378 24.2757C12.0588 24.1407 11.6734 24.0239 11.1854 23.6963C10.8791 23.4938 10.1118 23.1728 9.9502 22.8518L10.9364 23.4016Z" fill="#809971"/>
</svg>
