<svg width="11" height="55" viewBox="0 0 11 55" fill="none" xmlns="http://www.w3.org/2000/svg">
<path fill-rule="evenodd" clip-rule="evenodd" d="M7.23392 5.81079C6.96255 6.76751 6.77146 7.27252 6.50652 7.66783C6.36361 7.90203 6.14364 8.2508 6.00233 8.73747C5.89636 9.07963 5.78556 9.47332 5.66995 9.95999C5.53025 10.4151 5.40337 10.8868 5.27812 11.3668C5.14485 11.8884 5.05657 12.3684 4.95059 12.7886C4.97146 13.0112 4.89598 13.2719 4.79001 13.5227C4.68403 13.7885 4.55074 14.0609 4.50417 14.3183L4.33879 14.4496C4.30186 14.6273 4.23603 14.8266 4.11078 14.9628L4.09314 14.9396C4.03212 15.2103 3.8555 15.4661 3.82338 15.6056L3.80569 15.5824L3.66598 15.8947L3.65795 15.8216C3.50219 16.3066 3.31113 16.7783 3.12005 17.1836L3.23569 17.1919C2.78609 18.039 2.90167 18.4476 2.5179 19.2033L2.49541 19.1834C2.47132 20.2896 1.84512 20.7181 1.80658 21.8442C1.80979 21.7047 1.73591 21.8825 1.71343 21.8642C1.60424 22.3509 1.47418 22.869 1.67971 22.9388C1.57534 23.286 1.532 23.2029 1.43886 23.2245C1.53039 23.2494 1.48064 23.5634 1.40838 23.8374V23.7013L1.21566 24.4918L1.43083 24.3872C1.26223 24.7858 1.19158 24.4304 1.11932 24.8407L1.26226 24.8755C1.07118 25.4419 0.754845 25.706 0.493113 26.2441C0.326119 26.8537 0.21529 27.4883 0.176752 28.1626C0.157484 28.533 0.171938 28.7805 0.149458 29.0695C0.126978 29.3768 0.104522 29.6824 0.0836473 29.9831C0.0595615 30.3036 0.0435071 30.6375 0.0563528 30.9813C0.06117 31.1507 0.0772174 31.3251 0.096486 31.4962L0.143038 31.928C0.192816 32.4994 0.19605 33.0675 0.146273 33.6156L0.0370948 33.7136C-0.121871 33.7601 0.290802 34.3132 0.14147 34.4012L0.218503 34.657C0.191205 34.7301 0.160712 34.8813 0.12378 34.755C0.120569 34.9892 0.146264 35.0307 0.207281 35.2135L0.1302 35.5124C0.176766 36.5904 0.6312 37.313 0.748417 38.2481C0.7436 38.5471 0.774127 38.9059 0.827115 39.2945C0.865653 39.6334 0.969988 40.2363 1.16107 40.6714C1.25099 40.8973 1.34253 41.095 1.42603 41.281C1.51113 41.4654 1.55448 41.575 1.61228 41.7676C1.71344 42.1131 1.83066 42.5849 1.99926 42.922C2.11969 43.1513 2.23207 43.3555 2.31557 43.5499C2.35892 43.6479 2.39269 43.7425 2.41838 43.8356C2.44728 43.9485 2.47616 44.0631 2.50506 44.1777C2.60783 44.6478 2.71543 45.1461 2.82623 45.6477C2.93863 46.1476 3.07511 46.6559 3.26137 47.1343C3.44282 47.606 3.65316 48.0312 3.89081 48.4149C3.89241 48.478 3.99677 48.5943 4.01283 48.5843C4.21193 49.0793 4.37254 49.6008 4.53632 50.134C4.53632 50.134 4.68723 50.6107 4.85743 51.2336C4.94414 51.5525 5.03087 51.888 5.10955 52.2418C5.19144 52.5956 5.28295 52.9859 5.41141 53.3214C5.67314 54.0074 6.04888 54.3645 6.14522 54.1669C6.20142 54.0689 6.19339 53.8413 6.19339 53.4543C6.18215 53.0606 6.24317 52.5457 6.26886 51.707L6.31223 51.7452C6.20785 50.7619 6.04409 50.1672 5.67798 49.5975C5.85461 49.4198 5.46118 48.8567 5.44512 48.6092L5.46923 48.6241C5.10955 48.1259 5.13844 47.4366 4.78197 47.0031C4.80606 47.0147 4.86545 46.9998 4.91844 47.1127C4.73057 46.7606 4.4801 46.2955 4.58929 46.2224C4.21355 45.4102 3.91007 44.1429 3.55039 43.613L3.59537 43.6429C3.36736 43.3323 3.41553 43.1413 3.20036 42.8141C3.20678 42.7875 3.20357 42.7593 3.2132 42.7609C3.07671 42.6148 2.97715 42.3922 2.92737 42.1746C2.87438 41.9503 2.84387 41.6913 2.78124 41.5368L2.85832 41.4986C2.80533 41.2461 2.69296 40.9122 2.59822 40.6913L2.6849 40.9853C2.43441 40.9554 2.59339 40.3558 2.30597 39.9539C2.21444 39.5619 1.65562 39.0835 1.67168 38.5437C1.52556 38.3112 1.88206 38.7331 1.73915 38.3694C1.85637 38.3345 1.84189 38.5321 1.92218 38.4158C1.80496 38.0603 1.95108 37.7764 1.76321 37.3312L1.85152 37.2913C1.54803 36.7332 1.71504 36.1635 1.49345 35.8296C1.33128 35.2649 1.70219 35.4128 1.49184 34.8663L1.61709 34.6122C1.63314 34.3315 1.45813 34.4146 1.51433 34.104C1.59622 34.1206 1.57051 33.7086 1.6508 33.8897C1.75999 33.1754 1.43247 32.4629 1.54647 31.4945C1.36021 31.2852 1.43726 30.953 1.32807 30.8019C1.38427 30.7936 1.39871 29.9714 1.50629 30.4548C1.51432 30.4963 1.50791 30.5644 1.48061 30.5578L1.57053 30.6175C1.77125 30.1889 1.57217 29.7455 1.65727 29.2007C1.6091 29.3585 1.59303 29.5678 1.54486 29.42L1.6091 28.9134L1.67814 29.028L1.72788 28.6343L1.76963 28.3187L1.66687 28.3984C1.74395 28.0911 1.91897 28.0081 1.84029 27.6277C1.79212 27.4517 1.66206 27.9102 1.68775 27.5647C1.82263 27.1395 2.06511 26.5448 2.27225 25.9735C2.15343 25.9967 2.2 25.8439 2.22408 25.6795L2.32042 25.6878C2.36859 25.0483 2.58535 25.5266 2.65761 24.8987L2.70416 24.9702L2.56127 24.7559C2.53558 24.1629 2.83262 24.5201 2.76037 23.8491C2.70738 24.0899 2.52755 23.9006 2.65119 23.6199L2.71862 23.7211C2.74591 23.5517 2.72505 23.4887 2.77482 23.3857C2.79409 23.497 2.88722 23.4736 2.94021 23.2328L3.00445 23.4255L2.97235 22.9272C3.16664 22.61 3.20838 22.0219 3.37216 21.9189C3.37216 21.9189 3.64671 21.1932 3.56161 20.9772C3.60336 21.155 3.7527 20.7514 3.81853 20.8992C3.77839 20.6766 3.8651 20.0803 4.0337 19.8893L4.03208 19.9342C4.38052 19.1402 4.32435 18.4741 4.71454 17.818C4.60054 17.8064 4.80285 17.4609 4.63746 17.4958C4.80285 16.7069 5.47885 16.3464 5.23157 15.8664C5.3793 15.5242 5.52223 15.5226 5.62981 15.3598L5.60894 15.4511C5.90279 14.7768 5.98303 14.5874 6.1982 14.0925C6.26082 13.8084 6.09066 13.6938 6.27371 13.2453C6.30743 13.4214 6.34916 13.2237 6.39573 13.051C6.37806 13.1656 6.39731 13.2089 6.50971 12.9963C6.49365 12.9564 6.49207 12.9032 6.49207 12.8534C6.49849 12.8534 6.50491 12.8451 6.51294 12.8534C6.5579 12.5594 6.52096 12.6025 6.47761 12.7304C6.46637 12.7221 6.44872 12.7288 6.4166 12.7637C6.59162 12.493 6.61573 11.9531 6.75864 11.9614C6.96257 11.1276 7.00268 10.4732 7.1488 9.7623C7.24032 9.70417 7.25319 9.88692 7.22108 10.0979L7.33829 9.5929C7.43624 9.62612 7.3142 9.89522 7.28851 10.0547C7.45229 9.78559 7.50205 9.45833 7.54861 9.1444C7.57109 8.89858 7.6755 8.60957 7.91314 8.30063L7.90991 8.11622L7.94205 8.07811C7.90191 8.06482 7.92277 7.86715 7.94686 7.7542C8.06407 7.68278 8.13955 7.8339 8.25195 7.47014C8.42376 7.20439 8.43336 6.64966 8.4751 6.28757C8.41248 6.4736 8.38041 6.40045 8.37078 6.30744C8.41253 6.13636 8.52169 6.06497 8.52009 5.92545L8.64054 5.94369C8.51208 5.952 8.63569 5.53509 8.62927 5.46367C8.74167 5.42547 8.60517 5.70788 8.66298 5.76436C8.75451 5.49694 8.79947 5.43377 8.82998 5.36401C8.86691 5.29425 8.89584 5.23444 9.07568 4.93214C9.20895 4.53849 8.94077 4.93547 8.95361 4.71124C9.12222 4.38569 9.17842 4.03857 9.39679 3.71966L9.25229 3.78444C9.42892 3.17819 9.59913 2.84435 9.86247 2.49887C10.418 0.153568 10.2157 -0.170329 9.92029 0.0638692C9.6136 0.294745 9.18324 1.08373 9.18324 1.08373C8.70795 1.86937 8.4928 2.43407 8.19574 3.22636C8.14115 3.38747 8.08492 3.55193 8.02551 3.72301C7.96288 3.89243 7.92918 3.98708 7.81999 4.19969C7.72204 4.39402 7.59841 4.62825 7.4828 4.92059C7.36237 5.21624 7.2869 5.55832 7.23392 5.81079Z" fill="#99A292"/>
</svg>
