<svg width="29" height="20" viewBox="0 0 29 20" fill="none" xmlns="http://www.w3.org/2000/svg">
<path fill-rule="evenodd" clip-rule="evenodd" d="M26.4389 14.896C25.449 15.911 24.0706 16.3258 22.8299 16.9047C22.0989 17.2474 21.5367 17.7901 20.8221 18.1574C20.1665 18.4935 19.4733 18.733 18.7947 19.0085C18.3997 19.1692 17.9966 19.243 17.595 19.3709C17.3098 19.4627 17.0476 19.6087 16.7477 19.6447C16.2363 19.7103 15.6954 19.6841 15.1808 19.7054C14.6858 19.7267 14.1302 19.8267 13.6434 19.7398C13.0304 19.6299 12.4371 19.3447 11.834 19.1872C11.3472 19.0626 10.8555 18.9215 10.3851 18.7379C9.77872 18.5034 9.32639 18.0476 8.72161 17.818C8.10043 17.5819 7.65626 17.2293 7.10229 16.8882C6.41228 16.4635 5.69604 16.0438 5.22893 15.3338C4.86508 14.7828 4.37996 14.3794 4.02921 13.8219C3.64078 13.2021 3.25397 12.5773 2.89012 11.9427C2.32795 10.9687 1.99527 9.77336 1.80679 8.65833C1.71337 8.10737 1.45111 7.62358 1.31672 7.08082C1.25935 6.85125 1.16428 6.62832 1.11675 6.39875C1.0643 6.14787 1.12006 5.86744 1.07908 5.61C0.975828 4.96886 0.834877 4.38185 0.577558 3.78989C0.438246 3.47178 0.333346 3.17169 0.244842 2.8339C0.190756 2.62073 -0.0125053 2.3075 0.000606492 2.10089C0.254647 1.82869 0.646375 2.03044 0.956141 2.05996C1.34458 2.0944 1.74613 2.04027 2.1362 2.02223C2.83604 1.99271 3.53425 1.95829 4.23409 1.93205C4.83559 1.91238 5.37151 1.7221 5.96154 1.70407C6.64991 1.68111 7.25305 1.58769 7.91847 1.42864C9.5722 1.03346 11.1719 0.477585 12.8518 0.185708C14.1236 -0.0356592 15.5168 0.0693094 16.8066 0.00535879C18.2833 -0.0651508 19.5044 0.577538 20.9156 0.910408C22.3054 1.24164 23.4527 2.28946 24.7606 2.86993C25.3113 3.11262 25.7718 3.44058 26.2619 3.80461C26.8306 4.22766 27.0879 4.73602 27.4272 5.34929C28.0336 6.443 28.0205 7.57611 28.0811 8.80265C28.1123 9.43887 27.9582 9.79138 27.7058 10.3587C27.4584 10.913 27.6353 11.5984 27.6435 12.2199C27.6534 12.925 27.4256 13.5185 27.0601 14.1006C26.7437 14.604 26.316 15.8897 25.8488 14.7681L26.4389 14.896Z" fill="#809971"/>
</svg>
