<svg width="33" height="29" viewBox="0 0 33 29" fill="none" xmlns="http://www.w3.org/2000/svg">
<path fill-rule="evenodd" clip-rule="evenodd" d="M2.22187 11.0468C2.19664 11.0858 2.17112 11.1284 2.14731 11.1682C1.62601 12.0489 1.09593 12.9572 0.680453 13.8934C0.38166 14.5637 0.213091 15.252 0.147177 15.9786C0.100497 16.4696 0.0901984 16.9613 0.0844472 17.4517C0.05144 19.5562 -0.0196614 21.6823 0.00559292 23.783C0.0135266 24.4765 0.233021 25.0263 0.240368 25.7079C0.246785 26.3426 0.29681 26.8819 0.0661267 27.4868C0.513083 27.2176 0.990492 27.3041 1.4681 27.3581C2.08045 27.4289 2.73179 27.3765 3.33597 27.4868C4.03198 27.6115 4.67998 27.5551 5.39006 27.5917C6.21498 27.6333 7.08691 27.7416 7.90741 27.8616C9.02643 28.025 10.1683 28.0825 11.2777 28.2748C11.8199 28.3693 12.343 28.2826 12.8828 28.3197C13.1142 28.3365 13.3344 28.4333 13.5687 28.4518C13.9862 28.4834 14.4334 28.3784 14.8463 28.3049C15.5584 28.1768 16.2249 27.844 16.9241 27.66C17.5293 27.5008 18.1462 27.3737 18.7237 27.1382C19.792 26.7021 20.8301 26.2518 21.9104 25.8538C23.1995 25.378 24.7466 24.8519 25.7735 23.8913C26.9144 22.8273 27.956 21.671 28.8069 20.3718C29.1194 19.8949 29.3884 19.4808 29.636 18.967C29.8539 18.5127 30.1965 18.0306 30.5347 17.6559C31.229 16.8863 31.9506 16.1388 32.4417 15.2149C33.4834 13.2581 32.4931 11.1498 31.4859 9.42492C30.9355 8.48243 30.0308 7.94167 29.145 7.34663C29.0212 7.26299 28.9034 7.13073 28.7668 7.06841C28.529 6.95908 28.211 6.99672 27.9596 6.91012C27.3815 6.71116 26.9837 6.33645 26.3418 6.23442C25.1534 6.04499 24.3111 5.6322 23.5473 4.68173C22.9848 3.97895 22.5256 3.18743 21.811 2.61944C21.2185 2.14758 20.4903 1.86674 19.8133 1.53925C18.8686 1.08457 17.8522 0.162504 16.7788 0.103579C16.0687 0.0669403 15.3046 -0.0116272 14.5937 0.00143399C13.6228 0.0230416 12.5231 0.41145 11.6133 0.776334C10.86 1.07656 10.0891 1.72891 9.6462 2.40762C9.39951 2.78108 9.21487 3.05087 8.89732 3.36847C8.38708 3.87573 8.03995 4.51709 7.54249 5.02235C7.18011 5.39226 6.75137 5.69552 6.39186 6.07678C5.78349 6.72218 5.3331 7.49093 4.78166 8.18964C3.97153 9.21413 2.92527 9.92961 2.22187 11.0468Z" fill="#809971"/>
</svg>
