<svg width="26" height="91" viewBox="0 0 26 91" fill="none" xmlns="http://www.w3.org/2000/svg">
<mask id="mask0_2038_389" style="mask-type:alpha" maskUnits="userSpaceOnUse" x="0" y="0" width="26" height="91">
<path d="M0 0H25.2861V90.5235H0V0Z" fill="white"/>
</mask>
<g mask="url(#mask0_2038_389)">
<path fill-rule="evenodd" clip-rule="evenodd" d="M5.30075 42.762C5.29909 42.7719 5.29743 42.7802 5.29578 42.7885C5.29081 42.8315 5.28749 42.8795 5.28418 42.9192L5.30075 42.762Z" fill="#99A292"/>
<path fill-rule="evenodd" clip-rule="evenodd" d="M2.87579 68.7305C3.04476 66.979 3.06132 65.5652 3.19385 64.3732C3.33963 63.1282 3.46552 62.0356 3.59308 60.9363C3.65437 60.3784 3.71732 59.8189 3.78193 59.2378C3.82831 58.6617 3.8515 58.069 3.8896 57.43C3.96084 56.1602 4.03869 54.7215 4.13643 52.9501C4.39154 49.5861 4.72451 46.0102 5.29602 42.7886C5.35069 42.0089 5.5677 40.9559 5.82281 39.8799C6.0862 38.8303 6.40592 37.6433 6.51028 36.6963L6.73557 35.9861C6.80515 35.3322 6.88632 34.569 7.02381 33.9266L7.04535 33.9713C7.10664 32.9962 7.26899 31.9168 7.28555 31.4367L7.30874 31.4814L7.41973 30.3176L7.43795 30.5196C7.53569 28.8409 7.71957 27.1473 7.96474 25.654L7.83553 25.7633C8.40373 22.5731 8.38385 21.3629 8.88248 18.4443L8.90401 18.4873C8.97027 16.6033 9.10942 15.1382 9.27674 13.6681C9.43742 12.1914 9.5948 10.7047 9.58817 8.78765C9.58983 9.2661 9.6594 8.58899 9.68425 8.62872C9.77536 6.86891 9.89795 4.99652 9.67928 4.95182C9.78033 3.67542 9.83003 3.91713 9.92776 3.75819C9.82837 3.75819 9.87807 2.64569 9.95758 1.64742L9.95593 2.1093L10.1829 -0.744804L9.94599 -0.203445C10.1448 -1.70996 10.2028 -0.566002 10.3088 -2.01624L10.1547 -2.01292C10.4098 -4.09887 10.7859 -5.2925 11.1818 -7.28077C11.263 -7.8006 11.3458 -8.32208 11.427 -8.84689C11.5147 -9.39486 11.5794 -9.94449 11.6291 -10.4925C11.7284 -11.5868 11.7715 -12.6744 11.8361 -13.7456C11.8676 -14.2803 11.9057 -14.81 11.9571 -15.3398L12.1028 -16.9639C12.1989 -18.0466 12.295 -19.1293 12.3911 -20.207C12.56 -22.3542 12.84 -24.4534 13.0785 -26.5592C13.1945 -27.6105 13.2889 -28.6568 13.3469 -29.6948C13.4032 -30.7493 13.3966 -31.741 13.4695 -32.7062L13.597 -33.0455C13.7644 -33.1846 13.4529 -35.2126 13.6269 -35.5073L13.602 -36.4294C13.6467 -36.6843 13.7047 -37.229 13.7196 -36.7688C13.7677 -37.623 13.7428 -37.6446 13.7147 -38.2621L13.8422 -39.1825C13.8621 -39.6047 13.8654 -40.0351 13.8687 -40.4324C13.8687 -40.8248 13.877 -41.2122 13.8903 -41.5963C13.9168 -42.3644 13.9648 -43.121 14.0377 -43.8842C14.1835 -45.4106 14.4386 -46.9585 14.8328 -48.662C15.3944 -50.695 16.0869 -53.6484 16.7379 -56.6515C17.1321 -58.1878 17.3624 -59.7871 17.5496 -61.2207C17.7318 -62.6726 17.9521 -63.9474 18.1874 -65.0847C18.7589 -68.2616 19.6004 -71.6621 20.1371 -75.1734C20.6474 -78.5672 21.6612 -81.9875 21.802 -85.3912C21.8434 -85.6015 21.8434 -86.1528 21.8235 -86.1511C21.9279 -87.1395 22.0538 -88.1195 22.2509 -89.0632C22.3437 -89.5019 22.4977 -90.0532 22.564 -90.5929C22.6369 -91.1292 22.6667 -91.6458 22.7048 -92.1391C22.7048 -92.1391 22.728 -92.5861 22.8241 -93.3029C22.9235 -94.0496 23.0676 -95.0876 23.2564 -96.2613C23.442 -97.4368 23.6739 -98.7446 23.929 -100.036C23.9903 -100.344 24.0648 -100.708 24.1063 -101.052C24.1493 -101.395 24.1775 -101.73 24.199 -102.051C24.2438 -102.685 24.2802 -103.277 24.3713 -103.777C24.5568 -104.782 24.976 -105.653 25.1466 -106.29C25.3271 -106.928 25.3255 -107.246 25.1814 -107.088C25.0422 -106.916 24.6927 -106.33 24.0466 -105.16C23.7269 -104.574 23.4238 -103.733 23.2664 -102.719C23.1769 -102.216 23.1007 -101.673 22.9732 -101.117C22.844 -100.586 22.6402 -99.9349 22.4679 -99.2644L22.463 -99.4184C22.0902 -97.7943 21.8401 -96.46 21.6612 -95.2449C21.5717 -94.6373 21.5022 -94.0595 21.4491 -93.4917C21.3878 -92.9089 21.3812 -92.3179 21.3878 -91.7567C21.2586 -91.5829 21.2222 -90.924 21.1062 -90.2667C21.035 -89.9108 20.9621 -89.5383 20.8975 -89.2105C20.8346 -88.8695 20.7832 -88.5731 20.7352 -88.3811L20.7285 -88.4589C20.6474 -87.4242 20.5082 -86.3796 20.3773 -85.3548C20.2481 -84.3549 20.0659 -83.3698 19.9847 -82.4096C19.9781 -82.4858 19.9234 -82.5371 19.9914 -82.9725C19.8042 -81.5918 19.4828 -79.6814 19.337 -79.6002C19.1896 -78.7659 19.0223 -77.8437 18.8748 -76.8869C18.802 -76.4101 18.7357 -75.9233 18.6761 -75.4383C18.6164 -74.9681 18.5568 -74.4996 18.4972 -74.041C18.2454 -72.2051 17.9571 -70.5197 17.8494 -69.4404L17.8412 -69.5943C17.7384 -68.361 17.5446 -68.0315 17.3243 -66.669C17.2912 -66.5995 17.263 -66.5068 17.258 -66.5233C17.1852 -65.8479 16.9764 -64.8993 16.7694 -63.9589C16.5706 -63.012 16.4165 -62.1015 16.3602 -61.5584L16.2641 -61.5022C16.1316 -60.6165 16.0057 -59.7407 15.8433 -58.8782L16.0388 -59.845C16.1266 -59.6579 16.009 -59.1646 15.8202 -58.4991C15.7224 -58.1646 15.6114 -57.7872 15.4922 -57.3832C15.3828 -56.9627 15.2834 -56.5009 15.2105 -56.0158C14.7715 -54.2427 14.8627 -52.2909 14.3276 -50.4798C14.2365 -49.5758 14.3259 -51.2943 14.1106 -49.9632C13.9797 -49.9483 14.1752 -50.594 13.9996 -50.2778C13.766 -48.9732 13.39 -48.1852 13.1697 -46.5512L13.0603 -46.5032C12.8433 -44.3659 12.3662 -42.4737 12.5087 -41.0152C12.5749 -38.7984 12.2337 -39.56 12.3331 -37.282L12.1558 -36.4062C12.0813 -35.4328 12.2768 -35.6993 12.1542 -34.6183C12.073 -34.6911 12.02 -33.2442 11.972 -33.8882C11.909 -33.2723 11.8825 -32.6449 11.8775 -32.0009C11.8858 -31.3735 11.8924 -30.7295 11.9007 -30.059C11.9007 -28.7511 11.7931 -27.3373 11.4916 -25.7596C11.5711 -25.0494 11.2696 -23.4452 11.3292 -22.9055C11.2364 -22.8277 10.9697 -19.6408 11.0062 -21.4867C11.0095 -21.6457 11.041 -21.9254 11.0675 -21.9023L10.9962 -22.1324C10.6219 -20.2931 10.7511 -18.7916 10.5357 -16.9771C10.6235 -17.5102 10.6881 -18.2254 10.703 -17.742L10.5192 -16.06L10.4744 -16.4192C10.3734 -15.5981 10.2607 -14.7273 10.1895 -13.8796L10.3154 -14.224C10.1713 -12.9807 9.99237 -12.5552 10.0272 -11.1778C10.057 -10.5537 10.2508 -12.3152 10.1812 -11.0338C10.0851 -10.211 9.91286 -9.27567 9.69916 -8.1764C9.49706 -7.10032 9.31152 -5.96133 9.16575 -4.91007C9.3049 -5.09218 9.22207 -4.52599 9.18066 -3.9416L9.07629 -3.88696C8.95868 -1.63547 8.76817 -3.08901 8.64559 -0.859032L8.59755 -1.06101L8.74332 -0.45343C8.74995 1.56464 8.43686 0.607758 8.51306 2.85594C8.56939 1.97521 8.75989 2.45861 8.62902 3.53801L8.55779 3.25658C8.52963 3.85587 8.55448 4.05949 8.50312 4.45682C8.48159 4.09592 8.38054 4.25651 8.33084 5.13889L8.25795 4.5396L8.30599 6.21664C8.11052 7.49469 8.09561 9.53925 7.92664 10.0558C7.92664 10.0558 7.66822 12.8089 7.7643 13.4512C7.71626 12.89 7.57048 14.4065 7.49593 13.9678C7.54563 14.6912 7.4744 16.797 7.26899 17.6115L7.27396 17.4526C6.83497 20.5153 6.71901 22.7403 6.20547 25.5216C6.33303 25.4107 6.07626 26.8841 6.26842 26.5364C6.0481 29.4683 5.40701 31.791 5.70685 32.8737C5.56604 34.1816 5.39707 34.4018 5.27283 35.0656L5.29602 34.7527C4.94815 37.1913 4.73445 37.7989 4.27889 39.6315C4.11986 40.5503 4.27558 40.7341 3.91445 42.3549C3.92936 41.8102 3.82334 42.4807 3.71235 43.0916C3.77033 42.6992 3.76205 42.5734 3.56326 43.3664C3.56989 43.4856 3.55663 43.6627 3.54338 43.8299C3.53676 43.8349 3.52516 43.8663 3.52019 43.8465C3.38435 44.8762 3.43902 44.7024 3.52516 44.2289C3.5351 44.2537 3.55663 44.2173 3.60302 44.0733C3.31478 45.1179 3.18888 47.0399 3.03316 47.1509C2.70185 50.25 2.69025 52.475 2.5892 55.0543C2.49809 55.3391 2.47159 54.7331 2.48815 53.9815L2.40864 55.8125C2.30262 55.791 2.40533 54.758 2.42023 54.1934C2.26783 55.2778 2.24961 56.4035 2.23801 57.574C2.22642 58.1584 2.24464 58.761 2.19494 59.3619C2.1469 59.9646 2.0823 60.5788 1.98622 61.2045L2.021 61.7327L1.99284 61.8816C2.03757 61.8767 2.0442 62.4495 2.02432 62.8236C1.89842 63.1796 1.82387 62.7574 1.70129 64.0421C1.50747 65.0635 1.61183 66.9177 1.55717 68.1925C1.62343 67.5021 1.65656 67.7272 1.66816 68.0286C1.62343 68.6543 1.49919 69.0086 1.49753 69.497L1.36832 69.5483C1.5025 69.3066 1.35672 71.2105 1.40476 71.4522C1.29046 71.8098 1.38654 70.4589 1.33519 70.2966C1.24408 71.5697 1.24408 71.8992 1.23248 72.2187C1.2242 72.5349 1.21757 72.8759 1.22751 74.1358C1.32028 75.4883 1.34347 73.8907 1.4528 74.5347C1.46109 75.7201 1.59858 76.912 1.45446 78.2381L1.58698 77.8176C1.5787 78.9268 1.45446 79.8175 1.37826 80.6187C1.29212 81.4217 1.25236 82.1468 1.21757 82.9034C1.25899 83.4431 1.29709 83.9463 1.30371 84.4215C1.312 84.8933 1.27058 85.3386 1.27058 85.7657C1.25899 86.6051 1.24739 87.3335 1.23911 87.9643C1.25899 88.6016 1.14965 89.1447 1.11155 89.5602C1.06517 89.984 1.08173 90.2969 1.1364 90.5055L0.402544 90.5237C0.256767 89.3433 0.117616 89.6562 0 90.5137L1.53894 90.4757C1.56214 90.2654 1.64331 89.9343 1.77086 89.5089C1.8305 89.2986 1.90007 89.0652 1.95971 88.8086C2.021 88.5685 2.05579 88.2126 2.08064 88.0371C2.18169 87.1895 2.26286 86.514 2.26286 86.514C2.30924 86.1167 2.35397 85.731 2.3987 85.3568C2.46662 84.9214 2.49975 84.4993 2.513 84.1036C2.53785 83.3106 2.50472 82.612 2.51631 81.9796C2.52791 80.7379 2.74823 79.488 2.79793 78.0659C2.81284 77.7216 2.80456 77.3326 2.79462 76.9998C2.78633 76.6637 2.77805 76.3227 2.76811 75.975C2.74989 75.2797 2.73001 74.5579 2.71013 73.7997C2.64056 72.2932 2.71842 70.7039 2.87579 68.7305Z" fill="#99A292"/>
<path fill-rule="evenodd" clip-rule="evenodd" d="M18.6094 48.9238C18.6127 48.9619 18.616 49.0066 18.6193 49.043C18.616 48.9569 18.6127 48.9321 18.6094 48.9238Z" fill="#99A292"/>
<path fill-rule="evenodd" clip-rule="evenodd" d="M22.4873 -84.7805C22.4757 -83.0952 22.4525 -81.7128 22.426 -80.4811C22.4111 -79.8735 22.3962 -79.3024 22.383 -78.7495C22.3614 -78.2329 22.3101 -77.7247 22.2455 -77.1999C22.1775 -76.6585 22.1113 -76.1155 22.0417 -75.5493C21.9754 -74.9683 21.9423 -74.316 21.9522 -73.7018C21.9539 -73.0677 21.9572 -72.3939 21.9589 -71.6572C21.9638 -71.2897 21.9672 -70.9056 21.9721 -70.5033C21.9721 -70.1275 21.9605 -69.7319 21.9373 -69.3097C21.8644 -68.4836 21.7899 -67.6443 21.7154 -66.7999C21.6574 -65.9474 21.5994 -65.0898 21.5431 -64.2356C21.4039 -62.5536 21.1985 -60.8765 20.9649 -59.2756C20.9318 -58.4942 20.7529 -57.4662 20.5707 -56.3454C20.3934 -55.2362 20.246 -54.0873 20.2162 -53.1569L20.0489 -52.45C20.034 -51.8076 20.0058 -51.056 19.9114 -50.417L19.8882 -50.4584C19.8931 -49.4982 19.8103 -48.4188 19.8385 -47.9387L19.812 -47.9784C19.8087 -47.5877 19.8037 -47.2434 19.7822 -46.8676L19.754 -47.0596C19.7424 -45.4786 19.4939 -43.7502 19.4856 -42.1791L19.5983 -42.305C19.4624 -39.2307 19.2868 -37.9973 19.2156 -35.0853L19.1874 -35.1267C19.3299 -33.2857 19.3349 -31.8206 19.2073 -30.425C19.0897 -29.0062 18.8445 -27.5477 18.9307 -25.6124C18.8992 -26.0875 18.8694 -25.4104 18.8445 -25.4502C18.8843 -23.7069 18.9091 -21.8461 19.1328 -21.8196C19.1361 -20.5499 19.0632 -20.7965 18.9787 -20.631C19.0798 -20.6393 19.1079 -19.5582 19.0516 -18.5881L19.0384 -19.0351C19.0052 -18.108 18.939 -17.1776 18.8644 -16.2439L19.098 -16.7769C18.9075 -15.2936 18.8396 -16.421 18.7485 -14.9906L18.9042 -14.9939C18.6723 -12.9328 18.3525 -11.7309 18.114 -9.72776C17.9748 -7.63684 17.9086 -5.49957 17.9252 -3.35072C17.9517 -1.21841 17.9798 0.925468 18.0096 3.05115C18.0643 7.29755 18.0925 11.4777 17.9616 15.35L17.8456 15.691C17.6783 15.8367 18.0974 17.825 17.9434 18.118L18.0212 19.0186C17.9914 19.2719 17.9599 19.8033 17.9218 19.3547C17.9152 20.1857 17.9301 20.1907 17.9566 20.7867L17.8009 21.6608C17.7264 22.4703 17.6584 23.2617 17.617 24.0497C17.5673 24.8295 17.5706 25.6539 17.564 26.3856C17.5441 27.8954 17.4066 29.4516 17.3172 31.2181C17.1664 33.3586 17.1979 36.3088 17.2244 39.3615C17.2609 42.4027 17.3387 45.4886 17.3951 47.7434C17.5209 50.9121 17.4166 54.3406 17.3172 57.7874C17.2609 59.5174 17.236 61.2359 17.1565 62.9162C17.0836 64.6015 16.9991 66.2769 17.0058 67.9109C16.9743 68.1211 17.0074 68.6741 17.0273 68.6691C16.9478 70.6723 16.9743 72.6622 16.9577 74.6356C16.9577 74.6356 16.9577 75.0842 16.9577 75.8309C16.9594 76.2017 16.9594 76.6487 16.961 77.1487C16.966 77.6403 16.9527 78.1784 16.9378 78.7694C16.9146 79.9448 16.8583 81.309 17.0969 82.6946C17.3122 83.9247 17.3884 85.1845 17.4414 86.2871C17.5259 88.4955 17.6237 90.0666 17.8224 89.6842C17.9152 89.4955 18.0312 88.8266 18.172 87.5204C18.2399 86.8665 18.3144 86.052 18.3492 85.0471C18.3658 84.5455 18.3708 83.9942 18.3476 83.3932C18.3343 83.0919 18.3111 82.7757 18.283 82.4529C18.2581 82.1549 18.2482 81.842 18.2482 81.5142L18.2946 81.6517C18.2382 80.1054 18.3857 78.7859 18.384 77.5609C18.379 76.3474 18.336 75.2862 18.2449 74.1621C18.4718 73.8095 18.2664 71.4835 18.3426 70.7352L18.3608 70.8064C18.1968 68.838 18.6308 66.7603 18.5613 64.8399C18.5762 64.9144 18.6358 64.9574 18.6192 65.3995C18.664 64.0039 18.6706 62.0851 18.7998 61.9808C18.7982 58.6201 18.8346 54.0013 18.6325 51.8623L18.6689 52.008C18.5265 50.7945 18.6474 50.4353 18.5762 49.0778C18.5944 49.0049 18.6027 48.9072 18.6093 48.9238C18.4702 47.5994 18.5878 45.0615 18.5281 43.9904L18.6159 43.9208L18.5961 41.2852L18.5762 42.2703C18.336 41.9292 18.7269 40.2787 18.5712 38.3666C18.601 36.5786 18.0709 34.7393 18.1869 32.8802C18.0759 31.9962 18.3708 33.66 18.2846 32.3372C18.4072 32.2925 18.3625 32.9547 18.4602 32.6137C18.3973 31.3257 18.6342 30.5244 18.6706 28.9219L18.7717 28.8639C18.7617 27.8143 18.8677 26.8227 18.9191 25.9055C18.9671 25.0132 19.05 24.2268 19.0152 23.5266C19.0798 21.3694 19.4376 22.1111 19.3316 19.8149L19.4624 18.9408C19.484 17.9773 19.3001 18.2471 19.363 17.181C19.4459 17.2472 19.4276 15.8317 19.5072 16.4558C19.6314 14.0355 19.3216 11.5555 19.5386 8.3786C19.378 7.68825 19.474 6.08736 19.3531 5.5725C19.4243 5.48642 19.3647 2.36909 19.5171 4.16367C19.5287 4.31763 19.527 4.58912 19.4989 4.57256L19.595 4.78779C19.7755 2.97501 19.4956 1.49331 19.5237 -0.299614C19.4923 0.233459 19.5005 0.938721 19.4343 0.466896L19.4475 -1.19855L19.5287 -0.852554L19.5767 -3.33086L19.4757 -2.99147C19.532 -4.19669 19.706 -4.61553 19.5999 -5.97636C19.5386 -6.59387 19.4343 -4.83903 19.4376 -6.11212C19.5502 -7.72293 19.7805 -10.1301 19.971 -12.1829C19.8451 -11.9991 19.8898 -12.5537 19.9147 -13.1216L20.0174 -13.1778C20.0803 -15.3681 20.304 -13.9493 20.4017 -16.1379L20.4514 -15.9392L20.3007 -16.5352C20.2642 -18.5334 20.6121 -17.5915 20.4481 -19.833C20.4299 -18.9506 20.2294 -19.4258 20.2891 -20.5068L20.3785 -20.2303C20.3686 -20.8329 20.3255 -21.0333 20.3437 -21.4207C20.3951 -21.073 20.4812 -21.2369 20.4613 -22.0994L20.5823 -21.5216L20.4017 -23.1507C20.4497 -23.7798 20.4398 -24.591 20.4332 -25.3128C20.4249 -26.0313 20.4812 -26.6388 20.5591 -26.8921C20.5591 -26.8921 20.6154 -27.5643 20.68 -28.3142C20.7396 -29.0691 20.7811 -29.9184 20.7231 -30.2412C20.7844 -29.6767 20.8937 -31.2114 20.9782 -30.7693C20.9186 -31.5325 20.7993 -33.5854 20.9103 -34.4098L20.9235 -34.2525C20.9484 -35.0157 20.95 -35.7243 20.9401 -36.3997C20.955 -37.0586 20.9865 -37.691 21.0229 -38.3251C21.0941 -39.5899 21.1902 -40.863 21.2466 -42.2983C21.1207 -42.1758 21.2217 -43.5714 21.071 -43.2337C21.0693 -44.621 21.3178 -45.9189 21.4039 -47.0265C21.4503 -47.5927 21.4586 -48.0711 21.4503 -48.4701C21.4387 -48.8757 21.399 -49.2151 21.2996 -49.4766C21.3493 -50.7646 21.5017 -50.9931 21.5795 -51.6537L21.5779 -51.3474C21.7568 -53.7528 21.8545 -54.4515 22.1278 -56.2212C22.2239 -57.1086 22.0566 -57.289 22.3581 -58.8849C22.3581 -58.3519 22.4476 -59.0124 22.537 -59.6134C22.4923 -59.226 22.5055 -59.1018 22.6762 -59.8865C22.6679 -60.0008 22.6778 -60.1762 22.6878 -60.3385C22.6944 -60.3451 22.7043 -60.3766 22.711 -60.3583C22.8219 -61.3715 22.7706 -61.1993 22.696 -60.7341C22.6878 -60.7573 22.6662 -60.7209 22.6232 -60.5802C22.8816 -61.6099 22.9743 -63.5038 23.1218 -63.6181C23.188 -64.3846 23.2261 -65.0997 23.246 -65.7768C23.2642 -66.4324 23.3023 -67.0632 23.3371 -67.6823C23.415 -68.9107 23.4514 -70.154 23.3885 -71.4023C23.4581 -71.6837 23.5293 -71.0977 23.5558 -70.3577L23.5227 -72.1539C23.6287 -72.1357 23.5889 -71.1241 23.6121 -70.5712C23.6916 -71.6357 23.6436 -72.7366 23.5939 -73.8806C23.5227 -75.013 23.6585 -76.1503 23.8507 -77.4267L23.8076 -77.9664L23.8308 -78.1187C23.7877 -78.1121 23.7562 -78.6981 23.7347 -79.0772C23.8258 -79.4315 23.9451 -79.0541 23.9401 -80.294C24.0296 -81.2741 23.897 -83.0786 23.8457 -84.3666C23.8324 -83.6729 23.7811 -83.8964 23.748 -84.1944C23.7446 -84.8153 23.8358 -85.1728 23.796 -85.6529L23.9186 -85.7125C23.8623 -85.5867 23.8275 -86.0056 23.8076 -86.4526C23.7877 -86.8962 23.8192 -87.4061 23.8043 -87.5204C23.9186 -87.8531 23.8059 -86.58 23.8921 -86.4377C23.9219 -87.6214 23.9964 -87.9342 24.0196 -88.2389C24.0461 -88.5484 24.1107 -88.8415 24.2052 -90.1245C24.1737 -91.4936 24.0809 -89.8878 24.0014 -90.5417C24.0163 -91.7154 23.96 -92.8627 24.0859 -94.202L23.9617 -93.7799C23.9583 -95.9833 24.061 -97.2995 24.3244 -98.7563C24.6707 -102.855 24.4404 -105.137 24.3046 -106.219C24.1505 -107.309 24.0246 -107.229 23.9285 -106.637C23.8324 -106.049 23.7546 -104.956 23.6684 -104.021C23.5757 -103.084 23.4978 -102.299 23.4978 -102.299C23.4034 -101.514 23.299 -100.783 23.193 -100.082C23.082 -99.354 22.9975 -98.6454 22.9362 -97.965C22.812 -96.6009 22.7689 -95.3195 22.7474 -94.0083C22.7424 -93.3577 22.7375 -92.6938 22.7325 -92.0052C22.7242 -91.3264 22.7391 -90.5963 22.7027 -89.9142C22.6662 -89.209 22.5652 -88.4342 22.5039 -87.5551C22.4724 -87.1181 22.4558 -86.6462 22.4674 -86.1711C22.4741 -85.7225 22.4807 -85.2606 22.4873 -84.7805Z" fill="#99A292"/>
</g>
</svg>
