<svg width="36" height="91" viewBox="0 0 36 91" fill="none" xmlns="http://www.w3.org/2000/svg">
<mask id="mask0_2038_383" style="mask-type:alpha" maskUnits="userSpaceOnUse" x="0" y="0" width="36" height="91">
<path d="M0 0H35.6812V90.785H0V0Z" fill="white"/>
</mask>
<g mask="url(#mask0_2038_383)">
<path fill-rule="evenodd" clip-rule="evenodd" d="M28.1396 49.5728C28.1595 49.6125 28.1794 49.6539 28.196 49.6903C28.1595 49.6059 28.1463 49.581 28.1396 49.5728Z" fill="#99A292"/>
<path fill-rule="evenodd" clip-rule="evenodd" d="M6.16563 -85.6663C6.50688 -83.9644 6.7653 -82.5854 6.95084 -81.357C7.13969 -80.1286 7.23742 -79.0641 7.35504 -77.9483C7.58696 -75.7365 7.84207 -73.4966 8.33738 -69.9389C8.7714 -66.5401 9.23192 -62.9162 9.65435 -59.5919C10.0039 -58.0308 10.1695 -55.223 10.5257 -53.3705L10.5174 -52.6371C10.6417 -51.9981 10.7609 -51.2448 10.7858 -50.5942L10.7543 -50.6306C10.9233 -49.6771 10.9812 -48.5894 11.0575 -48.1126L11.0276 -48.1507L11.1436 -46.9835L11.0873 -47.1805C11.3076 -45.5068 11.455 -43.7702 11.5528 -42.2372L11.6555 -42.3746C11.8162 -39.0867 12.1558 -37.9097 12.3512 -34.9364L12.3198 -34.9728C12.6974 -33.0607 13.0635 -31.6121 13.2822 -30.1668C13.5025 -28.7596 13.597 -27.225 14.0111 -25.3377C13.9117 -25.8112 13.9813 -25.1258 13.9481 -25.1606C14.0823 -24.2815 14.2165 -23.3726 14.3457 -22.6839C14.4617 -21.9936 14.566 -21.525 14.6803 -21.525C14.8129 -20.2404 14.7201 -20.4688 14.6522 -20.2917C14.7499 -20.3116 14.9073 -19.2007 15.0183 -18.1975L14.9321 -18.656L15.2684 -15.7821L15.391 -16.3681C15.4987 -14.8368 15.2088 -15.9559 15.4059 -14.5007L15.5567 -14.5355C15.7505 -12.4214 15.6478 -11.1632 15.7372 -9.09876C16.1365 -4.8325 16.7444 -0.432144 17.3507 3.88875C17.6489 6.04919 17.9421 8.19142 18.2304 10.2857C18.3645 11.3402 18.4971 12.3815 18.6279 13.4096C18.782 14.4575 18.9907 15.4707 19.2028 16.4524L19.1779 16.8249C19.052 17.0236 19.9813 18.891 19.9051 19.2188L20.205 20.0863C20.2398 20.3412 20.3325 20.8793 20.1901 20.4455C20.3806 21.27 20.4104 21.2832 20.5959 21.8693L20.687 22.7815C21.3082 26.071 21.9444 28.8522 22.4794 32.3735C22.7229 34.4975 23.2299 37.547 23.9389 40.6114C24.6611 43.6823 25.5474 46.7401 26.5546 48.9237C26.9058 49.6604 27.2304 50.3822 27.4392 51.1487C27.6562 51.9251 27.7937 52.7695 28.014 53.6436C28.4994 55.4067 29.2266 56.9844 29.4867 58.6316C29.7683 60.3136 29.8578 62.1082 30.2255 63.8829C30.5634 65.5815 30.8848 67.2635 31.241 68.8842C31.2542 69.1011 31.4017 69.6441 31.4199 69.6358L32.3989 75.6503C32.3989 75.6503 32.4768 76.1072 32.606 76.8622C32.7352 77.6104 32.9224 78.6849 33.1924 79.8752C33.4691 81.0522 33.7788 82.3684 34.0853 83.6713C34.4 84.9626 34.5905 86.2274 34.8307 87.33C34.9467 87.7819 34.8241 88.2719 34.8688 88.8431C34.9202 89.4407 35.1206 89.8281 35.2283 90.1096C35.3294 90.3546 35.4056 90.5433 35.4619 90.6807C35.5133 90.7916 35.5563 90.8264 35.5961 90.7238C35.6358 90.631 35.6706 90.4175 35.6226 90.0533C35.5895 89.6924 35.4139 89.1792 35.5331 88.5435C35.5795 88.2173 35.6905 87.8548 35.6806 87.3829C35.6425 86.9591 35.6027 86.4939 35.558 85.984C35.5083 85.4725 35.4636 84.9079 35.389 84.302C35.3095 83.6978 35.2118 83.0471 35.0991 82.3518L35.167 82.4909C34.8357 80.8619 34.564 79.5375 34.3205 78.3389C34.0886 77.1552 33.8699 76.0675 33.5867 74.955C33.749 74.5593 33.1626 72.2499 33.1063 71.4652L33.1361 71.5363C32.6308 69.5564 32.5828 67.3678 32.0527 65.4623C32.0858 65.5335 32.1537 65.5632 32.2432 66.0069C31.9516 64.5915 31.4878 62.6943 31.6203 62.5867C31.299 60.9576 31.1913 58.8932 30.5784 56.948C30.2802 56.0027 29.9273 55.1584 29.6374 54.4217C29.4917 54.0475 29.3591 53.7181 29.2581 53.4151C29.1554 53.1006 29.0626 52.8141 28.9781 52.5575L29.046 52.6933C28.6269 51.5344 28.7296 51.0957 28.1681 49.7399C28.1565 49.6587 28.1283 49.5627 28.1399 49.5726C27.8285 48.9402 27.3928 48.0463 27.0913 47.1837C26.7931 46.2947 26.5397 45.409 26.3591 44.8958L26.4237 44.8031C26.1736 43.9489 25.9334 43.088 25.7197 42.2205L25.945 43.1973C25.6219 42.9208 25.5855 41.1991 25.0405 39.325C24.6992 37.5354 23.8395 35.7789 23.6357 33.88C23.374 33.0043 23.9488 34.6366 23.6374 33.3139C23.7533 33.2476 23.8212 33.9247 23.861 33.5622C23.5794 32.2593 23.6274 31.3868 23.2796 29.776L23.3657 29.6965C22.8472 27.604 22.8141 25.667 22.3701 24.2896C21.8483 22.1275 22.3668 22.7649 21.6661 20.5432L21.5799 19.631C21.3546 18.6592 21.247 18.9804 21.0299 17.9043C21.126 17.9457 20.7417 16.5551 20.9802 17.1511C20.7301 15.9442 20.3773 14.7605 20.1155 13.4775C19.8753 12.211 19.6832 10.7227 19.5722 9.10858C19.3204 8.42816 19.2028 6.78921 19.0139 6.28096C19.0719 6.18329 18.6064 3.01961 18.9924 4.82577C19.0255 4.98139 19.0586 5.25951 19.0288 5.24461L19.1514 5.4499C19.0934 3.58413 18.6246 2.11403 18.4291 0.287994C18.4623 0.831009 18.5617 1.55116 18.4358 1.07769L18.2403 -0.619217L18.3645 -0.276527L18.1094 -2.80616L18.0514 -2.44691C17.957 -3.69019 18.0746 -4.14216 17.7781 -5.51955C17.629 -6.14201 17.7765 -4.3342 17.5992 -5.63543C17.4783 -7.29591 17.3275 -9.78249 17.1519 -11.8982C17.0608 -11.6913 17.0045 -12.2608 16.92 -12.8468L17.0095 -12.9247C16.6384 -15.1596 17.137 -13.7706 16.7941 -15.9956L16.8836 -15.8052L16.6185 -16.3731C16.2143 -18.3663 16.7047 -17.4856 16.2077 -19.694C16.317 -18.8083 16.0371 -19.2487 15.9658 -20.343L16.0884 -20.0798C16.0039 -20.6791 15.9443 -20.8761 15.9228 -21.28C16.0089 -20.9274 16.0768 -21.1079 15.9675 -21.9919L16.1464 -21.4141C16.0271 -21.9654 15.9228 -22.5184 15.7902 -23.0663C15.7174 -24.3659 15.3181 -26.3856 15.3794 -26.932C15.3794 -26.932 15.2933 -27.6256 15.1972 -28.3954C15.1028 -29.1503 14.9338 -30.0642 14.7963 -30.3589C14.9968 -29.8126 14.7251 -31.3654 14.9156 -30.9466C14.6638 -31.6601 14.1072 -33.6997 14.1171 -34.5208L14.1519 -34.3702C13.8604 -37.4362 13.4114 -39.6811 13.2988 -42.5037C13.1961 -42.3647 13.1298 -43.8629 13.0172 -43.4821C12.6328 -46.3925 12.8548 -48.8493 12.3065 -49.8641C12.1591 -51.1968 12.2336 -51.4501 12.1839 -52.1388L12.2452 -51.8259C11.9172 -54.3092 11.8278 -55.0293 11.6207 -56.8785C11.4699 -57.7957 11.2463 -57.9182 11.1022 -59.5754C11.248 -59.0506 11.1535 -59.7244 11.0806 -60.3419C11.1403 -59.9495 11.185 -59.8303 11.1436 -60.6482C11.1055 -60.7591 11.069 -60.9346 11.0359 -61.0968C11.0425 -61.1051 11.0442 -61.1382 11.0541 -61.1216C10.905 -62.1497 10.9001 -61.9692 10.9448 -61.4892C10.9282 -61.5107 10.9183 -61.4693 10.9133 -61.3186C10.8935 -62.3997 10.5555 -64.3019 10.6814 -64.4476C10.2772 -67.545 9.83325 -69.7402 9.45556 -72.3129C9.49035 -72.6092 9.63281 -72.0149 9.75539 -71.2699L9.49532 -73.096C9.60299 -73.0927 9.68913 -72.0513 9.7819 -71.4918C9.67257 -73.6903 9.04307 -75.9617 8.87079 -78.5327L8.7217 -79.0525L8.71508 -79.2081C8.67532 -79.1916 8.53782 -79.7627 8.47156 -80.1418C8.50304 -80.5176 8.69188 -80.1485 8.47653 -81.4199C8.40033 -82.4413 7.9017 -84.2475 7.58364 -85.5256C7.71286 -84.8253 7.61678 -85.0405 7.52235 -85.3335C7.39148 -85.956 7.40474 -86.3318 7.2689 -86.8069L7.37823 -86.8897C7.31031 -86.6215 6.9293 -88.4889 6.84482 -88.7108C6.86635 -89.0833 7.10159 -87.7605 7.20264 -87.6198C6.71395 -90.1213 6.96906 -88.8366 6.52013 -91.3811C6.16066 -92.7204 6.45553 -91.1129 6.22195 -91.7404C5.95856 -92.9257 5.58418 -94.0448 5.33404 -95.4024L5.33072 -94.9504C4.69626 -97.1191 4.53392 -98.4601 4.27218 -99.9765C3.67582 -102.021 2.87736 -103.471 2.29094 -104.561C1.98116 -105.095 1.68298 -105.527 1.39142 -105.824C1.10318 -106.123 0.818253 -106.263 0.645971 -106.263C0.495224 -106.271 0.364356 -106.17 0.213609 -106.114C0.0843971 -106.051 0.0181347 -106.001 0.00322564 -105.966C-0.0265924 -105.897 0.152316 -105.877 0.457123 -105.892C0.481972 -105.882 0.51179 -105.878 0.531668 -105.864C0.539951 -105.834 0.531668 -105.854 0.556517 -105.819C0.581365 -105.802 0.675789 -105.696 0.770213 -105.584C0.972313 -105.321 1.19264 -104.905 1.37651 -104.499C1.74096 -103.68 2.02257 -102.892 2.02257 -102.892C2.61231 -101.394 2.92374 -100.096 3.20701 -98.7713C3.47041 -97.4784 3.74208 -96.1242 4.10156 -94.8395C4.44281 -93.5416 4.82382 -92.2387 5.122 -90.7851C5.3887 -89.3084 5.73989 -87.5784 6.16563 -85.6663Z" fill="#99A292"/>
</g>
</svg>
